<svg width="14" height="14" viewBox="0 0 14 14" fill="none" xmlns="http://www.w3.org/2000/svg">
<rect width="14" height="14" rx="7" fill="#050505" fill-opacity="0.6"/>
<path d="M4.09039 4.52683C3.96987 4.40631 3.96987 4.21091 4.09039 4.09039C4.21091 3.96987 4.40631 3.96987 4.52683 4.09039L9.90961 9.47317C10.0301 9.59369 10.0301 9.78909 9.90961 9.90961C9.78909 10.0301 9.59369 10.0301 9.47317 9.90961L4.09039 4.52683Z" fill="white"/>
<path d="M9.90961 4.52683C10.0301 4.40631 10.0301 4.21091 9.90961 4.09039C9.78909 3.96987 9.59369 3.96987 9.47317 4.09039L4.09039 9.47317C3.96987 9.59369 3.96987 9.78909 4.09039 9.90961C4.21091 10.0301 4.40631 10.0301 4.52683 9.90961L9.90961 4.52683Z" fill="white"/>
</svg>
