<svg width="22" height="19" viewBox="0 0 22 19" fill="none" xmlns="http://www.w3.org/2000/svg">
<path d="M2.89244 8.31368C2.89244 4.27146 6.52253 1 11.0019 1C15.4813 1 19.1114 4.27146 19.1114 8.31368M18.2708 16.7404C18.2708 16.7404 16.2574 19.3909 11.1055 17.9051M2.99181 16.7193C1.89243 16.7193 1 15.8329 1 14.741V10.3476C1 9.2557 1.89243 8.36933 2.99181 8.36933C4.09118 8.36933 4.98361 9.2557 4.98361 10.3476V14.741C4.98361 15.8329 4.09118 16.7193 2.99181 16.7193ZM19.0084 16.7193C17.909 16.7193 17.0166 15.8329 17.0166 14.741V10.3476C17.0166 9.2557 17.909 8.36933 19.0084 8.36933C20.1078 8.36933 21.0002 9.2557 21.0002 10.3476V14.741C21.0002 15.8329 20.1078 16.7193 19.0084 16.7193Z" stroke="url(#paint0_linear_3530_20094)" stroke-miterlimit="10"/>
<defs>
<linearGradient id="paint0_linear_3530_20094" x1="21.0002" y1="0.999999" x2="3.81569" y2="20.801" gradientUnits="userSpaceOnUse">
<stop stop-color="#FF6A00"/>
<stop offset="1" stop-color="#EE0979"/>
</linearGradient>
</defs>
</svg>
