<svg width="25" height="24" viewBox="0 0 25 24" fill="none" xmlns="http://www.w3.org/2000/svg">
<rect x="0.5" width="24" height="24" rx="12" fill="#675DA9"/>
<path d="M18.377 6.09227C17.98 5.72734 16.3731 4.55891 12.791 4.54291C12.791 4.54291 8.56861 4.28681 6.51025 6.1755C5.36424 7.32152 4.96089 8.99573 4.91927 11.0765C4.87766 13.1541 4.82324 17.0499 8.57821 18.1063H8.58141L8.57821 19.7165C8.57821 19.7165 8.5558 20.3695 8.98476 20.5007C9.50335 20.6608 9.81066 20.1646 10.3068 19.63C10.5789 19.3355 10.9535 18.9066 11.2384 18.5768C13.8057 18.7913 15.7808 18.2983 16.0049 18.2247C16.5235 18.055 19.459 17.6805 19.936 13.7847C20.4289 9.77682 19.6959 7.23829 18.377 6.09227ZM18.8124 13.503C18.409 16.7554 16.0305 16.9602 15.592 17.1011C15.4063 17.1619 13.6713 17.5941 11.4881 17.45C11.4881 17.45 9.86188 19.4123 9.3561 19.9213C9.27607 20.0014 9.18323 20.0334 9.12241 20.0174C9.03598 19.995 9.01037 19.8925 9.01357 19.7421C9.01357 19.5244 9.02637 17.0627 9.02637 17.0627C9.02317 17.0627 9.02317 17.0627 9.02637 17.0627C5.84761 16.1824 6.03328 12.8659 6.06849 11.1309C6.10371 9.39588 6.43023 7.97136 7.40018 7.01421C9.13842 5.43923 12.7269 5.67292 12.7269 5.67292C15.7552 5.68572 17.2054 6.59806 17.5415 6.90217C18.6587 7.86252 19.2285 10.1514 18.8124 13.503Z" fill="white"/>
<path d="M14.2665 11.1898C14.1609 11.1898 14.0713 11.1066 14.0649 10.9977C14.0297 10.3095 13.7063 9.97335 13.0469 9.93813C12.9349 9.93173 12.8484 9.8357 12.8548 9.72365C12.8612 9.61161 12.9573 9.52518 13.0693 9.53158C13.94 9.5796 14.4266 10.079 14.4714 10.9753C14.4778 11.0874 14.3914 11.1834 14.2793 11.1866C14.2729 11.1898 14.2697 11.1898 14.2665 11.1898Z" fill="white"/>
<path d="M15.3038 11.5352H15.3006C15.1886 11.532 15.099 11.4392 15.1022 11.3271C15.1182 10.6357 14.9197 10.0755 14.4971 9.61449C14.0778 9.15353 13.4984 8.90383 12.7333 8.84941C12.6213 8.83981 12.538 8.74378 12.5476 8.63173C12.5572 8.51969 12.6533 8.43646 12.7653 8.44607C13.6296 8.51009 14.3115 8.811 14.7981 9.34239C15.2878 9.87699 15.5247 10.546 15.5087 11.3367C15.5055 11.4488 15.4127 11.5352 15.3038 11.5352Z" fill="white"/>
<path d="M16.367 11.9523C16.2549 11.9523 16.1653 11.8627 16.1653 11.7506C16.1557 10.5118 15.8004 9.56742 15.0769 8.85996C14.363 8.16211 13.4571 7.80678 12.3911 7.79717C12.2791 7.79717 12.1895 7.70434 12.1895 7.5923C12.1895 7.48026 12.2823 7.39062 12.3911 7.39062C13.566 7.40023 14.5647 7.79397 15.3554 8.56866C16.1493 9.34334 16.5559 10.4125 16.5687 11.7442C16.5719 11.8595 16.4822 11.9523 16.367 11.9523C16.3702 11.9523 16.3702 11.9523 16.367 11.9523Z" fill="white"/>
<path d="M13.0953 13.6964C13.0953 13.6964 13.3802 13.722 13.5339 13.5331L13.8316 13.1586C13.9756 12.9729 14.3246 12.8545 14.6639 13.0434C14.8528 13.149 15.1953 13.3603 15.4066 13.5171C15.6339 13.6836 16.0948 14.0677 16.098 14.0709C16.3189 14.2566 16.3701 14.5287 16.2197 14.82C16.2197 14.82 16.2197 14.8232 16.2197 14.8264C16.066 15.0985 15.8579 15.3546 15.5986 15.5915C15.5954 15.5915 15.5954 15.5947 15.5922 15.5947C15.3778 15.774 15.1665 15.8764 14.9616 15.8988C14.936 15.9052 14.9072 15.9052 14.8688 15.9052C14.7791 15.9052 14.6895 15.8924 14.5999 15.8636L14.5935 15.854C14.2734 15.7643 13.742 15.5403 12.8584 15.0505C12.2822 14.7336 11.8053 14.4103 11.3987 14.0869C11.1842 13.9173 10.9665 13.7284 10.7425 13.5043C10.7361 13.4979 10.7265 13.4883 10.7201 13.4819C10.7137 13.4755 10.7041 13.4659 10.6976 13.4595C10.6912 13.4531 10.6816 13.4435 10.6752 13.4371C10.6688 13.4307 10.6592 13.4211 10.6528 13.4147C10.432 13.1906 10.2399 12.9729 10.0702 12.7584C9.7469 12.3551 9.42358 11.8749 9.10667 11.2987C8.61689 10.412 8.3928 9.8806 8.30317 9.56368L8.29357 9.55728C8.26476 9.46764 8.25195 9.37801 8.25195 9.28838C8.25195 9.24997 8.25195 9.22116 8.25836 9.19555C8.28396 8.98747 8.3864 8.77939 8.56247 8.56491C8.56247 8.56171 8.56567 8.56171 8.56567 8.55851C8.80255 8.29602 9.05865 8.09114 9.33075 7.93749C9.33075 7.93749 9.33395 7.93749 9.33715 7.93749C9.62526 7.78703 9.89736 7.83825 10.0862 8.05913C10.0862 8.05913 10.4736 8.5233 10.64 8.75058C10.7969 8.96506 11.0082 9.30439 11.1138 9.49325C11.3027 9.83258 11.1842 10.1815 10.9986 10.3256L10.624 10.6233C10.4352 10.7769 10.4608 11.0618 10.4608 11.0618C10.4608 11.0618 11.0146 13.1682 13.0953 13.6964Z" fill="white"/>
</svg>
