<svg width="24" height="24" viewBox="0 0 24 24" fill="none" xmlns="http://www.w3.org/2000/svg">
<path d="M6.31604 19.5786V1.15286L5.55116 0.640625C2.29904 1.94615 0 5.12249 0 8.84137V15.1574C0 20.041 3.95889 23.9999 8.84245 23.9999H15.1585C18.1409 23.9999 20.769 22.5169 22.3695 20.2538V19.5786H6.31604Z" fill="#2962FF"/>
<path d="M15.1572 0H8.8412C7.67589 0 6.56679 0.231167 5.54801 0.640446C3.44288 2.68432 1.89355 6.01792 1.89355 8.84245C1.89355 13.119 2.48474 15.6227 4.23807 18.0683C4.37449 18.2584 4.46355 18.4807 4.47555 18.7138C4.50271 19.2412 4.39407 20.2075 3.44351 21.0772C3.34119 21.1707 3.40625 21.3419 3.54457 21.3476C4.13954 21.3735 5.34022 21.3387 6.57437 20.7937C6.92617 20.6383 7.32661 20.6654 7.66641 20.8461C9.75892 21.9571 12.2095 22.1061 14.5256 22.1061C17.479 22.1061 20.4242 21.4493 22.3683 20.2644C23.3921 18.8212 23.9997 17.0621 23.9997 15.1585V8.84245C23.9997 3.95889 20.0408 0 15.1572 0Z" fill="white"/>
<path d="M20.0531 13.8933C18.7476 13.8933 17.6846 12.8303 17.6846 11.5248C17.6846 10.2192 18.7476 9.15625 20.0531 9.15625C21.3586 9.15625 22.4216 10.2192 22.4216 11.5248C22.4216 12.8303 21.3586 13.8933 20.0531 13.8933ZM20.0531 10.1037C19.2699 10.1037 18.632 10.7416 18.632 11.5248C18.632 12.308 19.2699 12.9459 20.0531 12.9459C20.8363 12.9459 21.4742 12.308 21.4742 11.5248C21.4742 10.7416 20.8363 10.1037 20.0531 10.1037Z" fill="#2962FF"/>
<path d="M16.7384 13.8954H16.1068C15.9325 13.8954 15.791 13.7539 15.791 13.5796V8.21094H16.7384V13.8954Z" fill="#2962FF"/>
<path d="M13.8951 9.31415V9.64195C13.4978 9.34131 13.009 9.15625 12.474 9.15625C11.1685 9.15625 10.1055 10.2192 10.1055 11.5248C10.1055 12.8303 11.1685 13.8933 12.474 13.8933C13.009 13.8933 13.4978 13.7082 13.8951 13.4076V13.5775C13.8951 13.7518 14.0366 13.8933 14.2109 13.8933H14.8425V9.31415H13.8951ZM12.474 12.9459C11.6908 12.9459 11.0529 12.308 11.0529 11.5248C11.0529 10.7416 11.6908 10.1037 12.474 10.1037C13.2572 10.1037 13.8951 10.7416 13.8951 11.5248C13.8951 12.308 13.2572 12.9459 12.474 12.9459Z" fill="#2962FF"/>
<path d="M10.2632 8.21094H5.21033V9.15834H8.5711L5.05243 13.2638H5.06885C4.9659 13.397 4.89453 13.5562 4.89453 13.7375V13.8954H9.63156C9.80588 13.8954 9.94736 13.7539 9.94736 13.5796V12.948H6.5866L10.1053 8.84254H10.0888C10.1918 8.70927 10.2632 8.55011 10.2632 8.36884V8.21094Z" fill="#2962FF"/>
</svg>
