<svg width="25" height="24" viewBox="0 0 25 24" fill="none" xmlns="http://www.w3.org/2000/svg">
<path d="M12.5003 23.5573C18.8825 23.5573 24.0563 18.3835 24.0563 12.0013C24.0563 5.61911 18.8825 0.445312 12.5003 0.445312C6.11813 0.445312 0.944336 5.61911 0.944336 12.0013C0.944336 18.3835 6.11813 23.5573 12.5003 23.5573Z" fill="#FF0310"/>
<path d="M13.9639 3.62898L13.9879 3.61098C9.55392 3.36498 9.38592 8.02098 9.38592 8.02098C9.36192 10.961 11.7559 12.095 11.7559 12.095C10.6699 10.835 10.7359 10.421 10.6459 9.52098C10.5499 8.62098 11.1079 7.61298 11.1079 7.61298C11.1919 7.51098 11.2219 7.67898 11.2219 7.67898C11.0179 7.99098 10.5559 9.09498 10.8739 10.355C11.1919 11.615 11.9119 12.017 11.9119 12.017C11.5279 11.639 11.4679 11.099 11.4559 10.799C11.4499 10.499 11.5999 9.53298 12.5419 9.02298C13.4839 8.51298 13.4899 8.00898 13.6819 7.26498C13.8679 6.52098 13.4479 5.93298 13.3219 5.66898C13.1959 5.40498 13.1179 5.03898 13.1959 4.57098C13.2619 4.10298 13.9639 3.62898 13.9639 3.62898ZM11.8279 7.33098L11.5519 7.88898L11.4739 7.25898L10.9039 7.14498L11.4259 6.86898L11.3479 6.23898L11.7499 6.70098L12.2719 6.42498L11.9959 6.98298L12.3979 7.44498L11.8279 7.33098Z" fill="white"/>
<path d="M20.1205 11.4209L20.1445 11.4389C18.9025 6.76486 14.8405 8.10886 14.8405 8.10886C12.3025 9.04486 12.1045 11.9009 12.1045 11.9009C12.8305 10.3649 13.2085 10.2989 13.9585 9.90286C14.7025 9.51286 15.7525 9.75886 15.7525 9.75886C15.8665 9.81286 15.7345 9.89686 15.7345 9.89686C15.3985 9.78286 14.2945 9.66886 13.3165 10.4069C12.3385 11.1449 12.2245 12.0269 12.2245 12.0269C12.4225 11.5049 12.8725 11.2649 13.1245 11.1569C13.3825 11.0489 14.2645 10.8929 15.0085 11.7029C15.7525 12.5129 16.1905 12.3569 16.8925 12.3089C17.5945 12.2609 17.9665 11.6309 18.1465 11.4149C18.3325 11.1929 18.6205 10.9949 19.0525 10.9229C19.4785 10.8449 20.1205 11.4209 20.1205 11.4209ZM16.2265 10.4129L15.6565 10.3109L16.1725 10.0229L16.0825 9.39286L16.4905 9.84286L17.0065 9.55486L16.7425 10.1189L17.1505 10.5689L16.5805 10.4669L16.3165 11.0309L16.2265 10.4129Z" fill="white"/>
<path d="M15.2059 20.3703L15.1999 20.4003C18.9019 17.7183 16.5259 13.8543 16.5259 13.8543C14.9599 11.4723 12.4159 12.1083 12.4159 12.1083C13.9699 12.4143 14.1379 12.7923 14.7019 13.4583C15.2659 14.1243 15.3559 15.2943 15.3559 15.2943C15.3439 15.4323 15.2299 15.3123 15.2299 15.3123C15.2299 14.9283 15.0019 13.7343 14.0659 12.9303C13.1299 12.1203 12.3379 12.2643 12.3379 12.2643C12.8479 12.3183 13.1959 12.7143 13.3639 12.9543C13.5319 13.1883 13.9279 14.0703 13.4479 15.0903C12.9619 16.1103 13.2319 16.5243 13.4779 17.2443C13.7239 17.9643 14.3839 18.1683 14.6299 18.2943C14.8759 18.4203 15.1339 18.6663 15.3259 19.0983C15.5119 19.5243 15.2059 20.3703 15.2059 20.3703ZM14.9299 15.9963L14.8459 15.3663L15.2479 15.8223L15.7699 15.5463L15.4999 16.1043L15.9019 16.5603L15.3319 16.4523L15.0619 17.0163L14.9779 16.3863L14.4079 16.2783L14.9299 15.9963Z" fill="white"/>
<path d="M5.93039 18.0171H5.90039C9.36239 21.0591 11.9844 17.3931 11.9844 17.3931C13.5744 15.0291 12.2364 12.5691 12.2364 12.5691C12.4464 14.2851 12.1704 14.5791 11.7684 15.3711C11.3664 16.1631 10.3764 16.6191 10.3764 16.6191C10.2504 16.6491 10.3224 16.4931 10.3224 16.4931C10.6524 16.3731 11.6184 15.7731 12.0324 14.5491C12.4464 13.3251 12.0804 12.5391 12.0804 12.5391C12.1944 13.0911 11.9484 13.5711 11.7984 13.8231C11.6424 14.0751 11.0064 14.7591 9.96839 14.5671C8.93639 14.3751 8.66039 14.7771 8.10839 15.2631C7.56239 15.7431 7.58639 16.4931 7.55039 16.7871C7.51439 17.0811 7.38239 17.4291 7.07039 17.7591C6.75839 18.0831 5.93039 18.0171 5.93039 18.0171ZM9.63839 16.3851L10.1604 16.1091L9.89039 16.6671L10.2924 17.1231L9.72239 17.0091L9.45239 17.5671L9.37439 16.9371L8.80439 16.8231L9.32639 16.5471L9.24839 15.9171L9.63839 16.3851Z" fill="white"/>
<path d="M5.27018 7.53781L5.26418 7.50781C3.60818 12.0258 7.56818 13.7238 7.56818 13.7238C10.0942 14.7078 11.8522 12.5898 11.8522 12.5898C10.4122 13.3098 10.0822 13.0998 9.27218 12.9078C8.46218 12.7098 7.77818 11.8098 7.77818 11.8098C7.71818 11.6898 7.86818 11.7138 7.86818 11.7138C8.06618 12.0258 8.87018 12.8658 10.0582 12.9498C11.2462 13.0338 11.8282 12.4158 11.8282 12.4158C11.3782 12.6918 10.8922 12.5778 10.6282 12.4878C10.3642 12.3978 9.58418 11.9238 9.45218 10.7838C9.32018 9.64381 8.88818 9.46981 8.31218 9.03181C7.73618 8.59381 7.08818 8.83981 6.81818 8.88181C6.54818 8.92981 6.21218 8.88781 5.82818 8.65981C5.45618 8.41981 5.27018 7.53781 5.27018 7.53781ZM7.76618 10.9578L8.15618 11.4258L7.58618 11.2998L7.30418 11.8518L7.23818 11.2218L6.66818 11.0958L7.19618 10.8318L7.13018 10.2018L7.52018 10.6698L8.04818 10.4058L7.76618 10.9578Z" fill="white"/>
</svg>
