<svg width="24" height="24" viewBox="0 0 24 24" fill="none" xmlns="http://www.w3.org/2000/svg">
<path d="M12.4113 24C12.1289 24 11.849 24 11.5666 24C11.4512 23.9828 11.3382 23.9607 11.2228 23.946C10.6751 23.8747 10.1177 23.8428 9.57742 23.7298C6.89575 23.1672 4.63647 21.8554 2.87324 19.7574C0.444515 16.8733 -0.432185 13.5372 0.196485 9.82763C0.564847 7.6535 1.50048 5.72013 2.9813 4.084C5.8054 0.956698 9.33922 -0.367432 13.5164 0.0870468C15.3018 0.281122 16.9643 0.895282 18.4648 1.89268C21.613 3.98819 23.4425 6.9116 23.8993 10.6776C23.9361 10.97 23.9656 11.2648 24 11.5596C24 11.8421 24 12.1221 24 12.4047C23.9828 12.5275 23.9607 12.6503 23.946 12.7731C23.8919 13.2301 23.8674 13.6919 23.7839 14.144C23.3812 16.3279 22.4504 18.2687 20.9696 19.922C18.924 22.2091 16.3725 23.548 13.3175 23.8993C13.013 23.9337 12.711 23.9681 12.4113 24ZM11.9791 4.41811C11.5003 4.47707 11.0165 4.51146 10.545 4.60235C7.21991 5.24354 4.60945 8.12764 4.52105 11.7905C4.49403 12.9574 4.74698 14.0678 5.23567 15.1266C5.28724 15.2372 5.30689 15.3846 5.28233 15.5025C5.04903 16.6792 4.801 17.8535 4.56525 19.0327C4.48912 19.4134 4.65857 19.5682 5.03184 19.4798C6.16885 19.2095 7.30341 18.9344 8.44287 18.674C8.58039 18.6421 8.75229 18.6642 8.88245 18.7207C10.292 19.3422 11.7483 19.5437 13.2709 19.2783C17.3646 18.561 20.0929 14.6427 19.3267 10.5695C18.6563 7.00004 15.6038 4.45987 11.9791 4.41811Z" fill="#29A71A"/>
<path d="M11.9796 4.42188C15.6043 4.46364 18.6543 7.00381 19.3272 10.5733C20.0934 14.6464 17.365 18.5648 13.2713 19.2821C11.7487 19.5499 10.2925 19.346 8.88289 18.7244C8.75273 18.6679 8.58083 18.6458 8.44331 18.6778C7.30385 18.9357 6.16929 19.2133 5.03229 19.4835C4.65901 19.572 4.48957 19.4172 4.56569 19.0364C4.80145 17.8597 5.04948 16.6854 5.28277 15.5062C5.30733 15.3883 5.28768 15.2409 5.23611 15.1304C4.74742 14.0716 4.49448 12.9612 4.52149 11.7943C4.6099 8.1314 7.22035 5.24976 10.5454 4.60858C11.0169 4.51523 11.5007 4.48329 11.9796 4.42188ZM6.59659 17.3807C6.69728 17.3635 6.76358 17.3586 6.82989 17.3438C7.39962 17.2112 7.97181 17.0932 8.53663 16.9385C8.78466 16.8697 8.98112 16.9016 9.19968 17.0195C10.4423 17.6804 11.7561 17.8843 13.1436 17.6165C16.2575 17.0146 18.3424 13.8824 17.6867 10.787C16.9107 7.12418 13.0871 5.13184 9.66136 6.60583C7.23263 7.6499 5.80584 10.3031 6.26507 12.9022C6.3854 13.5802 6.61378 14.214 6.94285 14.811C7.04845 15.0026 7.06318 15.1795 7.01653 15.3883C6.87164 16.032 6.74148 16.683 6.59659 17.3807Z" fill="white"/>
<path d="M6.59529 17.3743C6.74018 16.6766 6.87034 16.0256 7.01277 15.3795C7.05943 15.1707 7.04469 14.9938 6.9391 14.8022C6.61003 14.2028 6.38164 13.569 6.26131 12.8934C5.80209 10.2943 7.22887 7.64111 9.6576 6.59704C13.0834 5.12551 16.907 7.11785 17.683 10.7782C18.3387 13.8736 16.2513 17.0058 13.1398 17.6077C11.7524 17.8755 10.4385 17.6716 9.19592 17.0107C8.97736 16.8953 8.7809 16.8633 8.53287 16.9297C7.97051 17.0844 7.39586 17.2024 6.82613 17.335C6.76474 17.3522 6.69598 17.3596 6.59529 17.3743ZM14.0583 15.5662C14.6501 15.6129 15.2149 15.3009 15.6545 14.731C15.7208 14.645 15.7871 14.5566 15.8485 14.4657C16.1481 14.021 16.0032 13.623 15.49 13.4756C15.1536 13.3798 14.8073 13.3061 14.4807 13.1858C14.0362 13.0187 13.6948 13.0998 13.3805 13.4683C13.0662 13.8368 12.8771 13.849 12.4621 13.5936C11.6639 13.1022 10.9714 12.4856 10.3845 11.7535C10.0849 11.3801 10.0972 11.2131 10.3845 10.8397C10.4557 10.7463 10.5589 10.6628 10.5883 10.5571C10.6374 10.3876 10.7062 10.1788 10.6497 10.029C10.4729 9.54747 10.2543 9.07825 10.0284 8.6164C9.86634 8.28475 9.4857 8.20123 9.19838 8.43706C8.99455 8.60412 8.81037 8.79819 8.63847 8.99964C8.34624 9.34602 8.20626 9.744 8.21854 10.2083C8.23573 10.9207 8.47639 11.557 8.85949 12.1368C9.64778 13.3307 10.6816 14.274 11.9193 14.9865C12.5308 15.3378 13.1939 15.5589 14.0583 15.5662Z" fill="#29A71A"/>
<path d="M14.06 15.5697C13.1956 15.5623 12.5301 15.3412 11.9161 14.9875C10.6784 14.275 9.64703 13.3341 8.85628 12.1378C8.47319 11.5555 8.23252 10.9217 8.21533 10.2093C8.20551 9.74499 8.34303 9.34702 8.63527 9.00063C8.80471 8.79919 8.99135 8.60266 9.19518 8.43806C9.4825 8.20468 9.86314 8.28575 10.0252 8.6174C10.2511 9.07924 10.4697 9.54846 10.6465 10.03C10.7005 10.1798 10.6342 10.3886 10.5851 10.5581C10.5557 10.6638 10.4525 10.7473 10.3813 10.8407C10.094 11.2141 10.0817 11.3836 10.3813 11.7545C10.9682 12.4866 11.6607 13.1032 12.4589 13.5946C12.8739 13.85 13.063 13.8378 13.3773 13.4693C13.6916 13.1008 14.033 13.0197 14.4775 13.1867C14.8041 13.3096 15.1504 13.3808 15.4868 13.4766C16 13.624 16.1449 14.022 15.8453 14.4667C15.7839 14.5576 15.7201 14.646 15.6513 14.732C15.2167 15.3068 14.6543 15.6164 14.06 15.5697Z" fill="white"/>
</svg>
