<svg width="60" height="60" viewBox="0 0 60 60" fill="none" xmlns="http://www.w3.org/2000/svg">
<path d="M30 59.25C46.125 59.25 59.25 46.125 59.25 30H0.75C0.75 46.125 13.875 59.25 30 59.25Z" fill="white"/>
<path d="M30 0.75C13.875 0.75 0.75 13.875 0.75 30H59.25C59.25 13.875 46.125 0.75 30 0.75Z" fill="#E62837"/>
<path d="M17.685 16.4397C17.685 11.1747 21.7199 6.85473 26.8199 6.50973C25.7849 6.14973 24.675 5.96973 23.52 5.96973C17.82 5.96973 13.2 10.6647 13.2 16.4397C13.2 22.2297 17.82 26.9097 23.52 26.9097C24.675 26.9097 25.7849 26.7147 26.8199 26.3697C21.7049 26.0247 17.685 21.7047 17.685 16.4397Z" fill="white"/>
<path d="M28.9649 7.99512L29.5199 9.73512H31.3199L29.8649 10.8001L30.4199 12.5401L28.9649 11.4751L27.5099 12.5401L28.0649 10.8001L26.6099 9.73512H28.4099L28.9649 7.99512Z" fill="white"/>
<path d="M23.49 12.1045L24.045 13.8445H25.845L24.39 14.9095L24.945 16.6495L23.49 15.5845L22.035 16.6495L22.59 14.9095L21.135 13.8445H22.935L23.49 12.1045Z" fill="white"/>
<path d="M34.4099 12.1045L34.9649 13.8445H36.7499L35.3099 14.9095L35.8649 16.6495L34.4099 15.5845L32.9549 16.6495L33.5099 14.9095L32.0549 13.8445H33.8549L34.4099 12.1045Z" fill="white"/>
<path d="M32.3249 18.7344L32.8799 20.4744H34.6799L33.2249 21.5394L33.7799 23.2794L32.3249 22.2144L30.8699 23.2794L31.4249 21.5394L29.9849 20.4744H31.7699L32.3249 18.7344Z" fill="white"/>
<path d="M25.5598 18.7344L26.1148 20.4744H27.9148L26.4598 21.5394L27.0148 23.2794L25.5598 22.2144L24.1048 23.2794L24.6598 21.5394L23.2048 20.4744H25.0048L25.5598 18.7344Z" fill="white"/>
</svg>
