<svg width="58" height="58" viewBox="0 0 58 58" fill="none" xmlns="http://www.w3.org/2000/svg">
<path d="M0.515137 33.5908C0.680137 34.6408 0.905137 35.6758 1.19014 36.6958H4.35514L1.61014 38.1358C2.10514 39.6358 2.72014 41.0908 3.45514 42.4708L14.4801 36.6808H20.2851V37.3108L5.10514 45.2158C5.40514 45.6508 5.73514 46.0708 6.06514 46.4908L20.2551 38.9908V56.5258C21.3801 56.8858 22.5351 57.1558 23.7201 57.3808V33.5908H0.515137Z" fill="white"/>
<path d="M23.7051 0.620117C22.5201 0.845117 21.3651 1.11512 20.2401 1.47512V19.0401L6.03514 11.5251C5.09014 12.7701 4.22014 14.0751 3.48514 15.4701L14.6151 21.2901H7.64014L2.15014 18.3951C1.95514 18.8901 1.77514 19.3851 1.61014 19.8951L4.35514 21.3351H1.17514C0.905137 22.3251 0.680137 23.3451 0.515137 24.3801H23.7051V0.620117V0.620117Z" fill="white"/>
<path d="M34.2051 57.3955C35.4201 57.1705 36.6051 56.9005 37.7451 56.5255V38.9905L51.9351 46.4905C52.8951 45.2305 53.7651 43.9105 54.5151 42.5005L43.3551 36.6805H50.3451L55.8501 39.5605C56.0301 39.0955 56.2101 38.6155 56.3751 38.1355L53.6301 36.6955H56.7951C57.0801 35.6905 57.2901 34.6555 57.4551 33.6055H34.2051V57.3955Z" fill="white"/>
<path d="M37.7602 1.47547C36.6052 1.11547 35.4202 0.830469 34.2202 0.605469V24.3805H57.4852C57.3202 23.3455 57.0952 22.3405 56.8252 21.3355H53.6452L56.3902 19.8955C55.8952 18.3955 55.2802 16.9555 54.5602 15.5755L43.7752 21.2905H37.7752V20.7655L52.9402 12.8455C52.6252 12.3805 52.2802 11.9605 51.9502 11.5105L37.7452 19.0255V1.47547H37.7602Z" fill="white"/>
<path d="M34.2051 0.605352C32.5251 0.305352 30.7851 0.110352 29.0001 0.110352C27.1851 0.110352 25.4301 0.305352 23.7051 0.620352V24.3804H0.515107C0.275107 25.8804 0.110107 27.4254 0.110107 29.0004C0.110107 30.5604 0.275107 32.0904 0.515107 33.5904H23.7051V57.3803C25.4301 57.6953 27.1851 57.8903 29.0001 57.8903C30.7851 57.8903 32.5251 57.7103 34.2051 57.3953V33.5904H57.4851C57.7251 32.0904 57.8901 30.5754 57.8901 29.0004C57.8901 27.4254 57.7251 25.8804 57.4851 24.3804H34.2051V0.605352Z" fill="#EF081F"/>
<path d="M1.59516 19.8955C1.43016 20.3755 1.29516 20.8555 1.16016 21.3355H4.34016L1.59516 19.8955Z" fill="#012169"/>
<path d="M20.2402 1.47559C14.5252 3.29059 9.59016 6.86059 6.03516 11.5256L20.2402 19.0406V1.47559Z" fill="#012169"/>
<path d="M14.63 21.2751L3.50004 15.4551C2.99004 16.4001 2.55504 17.3901 2.16504 18.3951L7.65504 21.2751H14.63Z" fill="#EF081F"/>
<path d="M43.3701 36.665L54.5301 42.5C55.0401 41.555 55.4751 40.565 55.8651 39.56L50.3601 36.68H43.3701V36.665Z" fill="#EF081F"/>
<path d="M1.17505 36.6807C1.31005 37.1607 1.44505 37.6557 1.61005 38.1207L4.35505 36.6807H1.17505Z" fill="#012169"/>
<path d="M6.05005 46.4902C9.60505 51.1552 14.525 54.7102 20.24 56.5252V38.9902L6.05005 46.4902Z" fill="#012169"/>
<path d="M20.2702 36.665H14.4652L3.44019 42.455C3.93519 43.4 4.49019 44.33 5.09019 45.215L20.2702 37.295V36.665V36.665Z" fill="#EF081F"/>
<path d="M56.825 21.3355C56.69 20.8555 56.555 20.3605 56.39 19.8955L53.645 21.3355H56.825Z" fill="#012169"/>
<path d="M37.76 1.47559V19.0256L51.965 11.5106C48.395 6.84559 43.475 3.29059 37.76 1.47559Z" fill="#012169"/>
<path d="M37.7751 21.2907H43.7751L54.5601 15.5757C54.0651 14.6307 53.5401 13.7157 52.9401 12.8457L37.7751 20.7657V21.2907Z" fill="#EF081F"/>
<path d="M56.3902 38.1207C56.5552 37.6407 56.6902 37.1607 56.8252 36.6807H53.6602L56.3902 38.1207Z" fill="#012169"/>
<path d="M37.76 56.5252C43.475 54.7102 48.395 51.1552 51.95 46.4902L37.76 38.9902V56.5252V56.5252Z" fill="#012169"/>
</svg>
