<svg width="58" height="58" viewBox="0 0 58 58" fill="none" xmlns="http://www.w3.org/2000/svg">
<path d="M4.98518 45.0054H53.0452C53.9752 43.6104 54.7852 42.1104 55.4602 40.5654H2.55518C3.24518 42.1104 4.05518 43.5954 4.98518 45.0054Z" fill="#CE1126"/>
<path d="M14.375 53.8853H43.61C45.725 52.6403 47.675 51.1553 49.4 49.4453H8.64502C10.355 51.1553 12.275 52.6553 14.375 53.8853Z" fill="#CE1126"/>
<path d="M36.02 18.3355H55.82C55.205 16.7755 54.455 15.2905 53.585 13.8955H36.02V18.3355Z" fill="#CE1126"/>
<path d="M45.02 5H36.02V9.44H50.24C48.68 7.775 46.925 6.275 45.02 5Z" fill="#CE1126"/>
<path d="M36.0201 32.3149H0.320068C0.470068 33.6049 0.725068 34.8649 1.04007 36.1099H56.9601C57.3201 34.6699 57.6051 33.1849 57.7401 31.6699H36.0201V32.3149Z" fill="#CE1126"/>
<path d="M36.02 27.23H57.815C57.725 25.715 57.515 24.23 57.185 22.79H36.02V27.23Z" fill="#CE1126"/>
<path d="M29 57.8904C34.34 57.8904 39.32 56.4204 43.61 53.9004H14.375C18.665 56.4204 23.66 57.8904 29 57.8904Z" fill="white"/>
<path d="M36.0201 13.8951H53.5851C52.6101 12.3051 51.4851 10.8201 50.2251 9.45508H36.0051V13.8951H36.0201Z" fill="white"/>
<path d="M8.64511 49.4449H49.4001C50.7501 48.0949 51.9651 46.5949 53.0451 45.0049H4.98511C6.05011 46.6099 7.28011 48.0949 8.64511 49.4449Z" fill="white"/>
<path d="M36.02 1.01074V5.00074H45.02C42.305 3.20074 39.275 1.82074 36.02 1.01074Z" fill="white"/>
<path d="M36.02 22.775H57.185C56.855 21.245 56.39 19.76 55.82 18.335H36.02V22.775V22.775Z" fill="white"/>
<path d="M2.55504 40.5504H55.46C56.075 39.1254 56.57 37.6404 56.96 36.1104H1.04004C1.43004 37.6404 1.94004 39.1404 2.55504 40.5504Z" fill="white"/>
<path d="M57.815 27.2305H36.02V31.6705H57.755C57.83 30.7855 57.89 29.9005 57.89 29.0005C57.89 28.4005 57.845 27.8155 57.815 27.2305Z" fill="white"/>
<path d="M36.0201 1.01035C35.1651 0.800352 34.3101 0.635352 33.4401 0.485352C33.1101 0.440352 32.7801 0.365352 32.4351 0.335352C32.1051 0.290352 31.7751 0.260352 31.4301 0.230352C30.6201 0.170352 29.8251 0.110352 29.0001 0.110352C13.0401 0.110352 0.110107 13.0404 0.110107 29.0004C0.110107 29.8104 0.170107 30.6054 0.230107 31.3854C0.260107 31.7004 0.275107 32.0154 0.320107 32.3154H36.0201V1.01035Z" fill="#3C3B6E"/>
<path d="M31.8652 5.14996L30.7702 5.94496L31.1902 4.66996L30.0952 3.87496H31.4452L31.8652 2.58496L32.2852 3.87496H33.6202L32.5402 4.66996L32.9602 5.94496L31.8652 5.14996Z" fill="white"/>
<path d="M26.555 5.14996L25.46 5.94496L25.88 4.66996L24.8 3.87496H26.135L26.555 2.58496L26.975 3.87496H28.325L27.23 4.66996L27.65 5.94496L26.555 5.14996Z" fill="white"/>
<path d="M21.245 5.14996L20.165 5.94496L20.57 4.66996L19.49 3.87496H20.825L21.245 2.58496L21.665 3.87496H23.015L21.92 4.66996L22.34 5.94496L21.245 5.14996Z" fill="white"/>
<path d="M26.555 11.0601L25.46 11.8401L25.88 10.5651L24.8 9.77012H26.135L26.555 8.49512L26.975 9.77012H28.325L27.23 10.5651L27.65 11.8401L26.555 11.0601Z" fill="white"/>
<path d="M21.245 11.0601L20.165 11.8401L20.57 10.5651L19.49 9.77012H20.825L21.245 8.49512L21.665 9.77012H23.015L21.92 10.5651L22.34 11.8401L21.245 11.0601Z" fill="white"/>
<path d="M15.9352 11.0601L14.8552 11.8401L15.2752 10.5651L14.1802 9.77012H15.5302L15.9352 8.49512L16.3552 9.77012H17.7052L16.6102 10.5651L17.0302 11.8401L15.9352 11.0601Z" fill="white"/>
<path d="M10.6401 11.0601L9.54512 11.8401L9.96512 10.5651L8.87012 9.77012H10.2201L10.6401 8.49512L11.0451 9.77012H12.3951L11.3001 10.5651L11.7201 11.8401L10.6401 11.0601Z" fill="white"/>
<path d="M31.8652 16.9556L30.7702 17.7506L31.1902 16.4606L30.0952 15.6806H31.4452L31.8652 14.3906L32.2852 15.6806H33.6202L32.5402 16.4606L32.9602 17.7506L31.8652 16.9556Z" fill="white"/>
<path d="M26.555 16.9556L25.46 17.7506L25.88 16.4606L24.8 15.6806H26.135L26.555 14.3906L26.975 15.6806H28.325L27.23 16.4606L27.65 17.7506L26.555 16.9556Z" fill="white"/>
<path d="M21.245 16.9556L20.165 17.7506L20.57 16.4606L19.49 15.6806H20.825L21.245 14.3906L21.665 15.6806H23.015L21.92 16.4606L22.34 17.7506L21.245 16.9556Z" fill="white"/>
<path d="M15.9352 16.9556L14.8552 17.7506L15.2752 16.4606L14.1802 15.6806H15.5302L15.9352 14.3906L16.3552 15.6806H17.7052L16.6102 16.4606L17.0302 17.7506L15.9352 16.9556Z" fill="white"/>
<path d="M10.6401 16.9556L9.54512 17.7506L9.96512 16.4606L8.87012 15.6806H10.2201L10.6401 14.3906L11.0451 15.6806H12.3951L11.3001 16.4606L11.7201 17.7506L10.6401 16.9556Z" fill="white"/>
<path d="M5.33006 16.9556L4.23506 17.7506L4.65506 16.4606L3.56006 15.6806H4.91006L5.33006 14.3906L5.75006 15.6806H7.08506L6.00506 16.4606L6.41006 17.7506L5.33006 16.9556Z" fill="white"/>
<path d="M26.555 22.8508L25.46 23.6458L25.88 22.3708L24.8 21.5758H26.135L26.555 20.3008L26.975 21.5758H28.325L27.23 22.3708L27.65 23.6458L26.555 22.8508Z" fill="white"/>
<path d="M21.245 22.8508L20.165 23.6458L20.57 22.3708L19.49 21.5758H20.825L21.245 20.3008L21.665 21.5758H23.015L21.92 22.3708L22.34 23.6458L21.245 22.8508Z" fill="white"/>
<path d="M15.9352 22.8508L14.8552 23.6458L15.2752 22.3708L14.1802 21.5758H15.5302L15.9352 20.3008L16.3552 21.5758H17.7052L16.6102 22.3708L17.0302 23.6458L15.9352 22.8508Z" fill="white"/>
<path d="M10.6401 22.8508L9.54512 23.6458L9.96512 22.3708L8.87012 21.5758H10.2201L10.6401 20.3008L11.0451 21.5758H12.3951L11.3001 22.3708L11.7201 23.6458L10.6401 22.8508Z" fill="white"/>
<path d="M5.33006 22.8508L4.23506 23.6458L4.65506 22.3708L3.56006 21.5758H4.91006L5.33006 20.3008L5.75006 21.5758H7.08506L6.00506 22.3708L6.41006 23.6458L5.33006 22.8508Z" fill="white"/>
<path d="M31.8652 28.7603L30.7702 29.5553L31.1902 28.2653L30.0952 27.4703H31.4452L31.8652 26.1953L32.2852 27.4703H33.6202L32.5402 28.2653L32.9602 29.5553L31.8652 28.7603Z" fill="white"/>
<path d="M26.555 28.7603L25.46 29.5553L25.88 28.2653L24.8 27.4703H26.135L26.555 26.1953L26.975 27.4703H28.325L27.23 28.2653L27.65 29.5553L26.555 28.7603Z" fill="white"/>
<path d="M21.245 28.7603L20.165 29.5553L20.57 28.2653L19.49 27.4703H20.825L21.245 26.1953L21.665 27.4703H23.015L21.92 28.2653L22.34 29.5553L21.245 28.7603Z" fill="white"/>
<path d="M15.9352 28.7603L14.8552 29.5553L15.2752 28.2653L14.1802 27.4703H15.5302L15.9352 26.1953L16.3552 27.4703H17.7052L16.6102 28.2653L17.0302 29.5553L15.9352 28.7603Z" fill="white"/>
<path d="M10.6401 28.7603L9.54512 29.5553L9.96512 28.2653L8.87012 27.4703H10.2201L10.6401 26.1953L11.0451 27.4703H12.3951L11.3001 28.2653L11.7201 29.5553L10.6401 28.7603Z" fill="white"/>
<path d="M5.33006 28.7603L4.23506 29.5553L4.65506 28.2653L3.56006 27.4703H4.91006L5.33006 26.1953L5.75006 27.4703H7.08506L6.00506 28.2653L6.41006 29.5553L5.33006 28.7603Z" fill="white"/>
</svg>
