<svg width="58" height="58" viewBox="0 0 58 58" fill="none" xmlns="http://www.w3.org/2000/svg">
<path d="M29.0001 57.8903C44.9556 57.8903 57.8901 44.9559 57.8901 29.0004C57.8901 13.0448 44.9556 0.110352 29.0001 0.110352C13.0446 0.110352 0.110107 13.0448 0.110107 29.0004C0.110107 44.9559 13.0446 57.8903 29.0001 57.8903Z" fill="#FF0310"/>
<path d="M32.6603 8.07538L32.7203 8.03038C21.6353 7.41538 21.2153 19.0554 21.2153 19.0554C21.1553 26.4054 27.1403 29.2404 27.1403 29.2404C24.4253 26.0904 24.5903 25.0554 24.3653 22.8054C24.1253 20.5554 25.5203 18.0354 25.5203 18.0354C25.7303 17.7804 25.8053 18.2004 25.8053 18.2004C25.2953 18.9804 24.1403 21.7404 24.9353 24.8904C25.7303 28.0404 27.5303 29.0454 27.5303 29.0454C26.5703 28.1004 26.4203 26.7504 26.3903 26.0004C26.3753 25.2504 26.7503 22.8354 29.1053 21.5604C31.4603 20.2854 31.4753 19.0254 31.9553 17.1654C32.4203 15.3054 31.3703 13.8354 31.0553 13.1754C30.7403 12.5154 30.5453 11.6004 30.7403 10.4304C30.9053 9.26038 32.6603 8.07538 32.6603 8.07538ZM27.3203 17.3304L26.6303 18.7254L26.4353 17.1504L25.0103 16.8654L26.3153 16.1754L26.1203 14.6004L27.1253 15.7554L28.4303 15.0654L27.7403 16.4604L28.7453 17.6154L27.3203 17.3304Z" fill="white"/>
<path d="M48.0503 27.56L48.1103 27.605C45.0053 15.92 34.8503 19.28 34.8503 19.28C28.5053 21.62 28.0103 28.76 28.0103 28.76C29.8253 24.92 30.7703 24.755 32.6453 23.765C34.5053 22.79 37.1303 23.405 37.1303 23.405C37.4153 23.54 37.0853 23.75 37.0853 23.75C36.2453 23.465 33.4853 23.18 31.0403 25.025C28.5953 26.87 28.3103 29.075 28.3103 29.075C28.8053 27.77 29.9303 27.17 30.5603 26.9C31.2053 26.63 33.4103 26.24 35.2703 28.265C37.1303 30.29 38.2253 29.9 39.9803 29.78C41.7353 29.66 42.6653 28.085 43.1153 27.545C43.5803 26.99 44.3003 26.495 45.3803 26.315C46.4453 26.12 48.0503 27.56 48.0503 27.56ZM38.3153 25.04L36.8903 24.785L38.1803 24.065L37.9553 22.49L38.9753 23.615L40.2653 22.895L39.6053 24.305L40.6253 25.43L39.2003 25.175L38.5403 26.585L38.3153 25.04Z" fill="white"/>
<path d="M35.7652 49.9258L35.7502 50.0008C45.0052 43.2958 39.0652 33.6358 39.0652 33.6358C35.1502 27.6808 28.7902 29.2708 28.7902 29.2708C32.6752 30.0358 33.0952 30.9808 34.5052 32.6458C35.9152 34.3108 36.1402 37.2358 36.1402 37.2358C36.1102 37.5808 35.8252 37.2808 35.8252 37.2808C35.8252 36.3208 35.2552 33.3358 32.9152 31.3258C30.5752 29.3008 28.5952 29.6608 28.5952 29.6608C29.8702 29.7958 30.7402 30.7858 31.1602 31.3858C31.5802 31.9708 32.5702 34.1758 31.3702 36.7258C30.1552 39.2758 30.8302 40.3108 31.4452 42.1108C32.0602 43.9108 33.7102 44.4208 34.3252 44.7358C34.9402 45.0508 35.5852 45.6658 36.0652 46.7458C36.5302 47.8108 35.7652 49.9258 35.7652 49.9258ZM35.0752 38.9908L34.8652 37.4158L35.8702 38.5558L37.1752 37.8658L36.5002 39.2608L37.5052 40.4008L36.0802 40.1308L35.4052 41.5408L35.1952 39.9658L33.7702 39.6958L35.0752 38.9908Z" fill="white"/>
<path d="M12.5752 44.0456H12.5002C21.1552 51.6506 27.7102 42.4856 27.7102 42.4856C31.6852 36.5756 28.3402 30.4256 28.3402 30.4256C28.8652 34.7156 28.1752 35.4506 27.1702 37.4306C26.1652 39.4106 23.6902 40.5506 23.6902 40.5506C23.3752 40.6256 23.5552 40.2356 23.5552 40.2356C24.3802 39.9356 26.7952 38.4356 27.8302 35.3756C28.8652 32.3156 27.9502 30.3506 27.9502 30.3506C28.2352 31.7306 27.6202 32.9306 27.2452 33.5606C26.8552 34.1906 25.2652 35.9006 22.6702 35.4206C20.0902 34.9406 19.4002 35.9456 18.0202 37.1606C16.6552 38.3606 16.7152 40.2356 16.6252 40.9706C16.5352 41.7056 16.2052 42.5756 15.4252 43.4006C14.6452 44.2106 12.5752 44.0456 12.5752 44.0456ZM21.8452 39.9656L23.1502 39.2756L22.4752 40.6706L23.4802 41.8106L22.0552 41.5256L21.3802 42.9206L21.1852 41.3456L19.7602 41.0606L21.0652 40.3706L20.8702 38.7956L21.8452 39.9656Z" fill="white"/>
<path d="M10.9252 17.8553L10.9102 17.7803C6.7702 29.0753 16.6702 33.3203 16.6702 33.3203C22.9852 35.7803 27.3802 30.4853 27.3802 30.4853C23.7802 32.2853 22.9552 31.7603 20.9302 31.2803C18.9052 30.7853 17.1952 28.5353 17.1952 28.5353C17.0452 28.2353 17.4202 28.2953 17.4202 28.2953C17.9152 29.0753 19.9252 31.1753 22.8952 31.3853C25.8652 31.5953 27.3202 30.0503 27.3202 30.0503C26.1952 30.7403 24.9802 30.4553 24.3202 30.2303C23.6602 30.0053 21.7102 28.8203 21.3802 25.9703C21.0502 23.1203 19.9702 22.6853 18.5302 21.5903C17.0902 20.4953 15.4702 21.1103 14.7952 21.2153C14.1202 21.3353 13.2802 21.2303 12.3202 20.6603C11.3902 20.0603 10.9252 17.8553 10.9252 17.8553ZM17.1652 26.4053L18.1402 27.5753L16.7152 27.2603L16.0102 28.6403L15.8452 27.0653L14.4202 26.7503L15.7402 26.0903L15.5752 24.5153L16.5502 25.6853L17.8702 25.0253L17.1652 26.4053Z" fill="white"/>
</svg>
