<svg width="128" height="40" viewBox="0 0 128 40" fill="none" xmlns="http://www.w3.org/2000/svg">
<g clip-path="url(#clip0_3699_5963)">
<path d="M32.1953 40H7.80469C3.49219 40 0 36.5078 0 32.1953V7.80469C0 3.49219 3.49219 0 7.80469 0H32.1953C36.5078 0 40 3.49219 40 7.80469V32.1953C40 36.5078 36.5078 40 32.1953 40Z" fill="white"/>
<mask id="mask0_3699_5963" style="mask-type:alpha" maskUnits="userSpaceOnUse" x="2" y="2" width="36" height="36">
<circle cx="20" cy="20" r="17.5781" fill="white"/>
</mask>
<g mask="url(#mask0_3699_5963)">
<rect width="40" height="40" fill="url(#paint0_linear_3699_5963)"/>
</g>
<path d="M33.234 17.6588C33.2106 17.5651 33.1872 17.4635 33.1637 17.3698C33.1403 20.9401 29.4137 24.4791 24.2575 25.5963C18.57 26.8307 13.2965 24.6588 12.4684 20.7448C11.6403 16.8307 15.5778 12.6666 21.2653 11.4323C21.9528 11.2838 22.6325 11.1823 23.2965 11.1354C21.7262 11.0494 20.0622 11.1744 18.3668 11.5416C11.195 13.0963 6.22622 18.3541 7.26528 23.2838C8.30434 28.2135 14.9684 30.9557 22.1325 29.401C29.3043 27.8463 34.2731 22.5885 33.234 17.6588Z" fill="white"/>
<path d="M30.8437 18.6875L25.9375 19.1172L30.7969 18C30.7188 17.1641 30.5547 16.3203 30.3047 15.4922L25.4297 17.1328L30.0859 14.8359C30.0156 14.6328 29.9375 14.4297 29.8516 14.2344C29.6094 13.6484 29.3203 13.1016 29.0078 12.6016L24.6016 15.3203L28.6484 12.0625C28.1719 11.3828 27.6484 10.7891 27.0781 10.2891L22.0391 14.375C22.3672 14.7656 22.6484 15.2344 22.8594 15.7734C22.9297 15.9453 22.9844 16.125 23.0391 16.2969C23.0625 16.375 23.0859 16.4609 23.1016 16.5391C23.2109 16.9844 23.2656 17.4297 23.2656 17.875C23.2656 17.9922 23.2656 18.1016 23.2578 18.2187C23.2344 18.6172 23.1719 19.0078 23.0703 19.375C23.0312 19.5234 22.9844 19.6719 22.9297 19.8125C22.8281 20.0781 22.7109 20.3203 22.5625 20.5547H30.7969C30.8516 19.9453 30.875 19.3203 30.8437 18.6875Z" fill="white"/>
<path d="M27.9375 21.4375L27.9453 21.4141H19.0859L20.0547 23.2031H26.9688L27.9375 21.4375Z" fill="white"/>
</g>
<rect x="48.5" y="0.5" width="79" height="39" rx="5.5" fill="white"/>
<path d="M60.793 25H58.667L58.6807 23.6396H60.793C61.4082 23.6396 61.9232 23.5052 62.3379 23.2363C62.7572 22.9674 63.0716 22.5824 63.2812 22.0811C63.4954 21.5798 63.6025 20.9827 63.6025 20.29V19.75C63.6025 19.2122 63.541 18.736 63.418 18.3213C63.2995 17.9066 63.1217 17.5579 62.8848 17.2754C62.6523 16.9928 62.3652 16.7786 62.0234 16.6328C61.6862 16.487 61.2965 16.4141 60.8545 16.4141H58.626V15.0469H60.8545C61.5153 15.0469 62.1191 15.1585 62.666 15.3818C63.2129 15.6006 63.6846 15.9173 64.0811 16.332C64.4821 16.7467 64.7897 17.2435 65.0039 17.8223C65.2181 18.401 65.3252 19.0482 65.3252 19.7637V20.29C65.3252 21.0055 65.2181 21.6527 65.0039 22.2314C64.7897 22.8102 64.4821 23.307 64.0811 23.7217C63.68 24.1318 63.2015 24.4486 62.6455 24.6719C62.0941 24.8906 61.4766 25 60.793 25ZM59.6172 15.0469V25H57.9014V15.0469H59.6172ZM66.5693 21.3838V21.2266C66.5693 20.6934 66.6468 20.1989 66.8018 19.7432C66.9567 19.2829 67.18 18.8841 67.4717 18.5469C67.7679 18.2051 68.1279 17.9408 68.5518 17.7539C68.9801 17.5625 69.4632 17.4668 70.001 17.4668C70.5433 17.4668 71.0264 17.5625 71.4502 17.7539C71.8786 17.9408 72.2409 18.2051 72.5371 18.5469C72.8333 18.8841 73.0589 19.2829 73.2139 19.7432C73.3688 20.1989 73.4463 20.6934 73.4463 21.2266V21.3838C73.4463 21.917 73.3688 22.4115 73.2139 22.8672C73.0589 23.3229 72.8333 23.7217 72.5371 24.0635C72.2409 24.4007 71.8809 24.665 71.457 24.8564C71.0332 25.0433 70.5524 25.1367 70.0146 25.1367C69.4723 25.1367 68.987 25.0433 68.5586 24.8564C68.1348 24.665 67.7747 24.4007 67.4785 24.0635C67.1823 23.7217 66.9567 23.3229 66.8018 22.8672C66.6468 22.4115 66.5693 21.917 66.5693 21.3838ZM68.2168 21.2266V21.3838C68.2168 21.7165 68.251 22.0309 68.3193 22.3271C68.3877 22.6234 68.4948 22.8831 68.6406 23.1064C68.7865 23.3298 68.9733 23.5052 69.2012 23.6328C69.429 23.7604 69.7002 23.8242 70.0146 23.8242C70.32 23.8242 70.5843 23.7604 70.8076 23.6328C71.0355 23.5052 71.2223 23.3298 71.3682 23.1064C71.514 22.8831 71.6211 22.6234 71.6895 22.3271C71.7624 22.0309 71.7988 21.7165 71.7988 21.3838V21.2266C71.7988 20.8984 71.7624 20.5885 71.6895 20.2969C71.6211 20.0007 71.5117 19.7386 71.3613 19.5107C71.2155 19.2829 71.0286 19.1051 70.8008 18.9775C70.5775 18.8454 70.3109 18.7793 70.001 18.7793C69.6911 18.7793 69.4222 18.8454 69.1943 18.9775C68.971 19.1051 68.7865 19.2829 68.6406 19.5107C68.4948 19.7386 68.3877 20.0007 68.3193 20.2969C68.251 20.5885 68.2168 20.8984 68.2168 21.2266ZM76.8369 23.3594L78.5459 17.6035H79.5986L79.3115 19.3262L77.5889 25H76.6455L76.8369 23.3594ZM75.832 17.6035L77.165 23.3867L77.2744 25H76.2217L74.2188 17.6035H75.832ZM81.1982 23.3184L82.4902 17.6035H84.0967L82.1006 25H81.0479L81.1982 23.3184ZM79.7764 17.6035L81.4648 23.291L81.6768 25H80.7334L78.9902 19.3193L78.7031 17.6035H79.7764ZM86.8516 19.1826V25H85.2041V17.6035H86.7559L86.8516 19.1826ZM86.5576 21.0283L86.0244 21.0215C86.029 20.4974 86.1019 20.0166 86.2432 19.5791C86.389 19.1416 86.5895 18.7656 86.8447 18.4512C87.1045 18.1367 87.4144 17.8952 87.7744 17.7266C88.1344 17.5534 88.5355 17.4668 88.9775 17.4668C89.333 17.4668 89.6543 17.5169 89.9414 17.6172C90.2331 17.7129 90.4814 17.8701 90.6865 18.0889C90.8962 18.3076 91.0557 18.5924 91.165 18.9434C91.2744 19.2897 91.3291 19.7158 91.3291 20.2217V25H89.6748V20.2148C89.6748 19.8594 89.6224 19.5791 89.5176 19.374C89.4173 19.1644 89.2692 19.0163 89.0732 18.9297C88.8818 18.8385 88.6426 18.793 88.3555 18.793C88.0729 18.793 87.82 18.8522 87.5967 18.9707C87.3734 19.0892 87.1842 19.251 87.0293 19.4561C86.8789 19.6611 86.7627 19.8981 86.6807 20.167C86.5986 20.4359 86.5576 20.723 86.5576 21.0283ZM94.7744 14.5V25H93.1201V14.5H94.7744ZM96.2646 21.3838V21.2266C96.2646 20.6934 96.3421 20.1989 96.4971 19.7432C96.652 19.2829 96.8753 18.8841 97.167 18.5469C97.4632 18.2051 97.8232 17.9408 98.2471 17.7539C98.6755 17.5625 99.1585 17.4668 99.6963 17.4668C100.239 17.4668 100.722 17.5625 101.146 17.7539C101.574 17.9408 101.936 18.2051 102.232 18.5469C102.529 18.8841 102.754 19.2829 102.909 19.7432C103.064 20.1989 103.142 20.6934 103.142 21.2266V21.3838C103.142 21.917 103.064 22.4115 102.909 22.8672C102.754 23.3229 102.529 23.7217 102.232 24.0635C101.936 24.4007 101.576 24.665 101.152 24.8564C100.729 25.0433 100.248 25.1367 99.71 25.1367C99.1676 25.1367 98.6823 25.0433 98.2539 24.8564C97.8301 24.665 97.4701 24.4007 97.1738 24.0635C96.8776 23.7217 96.652 23.3229 96.4971 22.8672C96.3421 22.4115 96.2646 21.917 96.2646 21.3838ZM97.9121 21.2266V21.3838C97.9121 21.7165 97.9463 22.0309 98.0146 22.3271C98.083 22.6234 98.1901 22.8831 98.3359 23.1064C98.4818 23.3298 98.6686 23.5052 98.8965 23.6328C99.1243 23.7604 99.3955 23.8242 99.71 23.8242C100.015 23.8242 100.28 23.7604 100.503 23.6328C100.731 23.5052 100.918 23.3298 101.063 23.1064C101.209 22.8831 101.316 22.6234 101.385 22.3271C101.458 22.0309 101.494 21.7165 101.494 21.3838V21.2266C101.494 20.8984 101.458 20.5885 101.385 20.2969C101.316 20.0007 101.207 19.7386 101.057 19.5107C100.911 19.2829 100.724 19.1051 100.496 18.9775C100.273 18.8454 100.006 18.7793 99.6963 18.7793C99.3864 18.7793 99.1175 18.8454 98.8896 18.9775C98.6663 19.1051 98.4818 19.2829 98.3359 19.5107C98.1901 19.7386 98.083 20.0007 98.0146 20.2969C97.9463 20.5885 97.9121 20.8984 97.9121 21.2266ZM108.692 23.5166V19.9893C108.692 19.7249 108.645 19.4971 108.549 19.3057C108.453 19.1143 108.307 18.9661 108.111 18.8613C107.92 18.7565 107.678 18.7041 107.387 18.7041C107.118 18.7041 106.885 18.7497 106.689 18.8408C106.493 18.932 106.341 19.055 106.231 19.21C106.122 19.3649 106.067 19.5404 106.067 19.7363H104.427C104.427 19.4447 104.497 19.1621 104.639 18.8887C104.78 18.6152 104.985 18.3714 105.254 18.1572C105.523 17.943 105.844 17.7744 106.218 17.6514C106.591 17.5283 107.011 17.4668 107.476 17.4668C108.032 17.4668 108.524 17.5602 108.952 17.7471C109.385 17.9339 109.725 18.2165 109.971 18.5947C110.221 18.9684 110.347 19.4378 110.347 20.0029V23.291C110.347 23.6283 110.369 23.9313 110.415 24.2002C110.465 24.4645 110.536 24.6947 110.627 24.8906V25H108.938C108.861 24.8223 108.799 24.5967 108.754 24.3232C108.713 24.0452 108.692 23.7764 108.692 23.5166ZM108.932 20.502L108.945 21.5205H107.763C107.457 21.5205 107.188 21.5501 106.956 21.6094C106.724 21.6641 106.53 21.7461 106.375 21.8555C106.22 21.9648 106.104 22.097 106.026 22.252C105.949 22.4069 105.91 22.5824 105.91 22.7783C105.91 22.9743 105.956 23.1543 106.047 23.3184C106.138 23.4779 106.27 23.6032 106.443 23.6943C106.621 23.7855 106.835 23.8311 107.086 23.8311C107.423 23.8311 107.717 23.7627 107.968 23.626C108.223 23.4847 108.424 23.3138 108.569 23.1133C108.715 22.9082 108.793 22.7145 108.802 22.5322L109.335 23.2637C109.28 23.4505 109.187 23.651 109.055 23.8652C108.923 24.0794 108.749 24.2845 108.535 24.4805C108.326 24.6719 108.073 24.8291 107.776 24.9521C107.485 25.0752 107.147 25.1367 106.765 25.1367C106.282 25.1367 105.851 25.041 105.473 24.8496C105.094 24.6536 104.798 24.3916 104.584 24.0635C104.37 23.7308 104.263 23.3548 104.263 22.9355C104.263 22.5436 104.336 22.1973 104.481 21.8965C104.632 21.5911 104.851 21.3359 105.138 21.1309C105.429 20.9258 105.785 20.7708 106.204 20.666C106.623 20.5566 107.102 20.502 107.64 20.502H108.932ZM116.581 23.4688V14.5H118.235V25H116.738L116.581 23.4688ZM111.769 21.3838V21.2402C111.769 20.6797 111.835 20.1693 111.967 19.709C112.099 19.2441 112.29 18.8454 112.541 18.5127C112.792 18.1755 113.097 17.918 113.457 17.7402C113.817 17.5579 114.223 17.4668 114.674 17.4668C115.12 17.4668 115.512 17.5534 115.85 17.7266C116.187 17.8997 116.474 18.1481 116.711 18.4717C116.948 18.7907 117.137 19.1735 117.278 19.6201C117.42 20.0622 117.52 20.5544 117.579 21.0967V21.5547C117.52 22.0833 117.42 22.5664 117.278 23.0039C117.137 23.4414 116.948 23.8197 116.711 24.1387C116.474 24.4577 116.185 24.7038 115.843 24.877C115.506 25.0501 115.111 25.1367 114.66 25.1367C114.214 25.1367 113.81 25.0433 113.45 24.8564C113.095 24.6696 112.792 24.4076 112.541 24.0703C112.29 23.7331 112.099 23.3366 111.967 22.8809C111.835 22.4206 111.769 21.9215 111.769 21.3838ZM113.416 21.2402V21.3838C113.416 21.721 113.446 22.0355 113.505 22.3271C113.569 22.6188 113.667 22.8763 113.799 23.0996C113.931 23.3184 114.102 23.4915 114.312 23.6191C114.526 23.7422 114.781 23.8037 115.077 23.8037C115.451 23.8037 115.758 23.7217 116 23.5576C116.242 23.3936 116.431 23.1725 116.567 22.8945C116.709 22.612 116.804 22.2975 116.854 21.9512V20.7139C116.827 20.445 116.77 20.1943 116.684 19.9619C116.602 19.7295 116.49 19.5267 116.349 19.3535C116.207 19.1758 116.032 19.0391 115.822 18.9434C115.617 18.8431 115.373 18.793 115.091 18.793C114.79 18.793 114.535 18.8568 114.325 18.9844C114.116 19.112 113.942 19.2874 113.806 19.5107C113.674 19.734 113.576 19.9938 113.512 20.29C113.448 20.5863 113.416 20.903 113.416 21.2402Z" fill="url(#paint1_linear_3699_5963)"/>
<rect x="48.5" y="0.5" width="79" height="39" rx="5.5" stroke="url(#paint2_linear_3699_5963)"/>
<defs>
<linearGradient id="paint0_linear_3699_5963" x1="40" y1="-1.19209e-06" x2="1.19209e-06" y2="40" gradientUnits="userSpaceOnUse">
<stop stop-color="#FF6A00"/>
<stop offset="1" stop-color="#EE0979"/>
</linearGradient>
<linearGradient id="paint1_linear_3699_5963" x1="120" y1="10" x2="108.612" y2="46.4413" gradientUnits="userSpaceOnUse">
<stop stop-color="#FF6A00"/>
<stop offset="1" stop-color="#EE0979"/>
</linearGradient>
<linearGradient id="paint2_linear_3699_5963" x1="128" y1="-1.19209e-06" x2="96" y2="64" gradientUnits="userSpaceOnUse">
<stop stop-color="#FF6A00"/>
<stop offset="1" stop-color="#EE0979"/>
</linearGradient>
<clipPath id="clip0_3699_5963">
<rect width="40" height="40" fill="white"/>
</clipPath>
</defs>
</svg>
