<svg width="40" height="40" viewBox="0 0 40 40" fill="none" xmlns="http://www.w3.org/2000/svg">
<g clip-path="url(#clip0_7208_4615)">
<mask id="mask0_7208_4615" style="mask-type:alpha" maskUnits="userSpaceOnUse" x="0" y="0" width="40" height="40">
<path d="M20 40C31.0457 40 40 31.0457 40 20C40 8.9543 31.0457 0 20 0C8.9543 0 0 8.9543 0 20C0 31.0457 8.9543 40 20 40Z" fill="#4693D3"/>
</mask>
<g mask="url(#mask0_7208_4615)">
<path d="M20 40C31.0457 40 40 31.0457 40 20C40 8.9543 31.0457 0 20 0C8.9543 0 0 8.9543 0 20C0 31.0457 8.9543 40 20 40Z" fill="#4693D3"/>
<g filter="url(#filter0_b_7208_4615)">
<path d="M20 40C31.0457 40 40 31.0457 40 20C40 8.9543 31.0457 0 20 0C8.9543 0 0 8.9543 0 20C0 31.0457 8.9543 40 20 40Z" fill="#4693D3" fill-opacity="0.3"/>
</g>
<g filter="url(#filter1_d_7208_4615)">
<path d="M39.1001 14C38.6001 14.1 38.3001 14.4 38.2001 14.8C38.0001 15.3 38.2001 15.7 38.4001 16C38.5001 16.1 38.5001 16.2 38.5001 16.4C38.5001 16.6 38.5001 16.9 38.3001 17.1C38.0001 17.6 37.5001 17.9 37.3001 17.9C37.2001 17.9 37.2001 17.9 37.2001 17.9C37.2001 17.9 37.2001 17.9 37.2001 17.8C37.2001 17.7 37.1001 17.7 37.0001 17.6C36.8001 17.5 36.6001 17.4 36.4001 17.5C36.2001 17.5 36.0001 17.7 35.9001 17.9C35.8001 18.1 35.7001 18.5 35.9001 18.8C36.0001 19 36.1001 19.2 36.2001 19.3C36.3001 19.4 36.4001 19.5 36.4001 19.5C36.4001 19.5 36.4001 19.6 36.3001 19.9C36.1001 20.3 35.9001 20.6 35.9001 21.2001C35.9001 21.3001 35.9001 21.4 35.9001 21.5C35.9001 21.7001 35.9001 21.8 35.9001 22C35.9001 22.1 35.9001 22.2 35.9001 22.3C35.9001 22.3 35.9001 22.3001 35.8001 22.2001C35.2001 21.4001 34.7001 20.2 34.5001 19.2V19.1C34.5001 19 34.5001 18.8 34.4001 18.7C34.3001 18.4 34.1001 18.2 33.8001 18.1C33.7001 18.1 33.5001 18 33.4001 18C33.1001 18 32.9001 18.1 32.7001 18.3C32.3001 18.6 32.1001 19.1 32.0001 19.6C31.9001 19.9 31.8001 20.2 31.7001 20.4C31.6001 20.5 31.4001 20.5 31.3001 20.5C31.0001 20.5 30.6001 20.3 30.4001 20C30.1001 19.6 30.0001 19.1 29.8001 18.6C29.7001 18.4 29.7001 18.1 29.6001 17.9C29.2001 16.8 28.5001 16.1 27.6001 16C27.6001 16 26.0001 15.8 25.5001 16.6C25.4001 16.7 25.2001 17.1 25.5001 17.6C25.6001 17.8 25.8001 17.9 26.4001 18.3C26.6001 18.4 26.9001 18.6 27.1001 18.8C26.9001 19 26.7001 19 26.6001 19C25.8001 18.9 24.9001 17.4 24.5001 16.4C24.5001 16.4 24.5001 16.3 24.4001 16.3C24.3001 16.1 24.2001 15.8 24.1001 15.6C23.5001 14.7 22.7001 15 22.3001 15.1C22.1001 15.2 21.9001 15.2 21.7001 15.2C21.4001 15.2 21.0001 14.7 20.6001 14.3C20.3001 13.9 19.9001 13.5 19.5001 13.3C19.3001 13.2 19.1001 13.1 18.9001 13.1C18.6001 13.1 18.4001 13.2 18.3001 13.5C18.2001 13.6 18.2001 13.8 18.3001 13.9C17.9001 13.8 17.6001 13.7 17.2001 13.6C16.8001 13.6 16.4001 13.6 16.0001 13.6C15.9001 13.6 15.7001 13.6 15.6001 13.6C15.9001 13.4 16.2001 13.2 16.5001 13C17.0001 12.8 17.4001 12.6 18.0001 12.5C18.4001 12.4 18.7001 12.3 19.1001 12.1C20.0001 11.8 20.4001 11.2 20.4001 10.5C20.3001 9.60005 19.3001 9.30005 18.9001 9.20005C18.5001 9.10005 18.3001 8.90005 18.3001 8.80005C18.3001 8.70005 18.6001 8.50005 18.7001 8.50005C19.8001 7.80005 21.0001 7.10005 22.1001 7.40005C22.4001 7.50005 22.6001 7.60005 22.9001 7.80005C23.5001 8.10005 24.1001 8.40005 24.8001 8.30005C25.3001 8.20005 25.6001 7.90005 26.0001 7.70005C26.3001 7.50005 26.6001 7.30005 26.8001 7.30005C27.1001 7.30005 27.4001 7.40005 27.8001 7.60005C28.4001 7.80005 29.0001 8.10005 29.7001 7.70005C30.0001 7.50005 30.2001 7.20005 30.4001 7.00005L30.5001 6.90005C31.0001 5.80005 32.0001 5.30005 33.0001 4.80005C35.8001 7.20005 37.9001 10.4 39.1001 14Z" fill="#9EE562"/>
<path d="M1.10004 13.5001C1.40004 13.4001 1.70004 13.3001 2.00004 13.2001C2.10004 13.2001 2.10004 13.2001 2.20004 13.2001C2.50004 13.2001 2.80004 13.3001 3.00004 13.5001C3.00004 13.5001 3.00004 13.6001 3.10004 13.6001C3.20004 13.7001 3.20004 13.8001 3.40004 14.0001C4.00004 14.5001 4.60004 14.1001 5.00004 13.9001C5.10004 13.9001 5.10004 13.8001 5.20004 13.8001C5.50004 13.6001 5.90004 13.6001 6.30004 13.7001C6.70004 13.8001 7.00004 14.1001 7.20004 14.4001C7.40004 14.7001 7.40004 15.1001 7.20004 15.5001C7.10004 15.9001 6.80004 16.2001 6.40004 16.4001C6.20004 16.5001 6.00004 16.5001 5.70004 16.6001C5.40004 16.7001 5.00004 16.8001 4.60004 17.0001C4.00004 17.3001 3.70004 17.9001 3.40004 18.4001C3.10004 18.9001 2.90004 19.3001 2.50004 19.5001C2.20004 19.6001 1.90004 19.6001 1.50004 19.6001C1.40004 19.6001 1.20004 19.6001 1.10004 19.6001H1.00004C0.800043 19.6001 0.600043 19.6001 0.300043 19.7001C0.300043 19.7001 0.200043 19.7001 0.200043 19.8001C4.32879e-05 17.7001 0.400043 15.5001 1.10004 13.5001Z" fill="#9EE562"/>
<path d="M6.69999 34.9001C6.39999 34.6001 6.09999 34.4001 5.89999 34.1001C5.89999 34.0001 5.99999 33.9001 6.09999 33.8001C6.19999 33.6001 6.29999 33.5001 6.39999 33.3001C6.89999 32.3001 6.89999 31.1001 6.79999 30.2001C6.79999 30.0001 6.79999 29.8001 6.79999 29.6001C6.79999 29.0001 6.79999 28.3001 6.59999 27.8001C6.49999 27.5001 6.19999 27.3001 5.99999 27.1001C5.89999 27.0001 5.59999 26.7001 5.59999 26.6001C5.59999 26.5001 5.59999 26.5001 5.59999 26.4001C5.49999 26.1001 5.59999 25.8001 5.59999 25.5001C5.69999 24.8001 5.89999 24.1001 6.29999 23.6001C6.79999 23.1001 7.69999 22.9001 8.39999 23.3001C8.69999 23.5001 8.89999 23.7001 8.89999 23.9001C8.89999 24.0001 8.89999 24.2001 8.89999 24.4001C8.89999 24.8001 8.89999 25.2001 9.19999 25.6001C9.59999 26.0001 10.1 26.0001 10.5 26.0001C10.7 26.0001 10.9 26.0001 11 26.1001C11.2 26.2001 11.3 26.3001 11.4 26.5001C11.5 26.9001 11.5 27.4001 11.3 27.7001C11 28.1001 10.7 28.5001 10.2 28.9001C9.99999 29.1001 9.69999 29.4001 9.49999 29.6001C8.89999 30.3001 8.39999 31.1001 7.99999 32.0001C7.79999 32.3001 7.69999 32.7001 7.49999 33.0001C7.09999 33.7001 6.89999 34.3001 6.69999 34.9001Z" fill="#9EE562"/>
<path d="M25.6001 21.6001C25.3001 21.2001 24.9001 21.0001 24.5001 20.9001H24.4001C23.3001 20.5001 22.4001 19.7001 22.0001 18.6001V18.5001C21.8001 18.1001 21.6001 17.6001 21.0001 17.3001C20.5001 17.1001 20.0001 17.3001 19.6001 17.4001C19.3001 17.5001 19.1001 17.6001 18.9001 17.5001C18.8001 17.4001 18.7001 17.3001 18.6001 17.1001C18.5001 16.9001 18.3001 16.7001 18.1001 16.5001C17.8001 16.3001 17.4001 16.2001 17.1001 16.1001C15.3001 15.8001 14.0001 16.0001 13.1001 16.7001C12.1001 17.4001 11.6001 18.7001 11.6001 20.2001C11.6001 21.6001 12.1001 22.8001 13.0001 23.6001C13.2001 23.7001 13.4001 23.9001 13.7001 23.9001C13.9001 23.9001 14.1001 23.8001 14.3001 23.8001C14.9001 23.5001 15.9001 23.4001 16.2001 23.6001C16.2001 23.6001 16.3001 23.7001 16.3001 24.0001C16.3001 24.1001 16.2001 24.2001 16.2001 24.3001C16.1001 24.5001 16.0001 24.7001 15.9001 24.9001C15.8001 25.3001 15.9001 25.6001 15.9001 26.0001C15.9001 26.2001 16.0001 26.5001 15.9001 26.7001C15.9001 26.9001 15.7001 27.2001 15.6001 27.4001C15.5001 27.6001 15.4001 27.8001 15.3001 28.0001C14.9001 29.1001 15.2001 30.4001 16.1001 31.3001C16.8001 32.0001 17.9001 32.4001 19.1001 32.4001H19.2001C19.5001 32.4001 20.0001 32.3001 20.4001 31.9001C20.7001 31.6001 20.7001 31.2001 20.7001 30.9001V30.8001C20.8001 30.1001 21.1001 29.5001 21.5001 29.0001L21.6001 28.9001C21.7001 28.7001 21.9001 28.6001 22.0001 28.3001C22.2001 27.9001 22.1001 27.4001 22.0001 27.1001C22.0001 27.0001 21.9001 26.8001 21.9001 26.7001C21.8001 25.9001 22.6001 25.3001 22.9001 25.1001C23.2001 24.9001 23.5001 24.8001 23.8001 24.6001C24.2001 24.4001 24.7001 24.1001 25.1001 23.8001C25.7001 23.3001 26.1001 22.4001 25.6001 21.6001Z" fill="#9EE562"/>
</g>
<path opacity="0.3" d="M27 1.30005C34.6 4.10005 40 11.5 40 20.1C40 31.1 31 40.1 20 40.1C17.1 40.1 14.3 39.5 11.8 38.4001C12.3 38.6001 13.5 38.4001 14 38.4001C15.8 38.3001 17.7 38 19.5 37.5C29.9 34.6 36.8001 22.8 33.4001 12.4C32.1001 8.20005 29.5 4.70005 27 1.30005Z" fill="#232323" fill-opacity="0.8"/>
</g>
</g>
<defs>
<filter id="filter0_b_7208_4615" x="-4" y="-4" width="48" height="48" filterUnits="userSpaceOnUse" color-interpolation-filters="sRGB">
<feFlood flood-opacity="0" result="BackgroundImageFix"/>
<feGaussianBlur in="BackgroundImage" stdDeviation="2"/>
<feComposite in2="SourceAlpha" operator="in" result="effect1_backgroundBlur_7208_4615"/>
<feBlend mode="normal" in="SourceGraphic" in2="effect1_backgroundBlur_7208_4615" result="shape"/>
</filter>
<filter id="filter1_d_7208_4615" x="-0.85144" y="3.80005" width="42.9515" height="34.1" filterUnits="userSpaceOnUse" color-interpolation-filters="sRGB">
<feFlood flood-opacity="0" result="BackgroundImageFix"/>
<feColorMatrix in="SourceAlpha" type="matrix" values="0 0 0 0 0 0 0 0 0 0 0 0 0 0 0 0 0 0 127 0" result="hardAlpha"/>
<feOffset dx="1" dy="1"/>
<feGaussianBlur stdDeviation="1"/>
<feComposite in2="hardAlpha" operator="out"/>
<feColorMatrix type="matrix" values="0 0 0 0 0 0 0 0 0 0 0 0 0 0 0 0 0 0 0.25 0"/>
<feBlend mode="normal" in2="BackgroundImageFix" result="effect1_dropShadow_7208_4615"/>
<feBlend mode="normal" in="SourceGraphic" in2="effect1_dropShadow_7208_4615" result="shape"/>
</filter>
<clipPath id="clip0_7208_4615">
<rect width="40" height="40" fill="white"/>
</clipPath>
</defs>
</svg>
