<svg width="40" height="40" viewBox="0 0 40 40" fill="none" xmlns="http://www.w3.org/2000/svg">
<path d="M26.4 10.3C25.4 10.2 24.4 10.5 23.6 10.7C23.3 10.8 23.1 10.9 22.8 10.8C22.7 10.8 22.5 10.7 22.6 10.6C22.6 10.5 22.7 10.4 22.8 10.3L22.9 10.2C23.5 9.5 23.8 8.5 23.2 7.7C22.7 7 21.9 7.1 21.1 7.1C20.7 7.1 20.3 7.1 20 7C19.6 6.9 19.3 6.5 19 6.2C18.7 5.9 18.4 5.6 18.1 5.3C17.3 4.8 16.3 4.7 15.5 5.2C15.5 5.2 15.4 5.2 15.4 5.3C15.3 5.4 15.2 5.4 15.1 5.4C15.1 5.4 15 5.4 14.9 5.3C14.8 5.3 14.8 5.3 14.7 5.2C14.2 5 13.6 5.1 13.1 5.4C12.4 5.8 11.8 6.6 11.6 7.4C11.6 7.5 11.6 7.5 11.5 7.6C11.5 7.8 11.4 8 11.3 8.1C11.3 8.2 11.2 8.3 11.1 8.4C11 8.5 11 8.5 10.9 8.6C10.2 9.7 10.3 11.2 11.2 12.2L11.3 12.3C11.3 12.4 11.4 12.4 11.5 12.5C11.5 12.5 11.5 12.6 11.4 12.6V12.7C10.9 13.7 11.1 15.1 11.9 16C12.5 16.6 13.2 16.7 13.8 16.8C14.2 16.9 14.6 16.9 14.9 17.1C16.3 17.9 15.4 20.8 15 22.1C15 22.2 14.9 22.3 14.9 22.4C14.8 22.6 14.7 22.9 14.7 23.1C14.4 23.9 14.2 24.7 14 25.6C13.8 26.3 13.8 26.9 13.8 27.5C13.8 27.7 13.8 27.8 13.8 28C13.8 28.3 13.9 28.6 13.8 28.8C13.8 28.9 13.7 29 13.6 29C13.5 29.2 13.3 29.4 13.2 29.7C13 30.3 13.2 31 13.4 31.4C13.8 32.2 14.8 34.1 16.5 34.8C16.7 34.9 17 34.9 17.2 34.9C17.6 34.9 18 34.8 18.3 34.5C18.6 34.2 18.7 33.7 18.6 33.3C18.4 32.7 18 32.4 17.6 32.1C17.5 32.1 17.5 32 17.4 32C17.3 31.9 17.1 31.8 17 31.7C17.3 31.5 17.6 31.2 17.7 30.8C17.8 30.3 17.4 29.9 17.3 29.8C17 29.6 16.8 29.3 16.6 29C16.7 28.8 17.2 28.5 17.4 28.4C17.5 28.3 17.6 28.3 17.7 28.2C18 28 18.3 27.7 18.7 27.5C19 27.3 19.3 27.1 19.6 26.8C19.7 26.7 19.9 26.6 20.1 26.5C20.3 26.4 20.6 26.3 20.8 26.1C21.3 25.7 21.6 25.1 21.8 24.5C22.2 23.7 22.4 23.2 23 23.1C23.2 23.1 23.4 22.9 23.4 22.6C23.4 21.4 23.7 20.6 24.4 20.2C24.6 20.1 24.9 20 25.1 20C25.6 19.9 26.2 19.7 26.6 19.2C27 18.7 27.1 18.1 27.2 17.6C27.3 17.2 27.3 16.9 27.5 16.6C27.6 16.4 27.8 16.2 28 16.1C28.1 16 28.3 15.8 28.4 15.7C28.9 15.1 29.2 14.3 29.2 13.5C29.2 12.9 29 12.3 28.7 11.8C28.4 11 27.5 10.4 26.4 10.3ZM27.9 15.1C27.8 15.2 27.7 15.3 27.6 15.4C27.4 15.6 27.2 15.8 27 16.1C26.7 16.5 26.7 17 26.6 17.5C26.5 18 26.5 18.4 26.2 18.6C26 18.9 25.6 19 25.1 19.1C24.8 19.2 24.5 19.3 24.2 19.4C23.5 19.7 22.7 20.5 22.6 22.3C21.7 22.6 21.3 23.4 21 24.1C20.8 24.6 20.6 25.1 20.3 25.3C20.2 25.4 20 25.5 19.8 25.6C19.6 25.7 19.3 25.8 19.1 26C18.8 26.2 18.5 26.4 18.2 26.7C17.9 26.9 17.6 27.2 17.2 27.4C17.1 27.4 17.1 27.5 17 27.5C16.3 27.9 15.8 28.3 15.8 28.8C15.8 29 15.9 29.2 15.9 29.4C16.1 29.8 16.4 30.2 16.8 30.5L16.9 30.6C16.8 30.7 16.5 31 16.4 31.1C16.3 31.2 16.3 31.2 16.2 31.3C16.1 31.3 16 31.5 16 31.7C16 31.9 16.1 32.1 16.1 32.1C16.3 32.4 16.7 32.6 17 32.8C17.1 32.8 17.1 32.9 17.2 32.9C17.5 33.1 17.7 33.3 17.8 33.5C17.9 33.7 17.8 33.7 17.8 33.8C17.6 33.9 17.2 34 17 33.9C15.6 33.4 14.7 31.7 14.4 31C14.3 30.7 14.1 30.3 14.2 30C14.2 29.9 14.4 29.7 14.5 29.6C14.6 29.5 14.6 29.4 14.7 29.3C15 28.8 14.9 28.3 14.9 27.9C14.9 27.8 14.9 27.6 14.9 27.5C14.9 27 15 26.4 15.1 25.8C15.3 25 15.5 24.2 15.8 23.4C15.9 23.2 16 22.9 16 22.7C16 22.6 16.1 22.5 16.1 22.4C16.6 20.8 17.7 17.5 15.6 16.3C15.1 16 14.6 15.9 14.1 15.9C13.5 15.8 13.1 15.8 12.7 15.4C12.1 14.8 12 13.9 12.3 13.2C12.4 13.1 12.5 12.9 12.5 12.6C12.5 12.2 12.2 12 12.1 11.8V11.7C11.5 11.1 11.4 10 11.9 9.3C11.9 9.2 12 9.2 12 9.1C12.1 9 12.2 8.8 12.3 8.7C12.4 8.5 12.5 8.2 12.5 8C12.5 7.9 12.5 7.9 12.5 7.8C12.6 7.2 13.1 6.7 13.5 6.4C13.8 6.2 14.1 6.2 14.3 6.3H14.4C14.5 6.4 14.7 6.4 15 6.4C15.3 6.4 15.6 6.3 15.7 6.1C15.7 6.1 15.8 6.1 15.8 6C16.3 5.7 17 5.7 17.4 6.1C17.7 6.3 17.9 6.5 18.1 6.8C18.5 7.2 18.9 7.7 19.5 7.9C20 8.1 20.5 8 21 8C21.6 8 22 8 22.2 8.2C22.4 8.5 22.2 9.1 21.9 9.4L21.8 9.5C21.6 9.7 21.3 10 21.3 10.4C21.3 11 21.8 11.5 22.4 11.6C22.8 11.7 23.2 11.5 23.6 11.4C24.3 11.2 25.2 11 26 11C26.8 11.1 27.5 11.5 27.9 12C28.1 12.3 28.2 12.7 28.2 13.2C28.5 14.1 28.3 14.6 27.9 15.1Z" fill="#646464"/>
<path d="M20 0C9 0 0 9 0 20C0 31 9 40 20 40C31 40 40 31 40 20C40 9 31 0 20 0ZM20 39C9.5 39 1 30.5 1 20C1 9.5 9.5 1 20 1C30.5 1 39 9.5 39 20C39 30.5 30.5 39 20 39Z" fill="#646464"/>
</svg>
