<svg width="40" height="40" viewBox="0 0 40 40" fill="none" xmlns="http://www.w3.org/2000/svg">
<path d="M20 0C9 0 0 9 0 20C0 31 9 40 20 40C31 40 40 31 40 20C40 9 31 0 20 0ZM20 39C9.5 39 1 30.5 1 20C1 9.5 9.5 1 20 1C30.5 1 39 9.5 39 20C39 30.5 30.5 39 20 39Z" fill="#646464"/>
<path d="M35.3 11.1C34.5 10.3 33.4 10.3 32.6 10.3H27C26.8 10.3 26.5 10.3 26.4 10.2C26.3 10.1 26.2 10 26.1 9.9C26 9.9 26 9.8 25.9 9.7C25.1 9 24 9.1 23.1 9.2C22.4 9.3 21.8 9.3 21.3 9.1C21.2 8.5 20.7 8 20.1 7.9C19.5 7.7 18.9 7.9 18.4 8L16.4 8.5C14.9 8.8 13.2 9.3 12.2 10.5C12.1 10.3 11.9 10.2 11.7 10C11.4 9.9 11.1 9.8 10.8 9.9C10.2 10.1 10 10.6 9.9 11C9.9 11.2 9.8 11.4 9.7 11.4H9.6C9.5 11.4 9.5 11.4 9.4 11.4C8.5 11.5 8 12.4 8 13.1C8 13.7 8.2 14.2 8.3 14.7C8.3 14.8 8.4 14.9 8.4 14.9C8.6 15.3 8.7 15.9 8.5 16.3C8.5 16.4 8.4 16.4 8.4 16.5C8.3 16.6 8.1 16.6 7.8 16.5C7.5 16.5 7.1 16.4 6.7 16.6C6 16.9 5.7 17.8 6 19C6.1 19.6 6.3 20.3 6 20.5C5.9 20.6 5.8 20.6 5.7 20.7C5.6 20.7 5.5 20.8 5.4 20.8C4.2 21.4 4 23 4.6 24.1C5.1 25.1 6.1 25.8 6.9 26.3C7.1 26.4 7.8 26.8 8.4 26.7C8.7 26.6 8.9 26.4 9 26.2C9 26 9.1 25.8 9 25.5C8.9 24.9 8.4 24.5 8 24.2C7.7 23.9 7.4 23.7 7.3 23.4C7.3 23.3 7.3 23.1 7.4 23C7.5 22.9 7.8 22.9 8.2 23.1C8.3 23.2 8.5 23.2 8.6 23.3C9 23.5 9.5 23.8 10.1 23.8C10.2 23.8 10.3 24 10.5 24.2C10.7 24.4 10.8 24.7 11.1 24.8C11.2 24.9 11.3 24.9 11.4 24.9C11.5 24.9 11.5 25 11.6 25C11.8 25.1 11.9 25.4 11.9 25.7C11.9 25.8 11.9 25.9 11.9 26C11.9 26.4 12 26.9 12.3 27.3C12.5 27.6 12.9 27.8 13.2 27.8C13.9 27.9 14.2 27.3 14.4 27L15.3 25.6C15.5 25.2 15.7 25 16 24.9C16.1 24.9 16.2 24.9 16.2 24.9C16.3 24.9 16.3 24.9 16.4 25.2C16.4 25.3 16.5 25.5 16.6 25.7C16.7 25.8 16.7 25.9 16.8 26L16.9 26.1C16.9 26.1 16.9 26.2 17 26.3V26.4C17.2 27.2 18 28.7 18.1 28.9C18.2 29.1 18.3 29.1 18.5 29.1C18.6 29.1 18.7 29.1 18.7 29C18.9 28.9 19 28.6 18.9 28.3C18.8 28.1 18.5 27.7 18.3 27.2C18.6 27.4 18.9 27.5 19.2 27.5C19.9 27.4 20.5 26.8 20.7 26.1C20.9 25.4 20.4 25.1 20.1 25C20 25 19.9 24.9 19.8 24.8C19.7 24.7 19.6 24.6 19.5 24.5C19.6 24.5 19.7 24.5 19.9 24.5C20.1 24.5 20.3 24.6 20.6 24.5C21.2 24.4 21.7 23.9 21.9 23.2C22 22.6 22 22.1 21.8 21.6V21.5C21.7 21 21.6 20.6 21.8 20.3C21.9 20.2 22 20.2 22 20.2C22.1 20.2 22.1 20.5 22.2 20.7C22.3 21.1 22.3 21.6 22.9 21.9C23.3 22.1 23.9 21.9 24.2 21.5C24.6 21 24.5 20.4 24.4 20C24.4 19.7 24.3 19.4 24.4 19.2C24.5 19 24.7 18.9 25 18.7C25.4 18.4 26 18.1 26 17.5C26 17.1 25.9 16.8 25.8 16.6C25.7 16.5 25.7 16.4 25.7 16.3C25.6 16 25.9 15.6 26.2 15.3C26.8 14.9 27.7 14.8 28.4 15.1C28.3 15.3 28.3 15.6 28.3 15.9C28.4 16.5 28.8 16.9 29.3 16.9C30 17 30.6 16.5 30.9 16C31.1 15.8 31.2 15.5 31.3 15.3C31.4 15.1 31.5 14.9 31.6 14.8C31.9 14.3 32.5 13.9 33 13.8C33.2 13.8 33.4 13.7 33.6 13.7C34.3 13.6 35.2 13.5 35.5 12.7C35.9 12.4 35.8 11.6 35.3 11.1ZM34.8 12.5C34.6 12.8 34.2 12.9 33.6 13C33.4 13 33.2 13.1 33 13.1C32.2 13.3 31.4 13.8 30.9 14.6C30.8 14.8 30.7 15 30.6 15.2C30.5 15.4 30.4 15.6 30.3 15.8C30.1 16 29.9 16.3 29.6 16.2C29.5 16.2 29.4 16 29.4 15.9C29.4 15.8 29.4 15.6 29.5 15.5C29.6 15.4 29.7 15.3 29.7 15.1C29.7 14.9 29.6 14.8 29.5 14.7C28.4 13.9 26.9 13.9 25.8 14.6C25.3 15 24.7 15.7 24.9 16.6C24.9 16.8 25 17 25.1 17.2C25.2 17.4 25.3 17.5 25.2 17.6C25.2 17.8 25 17.9 24.6 18.1C24.3 18.3 23.9 18.5 23.6 18.9C23.4 19.4 23.4 19.8 23.5 20.2C23.5 20.6 23.6 20.8 23.4 21C23.4 21.1 23.3 21.1 23.3 21.1C23.2 21.1 23.2 20.8 23.2 20.7C23.1 20.3 23.1 19.8 22.5 19.5C22 19.2 21.4 19.4 21 19.9C20.5 20.6 20.7 21.3 20.8 21.8V21.9C20.9 22.3 21 22.7 20.9 23C20.8 23.3 20.6 23.5 20.4 23.6C20.3 23.6 20.2 23.6 20 23.6C19.7 23.6 19.4 23.5 19 23.6C18.7 23.7 18.6 23.8 18.5 24.1C18.4 24.8 18.9 25.3 19.2 25.5C19.4 25.6 19.6 25.7 19.7 25.8C19.6 26.1 19.3 26.4 19 26.4C18.8 26.4 18.4 26 18.2 25.8C18 25.6 17.8 25.4 17.6 25.3C17.5 25.2 17.5 25.1 17.4 25L17.3 24.9C17.3 24.9 17.3 24.8 17.2 24.7C17.1 24.4 17 23.9 16.4 23.7C16.1 23.6 15.8 23.6 15.5 23.7C14.9 23.9 14.6 24.4 14.4 24.8L13.5 26.2C13.3 26.5 13.2 26.5 13.1 26.5C13 26.5 12.9 26.4 12.9 26.4C12.7 26.2 12.7 25.9 12.7 25.6C12.7 25.5 12.7 25.4 12.7 25.3C12.6 24.7 12.4 24.2 12 24C11.9 23.9 11.8 23.9 11.7 23.8C11.6 23.8 11.6 23.7 11.5 23.7C11.4 23.6 11.3 23.5 11.1 23.3C10.9 23 10.5 22.6 10 22.5C9.7 22.5 9.3 22.3 8.9 22.1C8.8 22 8.6 21.9 8.5 21.9C8.3 21.8 7.9 21.6 7.4 21.6C7.1 21.6 6.8 21.7 6.6 21.9C6.2 22.2 6.1 22.7 6.2 23.2C6.4 23.8 6.8 24.2 7.2 24.5C7.5 24.8 7.8 25 7.9 25.3V25.4C7.8 25.4 7.5 25.4 7.2 25.2C6.4 24.7 5.6 24.1 5.2 23.3C5 23 5.1 22 5.8 21.7C5.9 21.7 6 21.6 6 21.6C6.2 21.5 6.4 21.5 6.6 21.3C7.5 20.6 7.1 19.3 7 18.8C6.8 18.2 6.8 17.6 7.2 17.4C7.3 17.3 7.6 17.4 7.8 17.4C8.2 17.4 8.8 17.5 9.2 17.1C9.3 17 9.5 16.8 9.5 16.6C9.8 15.9 9.6 15.2 9.4 14.6C9.4 14.5 9.3 14.4 9.3 14.4C9.1 13.9 9 13.5 9 13.1C9 12.7 9.2 12.3 9.5 12.3H9.6C9.7 12.3 9.8 12.3 9.9 12.2C10.4 12 10.6 11.5 10.7 11.1C10.8 10.8 10.9 10.6 11 10.6C11 10.6 11.1 10.6 11.2 10.6C11.4 10.7 11.5 11 11.7 11.3C11.8 11.5 11.9 11.6 12.1 11.6C12.3 11.6 12.5 11.5 12.5 11.3C13.2 10 15 9.5 16.6 9.1L18.6 8.6C19 8.5 19.4 8.4 19.8 8.5C20.1 8.6 20.3 8.8 20.3 9C20.3 9.2 20.3 9.4 20.5 9.5C21.3 10.1 22.3 10 23.2 9.9C24 9.8 24.8 9.8 25.3 10.2C25.4 10.3 25.4 10.3 25.5 10.4C25.6 10.6 25.8 10.7 26.1 10.9C26.5 11.1 26.9 11.1 27.2 11.1H32.8C33.7 11.1 34.3 11.1 34.8 11.6C34.8 12 34.9 12.3 34.8 12.5Z" fill="#646464"/>
<path d="M18.6 30.4C18 30.2 17.5 29.8 17.2 29.3C17.2 29.2 17.1 29.2 17.1 29.1C17 28.9 16.8 28.6 16.6 28.4C16.4 28.2 16.1 28.2 15.9 28.4C15.7 28.6 15.7 28.9 15.9 29.1C16 29.2 16.1 29.3 16.2 29.5C16.2 29.6 16.3 29.6 16.3 29.7C16.7 30.4 17.4 31 18.2 31.2H18.3C18.5 31.2 18.7 31.1 18.8 30.9C18.9 30.7 18.8 30.4 18.6 30.4Z" fill="#646464"/>
<path d="M22 31.2L19.4 31.3C19.1 31.3 18.9 31.5 18.9 31.8C18.9 32.1 19.1 32.3 19.4 32.3L22 32.2C22.3 32.2 22.5 32 22.5 31.7C22.4 31.4 22.2 31.2 22 31.2Z" fill="#646464"/>
<path d="M23.5 27C22.8 27 22.2 27.3 21.7 27.6C21.6 27.6 21.5 27.7 21.4 27.7C20.7 28 20.2 28.3 20 28.7C19.7 29.6 20.6 30 21 30.1H21.1C21.3 30.2 21.6 30.3 21.8 30.3C22.3 30.3 22.6 30 22.9 29.7L23 29.6C23.1 29.5 23.3 29.4 23.4 29.3C23.7 29.1 24 28.9 24.3 28.5C24.6 28.1 24.6 27.6 24.3 27.2C24.1 27.1 23.9 27 23.5 27ZM23.5 28C23.4 28.2 23.2 28.3 22.9 28.5C22.7 28.6 22.5 28.7 22.3 28.9C22.2 28.9 22.2 29 22.1 29C21.7 29.4 21.7 29.4 21.3 29.3H21.2C21.1 29.3 20.9 29.2 20.8 29.1C21 29 21.4 28.8 21.6 28.7C21.7 28.6 21.9 28.6 22 28.5C22.6 28.2 23 28 23.5 28C23.6 28 23.6 28 23.5 28Z" fill="#646464"/>
<path d="M30.3 19.7C30.3 19.7 30.2 19.7 30.1 19.7C29.7 19.7 29 19.8 28.5 20.1C28.2 20.3 28 20.6 27.9 20.8C27.8 21 27.6 21.2 27.5 21.3C27.4 21.4 27.2 21.4 27 21.5C26.8 21.5 26.6 21.6 26.3 21.7C25.7 21.9 25.3 22.5 25.3 23.1C25.3 23.4 25.5 23.6 25.7 23.6C25.7 23.6 25.7 23.6 25.8 23.6C26 23.6 26.2 23.4 26.3 23.2C26.3 22.9 26.5 22.7 26.8 22.6C26.9 22.5 27.1 22.5 27.3 22.5C27.6 22.4 27.9 22.4 28.2 22.2C28.6 22 28.8 21.7 28.9 21.4C29 21.2 29.2 21 29.3 20.9C29.5 20.7 29.9 20.7 30.3 20.7C30.5 20.7 30.9 20.7 31.1 20.4C31.3 20.2 31.3 19.9 31.1 19.7C30.8 19.5 30.5 19.5 30.3 19.7Z" fill="#646464"/>
<path d="M28.1 19.9C28.2 19.9 28.2 19.9 28.3 19.9L29.9 19.2C30.1 19.1 30.2 18.8 30.1 18.6C30 18.4 29.7 18.3 29.5 18.4L27.9 19C27.7 19.1 27.6 19.4 27.7 19.6C27.7 19.8 27.9 19.9 28.1 19.9Z" fill="#646464"/>
</svg>
