<svg width="40" height="40" viewBox="0 0 40 40" fill="none" xmlns="http://www.w3.org/2000/svg">
<path d="M32.1999 17.3C31.8999 17.1 31.6999 17 31.5999 16.9C31.4999 16.8 31.4999 16.6 31.3999 16.5C31.2999 16.3 31.2999 16.1 31.0999 15.9C30.8999 15.5 30.4999 15.3 29.9999 15.2C29.4999 15.1 28.8999 15.2 28.4999 15.6C27.8999 16.1 27.4999 16.9 27.4999 17.9C27.4999 18 27.4999 18.1 27.4999 18.2C27.4999 18.6 27.4999 18.9 27.3999 19.1C27.1999 19.3 26.8999 19.3 26.5999 19.2C26.1999 19.1 25.8999 18.8 25.5999 18.5C25.4999 18.4 25.3999 18.3 25.3999 18.2C25.2999 18 25.7999 17.6 26.0999 17.4C26.8999 16.7 27.2999 15.9 27.0999 15.1C26.8999 14 25.7999 13.4 24.7999 13.3C23.9999 13.2 23.1999 13.4 22.4999 13.6C22.3999 13.6 22.2999 13.7 22.1999 13.7C20.9999 14 19.9999 13.6 18.9999 13.3C17.8999 12.9 16.7999 12.5 15.4999 12.8C15.0999 12.9 14.7999 13 14.3999 13.1C13.8999 13.2 13.3999 13.4 12.9999 13.4C12.3999 13.4 11.8999 13.2 11.2999 12.9C10.8999 12.7 10.4999 12.5 9.8999 12.3C9.2999 12.1 8.5999 12.2 7.6999 12.4C7.5999 12.4 7.4999 12.5 7.3999 12.5C6.9999 12.6 6.6999 12.7 6.2999 12.9C5.8999 13.1 5.4999 13.6 5.4999 14.1C5.4999 14.3 5.5999 14.7 6.0999 14.9C6.0999 14.9 6.0999 14.9 6.1999 14.9C5.9999 15 5.6999 15.2 5.5999 15.3C5.4999 15.3 5.3999 15.5 5.3999 15.7C5.3999 15.8 5.3999 16.1 5.6999 16.3C5.9999 16.5 6.2999 16.6 6.5999 16.6H6.7999V16.7C6.7999 16.8 6.6999 16.9 6.5999 17C6.2999 16.8 6.0999 17 5.9999 17.3C5.8999 17.6 5.9999 17.9 6.0999 18.1C6.2999 18.3 6.5999 18.3 6.6999 18.3C6.7999 18.4 6.8999 18.7 6.7999 19C6.7999 19.2 6.8999 19.4 6.9999 19.5C7.1999 19.6 7.3999 19.5 7.7999 19.3C8.1999 19.1 8.1999 19.1 8.1999 19C8.3999 18.8 8.5999 18.5 8.7999 18.3C8.8999 18.1 8.9999 17.9 9.0999 17.7C9.1999 17.5 9.2999 17.3 9.4999 17.1C9.4999 17.2 9.5999 17.3 9.6999 17.3C9.9999 17.5 10.3999 17.5 10.9999 17.3C11.0999 17.3 11.1999 17.3 11.1999 17.3C11.6999 17.3 12.0999 17.3 12.4999 17.5C13.2999 17.8 13.9999 18.4 14.5999 19C14.7999 19.1 14.9999 19.3 14.9999 19.5C14.9999 19.6 14.9999 19.7 14.9999 19.8C14.9999 19.9 14.9999 20 14.9999 20.2C15.0999 20.6 15.2999 20.9 15.4999 21.2C15.6999 21.5 15.7999 21.7 15.8999 22C15.8999 22.2 15.8999 22.4 15.7999 22.6C15.6999 22.8 15.6999 23.1 15.6999 23.4C15.6999 24.4 16.3999 25 17.0999 25.5C17.2999 25.7 17.3999 25.8 17.5999 25.9C17.8999 26.2 18.1999 26.6 18.3999 27.1C18.4999 27.2 18.4999 27.4 18.4999 27.6C18.5999 28 18.6999 28.4 19.0999 28.8C19.3999 29 19.6999 29.1 19.9999 29.2V29.3C20.2999 29.9 20.5999 30.6 21.1999 31C21.6999 31.3 22.1999 31.5 22.6999 31.7C22.8999 31.8 23.0999 31.8 23.1999 31.9C23.3999 32 23.5999 32.1 23.8999 32.1C24.6999 32.4 25.4999 32.6 25.8999 33.2L25.9999 33.3C26.0999 33.5 26.2999 33.7 26.4999 33.9C26.7999 34.1 27.0999 34.2 27.3999 34.2C27.4999 34.2 27.5999 34.2 27.6999 34.2C27.9999 34.1 28.2999 33.8 28.3999 33.6C28.4999 33.4 28.4999 33.1 28.3999 32.9C28.3999 32.8 28.1999 32.6 27.6999 31.9C27.3999 31.6 27.0999 31.1 27.0999 31.1C26.9999 30.9 26.7999 30.8 26.5999 30.7C26.5999 30.7 26.4999 30.7 26.4999 30.6C26.4999 30.5 26.3999 30.4 26.4999 30.3C26.5999 30.1 26.6999 29.6 26.1999 29.3C25.8999 29.1 25.5999 29.3 25.4999 29.3C25.3999 29.3 25.3999 29.4 25.2999 29.4C24.9999 29.5 24.7999 29.6 24.5999 29.6C24.4999 29.6 24.2999 29.5 24.1999 29.3C23.9999 29 23.8999 28.6 23.8999 28.4C23.8999 28.2 23.9999 28.1 24.0999 28C24.1999 27.9 24.3999 27.9 24.7999 28C24.8999 28 24.8999 28 24.9999 28C25.3999 28.1 25.8999 28.2 26.3999 28C26.3999 28 26.4999 28 26.4999 27.9C26.4999 27.9 26.4999 28 26.5999 28.1L26.8999 29.1C26.8999 29.2 26.9999 29.6 27.3999 29.7C27.5999 29.8 27.7999 29.8 28.0999 29.7C28.3999 29.5 28.5999 29.2 28.5999 28.9C28.5999 28.7 28.6999 28.4 28.6999 28.2C28.7999 27.7 28.8999 27.2 28.7999 26.8C28.7999 25.9 28.8999 25.3 29.5999 24.6C29.9999 24.1 30.4999 23.6 30.9999 23.5C31.0999 23.5 31.2999 23.5 31.3999 23.5C31.5999 23.5 31.7999 23.5 31.9999 23.5C32.4999 23.4 32.9999 23.1 33.0999 22.5C33.0999 22.3 32.9999 22.1 32.8999 22L31.5999 21.3C31.6999 21.3 31.8999 21.2 31.9999 21.2C32.2999 21.2 32.5999 21.3 32.7999 21.6V21.7C32.8999 21.9 32.9999 22.1 33.2999 22.2C33.5999 22.3 33.8999 22.3 34.1999 22.1C34.5999 21.9 34.8999 21.5 34.9999 21C35.0999 20.4 34.9999 19.7 34.6999 19.2C33.7999 18.2 32.9999 17.7 32.1999 17.3ZM33.6999 20.6C33.6999 20.8 33.5999 21 33.3999 21.1C33.3999 21.1 33.3999 21.1 33.3999 21C33.0999 20.5 32.4999 20.1 31.7999 20.1C31.0999 20.1 30.4999 20.4 30.1999 21C30.0999 21.2 30.0999 21.5 30.3999 21.7L31.6999 22.4C31.5999 22.4 31.4999 22.4 31.3999 22.4C31.1999 22.4 30.9999 22.4 30.8999 22.4C29.9999 22.5 29.3999 23.2 28.8999 23.8C28.0999 24.7 27.8999 25.5 27.8999 26.7C27.8999 27 27.7999 27.5 27.7999 27.9C27.7999 28 27.7999 28 27.7999 28.1L27.6999 27.8C27.3999 26.9 26.8999 26.9 26.6999 26.9C26.4999 26.9 26.3999 27 26.2999 27.1C26.2999 27.1 26.2999 27.1 26.1999 27.1C25.9999 27.2 25.6999 27.1 25.4999 27.1C25.3999 27.1 25.2999 27.1 25.2999 27C24.6999 26.9 24.1999 27 23.8999 27.2C23.5999 27.5 23.3999 27.9 23.3999 28.3C23.3999 28.8 23.5999 29.3 23.8999 29.8C24.1999 30.2 24.5999 30.5 24.9999 30.5C24.9999 30.5 24.9999 30.5 25.0999 30.5C25.4999 30.5 25.7999 30.4 25.9999 30.3C25.9999 30.6 26.0999 30.8 26.1999 31.1C26.2999 31.3 26.5999 31.4 26.6999 31.5H26.7999C26.8999 31.6 26.9999 31.8 27.3999 32.4C27.5999 32.7 27.8999 33.1 27.9999 33.3C27.8999 33.3 27.7999 33.3 27.6999 33.2C27.5999 33.1 27.4999 32.9 27.2999 32.8L27.1999 32.7C26.5999 31.8 25.5999 31.5 24.6999 31.2C24.4999 31.1 24.2999 31.1 24.0999 31C23.8999 30.9 23.6999 30.9 23.4999 30.8C22.9999 30.7 22.5999 30.5 22.2999 30.3C21.8999 30 21.5999 29.5 21.3999 28.9C21.3999 28.8 21.2999 28.7 21.2999 28.6C21.2999 28.6 21.1999 28.4 21.0999 28.3C20.9999 28.2 20.7999 28.2 20.7999 28.2C20.4999 28.2 20.3999 28.2 20.2999 28.1C20.1999 28 20.0999 27.7 19.9999 27.4C19.9999 27.2 19.8999 27 19.7999 26.8C19.5999 26.3 19.1999 25.7 18.7999 25.3C18.5999 25.1 18.3999 25 18.2999 24.8C17.7999 24.3 17.2999 23.9 17.1999 23.4C17.1999 23.2 17.1999 23.1 17.2999 22.9C17.3999 22.6 17.3999 22.3 17.3999 22C17.3999 21.5 17.0999 21.1 16.8999 20.8C16.6999 20.6 16.5999 20.3 16.4999 20.1C16.4999 20 16.4999 19.9 16.4999 19.9C16.4999 19.7 16.4999 19.5 16.3999 19.3C16.2999 18.9 15.8999 18.6 15.6999 18.4C14.9999 17.8 14.1999 17.2 13.2999 16.8C12.8999 16.6 12.4999 16.6 11.9999 16.6C11.8999 16.6 11.7999 16.6 11.5999 16.6C11.4999 16.6 11.3999 16.6 11.2999 16.7C11.1999 16.7 11.0999 16.7 10.9999 16.8C10.9999 16.6 10.8999 16.3 10.5999 16.1C10.2999 15.9 9.9999 16 9.5999 16.4C9.2999 16.7 8.9999 17.2 8.7999 17.6C8.6999 17.8 8.5999 18 8.4999 18.1C7.9999 18 7.8999 18.2 7.7999 18.3C7.6999 18.1 7.5999 17.9 7.4999 17.7C7.3999 17.6 7.1999 17.5 7.0999 17.4C7.0999 17.4 7.0999 17.4 7.1999 17.3C7.2999 17.2 7.4999 17 7.5999 16.7C7.7999 16.2 7.6999 15.7 7.2999 15.4C7.1999 15.3 6.9999 15.3 6.8999 15.2C7.1999 15.1 7.4999 15.1 7.6999 15.1C7.8999 15.1 7.9999 15 8.0999 14.9C7.9999 15 8.0999 14.8 8.0999 14.6C8.0999 14.3 7.7999 14 7.3999 13.9C7.1999 13.8 6.9999 13.8 6.7999 13.8C6.5999 13.8 6.4999 13.7 6.2999 13.7C6.3999 13.6 6.3999 13.5 6.5999 13.5C6.8999 13.4 7.1999 13.3 7.4999 13.2C7.5999 13.2 7.6999 13.1 7.8999 13.1C8.5999 12.9 9.0999 12.9 9.5999 13C9.9999 13.1 10.3999 13.3 10.7999 13.5C11.3999 13.8 12.0999 14.2 12.9999 14.2C13.5999 14.2 14.0999 14 14.6999 13.9C14.9999 13.8 15.2999 13.7 15.6999 13.7C16.7999 13.5 17.6999 13.9 18.6999 14.2C19.7999 14.6 20.9999 15 22.4999 14.7C22.5999 14.7 22.6999 14.6 22.8999 14.6C23.5999 14.4 24.1999 14.2 24.8999 14.3C25.4999 14.4 26.1999 14.7 26.2999 15.3C26.3999 15.8 25.9999 16.4 25.5999 16.7C25.0999 17.1 24.2999 17.8 24.6999 18.6C24.7999 18.9 24.9999 19.1 25.1999 19.2C25.5999 19.5 25.9999 19.9 26.5999 20.1C27.1999 20.3 27.9999 20.2 28.3999 19.6C28.7999 19.1 28.7999 18.6 28.7999 18.1C28.7999 18 28.7999 17.9 28.7999 17.9C28.7999 17.2 28.9999 16.6 29.3999 16.3C29.5999 16.1 29.8999 16.1 30.1999 16.1C30.2999 16.1 30.4999 16.2 30.6999 16.4C30.7999 16.5 30.7999 16.6 30.8999 16.8C30.9999 17 30.9999 17.2 31.1999 17.5C31.3999 17.9 31.7999 18.1 32.0999 18.2C32.7999 18.6 33.4999 19 33.8999 19.6C33.6999 19.8 33.7999 20.2 33.6999 20.6Z" fill="#646464"/>
<path d="M17.4999 12.3C17.5999 12.3 17.6999 12.3 17.6999 12.3C18.0999 12.3 18.6999 12.3 19.0999 12.5C19.2999 12.6 19.3999 12.7 19.5999 12.8C19.8999 13 20.1999 13.2 20.5999 13.3C21.1999 13.5 21.7999 13.4 22.2999 13.3C22.5999 13.2 22.8999 13.1 23.1999 13.1C24.0999 12.8 24.9999 12.6 25.8999 12.8C26.6999 12.9 27.3999 13.4 28.0999 13.9C28.7999 14.4 29.4999 14.8 30.3999 15.1C30.5999 15.2 30.8999 15.2 31.0999 15.2C31.5999 15.2 32.1999 15 32.4999 14.5C32.5999 14.4 32.5999 14.2 32.4999 14.1C32.3999 14 32.2999 13.9 32.1999 13.8C31.8999 13.7 31.6999 13.4 31.3999 13.1C31.0999 12.7 30.6999 12.3 30.1999 12.1C29.9999 12 29.7999 12 29.5999 12C29.3999 12 29.2999 12 29.1999 11.9C29.0999 11.8 28.9999 11.7 28.7999 11.6C28.7999 11.5 28.6999 11.5 28.6999 11.4C28.4999 11.2 28.2999 11 28.0999 10.8C27.6999 10.5 27.3999 10.2 27.2999 9.8C27.2999 9.7 27.2999 9.6 27.2999 9.5C27.3999 9.4 27.5999 9.4 27.6999 9.4H27.7999C29.1999 9.2 30.3999 8.4 31.4999 7.8C31.6999 7.5 31.9999 7.3 32.0999 7C32.2999 6.6 31.9999 6.1 31.4999 5.9C31.1999 5.8 30.8999 5.8 30.5999 5.9C29.2999 6.1 27.8999 6.2 26.4999 6.3H26.2999C25.3999 6.3 24.4999 6.4 23.5999 6.8C23.2999 6.9 23.0999 7.1 22.7999 7.3C22.4999 7.5 22.2999 7.6 21.9999 7.8C21.4999 8 20.9999 8 20.3999 8C19.8999 8 19.4999 8 18.9999 8.2C17.8999 8.5 17.0999 9.1 16.2999 9.7C16.0999 9.8 15.8999 10 15.7999 10.3C15.6999 10.5 15.6999 10.7 15.6999 10.9C15.6999 11 15.6999 11.1 15.6999 11.1L15.5999 11.2C15.4999 11.3 15.3999 11.5 15.4999 11.7C15.8999 12.6 16.9999 12.4 17.4999 12.3ZM16.7999 10.9C16.7999 10.8 16.7999 10.7 16.8999 10.6C16.8999 10.5 16.9999 10.4 17.0999 10.4C17.7999 9.9 18.5999 9.3 19.3999 9.1C19.7999 9 20.1999 9 20.5999 9C21.1999 9 21.8999 8.9 22.4999 8.7C22.8999 8.6 23.1999 8.3 23.3999 8.1C23.5999 7.9 23.7999 7.8 24.0999 7.7C24.7999 7.4 25.4999 7.3 26.3999 7.3H26.5999C27.9999 7.3 29.3999 7.1 30.7999 6.9C30.8999 6.9 30.8999 6.9 30.9999 6.9C29.9999 7.5 28.8999 8.1 27.7999 8.3H27.6999C27.3999 8.3 26.8999 8.4 26.5999 8.8C26.3999 9.1 26.2999 9.5 26.3999 9.9C26.5999 10.6 27.0999 11 27.4999 11.4C27.6999 11.6 27.8999 11.7 28.0999 11.9L28.1999 12C28.3999 12.2 28.5999 12.4 28.8999 12.6C29.1999 12.7 29.3999 12.8 29.6999 12.8C29.7999 12.8 29.9999 12.8 30.0999 12.9C30.3999 13 30.5999 13.3 30.8999 13.6C30.9999 13.8 31.1999 13.9 31.2999 14.1C31.0999 14.1 30.9999 14.1 30.7999 14C30.0999 13.8 29.4999 13.4 28.7999 13C27.9999 12.5 27.1999 12 26.1999 11.8C25.8999 11.8 25.6999 11.7 25.4999 11.7C24.6999 11.7 23.8999 11.9 23.0999 12.1C22.7999 12.2 22.4999 12.3 22.1999 12.3C21.7999 12.4 21.3999 12.5 20.9999 12.4C20.6999 12.3 20.4999 12.2 20.1999 12C19.9999 11.9 19.7999 11.8 19.5999 11.7C18.9999 11.4 18.1999 11.4 17.6999 11.5C17.5999 11.5 17.4999 11.5 17.3999 11.5C17.2999 11.5 16.9999 11.6 16.7999 11.6C16.7999 11.3 16.7999 11.1 16.7999 10.9Z" fill="#646464"/>
<path d="M30.6999 30.1C30.0999 30 29.5999 29.8 29.0999 29.5C28.8999 29.4 28.5999 29.4 28.3999 29.7C28.2999 29.9 28.2999 30.2 28.5999 30.4C29.1999 30.8 29.8999 31 30.5999 31.2H30.6999C30.8999 31.2 31.0999 31 31.1999 30.8C31.0999 30.4 30.8999 30.1 30.6999 30.1Z" fill="#646464"/>
<path d="M20 0C9 0 0 9 0 20C0 31 9 40 20 40C31 40 40 31 40 20C40 9 31 0 20 0ZM20 39C9.5 39 1 30.5 1 20C1 9.5 9.5 1 20 1C30.5 1 39 9.5 39 20C39 30.5 30.5 39 20 39Z" fill="#646464"/>
</svg>
