<svg width="40" height="40" viewBox="0 0 40 40" fill="none" xmlns="http://www.w3.org/2000/svg">
<path d="M20 0C9 0 0 9 0 20C0 31 9 40 20 40C31 40 40 31 40 20C40 9 31 0 20 0ZM20 39C9.5 39 1 30.5 1 20C1 9.5 9.5 1 20 1C30.5 1 39 9.5 39 20C39 30.5 30.5 39 20 39Z" fill="#646464"/>
<path d="M30.6 15.2C30.5 15.2 30.5 15.2 30.4 15.2C29.4 15.3 28.5 14.7 27.9 14.1C27.2 13.3 26.8 12.3 26.5 11.3C26.4 11.1 26.3 10.8 26.3 10.6C26.3 10.4 26.4 10.3 26.6 10.1C26.8 9.9 26.9 9.6 27 9.2C27.1 8.8 26.9 8.3 26.6 8C26.2 7.6 25.6 7.3 25 7.3C24.5 7.3 24.1 7.5 23.8 7.6C23.4 7.7 23.2 7.8 22.8 7.8C22.5 7.7 22.3 7.7 22.1 7.6C21.5 7.4 20.8 7.1 19.9 7.6C19.8 7.6 19.7 7.7 19.7 7.7C19.5 7.8 18.9 8.2 18.8 8C18.7 7.9 18.8 7.7 18.8 7.5C18.8 7.2 18.9 6.9 18.8 6.6C18.7 6.1 18.2 5.4 16.5 5.5L13.7 5.7C12.3 5.8 10.8 6.1 10.2 7.3C10.1 7.6 10 7.8 9.9 8C9.9 8.2 9.8 8.3 9.7 8.4C9.5 8.8 9.1 9.1 8.7 9.4C8.3 9.8 7.7 10.3 7.4 11C7.2 11.6 7.3 12.2 7.3 12.7L7.7 16C7.8 16.6 7.9 17.5 8.5 18.1C9.7 19.4 11.8 18.6 12.5 18.3C13.6 17.9 14.8 17.5 15.5 18.2C15.7 18.4 15.8 18.6 16 18.9C16.4 19.6 16.8 20.3 17.1 21C17.6 22.2 17.9 23.5 17.7 24.8C17.7 25.1 17.6 25.3 17.6 25.6C17.5 26.1 17.5 26.5 17.5 27C17.5 28.1 17.9 29.1 18.2 30C18.6 31.1 19.1 32.2 19.9 33C20.7 33.9 21.8 34.4 22.8 34.4C23 34.4 23.1 34.4 23.3 34.4C24.8 34.2 25.8 32.9 26.2 31.7C26.6 30.6 26.7 29.3 26.6 28.3C28 27.8 29.1 26.2 28.9 24.7C28.9 24.3 28.7 24 28.6 23.6C28.4 23 28.3 22.4 28.5 22C28.7 21.6 29 21.4 29.4 21.1C29.5 21 29.5 21 29.6 20.9C30.9 19.9 31.9 18.4 32.5 16.8C32.6 16.5 32.7 16.1 32.5 15.7C32.3 14.9 31.3 15.1 30.6 15.2ZM31.7 16.6C31.2 18 30.3 19.3 29.1 20.2C29 20.3 29 20.3 28.9 20.3C28.5 20.6 28 21 27.7 21.6C27.4 22.4 27.6 23.2 27.8 23.9C27.9 24.2 28 24.5 28 24.8C28.1 26 27.3 27.2 26.1 27.5C25.9 27.5 25.7 27.7 25.7 28C25.7 29.3 25.7 30.4 25.3 31.4C24.9 32.5 24 33.3 23.1 33.5C22.3 33.6 21.3 33.2 20.6 32.4C19.9 31.6 19.5 30.6 19.1 29.7C18.8 28.8 18.4 27.9 18.4 27C18.4 26.6 18.5 26.2 18.5 25.7C18.5 25.4 18.6 25.1 18.6 24.9C18.7 23.5 18.5 22.1 17.9 20.7C17.6 19.9 17.1 19.2 16.7 18.5C16.5 18.2 16.3 17.9 16 17.6C15.5 17.1 14.9 17 14.3 17C13.4 17 12.5 17.3 12 17.5C10.5 18.1 9.5 18.1 9 17.5C8.7 17.1 8.6 16.6 8.5 15.9L8.1 12.6C8 12.2 8 11.7 8.1 11.3C8.3 10.9 8.7 10.5 9.1 10.2C9.6 9.8 10.1 9.4 10.4 8.8C10.5 8.6 10.5 8.4 10.6 8.2C10.9 8.1 11 8 11 7.8C11.4 7 12.6 6.8 13.7 6.7L16.5 6.5C17.1 6.5 17.7 6.5 17.8 6.9C17.8 7 17.8 7.2 17.8 7.4C17.8 7.8 17.7 8.2 18 8.6C18.6 9.3 19.5 8.8 20.1 8.4C20.2 8.4 20.3 8.3 20.3 8.3C20.8 8 21.2 8.1 21.7 8.3C22 8.4 22.3 8.5 22.6 8.6C23.2 8.7 23.7 8.5 24.1 8.4C24.4 8.3 24.7 8.2 25 8.2C25.3 8.2 25.6 8.3 25.8 8.6C26 8.6 26.1 8.8 26 9C26 9.2 25.9 9.3 25.7 9.5C25.5 9.8 25.4 10 25.3 10.4C25.2 10.9 25.4 11.3 25.5 11.6C25.9 12.6 26.3 13.8 27.1 14.7C28 15.8 29.3 16.3 30.5 16.2C30.6 16.2 30.7 16.2 30.7 16.2C31 16.1 31.6 16 31.7 16.2C31.8 16.3 31.7 16.5 31.7 16.6Z" fill="#646464"/>
<path d="M31.6 26C31 25.7 30.3 26.2 29.8 26.6C29.6 26.7 29.4 26.9 29.3 27.2C29.2 27.4 29.2 27.6 29.2 27.8L29 29.9C29 30 28.9 30.4 29.2 30.7C29.4 30.9 29.6 30.9 29.8 30.9C29.9 30.9 30.1 30.9 30.2 30.9C30.4 30.9 30.7 30.9 30.9 30.8C31.7 30.5 32.3 29.7 32.3 28.5C32.3 27.4 32.3 26.3 31.6 26ZM31.2 28.4C31.2 29 30.9 29.7 30.4 29.9C30.2 30 30 30 29.8 29.9L30 27.9C30 27.8 30 27.7 30.1 27.6C30.1 27.5 30.3 27.4 30.4 27.3C30.9 26.9 31.1 26.8 31.2 26.8C31.2 27 31.3 27.3 31.2 28.4Z" fill="#646464"/>
</svg>
