<svg width="40" height="40" viewBox="0 0 40 40" fill="none" xmlns="http://www.w3.org/2000/svg">
<path d="M20 0C9 0 0 9 0 20C0 31 9 40 20 40C31 40 40 31 40 20C40 9 31 0 20 0ZM20 39C9.5 39 1 30.5 1 20C1 9.5 9.5 1 20 1C30.5 1 39 9.5 39 20C39 30.5 30.5 39 20 39Z" fill="#646464"/>
<path d="M15 33C14.8 33 14.7 33 14.5 32.9C14.1 32.8 13.6 32.4 13.4 31.5C13.1 29.1 12.5 26.9 12 26.6C11.1 26.2 11.3 25.5 11.4 25.2C11.5 25 11.5 24.8 11.4 24.7C11.3 24.4 11.2 24.3 11 24.2C10.8 24 10.6 23.8 10.5 23.4C10.4 23.1 10.4 22.8 10.4 22.5C10.4 21.9 10.3 21.6 10.1 21.4C8.8 20.4 8.5 19.2 9.3 18L9.6 17.5C10.2 16.6 10.5 16.3 10.2 15.4C10.2 15.4 10.2 15.4 10.1 15.4C9.8 15.6 8.8 16 8 15C7.9 15.1 7.8 15.1 7.7 15.1C7 15.3 6 14.6 5.6 13.7C5.5 13.4 5.3 13.1 5.1 12.9C4.9 12.6 4.6 12.3 4.8 11.9C4.9 11.7 5.1 11.6 5.4 11.5C5.7 11.4 6.1 11.4 6.4 11.5C6.7 11.5 7 11.6 7.4 11.4L7.7 11.3C8.4 11 9 10.8 10 11.1C10.3 11.2 10.6 11.3 10.9 11.5C11.6 11.9 12.4 12.3 13.1 12.1C14.3 11.8 14.8 12.8 15 13.2C15 13.2 15 13.2 15 13.3C15.1 13.3 15.2 13.4 15.4 13.5C15.7 13.7 16.1 13.9 16.4 13.7C16.6 13.6 16.9 13.6 17 13.7C17.3 13.8 17.5 14.2 17.7 14.5C17.8 14.7 17.9 15 18.1 15.1C18.4 15.4 19.1 15.6 19.5 15.5C19.6 15.5 19.8 15.4 19.9 15.1C20 14.6 20.7 14.4 21.2 14.5C21.5 14.4 22.1 14.2 22.2 13.9V13.8C22.1 13.5 21.9 13.3 21.7 13.1C21.4 12.8 21.1 12.5 21.2 12.1C21.2 11.9 21.4 11.6 21.7 11.5C22.8 10.8 24.1 11 25.1 12C26 12.9 26.3 13.4 26.3 14.4C26.3 14.8 27.1 16.1 27.7 16.5C27.8 16.6 27.9 16.6 27.9 16.6C28.9 15.9 30.4 16.2 30.6 16.2C30.6 16.2 30.7 16.1 30.8 16C31 15.8 31.3 15.5 31.7 15.4C32.4 15.4 32.6 15.5 33.1 15.7L33.3 15.8C33.8 15.9 34.1 15.7 34.8 16C35.3 16.2 35.4 16.5 35.4 16.8C35.4 17.2 35 17.5 34.4 17.6C33.4 17.6 32.3 17.8 32 18.2C32 18.3 31.9 18.3 32 18.5C32.1 19 32.6 19.4 33.1 19.9C33.8 20.5 34.5 21.2 34.2 22C34 22.5 33.8 22.8 33.6 23C33.3 23.4 33.3 23.5 33.3 23.7C33.6 24.6 32.6 25.2 32 25.3H31.8C31.7 25.4 31.6 25.5 31.6 25.9C31.6 26.7 31 27.7 30.2 28C29.6 28.2 29.1 28.1 28.7 27.7C28.3 27.3 28.2 26.9 28.1 26.5C27.9 26 27.9 25.7 27.1 25.7C25.5 25.6 24.3 25.5 23.5 25.3C23.8 25.7 24.1 26.1 24.2 26.6C24.3 27.1 24.2 27.6 23.8 27.9C23.6 28.1 23.5 28.3 23.3 28.5C22.9 29.1 22.3 29.8 21.2 30L21 30.1C19.9 30.3 19.7 30.4 18.7 31.4C17.6 32 16.1 33 15 33ZM14.3 31.3C14.4 31.9 14.7 32 14.8 32C15.5 32.2 16.9 31.4 17.8 30.5C19 29.3 19.4 29.2 20.6 28.9L20.9 28.8C21.7 28.6 22.1 28.1 22.5 27.6C22.7 27.3 22.9 27.1 23.2 26.9C23 27 23 26.8 23 26.6C22.9 26 22.4 25.5 22.1 25.4C21.7 25.2 21.5 25 21.3 24.8C21.1 24.6 21.1 24.5 20.8 24.6C20.2 25 19.6 25.2 19.1 25C18 24.7 17.5 23.2 17.1 22C17 21.8 17 21.6 16.9 21.5C16.7 20.9 16.8 20.5 17 20.2C17.2 20 17.6 19.9 17.9 20C18.4 20.2 19.1 20.7 19.2 21.3C19.4 22 19.5 22.1 20.3 22.5C20.6 22.6 20.8 22.7 21.1 22.8C21.7 23 22.5 23.2 22.5 24C22.7 24.2 23.7 24.5 26.8 24.6C28.2 24.7 28.4 25.5 28.6 26.1C28.7 26.4 28.8 26.7 29 26.9C29.1 27 29.2 27.1 29.6 27C30.1 26.8 30.5 26.2 30.5 25.7C30.5 25.2 30.6 24.7 30.9 24.5C31.1 24.3 31.4 24.3 31.5 24.3C31.8 24.2 32.2 23.9 32.1 23.8C31.9 23.2 32.2 22.7 32.5 22.4C32.7 22.2 32.9 21.9 33 21.6C33.1 21.3 32.6 20.9 32.2 20.5C31.7 20 31.1 19.4 30.8 18.7C30.7 18.3 30.7 17.9 31 17.6C31.6 16.8 33.1 16.7 33.9 16.7C33.6 16.7 33.3 16.7 32.8 16.6L32.5 16.5C32.1 16.1 32 16 31.6 16C31.6 16 31.4 16.2 31.3 16.3C31.1 16.6 30.7 16.9 30.3 16.8C30.2 16.8 29 16.5 28.3 17C28.1 17.1 27.7 17.3 27.1 17C26.2 16.5 25.2 15 25.2 14.2C25.2 13.6 25.1 13.3 24.2 12.4C23.4 11.6 22.5 11.7 22 12.1C22.1 12.2 22.1 12.3 22.2 12.3C22.5 12.6 22.8 12.9 23 13.4C23.1 13.7 23.1 14 22.9 14.3C22.5 15 21.5 15.3 21.3 15.3H21.1C20.9 15.3 20.7 15.3 20.6 15.3C20.5 15.8 20.1 16.1 19.6 16.2C18.8 16.4 17.8 16 17.4 15.6C17.1 15.3 16.9 15 16.8 14.7C16.8 14.6 16.7 14.5 16.7 14.4C16 14.6 15.4 14.3 15 14.1C14.9 14.1 14.8 14 14.7 14C14.4 14 14.3 13.7 14.1 13.5C13.8 13 13.6 12.8 13.2 12.9C12.2 13.2 11.2 12.7 10.4 12.3C10.1 12.2 9.8 12 9.6 11.9C9 11.7 8.5 11.8 7.8 12.1L7.5 12.2C6.9 12.4 6.5 12.3 6.1 12.3C6 12.3 5.8 12.3 5.7 12.3C5.9 12.6 6.2 12.9 6.3 13.4C6.5 14 7.2 14.3 7.4 14.3C7.6 14.1 7.7 14 8 14C8.3 14 8.5 14.2 8.7 14.4C9 14.8 9.3 14.8 9.9 14.6C10 14.6 10.1 14.5 10.1 14.5C10.2 14.4 10.4 14.3 10.6 14.4C10.9 14.5 10.9 14.7 11.1 15C11.6 16.4 11.2 17.1 10.5 18.1L10.2 18.5C9.7 19.3 9.9 20 10.8 20.7C11.4 21.2 11.5 21.9 11.5 22.5C11.5 22.7 11.5 23 11.6 23.1C11.7 23.3 11.8 23.4 11.9 23.5C12.1 23.7 12.3 23.9 12.5 24.3C12.7 24.7 12.6 25.1 12.5 25.4C12.5 25.5 12.4 25.6 12.4 25.7C12.4 25.7 12.4 25.7 12.5 25.8C13.5 26.4 14.1 30.2 14.3 31.3ZM17.7 20.9C17.7 21 17.7 21.1 17.8 21.2C17.9 21.3 17.9 21.5 18 21.7C18.3 22.7 18.8 24 19.5 24.2C19.8 24.3 20.1 24.2 20.5 23.9L20.6 23.8C20.8 23.7 21 23.7 21.2 23.7H21.1C20.8 23.6 20.5 23.5 20.2 23.4C19.2 23 18.8 22.7 18.5 21.6C18.3 21.3 17.9 21 17.7 20.9Z" fill="#646464"/>
</svg>
