<svg width="76" height="76" viewBox="0 0 76 76" fill="none" xmlns="http://www.w3.org/2000/svg">
<circle cx="38" cy="38" r="30" fill="url(#paint0_linear_3703_176665)"/>
<circle cx="38" cy="38" r="34" stroke="#88DBF5" stroke-opacity="0.2" stroke-width="8"/>
<g clip-path="url(#clip0_3703_176665)">
<path d="M18.6 33.8009L25.8 24.0009C26.2 23.4009 27 23.3009 27.6 23.7009L29.6 25.2009C30.2 25.6009 30.3 26.4009 29.9 27.0009L21.8 37.9009C21.4 38.5009 20.6 38.6009 20 38.2009L17.5 36.3009" stroke="white" stroke-miterlimit="10" stroke-linecap="round" stroke-linejoin="round"/>
<path d="M56.4004 33.8025L50.9004 26.4025L49.2004 24.1025C48.8004 23.5025 48.0004 23.4025 47.4004 23.8025L45.4004 25.3025C44.8004 25.7025 44.7004 26.5025 45.1004 27.1025L53.2004 38.0025C53.6004 38.6025 54.4004 38.7025 55.0004 38.3025L57.5004 36.4025" stroke="white" stroke-miterlimit="10" stroke-linecap="round" stroke-linejoin="round"/>
<path d="M43.4004 36.9047L36.9004 33.3047" stroke="white" stroke-miterlimit="10" stroke-linecap="round" stroke-linejoin="round"/>
<path d="M22 37.7031C23.6 39.2031 24.6 40.6031 25.6 41.9031" stroke="white" stroke-miterlimit="10" stroke-linecap="round" stroke-linejoin="round"/>
<path d="M52.9002 37.7031C51.8002 38.8031 51.0002 39.8031 50.2002 40.7031" stroke="white" stroke-miterlimit="10" stroke-linecap="round" stroke-linejoin="round"/>
<path d="M43.4002 36.8984L49.9002 40.5984C50.7002 41.0984 51.1002 42.1984 50.6002 42.9984C50.1002 43.7984 49.0002 44.1984 48.2002 43.6984L41.7002 39.9984" stroke="white" stroke-miterlimit="10" stroke-linecap="round" stroke-linejoin="round"/>
<path d="M41.7 40L47 43C47.8 43.5 48.2 44.6 47.7 45.4C47.2 46.2 46.1 46.6 45.3 46.1L40 43.1" stroke="white" stroke-miterlimit="10" stroke-linecap="round" stroke-linejoin="round"/>
<path d="M40.0008 43.1016L44.1008 45.4016C44.9008 45.9016 45.3008 47.0016 44.8008 47.8016C44.3008 48.6016 43.2008 49.0016 42.4008 48.5016L38.3008 46.2016" stroke="white" stroke-miterlimit="10" stroke-linecap="round" stroke-linejoin="round"/>
<path d="M38.3004 46.1016L41.1004 47.7016C41.9004 48.2016 42.3004 49.3016 41.8004 50.1016C41.3004 50.9016 40.2004 51.3016 39.4004 50.8016L37.4004 49.7016" stroke="white" stroke-miterlimit="10" stroke-linecap="round" stroke-linejoin="round"/>
<path d="M29.5996 27.6016L33.7996 27.7016C34.2996 27.7016 34.7996 27.8016 35.1996 28.0016L36.3996 28.6016" stroke="white" stroke-miterlimit="10" stroke-linecap="round" stroke-linejoin="round"/>
<path d="M32.2003 50.4007L34.4003 48.1007C35.1003 47.4007 36.2003 47.4007 36.9003 48.0007C37.6003 48.7007 37.6003 49.8007 37.0003 50.5007L34.8003 52.8007C34.1003 53.5007 33.0003 53.5007 32.3003 52.9007C31.6003 52.2007 31.5003 51.1007 32.2003 50.4007Z" stroke="white" stroke-miterlimit="10" stroke-linecap="round" stroke-linejoin="round"/>
<path d="M29.6003 47.9038L33.0003 44.3038C33.7003 43.6038 34.8003 43.6038 35.5003 44.2038C36.2003 44.9038 36.2003 46.0038 35.6003 46.7038L32.2003 50.3038C31.5003 51.0038 30.4003 51.0038 29.7003 50.4038C29.0003 49.8038 29.0003 48.6038 29.6003 47.9038Z" stroke="white" stroke-miterlimit="10" stroke-linecap="round" stroke-linejoin="round"/>
<path d="M27.1 45.5007L30.8 41.6007C31.5 40.9007 32.6 40.9007 33.3 41.5007C34 42.2007 34 43.3007 33.4 44.0007L29.7 47.9007C29 48.6007 27.9 48.6007 27.2 48.0007C26.4 47.3007 26.4 46.2007 27.1 45.5007Z" stroke="white" stroke-miterlimit="10" stroke-linecap="round" stroke-linejoin="round"/>
<path d="M24.5001 43.1038L27.2001 40.3038C27.9001 39.6038 29.0001 39.6038 29.7001 40.2038C30.4001 40.9038 30.4001 42.0038 29.8001 42.7038L27.1001 45.5038C26.4001 46.2038 25.3001 46.2038 24.6001 45.6038C23.9001 44.9038 23.8001 43.8038 24.5001 43.1038Z" stroke="white" stroke-miterlimit="10" stroke-linecap="round" stroke-linejoin="round"/>
<path d="M36.8999 33.3003L34.5999 34.6003C32.9999 35.6003 30.8999 35.0003 29.9999 33.4003C29.6999 32.9003 29.8999 32.4003 30.2999 32.1003L38.4999 27.4003C39.2999 27.0003 40.0999 26.8003 40.9999 27.0003L45.1999 27.7003" stroke="white" stroke-miterlimit="10" stroke-linecap="round" stroke-linejoin="round"/>
</g>
<defs>
<linearGradient id="paint0_linear_3703_176665" x1="51.6364" y1="12.1667" x2="4.96779" y2="76.6384" gradientUnits="userSpaceOnUse">
<stop stop-color="#00C6FF"/>
<stop offset="1" stop-color="#0072FF"/>
</linearGradient>
<clipPath id="clip0_3703_176665">
<rect width="41" height="30.8" fill="white" transform="translate(17 23)"/>
</clipPath>
</defs>
</svg>
