<svg width="25" height="29" viewBox="0 0 25 29" fill="none" xmlns="http://www.w3.org/2000/svg">
<g filter="url(#filter0_d_7086_8600)">
<path d="M11.9998 24.8C11.4837 24.8 11.0708 24.5956 11.0708 24.34V11.46C11.0708 11.2044 11.4837 11 11.9998 11C12.516 11 12.9289 11.2044 12.9289 11.46V24.3656C12.9289 24.5956 12.516 24.8 11.9998 24.8Z" fill="url(#paint0_linear_7086_8600)"/>
<path d="M11.7959 12.6867C17.9964 13.6001 22.342 8.89447 21.4941 2.11282C15.2936 1.19937 10.9479 5.93269 11.7959 12.6867Z" fill="url(#paint1_linear_7086_8600)"/>
</g>
<path d="M12.1999 12.6937C6.00032 13.5324 1.64383 9.31205 2.50954 3.30617C8.70916 2.46751 13.0656 6.68786 12.1999 12.6937Z" fill="url(#paint2_linear_7086_8600)"/>
<g filter="url(#filter1_bi_7086_8600)">
<path d="M20.8962 14.6001H3.07728C2.71133 14.6001 2.40168 14.8663 2.40168 15.1809V16.4153C2.37353 16.7299 2.68318 16.9961 3.07728 16.9961C3.63303 16.9961 4.11075 17.3901 4.21652 17.9357L5.55447 24.8376C5.69522 25.5152 6.37081 26.0235 7.18716 25.9993H16.8707C17.6589 25.9993 18.3345 25.5152 18.4753 24.8376L19.7883 17.9363C19.8921 17.3908 20.369 16.9961 20.9243 16.9961C21.2903 16.9961 21.5999 16.7299 21.5999 16.4153V15.1809C21.5999 14.8663 21.2903 14.6001 20.8962 14.6001Z" fill="#F3CFFF" fill-opacity="0.56"/>
</g>
<g filter="url(#filter2_d_7086_8600)">
<path d="M13.9611 19.9724C13.6684 19.6976 13.2001 19.5052 12.4977 19.3953L11.8538 19.2579C11.5318 19.203 11.3269 19.1205 11.1806 19.0381C11.0635 18.9556 11.005 18.8182 11.005 18.6808C11.005 18.4885 11.0928 18.3236 11.2684 18.2136C11.444 18.1037 11.7367 18.0762 12.1172 18.0762C12.4099 18.0762 12.7025 18.1037 13.0245 18.1862C13.3464 18.2686 13.6684 18.351 14.0196 18.5159V17.3068C13.6391 17.2243 13.2586 17.1419 12.9074 17.0869C12.7903 17.0869 12.7025 17.0594 12.5855 17.0594V16.3999H11.4147V17.0594C10.8879 17.1144 10.4781 17.2518 10.1855 17.4991C9.80498 17.8014 9.6001 18.2411 9.6001 18.8182C9.6001 19.2854 9.74644 19.6427 10.0099 19.9175C10.3025 20.1923 10.7416 20.3846 11.3562 20.4946L11.9708 20.632C12.3513 20.7144 12.5855 20.7968 12.7025 20.9068C12.8196 21.0167 12.8781 21.1541 12.8781 21.319C12.8781 21.5114 12.7903 21.6762 12.6147 21.7862C12.4391 21.8961 12.1757 21.951 11.8245 21.951C11.4733 21.951 11.122 21.8961 10.7708 21.8136C10.4196 21.7037 10.0391 21.5663 9.62937 21.3739V22.5556C10.0099 22.693 10.4196 22.803 10.8001 22.8579C11.005 22.8854 11.2099 22.9129 11.3855 22.9404V23.5999H12.5562V22.9404C13.083 22.8854 13.4928 22.748 13.7855 22.5007C14.1952 22.1984 14.4001 21.7312 14.4001 21.0991C14.4001 20.6045 14.2538 20.2197 13.9611 19.9724Z" fill="white"/>
</g>
<defs>
<filter id="filter0_d_7086_8600" x="8.0708" y="0" width="16.5288" height="28.8" filterUnits="userSpaceOnUse" color-interpolation-filters="sRGB">
<feFlood flood-opacity="0" result="BackgroundImageFix"/>
<feColorMatrix in="SourceAlpha" type="matrix" values="0 0 0 0 0 0 0 0 0 0 0 0 0 0 0 0 0 0 127 0" result="hardAlpha"/>
<feOffset dy="1"/>
<feGaussianBlur stdDeviation="1.5"/>
<feColorMatrix type="matrix" values="0 0 0 0 0.639216 0 0 0 0 0.027451 0 0 0 0 0.792157 0 0 0 0.1 0"/>
<feBlend mode="normal" in2="BackgroundImageFix" result="effect1_dropShadow_7086_8600"/>
<feBlend mode="normal" in="SourceGraphic" in2="effect1_dropShadow_7086_8600" result="shape"/>
</filter>
<filter id="filter1_bi_7086_8600" x="-1.6001" y="10.6001" width="27.2002" height="19.3999" filterUnits="userSpaceOnUse" color-interpolation-filters="sRGB">
<feFlood flood-opacity="0" result="BackgroundImageFix"/>
<feGaussianBlur in="BackgroundImage" stdDeviation="2"/>
<feComposite in2="SourceAlpha" operator="in" result="effect1_backgroundBlur_7086_8600"/>
<feBlend mode="normal" in="SourceGraphic" in2="effect1_backgroundBlur_7086_8600" result="shape"/>
<feColorMatrix in="SourceAlpha" type="matrix" values="0 0 0 0 0 0 0 0 0 0 0 0 0 0 0 0 0 0 127 0" result="hardAlpha"/>
<feOffset dy="2"/>
<feGaussianBlur stdDeviation="1"/>
<feComposite in2="hardAlpha" operator="arithmetic" k2="-1" k3="1"/>
<feColorMatrix type="matrix" values="0 0 0 0 1 0 0 0 0 1 0 0 0 0 1 0 0 0 0.45 0"/>
<feBlend mode="normal" in2="shape" result="effect2_innerShadow_7086_8600"/>
</filter>
<filter id="filter2_d_7086_8600" x="7.6001" y="16.3999" width="8.7998" height="11.2" filterUnits="userSpaceOnUse" color-interpolation-filters="sRGB">
<feFlood flood-opacity="0" result="BackgroundImageFix"/>
<feColorMatrix in="SourceAlpha" type="matrix" values="0 0 0 0 0 0 0 0 0 0 0 0 0 0 0 0 0 0 127 0" result="hardAlpha"/>
<feOffset dy="2"/>
<feGaussianBlur stdDeviation="1"/>
<feColorMatrix type="matrix" values="0 0 0 0 0.643137 0 0 0 0 0.027451 0 0 0 0 0.796078 0 0 0 0.25 0"/>
<feBlend mode="normal" in2="BackgroundImageFix" result="effect1_dropShadow_7086_8600"/>
<feBlend mode="normal" in="SourceGraphic" in2="effect1_dropShadow_7086_8600" result="shape"/>
</filter>
<linearGradient id="paint0_linear_7086_8600" x1="18.7283" y1="3.58333" x2="1.79915" y2="14.3836" gradientUnits="userSpaceOnUse">
<stop stop-color="#8E2DE2"/>
<stop offset="1" stop-color="#4A00E0"/>
</linearGradient>
<linearGradient id="paint1_linear_7086_8600" x1="18.7283" y1="3.58333" x2="1.79915" y2="14.3836" gradientUnits="userSpaceOnUse">
<stop stop-color="#8E2DE2"/>
<stop offset="1" stop-color="#4A00E0"/>
</linearGradient>
<linearGradient id="paint2_linear_7086_8600" x1="9.60694" y1="3.86662" x2="2.21699" y2="14.405" gradientUnits="userSpaceOnUse">
<stop stop-color="#8E2DE2"/>
<stop offset="1" stop-color="#4A00E0"/>
</linearGradient>
</defs>
</svg>
