<svg width="34" height="38" viewBox="0 0 34 38" fill="none" xmlns="http://www.w3.org/2000/svg">
<path d="M14.9192 17.3493C19.1799 17.3493 22.6479 13.4973 22.6479 8.79966C22.6479 4.10205 21.558 0.25 14.9192 0.25C8.2805 0.25 7.19056 4.10205 7.19056 8.79966C7.19056 13.4973 10.7576 17.3493 14.9192 17.3493Z" fill="url(#paint0_linear_7301_17288)"/>
<path d="M16.5046 35.2003L17.8918 31.1603C15.9101 29.3753 14.8201 26.8385 14.8201 24.3018C14.8201 22.7986 15.2165 21.3893 15.9101 20.074C15.6128 20.074 15.3156 20.1679 14.9192 20.1679C12.0458 20.1679 10.7576 18.7586 10.7576 18.7586C2.1372 19.98 0.849086 22.3288 0.75 30.3148C0.75 30.6906 0.75 30.8785 0.75 30.9724C0.75 31.0664 0.75 31.3482 0.75 31.818C0.75 31.818 2.8308 35.764 14.9192 35.764C15.4147 35.764 15.9101 35.764 16.4055 35.764C16.4055 35.5761 16.4055 35.3882 16.5046 35.2003Z" fill="url(#paint1_linear_7301_17288)"/>
<path d="M29.9802 30.4087C31.9619 28.9994 33.25 26.7446 33.25 24.2079C33.25 19.8861 29.5838 16.4098 25.0259 16.4098C20.468 16.4098 16.8018 19.8861 16.8018 24.2079C16.8018 26.7446 18.0899 29.0934 20.1707 30.5027L18.3872 35.764C18.2881 36.0459 18.5853 36.4217 18.8826 36.3277L20.6661 35.764C20.7652 35.764 20.7652 35.764 20.8643 35.764C20.9634 35.764 21.0625 35.8579 21.1616 35.9519L22.0533 37.5491C22.2515 37.8309 22.6478 37.8309 22.7469 37.4551L24.8277 32.1938C25.0259 32.0999 25.125 32.0999 25.3232 32.1938L27.6021 36.7035C27.7012 36.9854 28.1966 37.0793 28.2957 36.7975L29.1875 35.2003C29.1875 35.1063 29.2866 35.1063 29.2866 35.1063C29.3857 35.0124 29.4847 35.0124 29.6829 35.0124L31.4665 35.5761C31.7637 35.67 32.061 35.3882 31.9619 35.0124L29.9802 30.4087ZM29.3857 21.953L25.0259 27.4022C24.8277 27.5901 24.6296 27.5901 24.3323 27.5901C24.1341 27.5901 23.936 27.4962 23.8369 27.4022L21.0625 25.3353C20.6661 25.0534 20.5671 24.5837 20.8643 24.2079C21.1616 23.8321 21.657 23.7381 22.0533 24.02L24.2332 25.6171L28.0975 20.7316C28.3948 20.3558 28.8902 20.2619 29.2866 20.5437C29.6829 21.0135 29.6829 21.4832 29.3857 21.953Z" fill="url(#paint2_linear_7301_17288)"/>
<defs>
<linearGradient id="paint0_linear_7301_17288" x1="33.25" y1="0.249999" x2="-3.86929" y2="32.42" gradientUnits="userSpaceOnUse">
<stop stop-color="#FF6A00"/>
<stop offset="1" stop-color="#EE0979"/>
</linearGradient>
<linearGradient id="paint1_linear_7301_17288" x1="33.25" y1="0.249999" x2="-3.86929" y2="32.42" gradientUnits="userSpaceOnUse">
<stop stop-color="#FF6A00"/>
<stop offset="1" stop-color="#EE0979"/>
</linearGradient>
<linearGradient id="paint2_linear_7301_17288" x1="33.25" y1="0.249999" x2="-3.86929" y2="32.42" gradientUnits="userSpaceOnUse">
<stop stop-color="#FF6A00"/>
<stop offset="1" stop-color="#EE0979"/>
</linearGradient>
</defs>
</svg>
