<svg width="24" height="26" viewBox="0 0 24 26" fill="none" xmlns="http://www.w3.org/2000/svg">
<path d="M15.5685 18.1711C15.5055 13.5667 14.8752 12.2426 10.0533 11.4C10.0533 11.4 9.36 12.2125 7.78424 12.2125C6.20848 12.2125 5.51515 11.4 5.51515 11.4C0.756364 12.2125 0.0630303 13.5065 0 17.9905C0 18.3517 0 18.3818 0 18.3216C0 18.4119 0 18.5623 0 18.8031C0 18.8031 1.13454 21 7.78424 21C14.4339 21 15.6 18.8031 15.6 18.8031C15.6 18.6526 15.6 18.5322 15.6 18.442C15.6 18.5021 15.5685 18.442 15.5685 18.1711Z" fill="url(#paint0_linear_7086_7945)"/>
<path d="M7.8 10.8C10.1084 10.8 12 8.65656 12 5.99995C12 3.34335 11.3908 1.19995 7.8 1.19995C4.20916 1.19995 3.6 3.34335 3.6 5.99995C3.6 8.65656 5.4916 10.8 7.8 10.8Z" fill="url(#paint1_linear_7086_7945)"/>
<g filter="url(#filter0_b_7086_7945)">
<path d="M23.9402 20.04C23.8505 13.7446 23.1329 11.9508 17.5714 10.8C17.5714 10.8 16.794 11.9169 14.9701 11.9169C13.1462 11.9169 12.3688 10.8 12.3688 10.8C6.86711 11.9169 6.0897 13.6769 6 19.8369C6 20.3446 6 20.3785 6 20.3108C6 20.4123 6 20.6154 6 20.9877C6 20.9877 7.31561 24 15 24C22.6844 24 24 20.9877 24 20.9877C24 20.7508 24 20.6154 24 20.5138C23.9701 20.5138 23.9701 20.4462 23.9402 20.04Z" fill="#88DBF5" fill-opacity="0.5"/>
<path d="M15 10.2C17.6566 10.2 19.8 7.90698 19.8 5.08682C19.8 2.29302 19.1057 0 15 0C10.8943 0 10.2 2.29302 10.2 5.08682C10.2 7.90698 12.3434 10.2 15 10.2Z" fill="#88DBF5" fill-opacity="0.5"/>
</g>
<g filter="url(#filter1_d_7086_7945)">
<path d="M19.0723 15.1968H12.1446L13.4486 13.8927C13.6116 13.7297 13.6116 13.4852 13.4486 13.3222C13.2856 13.1592 13.0411 13.1592 12.8781 13.3222L10.9221 15.2783C10.7591 15.4413 10.7591 15.6858 10.9221 15.8488L12.8781 17.8048C12.9596 17.8863 13.0411 17.9271 13.1634 17.9271C13.2449 17.9271 13.3671 17.8863 13.4486 17.8048C13.6116 17.6418 13.6116 17.3973 13.4486 17.2343L12.1446 15.9303H19.0315C19.2353 15.9303 19.439 15.7673 19.439 15.5228C19.439 15.4005 19.276 15.1968 19.0723 15.1968Z" fill="white"/>
<path d="M17.3607 17.275C17.1977 17.112 16.9532 17.112 16.7902 17.275C16.6272 17.438 16.6272 17.6825 16.7902 17.8456L18.0942 19.1496H11.2073C11.0036 19.1496 10.7998 19.3126 10.7998 19.5571C10.7998 19.8016 10.9628 19.9646 11.2073 19.9646H18.0942L16.831 21.2279C16.668 21.3909 16.668 21.6354 16.831 21.7984C16.9125 21.8799 16.994 21.9207 17.1162 21.9207C17.1977 21.9207 17.32 21.8799 17.4015 21.7984L19.3575 19.8424C19.5205 19.6794 19.5205 19.4348 19.3575 19.2718L17.3607 17.275Z" fill="white"/>
</g>
<defs>
<filter id="filter0_b_7086_7945" x="3" y="-3" width="24" height="30" filterUnits="userSpaceOnUse" color-interpolation-filters="sRGB">
<feFlood flood-opacity="0" result="BackgroundImageFix"/>
<feGaussianBlur in="BackgroundImage" stdDeviation="1.5"/>
<feComposite in2="SourceAlpha" operator="in" result="effect1_backgroundBlur_7086_7945"/>
<feBlend mode="normal" in="SourceGraphic" in2="effect1_backgroundBlur_7086_7945" result="shape"/>
</filter>
<filter id="filter1_d_7086_7945" x="7.7998" y="11.2" width="14.6802" height="14.7207" filterUnits="userSpaceOnUse" color-interpolation-filters="sRGB">
<feFlood flood-opacity="0" result="BackgroundImageFix"/>
<feColorMatrix in="SourceAlpha" type="matrix" values="0 0 0 0 0 0 0 0 0 0 0 0 0 0 0 0 0 0 127 0" result="hardAlpha"/>
<feOffset dy="1"/>
<feGaussianBlur stdDeviation="1.5"/>
<feColorMatrix type="matrix" values="0 0 0 0 0 0 0 0 0 0.447059 0 0 0 0 1 0 0 0 0.55 0"/>
<feBlend mode="normal" in2="BackgroundImageFix" result="effect1_dropShadow_7086_7945"/>
<feBlend mode="normal" in="SourceGraphic" in2="effect1_dropShadow_7086_7945" result="shape"/>
</filter>
<linearGradient id="paint0_linear_7086_7945" x1="11.3455" y1="2.57495" x2="-4.8083" y2="20.1573" gradientUnits="userSpaceOnUse">
<stop stop-color="#00C6FF"/>
<stop offset="1" stop-color="#0072FF"/>
</linearGradient>
<linearGradient id="paint1_linear_7086_7945" x1="11.3455" y1="2.57495" x2="-4.8083" y2="20.1573" gradientUnits="userSpaceOnUse">
<stop stop-color="#00C6FF"/>
<stop offset="1" stop-color="#0072FF"/>
</linearGradient>
</defs>
</svg>
