<svg width="29" height="32" viewBox="0 0 29 32" fill="none" xmlns="http://www.w3.org/2000/svg">
<path d="M27.601 7.07385L19.3316 4.86467C18.1503 4.53979 17 5.48194 17 6.74897V24H27.1347C28.1606 24 29 23.1229 29 22.0508V8.95815C29 8.08097 28.4093 7.30126 27.601 7.07385Z" fill="url(#paint0_linear_7086_7908)"/>
<path d="M25.708 12H23.892C23.4142 12 23 11.5821 23 11.1C23 10.6178 23.4142 10.2 23.892 10.2H25.708C26.1858 10.2 26.6 10.6178 26.6 11.1C26.6 11.55 26.1858 12 25.708 12Z" fill="white"/>
<path d="M25.708 15.6H23.892C23.4142 15.6 23 15.1822 23 14.7C23 14.2179 23.4142 13.8 23.892 13.8H25.708C26.1858 13.8 26.6 14.2179 26.6 14.7C26.6 15.2143 26.1858 15.6 25.708 15.6Z" fill="white"/>
<path d="M25.708 19.1999H23.892C23.4142 19.1999 23 18.782 23 18.2999C23 17.8178 23.4142 17.3999 23.892 17.3999H25.708C26.1858 17.3999 26.6 17.8178 26.6 18.2999C26.6 18.7499 26.1858 19.1999 25.708 19.1999Z" fill="white"/>
<g filter="url(#filter0_bi_7086_7908)">
<path d="M6.43265 3.05135L18.2122 0.0632282C19.422 -0.254657 20.6 0.667211 20.6 1.90696V24H6.9102C5.85959 24 5 23.1417 5 22.0927V4.89509C5 4.0368 5.6049 3.27387 6.43265 3.05135Z" fill="url(#paint1_linear_7086_7908)" fill-opacity="0.3"/>
</g>
<g filter="url(#filter1_d_7086_7908)">
<path d="M13.4001 17.9999C16.0511 17.9999 18.2001 15.8509 18.2001 13.1999C18.2001 10.5489 16.0511 8.3999 13.4001 8.3999C10.7491 8.3999 8.6001 10.5489 8.6001 13.1999C8.6001 15.8509 10.7491 17.9999 13.4001 17.9999Z" stroke="white" stroke-miterlimit="10" stroke-linecap="round" stroke-linejoin="round"/>
<path d="M13.3999 10.7998V13.1998H15.7999" stroke="white" stroke-width="2" stroke-miterlimit="10" stroke-linecap="round" stroke-linejoin="round"/>
</g>
<defs>
<filter id="filter0_bi_7086_7908" x="2" y="-3" width="21.6001" height="30" filterUnits="userSpaceOnUse" color-interpolation-filters="sRGB">
<feFlood flood-opacity="0" result="BackgroundImageFix"/>
<feGaussianBlur in="BackgroundImage" stdDeviation="1.5"/>
<feComposite in2="SourceAlpha" operator="in" result="effect1_backgroundBlur_7086_7908"/>
<feBlend mode="normal" in="SourceGraphic" in2="effect1_backgroundBlur_7086_7908" result="shape"/>
<feColorMatrix in="SourceAlpha" type="matrix" values="0 0 0 0 0 0 0 0 0 0 0 0 0 0 0 0 0 0 127 0" result="hardAlpha"/>
<feOffset dy="2"/>
<feGaussianBlur stdDeviation="1.5"/>
<feComposite in2="hardAlpha" operator="arithmetic" k2="-1" k3="1"/>
<feColorMatrix type="matrix" values="0 0 0 0 1 0 0 0 0 1 0 0 0 0 1 0 0 0 0.45 0"/>
<feBlend mode="normal" in2="shape" result="effect2_innerShadow_7086_7908"/>
</filter>
<filter id="filter1_d_7086_7908" x="0.100098" y="4.8999" width="26.6001" height="26.6001" filterUnits="userSpaceOnUse" color-interpolation-filters="sRGB">
<feFlood flood-opacity="0" result="BackgroundImageFix"/>
<feColorMatrix in="SourceAlpha" type="matrix" values="0 0 0 0 0 0 0 0 0 0 0 0 0 0 0 0 0 0 127 0" result="hardAlpha"/>
<feOffset dy="5"/>
<feGaussianBlur stdDeviation="4"/>
<feColorMatrix type="matrix" values="0 0 0 0 0 0 0 0 0 0.494118 0 0 0 0 1 0 0 0 0.8 0"/>
<feBlend mode="normal" in2="BackgroundImageFix" result="effect1_dropShadow_7086_7908"/>
<feBlend mode="normal" in="SourceGraphic" in2="effect1_dropShadow_7086_7908" result="shape"/>
</filter>
<linearGradient id="paint0_linear_7086_7908" x1="17" y1="24" x2="25.3088" y2="2.2599" gradientUnits="userSpaceOnUse">
<stop stop-color="#00C6FF"/>
<stop offset="1" stop-color="#0072FF"/>
</linearGradient>
<linearGradient id="paint1_linear_7086_7908" x1="12.8" y1="0" x2="12.8" y2="24" gradientUnits="userSpaceOnUse">
<stop stop-color="#009FFF"/>
<stop offset="1" stop-color="#00C6FF"/>
</linearGradient>
</defs>
</svg>
