<svg width="14" height="17" viewBox="0 0 14 17" fill="none" xmlns="http://www.w3.org/2000/svg">
<path d="M11.3196 9.09822C11.3019 7.13301 12.9287 6.17694 13.0031 6.13242C12.0818 4.78916 10.6538 4.60563 10.1519 4.59099C8.95257 4.46478 7.78918 5.30866 7.17822 5.30866C6.55506 5.30866 5.61422 4.60319 4.60022 4.62392C3.29537 4.64404 2.07466 5.39951 1.40517 6.57266C0.023487 8.96468 1.05395 12.4799 2.37771 14.4133C3.03989 15.3603 3.81365 16.4176 4.82644 16.3804C5.81727 16.3395 6.18738 15.7487 7.38309 15.7487C8.56782 15.7487 8.91537 16.3804 9.94828 16.3566C11.0117 16.3395 11.6812 15.4054 12.3202 14.4499C13.0854 13.3646 13.3927 12.2957 13.4049 12.2408C13.3799 12.2323 11.3397 11.4537 11.3196 9.09822Z" fill="#646464"/>
<path d="M9.36828 3.32137C9.90119 2.65492 10.2658 1.74823 10.1646 0.828125C9.39328 0.862271 8.42866 1.36165 7.87319 2.01347C7.38173 2.58784 6.94272 3.52929 7.05613 4.41464C7.92258 4.47927 8.81219 3.97745 9.36828 3.32137Z" fill="#646464"/>
</svg>
