<svg width="30" height="27" viewBox="0 0 30 27" fill="none" xmlns="http://www.w3.org/2000/svg">
<path d="M2.21152 19.5434H1.71152V20.0434V22.46V22.96H2.21152H5.61417V23.2115H2.21152H1.71152V23.7115V26.2569H1.21436V19.3042H6.10905V19.5434H2.21152ZM9.55954 26.0116H13.6199V26.2508H8.56238V19.3042H13.4571V19.5434H9.55954H9.05954V20.0434V22.1086V22.6086H9.55954H12.9622V22.8231H9.55954H9.05954V23.3231V25.5116V26.0116H9.55954ZM17.2897 26.0116H21.3501V26.2508H16.2925V19.3042H21.1872V19.5434H17.2897H16.7897V20.0434V22.1086V22.6086H17.2897H20.6861V22.8231H17.2897H16.7897V23.3231V25.5116V26.0116H17.2897ZM23.4651 25.7446L23.5745 25.5033C23.8329 25.646 24.1144 25.7674 24.4155 25.8688L24.4174 25.8694C24.9437 26.0443 25.4793 26.1415 26.0221 26.1415C26.6587 26.1415 27.2175 26.0466 27.6371 25.7799L27.6371 25.7799L27.6411 25.7773C28.0513 25.5111 28.3137 25.1187 28.3137 24.6058C28.3137 24.2405 28.1752 23.9177 27.896 23.6717C27.6724 23.4696 27.3959 23.3222 27.0944 23.2251C26.8193 23.1307 26.4498 23.034 26.013 22.9297L26.013 22.9297L26.0093 22.9288C25.4096 22.7903 24.9312 22.6482 24.5824 22.5166L24.5798 22.5157C24.2786 22.4039 24.0199 22.2243 23.7951 21.973C23.624 21.7816 23.5152 21.5006 23.5152 21.061C23.5152 20.7195 23.6063 20.4179 23.7914 20.1471L23.3786 19.865L23.7914 20.1471C23.9737 19.8803 24.2558 19.6461 24.6719 19.4676C25.0843 19.2907 25.6092 19.1875 26.2664 19.1875C26.718 19.1875 27.1593 19.2436 27.5973 19.3511C27.8687 19.4215 28.1105 19.5077 28.3239 19.6089L28.2261 19.8474C27.9934 19.7444 27.7561 19.6584 27.5146 19.5883L27.5146 19.5882L27.5074 19.5862C27.0885 19.4713 26.6679 19.4082 26.2539 19.4082C25.6276 19.4082 25.0612 19.5097 24.6496 19.7915C24.238 20.0733 23.9999 20.4805 23.9999 20.987C23.9999 21.3504 24.1374 21.6786 24.4255 21.9219C24.6466 22.1134 24.9209 22.26 25.2245 22.3571C25.4893 22.4418 25.8525 22.5437 26.3005 22.6508L26.3005 22.6508L26.3067 22.6522C26.8929 22.7845 27.3568 22.9199 27.7159 23.0567C28.0291 23.1782 28.2911 23.3556 28.5021 23.597L28.502 23.5971L28.5092 23.605C28.6773 23.7892 28.7858 24.0679 28.7858 24.4948C28.7858 24.8371 28.6943 25.1369 28.5119 25.3992C28.3294 25.6617 28.0466 25.8964 27.6249 26.075C27.2047 26.253 26.6787 26.356 26.0221 26.356V26.3559L26.0122 26.3561C25.4489 26.3673 24.8989 26.2835 24.36 26.1238C23.9987 26.0168 23.703 25.8876 23.4651 25.7446Z" fill="white" stroke="url(#paint0_linear_7301_17300)"/>
<path d="M14.7649 16.4192C19.0514 16.4192 22.5263 12.9994 22.5263 8.78089C22.5263 4.56237 19.0514 1.14258 14.7649 1.14258C10.4783 1.14258 7.00342 4.56237 7.00342 8.78089C7.00342 12.9994 10.4783 16.4192 14.7649 16.4192Z" fill="url(#paint1_linear_7301_17300)" stroke="white" stroke-miterlimit="10"/>
<path d="M17.209 10.1876H13.4066L13.3878 10.2184C13.369 10.9521 13.582 11.5439 14.0268 11.9878C14.4715 12.4316 15.0792 12.6536 15.8497 12.6536C16.1504 12.6536 16.4448 12.6351 16.7329 12.5981C17.0274 12.5611 17.3093 12.5056 17.5786 12.4316L17.729 13.455C17.4345 13.5228 17.1276 13.5721 16.8081 13.603C16.4886 13.64 16.1692 13.6523 15.8497 13.6523C14.6407 13.6523 13.6634 13.3379 12.9243 12.7091C12.1788 12.0802 11.8092 11.2356 11.8092 10.1814H10.6628V9.37385H11.8092V8.29499H10.6628V7.48122H11.8092V7.38258C11.8092 6.32222 12.1788 5.47763 12.918 4.84881C13.6572 4.21999 14.6281 3.89941 15.8371 3.89941C16.1441 3.89941 16.451 3.91791 16.758 3.94873C17.0649 3.98572 17.3907 4.03504 17.7352 4.09669L17.5849 5.13239C17.303 5.06458 17.0148 5.0091 16.7204 4.96594C16.426 4.92279 16.1316 4.90429 15.8371 4.90429C15.0729 4.90429 14.4715 5.12623 14.0205 5.57627C13.5757 6.0263 13.3502 6.61813 13.3502 7.36409V7.47506H17.209V8.28882H13.3502V9.36768H17.209V10.1876Z" fill="white"/>
<defs>
<linearGradient id="paint0_linear_7301_17300" x1="29.2858" y1="18.6875" x2="24.9669" y2="33.7917" gradientUnits="userSpaceOnUse">
<stop stop-color="#FF6A00"/>
<stop offset="1" stop-color="#EE0979"/>
</linearGradient>
<linearGradient id="paint1_linear_7301_17300" x1="22.5263" y1="1.14258" x2="7.25167" y2="16.6635" gradientUnits="userSpaceOnUse">
<stop stop-color="#FF6A00"/>
<stop offset="1" stop-color="#EE0979"/>
</linearGradient>
</defs>
</svg>
