<svg width="29" height="32" viewBox="0 0 29 32" fill="none" xmlns="http://www.w3.org/2000/svg">
<path d="M20.7241 20.4H13.2578C12.9096 20.4 12.6001 20.0892 12.6001 19.7396V7.85276C12.6001 7.65853 12.6775 7.4643 12.8322 7.34776C12.987 7.23122 13.1804 7.15353 13.3738 7.23122L20.9949 8.8239C21.6913 8.97929 22.1942 9.60082 22.1942 10.3389V18.885C22.2716 19.7007 21.5752 20.4 20.7241 20.4Z" fill="url(#paint0_linear_7086_7952)"/>
<path d="M11.8 1.44214L1.84 0.00708087C1.4 -0.0306838 0.92 0.0826102 0.56 0.346963C0.2 0.64908 0 1.06449 0 1.51767V19.5314C0 19.9846 0.4 20.4 0.92 20.4H3.88V15.906C3.88 15.0752 4.6 14.3954 5.48 14.3954H7.76C8.64 14.3954 9.36 15.0752 9.36 15.906V20.4H13.2V2.95272C13.12 2.19743 12.56 1.5932 11.8 1.44214Z" fill="url(#paint1_linear_7086_7952)"/>
<path d="M9.6001 15.9096V20.4001H3.6001V15.9096C3.6001 15.0794 4.39422 14.4001 5.3648 14.4001H7.87951C8.8501 14.4001 9.6001 15.0794 9.6001 15.9096Z" fill="white"/>
<path d="M5.02873 5.0401H3.67624C3.31823 5.0401 3 4.70127 3 4.3201C3 3.93892 3.31823 3.6001 3.67624 3.6001H5.02873C5.38674 3.6001 5.70497 3.93892 5.70497 4.3201C5.70497 4.70127 5.38674 5.0401 5.02873 5.0401Z" fill="white"/>
<path d="M9.52385 5.0401H8.17136C7.81335 5.0401 7.49512 4.70127 7.49512 4.3201C7.49512 3.93892 7.81335 3.6001 8.17136 3.6001H9.52385C9.88186 3.6001 10.2001 3.93892 10.2001 4.3201C10.2001 4.70127 9.88186 5.0401 9.52385 5.0401Z" fill="white"/>
<path d="M5.02873 7.91998H3.67624C3.31823 7.91998 3 7.58116 3 7.19998C3 6.8188 3.27845 6.47998 3.67624 6.47998H5.02873C5.38674 6.47998 5.70497 6.8188 5.70497 7.19998C5.70497 7.62351 5.38674 7.91998 5.02873 7.91998Z" fill="white"/>
<path d="M9.52385 7.91998H8.17136C7.81335 7.91998 7.49512 7.58116 7.49512 7.19998C7.49512 6.8188 7.81335 6.47998 8.17136 6.47998H9.52385C9.88186 6.47998 10.2001 6.8188 10.2001 7.19998C10.2001 7.62351 9.88186 7.91998 9.52385 7.91998Z" fill="white"/>
<path d="M5.02873 10.8001H3.67624C3.31823 10.8001 3 10.4613 3 10.0801C3 9.69893 3.31823 9.36011 3.67624 9.36011H5.02873C5.38674 9.36011 5.70497 9.69893 5.70497 10.0801C5.70497 10.4613 5.38674 10.8001 5.02873 10.8001Z" fill="white"/>
<path d="M9.52385 10.8001H8.17136C7.81335 10.8001 7.49512 10.4613 7.49512 10.0801C7.49512 9.69893 7.81335 9.36011 8.17136 9.36011H9.52385C9.88186 9.36011 10.2001 9.69893 10.2001 10.0801C10.2001 10.4613 9.88186 10.8001 9.52385 10.8001Z" fill="white"/>
<path d="M18.3001 13.95H16.5001C16.0236 13.95 15.6001 13.65 15.6001 13.3125C15.6001 12.975 16.0236 12.675 16.5001 12.675H18.3001C18.7766 12.675 19.2001 12.975 19.2001 13.3125C19.2001 13.65 18.8295 13.95 18.3001 13.95Z" fill="white"/>
<path d="M18.3001 16.5001H16.5001C16.0236 16.5001 15.6001 16.2001 15.6001 15.8626C15.6001 15.5251 16.0236 15.2251 16.5001 15.2251H18.3001C18.7766 15.2251 19.2001 15.5251 19.2001 15.8626C19.2001 16.2001 18.8295 16.5001 18.3001 16.5001Z" fill="white"/>
<g filter="url(#filter0_bi_7086_7952)">
<path d="M18 24C21.3137 24 24 21.3137 24 18C24 14.6863 21.3137 12 18 12C14.6863 12 12 14.6863 12 18C12 21.3137 14.6863 24 18 24Z" fill="#93D6FF" fill-opacity="0.4"/>
</g>
<g filter="url(#filter1_d_7086_7952)">
<path d="M20.8344 19.8405L16.1595 15.1656C15.9386 14.9448 15.6074 14.9448 15.4233 15.1656L15.1656 15.4233C14.9448 15.6442 14.9448 15.9755 15.1656 16.1595L19.8405 20.8344C20.0613 21.0552 20.3926 21.0552 20.5767 20.8344L20.8344 20.5767C21.0552 20.3558 21.0552 20.0245 20.8344 19.8405Z" fill="white"/>
<path d="M19.8773 15.1656L15.1656 19.8405C14.9448 20.0613 14.9448 20.3926 15.1656 20.5767L15.4233 20.8344C15.6442 21.0552 15.9755 21.0552 16.1595 20.8344L20.8344 16.1595C21.0552 15.9387 21.0552 15.6074 20.8344 15.4233L20.6135 15.1656C20.3926 14.9448 20.0614 14.9448 19.8773 15.1656Z" fill="white"/>
</g>
<defs>
<filter id="filter0_bi_7086_7952" x="9" y="9" width="18" height="18" filterUnits="userSpaceOnUse" color-interpolation-filters="sRGB">
<feFlood flood-opacity="0" result="BackgroundImageFix"/>
<feGaussianBlur in="BackgroundImage" stdDeviation="1.5"/>
<feComposite in2="SourceAlpha" operator="in" result="effect1_backgroundBlur_7086_7952"/>
<feBlend mode="normal" in="SourceGraphic" in2="effect1_backgroundBlur_7086_7952" result="shape"/>
<feColorMatrix in="SourceAlpha" type="matrix" values="0 0 0 0 0 0 0 0 0 0 0 0 0 0 0 0 0 0 127 0" result="hardAlpha"/>
<feOffset dy="2"/>
<feGaussianBlur stdDeviation="1"/>
<feComposite in2="hardAlpha" operator="arithmetic" k2="-1" k3="1"/>
<feColorMatrix type="matrix" values="0 0 0 0 1 0 0 0 0 1 0 0 0 0 1 0 0 0 0.45 0"/>
<feBlend mode="normal" in2="shape" result="effect2_innerShadow_7086_7952"/>
</filter>
<filter id="filter1_d_7086_7952" x="7" y="10" width="22" height="22" filterUnits="userSpaceOnUse" color-interpolation-filters="sRGB">
<feFlood flood-opacity="0" result="BackgroundImageFix"/>
<feColorMatrix in="SourceAlpha" type="matrix" values="0 0 0 0 0 0 0 0 0 0 0 0 0 0 0 0 0 0 127 0" result="hardAlpha"/>
<feOffset dy="3"/>
<feGaussianBlur stdDeviation="4"/>
<feColorMatrix type="matrix" values="0 0 0 0 1 0 0 0 0 0.4 0 0 0 0 0 0 0 0 0.2 0"/>
<feBlend mode="normal" in2="BackgroundImageFix" result="effect1_dropShadow_7086_7952"/>
<feBlend mode="normal" in="SourceGraphic" in2="effect1_dropShadow_7086_7952" result="shape"/>
</filter>
<linearGradient id="paint0_linear_7086_7952" x1="13.8001" y1="21.3" x2="31.7142" y2="-4.63906" gradientUnits="userSpaceOnUse">
<stop stop-color="#00C6FF"/>
<stop offset="1" stop-color="#0072FF"/>
</linearGradient>
<linearGradient id="paint1_linear_7086_7952" x1="-1.74486e-07" y1="20.4" x2="8.60057" y2="-2.89791" gradientUnits="userSpaceOnUse">
<stop stop-color="#00C6FF"/>
<stop offset="1" stop-color="#0072FF"/>
</linearGradient>
</defs>
</svg>
