<svg width="38" height="36" viewBox="0 0 38 36" fill="none" xmlns="http://www.w3.org/2000/svg">
<path d="M25.1568 5.67478L20.4926 0.970474V5.5807L25.1568 5.67478Z" fill="url(#paint0_linear_7301_17289)"/>
<path d="M20.7724 7.55646C19.5597 7.55646 18.5336 6.70969 18.5336 5.58065V1.1586C18.5336 0.876345 18.5336 0.688172 18.6269 0.5H4.2612C2.02239 0.5 0.25 2.28764 0.25 4.5457V31.3603C0.25 33.6183 2.02239 35.406 4.2612 35.406H14.2426C13.1232 34.8414 12.5634 34.0887 12.3769 33.7124C12.1903 33.4301 12.1903 33.0538 12.1903 32.7715V32.3011C12.2836 29.5726 12.75 27.785 14.8023 26.75C14.5224 26.0914 14.3358 25.2447 14.3358 24.492C14.3358 19.9758 17.3209 19.2231 19.0933 19.2231C19.7463 19.2231 20.5858 19.3172 21.3321 19.6936C22.4515 17.9059 24.3172 17.5296 25.6232 17.5296V7.65055C24.2239 7.55646 20.7724 7.55646 20.7724 7.55646ZM10.6045 29.8549H3.7015C3.23508 29.8549 2.76866 29.4785 2.76866 28.914C2.76866 28.4436 3.1418 27.9732 3.7015 27.9732H10.6045C11.0709 27.9732 11.5373 28.3495 11.5373 28.914C11.5373 29.3844 11.0709 29.8549 10.6045 29.8549ZM12.4702 23.8334H3.7015C3.23508 23.8334 2.76866 23.457 2.76866 22.8925C2.76866 22.4221 3.1418 21.9516 3.7015 21.9516H12.4702C12.9366 21.9516 13.403 22.328 13.403 22.8925C13.3097 23.457 12.9366 23.8334 12.4702 23.8334ZM19.7463 17.8118H3.7015C3.23508 17.8118 2.76866 17.4355 2.76866 16.871C2.76866 16.4006 3.1418 15.9301 3.7015 15.9301H19.7463C20.2127 15.9301 20.6791 16.3065 20.6791 16.871C20.6791 17.4355 20.306 17.8118 19.7463 17.8118ZM19.8396 11.6022H3.7015C3.23508 11.6022 2.76866 11.2258 2.76866 10.6613C2.76866 10.1909 3.1418 9.72044 3.7015 9.72044H19.8396C20.306 9.72044 20.7724 10.0968 20.7724 10.6613C20.7724 11.2258 20.306 11.6022 19.8396 11.6022Z" fill="url(#paint1_linear_7301_17289)"/>
<path d="M31.9664 33.1479C31.8731 29.3844 31.4067 28.2554 27.5821 27.5968C27.5821 27.5968 27.0224 28.2554 25.8097 28.2554C24.597 28.2554 24.0373 27.5968 24.0373 27.5968C20.3059 28.2554 19.7462 29.2903 19.653 33.0538C19.653 33.336 19.653 33.3361 19.653 33.3361C19.653 33.4301 19.653 33.5242 19.653 33.7124C19.653 33.7124 20.5858 35.5 25.8097 35.5C31.0336 35.5 31.9664 33.7124 31.9664 33.7124" fill="url(#paint2_linear_7301_17289)"/>
<path d="M25.9031 27.0323C27.7687 27.0323 29.2613 25.2447 29.2613 23.0807C29.2613 20.9167 28.7949 19.1291 25.9031 19.1291C23.0113 19.1291 22.5449 20.9167 22.5449 23.0807C22.5449 25.2447 24.0374 27.0323 25.9031 27.0323Z" fill="url(#paint3_linear_7301_17289)"/>
<path d="M32.806 27.5027C34.2985 27.5027 35.4179 26.0914 35.4179 24.3979C35.4179 22.7043 35.0448 21.293 32.806 21.293C30.5672 21.293 30.194 22.7043 30.194 24.3979C30.194 26.0914 31.4067 27.5027 32.806 27.5027Z" fill="url(#paint4_linear_7301_17289)"/>
<path d="M18.9067 27.5027C20.3993 27.5027 21.5187 26.0914 21.5187 24.3979C21.5187 22.7043 21.1456 21.293 18.9067 21.293C16.6679 21.293 16.2948 22.7043 16.2948 24.3979C16.2015 26.0914 17.4142 27.5027 18.9067 27.5027Z" fill="url(#paint5_linear_7301_17289)"/>
<path d="M33.0858 33.4302V33.7124C33.0858 33.9006 33.0858 33.9947 32.9925 34.1828C37.0037 34.1828 37.75 32.7715 37.75 32.7715C37.75 32.6775 37.75 32.5834 37.75 32.5834C37.75 32.5834 37.75 32.5834 37.75 32.3952C37.6567 29.3845 37.2836 28.5377 34.2985 27.9732C34.2985 27.9732 33.8321 28.5377 32.8993 28.5377C32.2463 28.5377 31.7798 28.2554 31.5933 28.1613C32.7127 29.1963 33.0858 30.7957 33.0858 33.242" fill="url(#paint6_linear_7301_17289)"/>
<path d="M18.8135 34.1828C18.7202 33.9947 18.7202 33.9006 18.7202 33.7124V33.0538C18.7202 30.7957 19.0001 29.2904 20.0262 28.2554C19.8396 28.3495 19.4665 28.5377 19.0001 28.5377C18.0673 28.5377 17.6008 27.9732 17.6008 27.9732C14.6158 28.5377 14.2426 29.2904 14.1493 32.207C14.1493 32.3952 14.1493 32.3952 14.1493 32.3952C14.1493 32.4893 14.1493 32.5834 14.1493 32.6775C14.0561 32.7716 14.709 34.1828 18.8135 34.1828Z" fill="url(#paint7_linear_7301_17289)"/>
<defs>
<linearGradient id="paint0_linear_7301_17289" x1="37.75" y1="0.499999" x2="2.8331" y2="37.9109" gradientUnits="userSpaceOnUse">
<stop stop-color="#FF6A00"/>
<stop offset="1" stop-color="#EE0979"/>
</linearGradient>
<linearGradient id="paint1_linear_7301_17289" x1="37.75" y1="0.499999" x2="2.8331" y2="37.9109" gradientUnits="userSpaceOnUse">
<stop stop-color="#FF6A00"/>
<stop offset="1" stop-color="#EE0979"/>
</linearGradient>
<linearGradient id="paint2_linear_7301_17289" x1="37.75" y1="0.499999" x2="2.8331" y2="37.9109" gradientUnits="userSpaceOnUse">
<stop stop-color="#FF6A00"/>
<stop offset="1" stop-color="#EE0979"/>
</linearGradient>
<linearGradient id="paint3_linear_7301_17289" x1="37.75" y1="0.499999" x2="2.8331" y2="37.9109" gradientUnits="userSpaceOnUse">
<stop stop-color="#FF6A00"/>
<stop offset="1" stop-color="#EE0979"/>
</linearGradient>
<linearGradient id="paint4_linear_7301_17289" x1="37.75" y1="0.499999" x2="2.8331" y2="37.9109" gradientUnits="userSpaceOnUse">
<stop stop-color="#FF6A00"/>
<stop offset="1" stop-color="#EE0979"/>
</linearGradient>
<linearGradient id="paint5_linear_7301_17289" x1="37.75" y1="0.499999" x2="2.8331" y2="37.9109" gradientUnits="userSpaceOnUse">
<stop stop-color="#FF6A00"/>
<stop offset="1" stop-color="#EE0979"/>
</linearGradient>
<linearGradient id="paint6_linear_7301_17289" x1="37.75" y1="0.499999" x2="2.8331" y2="37.9109" gradientUnits="userSpaceOnUse">
<stop stop-color="#FF6A00"/>
<stop offset="1" stop-color="#EE0979"/>
</linearGradient>
<linearGradient id="paint7_linear_7301_17289" x1="37.75" y1="0.499999" x2="2.8331" y2="37.9109" gradientUnits="userSpaceOnUse">
<stop stop-color="#FF6A00"/>
<stop offset="1" stop-color="#EE0979"/>
</linearGradient>
</defs>
</svg>
