<svg width="30" height="30" viewBox="0 0 30 30" fill="none" xmlns="http://www.w3.org/2000/svg">
<path d="M29.2858 17.2542V12.7511L26.615 12.5648C26.3106 11.099 25.733 9.7325 24.938 8.52132L26.6957 6.49648L23.5094 3.30393L21.4845 5.06169C20.2734 4.26666 18.9069 3.68902 17.4411 3.38467L17.2547 0.713867H12.7516L12.5653 3.38467C11.0932 3.69523 9.72678 4.27287 8.5156 5.06169L6.49075 3.30393L3.30442 6.49026L5.06218 8.51511C4.26715 9.72629 3.68951 11.0927 3.38516 12.5586L0.714355 12.7449V17.248L3.38516 17.4344C3.68951 18.9002 4.26715 20.2667 5.06218 21.4778L3.30442 23.5089L6.49075 26.6952L8.5156 24.9375C9.72678 25.7325 11.0932 26.3101 12.5591 26.6145L12.7454 29.2853H17.2485L17.4349 26.6145C18.9007 26.3101 20.2671 25.7325 21.4783 24.9375L23.5032 26.6952L26.6895 23.5089L24.938 21.4841C25.733 20.2729 26.3106 18.9064 26.615 17.4406L29.2858 17.2542ZM15.0001 22.4157C10.9069 22.4157 7.58392 19.0927 7.58392 14.9996C7.58392 10.9064 10.9069 7.58343 15.0001 7.58343C19.0932 7.58343 22.4162 10.9064 22.4162 14.9996C22.4162 19.0927 19.0932 22.4157 15.0001 22.4157Z" stroke="url(#paint0_linear_7301_14441)" stroke-miterlimit="10" stroke-linecap="round" stroke-linejoin="round"/>
<defs>
<linearGradient id="paint0_linear_7301_14441" x1="29.2858" y1="0.713866" x2="0.714356" y2="29.2853" gradientUnits="userSpaceOnUse">
<stop stop-color="#FF6A00"/>
<stop offset="1" stop-color="#EE0979"/>
</linearGradient>
</defs>
</svg>
