<svg width="28" height="29" viewBox="0 0 28 29" fill="none" xmlns="http://www.w3.org/2000/svg">
<path d="M11.0199 24.8898L9.86595 23.3086C9.80678 23.2174 9.68843 23.1869 9.59967 23.2174L7.73567 23.8559C7.55815 23.9168 7.35104 23.7343 7.41021 23.5518L10.6056 13L14.5999 14.2772L11.4341 24.829C11.3749 25.0115 11.1382 25.0723 11.0199 24.8898Z" fill="url(#paint0_linear_7086_7893)"/>
<path d="M17.6243 24.8898L18.7735 23.3086C18.8324 23.2174 18.9503 23.1869 19.0387 23.2174L20.8656 23.8255C21.0424 23.8863 21.2487 23.7039 21.1897 23.5214L17.9779 13L14 14.2772L17.1823 24.829C17.2413 25.0115 17.5065 25.0723 17.6243 24.8898Z" fill="url(#paint1_linear_7086_7893)"/>
<g filter="url(#filter0_bi_7086_7893)">
<path d="M23.7611 10.2827C23.3955 9.80576 22.8471 9.32878 22.7374 8.8518C22.6278 8.48489 22.7374 8.0446 22.8106 7.64101C22.9202 7.09065 23.0299 6.54029 22.8106 6.1C22.5912 5.6964 22.0428 5.51295 21.4944 5.3295C21.2385 5.25612 21.0192 5.18273 20.7998 5.07266C20.7632 5.03597 20.6901 5.03597 20.6536 4.99928C20.5439 4.9259 20.4708 4.88921 20.3977 4.81583C20.0321 4.44892 19.8858 3.7518 19.6665 3.20144C19.5202 2.83453 19.3374 2.54101 19.045 2.35755C18.9718 2.32086 18.8622 2.28417 18.7525 2.24748C18.7159 2.24748 18.6428 2.24748 18.6063 2.21079C18.5697 2.21079 18.4966 2.21079 18.4235 2.21079C18.131 2.21079 17.802 2.28417 17.4729 2.35755C17.3632 2.39424 17.2536 2.39424 17.1439 2.43094C17.0342 2.46763 16.888 2.46763 16.7783 2.46763C16.5955 2.46763 16.4493 2.46763 16.2665 2.43094C15.5353 2.24748 14.8772 1.14676 14.0729 1C14.0364 1 13.9632 1 13.9267 1C13.0493 1 12.3912 2.21079 11.5869 2.43094C10.7826 2.65108 9.57615 1.95396 8.84497 2.35755C8.11378 2.79784 8.11378 4.19209 7.52884 4.77914C6.94389 5.36619 5.55464 5.36619 5.11593 6.1C4.71378 6.83381 5.40841 8.0446 5.18905 8.8518C5.00626 9.65899 3.7998 10.3561 3.7998 11.2C3.7998 12.0806 5.00626 12.741 5.22561 13.5482C5.44497 14.3554 4.75034 15.5662 5.15249 16.3C5.5912 17.0338 6.98045 17.0338 7.5654 17.6209C8.15034 18.2079 8.15034 19.6022 8.88153 20.0424C9.61271 20.446 10.8192 19.7489 11.6235 19.9691C12.4278 20.1892 13.1224 21.4 13.9632 21.4C14.8041 21.4 15.4987 20.1892 16.303 19.9691C16.8149 19.8223 17.4729 20.0424 18.0944 20.1525C18.46 20.1892 18.7891 20.1892 19.045 20.0424C19.0815 20.0058 19.1181 19.9691 19.1912 19.9691C19.2643 19.8957 19.3374 19.8223 19.4106 19.7122C19.6299 19.382 19.7396 18.9417 19.8858 18.5381C19.9224 18.4647 19.9224 18.4281 19.9589 18.3547C20.0321 18.1345 20.1417 17.9144 20.288 17.7309C20.3245 17.6942 20.3611 17.6576 20.3977 17.6209C20.7998 17.2173 21.6041 17.0705 22.1891 16.8137C22.445 16.7036 22.7009 16.5201 22.8106 16.3C23.1762 15.6763 22.7009 14.6489 22.7009 13.8784C22.7009 13.7683 22.7009 13.6583 22.7374 13.5482C22.774 13.3647 22.9202 13.1446 23.0665 12.9612C23.2858 12.6676 23.5783 12.4108 23.7977 12.1173C24.017 11.8237 24.1998 11.5302 24.1998 11.2C24.1267 10.8698 23.9804 10.5763 23.7611 10.2827Z" fill="#88DBF5" fill-opacity="0.35"/>
</g>
<g filter="url(#filter1_d_7086_7893)">
<path d="M13.9998 6.85376C11.9637 6.85376 10.2817 8.46507 10.2817 10.4156C10.2817 11.2212 10.5473 11.9421 10.9899 12.5357C11.4768 13.1718 11.9637 13.5534 11.9637 14.5711V15.6735C11.9637 16.0976 12.3178 16.4368 12.7604 16.4368H12.849C12.849 16.8608 13.203 17.2 13.6457 17.2H13.9555H14.2653C14.708 17.2 15.0621 16.8608 15.0621 16.4368H15.1506C15.1949 16.4368 15.2391 16.4368 15.3276 16.4368C15.4162 16.4368 15.549 16.3944 15.6375 16.3096C15.8145 16.1824 15.9473 16.0128 15.9916 15.8432C15.9916 15.8008 15.9916 15.7584 15.9916 15.6735V14.5711C15.9916 13.5534 16.4785 13.1718 16.9653 12.5357C17.408 11.9421 17.6735 11.2212 17.6735 10.4156C17.7178 8.42266 16.0358 6.85376 13.9998 6.85376Z" fill="white"/>
<path d="M13.9995 6.47204C14.088 6.47204 14.1323 6.42963 14.1323 6.34483V5.32716C14.1323 5.24235 14.088 5.19995 13.9995 5.19995C13.911 5.19995 13.8667 5.24235 13.8667 5.32716V6.34483C13.8667 6.42963 13.9552 6.47204 13.9995 6.47204Z" fill="white"/>
<path d="M17.6289 6.72663L16.8765 7.44747C16.8322 7.48988 16.8322 7.57468 16.8765 7.61709C16.9207 7.65949 16.9207 7.65949 16.965 7.65949C17.0092 7.65949 17.0092 7.65949 17.0535 7.61709L17.806 6.89624C17.8502 6.85383 17.8502 6.76903 17.806 6.72663C17.7617 6.68422 17.7174 6.68422 17.6289 6.72663Z" fill="white"/>
<path d="M19.2669 10.2883H18.2046C18.116 10.2883 18.0718 10.3307 18.0718 10.4155C18.0718 10.5003 18.116 10.5427 18.2046 10.5427H19.2669C19.3554 10.5427 19.3996 10.5003 19.3996 10.4155C19.3996 10.3307 19.3554 10.2883 19.2669 10.2883Z" fill="white"/>
<path d="M11.0338 7.65949C11.0781 7.65949 11.0781 7.65949 11.1224 7.61709C11.1666 7.57468 11.1666 7.48988 11.1224 7.44747L10.3699 6.72663C10.3257 6.68422 10.2371 6.68422 10.1929 6.72663C10.1486 6.76903 10.1486 6.85383 10.1929 6.89624L10.9453 7.61709C10.9896 7.65949 10.9896 7.65949 11.0338 7.65949Z" fill="white"/>
<path d="M9.79469 10.2883H8.7324C8.64387 10.2883 8.59961 10.3307 8.59961 10.4155C8.59961 10.5003 8.64387 10.5427 8.7324 10.5427H9.79469C9.88321 10.5427 9.92748 10.5003 9.92748 10.4155C9.92748 10.3307 9.88321 10.2883 9.79469 10.2883Z" fill="white"/>
</g>
<defs>
<filter id="filter0_bi_7086_7893" x="0.799805" y="-2" width="26.3999" height="26.3999" filterUnits="userSpaceOnUse" color-interpolation-filters="sRGB">
<feFlood flood-opacity="0" result="BackgroundImageFix"/>
<feGaussianBlur in="BackgroundImage" stdDeviation="1.5"/>
<feComposite in2="SourceAlpha" operator="in" result="effect1_backgroundBlur_7086_7893"/>
<feBlend mode="normal" in="SourceGraphic" in2="effect1_backgroundBlur_7086_7893" result="shape"/>
<feColorMatrix in="SourceAlpha" type="matrix" values="0 0 0 0 0 0 0 0 0 0 0 0 0 0 0 0 0 0 127 0" result="hardAlpha"/>
<feOffset dy="2"/>
<feGaussianBlur stdDeviation="1"/>
<feComposite in2="hardAlpha" operator="arithmetic" k2="-1" k3="1"/>
<feColorMatrix type="matrix" values="0 0 0 0 1 0 0 0 0 1 0 0 0 0 1 0 0 0 0.45 0"/>
<feBlend mode="normal" in2="shape" result="effect2_innerShadow_7086_7893"/>
</filter>
<filter id="filter1_d_7086_7893" x="0.599609" y="0.199951" width="26.7998" height="28" filterUnits="userSpaceOnUse" color-interpolation-filters="sRGB">
<feFlood flood-opacity="0" result="BackgroundImageFix"/>
<feColorMatrix in="SourceAlpha" type="matrix" values="0 0 0 0 0 0 0 0 0 0 0 0 0 0 0 0 0 0 127 0" result="hardAlpha"/>
<feOffset dy="3"/>
<feGaussianBlur stdDeviation="4"/>
<feColorMatrix type="matrix" values="0 0 0 0 0 0 0 0 0 0.321569 0 0 0 0 0.705882 0 0 0 0.45 0"/>
<feBlend mode="normal" in2="BackgroundImageFix" result="effect1_dropShadow_7086_7893"/>
<feBlend mode="normal" in="SourceGraphic" in2="effect1_dropShadow_7086_7893" result="shape"/>
</filter>
<linearGradient id="paint0_linear_7086_7893" x1="7.3999" y1="25" x2="12.7512" y2="11.5581" gradientUnits="userSpaceOnUse">
<stop stop-color="#00C6FF"/>
<stop offset="1" stop-color="#0072FF"/>
</linearGradient>
<linearGradient id="paint1_linear_7086_7893" x1="14" y1="25" x2="19.3513" y2="11.5581" gradientUnits="userSpaceOnUse">
<stop stop-color="#00C6FF"/>
<stop offset="1" stop-color="#0072FF"/>
</linearGradient>
</defs>
</svg>
