<svg width="27" height="27" viewBox="0 0 27 27" fill="none" xmlns="http://www.w3.org/2000/svg">
<path d="M23.3887 5.56435C20.12 5.51095 16.7449 2.38686 16.7184 2.36016C16.3062 1.94602 15.6985 2.55286 15.2293 2.90106C14.0539 3.77339 11.5572 5.38995 9.11792 5.35074C8.79902 5.35074 8.5067 5.61775 8.5067 5.93817L8.4004 13.0942C8.34725 18.8884 12.5992 21.2649 15.8148 22.5465C15.8945 22.5732 15.9477 22.6 16.0274 22.6C16.1071 22.6 16.1603 22.6 16.24 22.5732C20.7843 20.8911 23.8139 18.2209 23.8936 13.3078L23.9999 6.15178C23.9999 5.83136 23.7342 5.56435 23.3887 5.56435Z" fill="url(#paint0_linear_7086_8593)"/>
<g filter="url(#filter0_d_7086_8593)">
<path d="M18.1326 10.7559C17.8089 10.3819 17.2695 10.1325 16.5683 9.9455C15.867 9.78966 15.3816 9.63381 15.1388 9.50914C14.8961 9.38446 14.7882 9.19745 14.7882 8.91693C14.7882 8.48057 15.1658 8.23122 15.894 8.23122C16.4874 8.23122 16.8649 8.38706 16.9728 8.69875C17.0268 8.85459 17.1616 8.91693 17.3234 8.91693L17.9707 8.88576C18.2404 8.88576 18.4292 8.57407 18.3213 8.29356C18.1056 7.60784 17.5392 7.20265 16.6222 7.07797V6.23641C16.6222 5.98706 16.4604 5.80005 16.2446 5.80005H15.7052C15.4894 5.80005 15.3276 5.98706 15.3276 6.23641V7.0468C14.8152 7.10914 14.3837 7.29615 14.087 7.57667C13.6555 7.9507 13.4397 8.41823 13.4397 8.97927C13.4397 9.47797 13.6015 9.91433 13.9252 10.2572C14.2488 10.6 14.7882 10.8494 15.5164 11.0364C16.2446 11.1923 16.7301 11.3481 16.9189 11.5039C17.1077 11.6598 17.2156 11.8468 17.2156 12.1585C17.2156 12.813 16.811 13.1247 15.9749 13.1247C15.2467 13.1247 14.7882 12.8442 14.5725 12.3143C14.4915 12.0962 14.3027 11.9715 14.087 12.0026L13.4936 12.065C13.2779 12.0962 13.143 12.3143 13.2239 12.5325C13.5206 13.5299 14.1949 14.091 15.2737 14.2468V14.9637C15.2737 15.213 15.4355 15.4 15.6513 15.4H16.1907C16.4064 15.4 16.5683 15.213 16.5683 14.9637V14.2468C16.9998 14.1533 17.4044 13.9974 17.7819 13.7481C18.3213 13.3741 18.5911 12.8442 18.5911 12.1585C18.645 11.5975 18.4562 11.1299 18.1326 10.7559Z" fill="white"/>
<path d="M16.6069 9.80057L16.607 9.80044L16.6008 9.79908C15.9012 9.6436 15.4319 9.49102 15.2074 9.37571C15.1057 9.3235 15.0418 9.26344 15.0018 9.19541C14.9614 9.12678 14.9382 9.03797 14.9382 8.91693C14.9382 8.75031 15.0061 8.62677 15.148 8.53733C15.2993 8.44199 15.543 8.38122 15.894 8.38122C16.1798 8.38122 16.4001 8.41909 16.5564 8.486C16.7097 8.55159 16.7942 8.64119 16.8311 8.74781C16.8696 8.85914 16.9401 8.94269 17.0326 8.99616C17.1224 9.04801 17.2245 9.06693 17.3234 9.06693V9.0671L17.3307 9.06676L17.9746 9.03575C18.3675 9.0329 18.5963 8.59958 18.4631 8.24432C18.2346 7.52381 17.6525 7.09927 16.7722 6.94919V6.23641C16.7722 5.92532 16.5629 5.65005 16.2446 5.65005H15.7052C15.387 5.65005 15.1776 5.92532 15.1776 6.23641V6.91684C14.6981 6.99642 14.2842 7.18487 13.9863 7.46544C13.5242 7.86704 13.2897 8.37491 13.2897 8.97927C13.2897 9.51246 13.4637 9.98682 13.8161 10.3602C14.1693 10.7344 14.7426 10.9926 15.4791 11.1817L15.4791 11.1818L15.485 11.1831C15.8465 11.2604 16.1441 11.3371 16.3729 11.4126C16.6066 11.4898 16.752 11.5607 16.8234 11.6196C16.9055 11.6874 16.9639 11.7568 17.0028 11.8378C17.0418 11.9188 17.0656 12.0204 17.0656 12.1585C17.0656 12.4529 16.9764 12.6446 16.8168 12.7686C16.6494 12.8986 16.379 12.9747 15.9749 12.9747C15.6294 12.9747 15.3609 12.9081 15.1574 12.7888C14.9564 12.671 14.8089 12.4961 14.7122 12.2598C14.61 11.9871 14.3617 11.8129 14.0686 11.8538L13.478 11.9158L13.4779 11.9157L13.4722 11.9165C13.1626 11.9612 12.9716 12.2744 13.0815 12.5797C13.2368 13.0995 13.4935 13.5148 13.8593 13.8204C14.1974 14.1027 14.6202 14.2845 15.1237 14.3745V14.9637C15.1237 15.2748 15.333 15.55 15.6513 15.55H16.1907C16.5089 15.55 16.7183 15.2748 16.7183 14.9637V14.3661C17.1215 14.2671 17.5043 14.1112 17.8646 13.8733L17.8646 13.8733L17.8674 13.8714C18.4474 13.4692 18.7391 12.8945 18.741 12.1657C18.7971 11.5618 18.5915 11.0571 18.246 10.6577C17.8919 10.2486 17.3157 9.98961 16.6069 9.80057Z" stroke="white" stroke-width="0.3"/>
</g>
<g filter="url(#filter1_bi_7086_8593)">
<path d="M10.2136 7.11343C8.23482 8.6105 4.96171 8.4158 4.02553 8.33246C3.85599 8.31736 3.67308 8.27805 3.51628 8.34423C3.21867 8.46985 3.1842 8.93854 3.1127 9.25339C2.84363 10.4383 2.03687 13.395 0.202964 14.7825C-0.0246258 14.9499 -0.0780059 15.3119 0.131447 15.5821L4.11642 21.2043C7.28505 25.6648 11.4653 25.2833 14.4085 24.551C14.5386 24.5186 14.6642 24.4731 14.7857 24.4165C14.9062 24.3604 14.9446 24.2082 15.0104 24.0927C17.1343 20.3649 17.6648 16.6816 14.9571 12.8725L10.9722 7.25034C10.7973 6.99466 10.4522 6.91025 10.2136 7.11343Z" fill="#F3CFFF" fill-opacity="0.56"/>
</g>
<defs>
<filter id="filter0_d_7086_8593" x="4.8999" y="0.5" width="22.0005" height="26.2" filterUnits="userSpaceOnUse" color-interpolation-filters="sRGB">
<feFlood flood-opacity="0" result="BackgroundImageFix"/>
<feColorMatrix in="SourceAlpha" type="matrix" values="0 0 0 0 0 0 0 0 0 0 0 0 0 0 0 0 0 0 127 0" result="hardAlpha"/>
<feOffset dy="3"/>
<feGaussianBlur stdDeviation="4"/>
<feColorMatrix type="matrix" values="0 0 0 0 0 0 0 0 0 0 0 0 0 0 0 0 0 0 0.25 0"/>
<feBlend mode="normal" in2="BackgroundImageFix" result="effect1_dropShadow_7086_8593"/>
<feBlend mode="normal" in="SourceGraphic" in2="effect1_dropShadow_7086_8593" result="shape"/>
</filter>
<filter id="filter1_bi_7086_8593" x="-5" y="2" width="26.7998" height="28" filterUnits="userSpaceOnUse" color-interpolation-filters="sRGB">
<feFlood flood-opacity="0" result="BackgroundImageFix"/>
<feGaussianBlur in="BackgroundImage" stdDeviation="2.5"/>
<feComposite in2="SourceAlpha" operator="in" result="effect1_backgroundBlur_7086_8593"/>
<feBlend mode="normal" in="SourceGraphic" in2="effect1_backgroundBlur_7086_8593" result="shape"/>
<feColorMatrix in="SourceAlpha" type="matrix" values="0 0 0 0 0 0 0 0 0 0 0 0 0 0 0 0 0 0 127 0" result="hardAlpha"/>
<feOffset dy="2"/>
<feGaussianBlur stdDeviation="1"/>
<feComposite in2="hardAlpha" operator="arithmetic" k2="-1" k3="1"/>
<feColorMatrix type="matrix" values="0 0 0 0 1 0 0 0 0 1 0 0 0 0 1 0 0 0 0.45 0"/>
<feBlend mode="normal" in2="shape" result="effect2_innerShadow_7086_8593"/>
</filter>
<linearGradient id="paint0_linear_7086_8593" x1="19.7454" y1="3.61662" x2="3.06743" y2="21.2356" gradientUnits="userSpaceOnUse">
<stop stop-color="#8E2DE2"/>
<stop offset="1" stop-color="#4A00E0"/>
</linearGradient>
</defs>
</svg>
