<svg width="30" height="32" viewBox="0 0 30 32" fill="none" xmlns="http://www.w3.org/2000/svg">
<path d="M17.282 4.66777L17.2231 4.60813H14.9834C14.3056 4.54849 13.8046 3.98193 13.8046 3.29608V1.11928C13.6278 1.02982 13.4805 1 13.3036 1H3.72603C2.98929 1 2.3999 1.59639 2.3999 2.34187V19.4581C2.3999 20.2036 2.98929 20.8 3.72603 20.8H14.9539H15.0129H16.0738C16.8105 20.8 17.3999 20.2036 17.3999 19.4581V5.08524C17.3704 4.93614 17.341 4.81687 17.282 4.66777Z" fill="url(#paint0_linear_7086_7931)"/>
<path d="M17.0758 4.36972L14.011 1.29833C13.9226 1.20888 13.8342 1.14924 13.7163 1.0896V3.35586C13.7163 4.10135 14.3057 4.69773 15.0424 4.69773H17.2821C17.2232 4.57846 17.1642 4.45918 17.0758 4.36972Z" fill="#68D4F9"/>
<g filter="url(#filter0_bi_7086_7931)">
<path d="M21.4921 8.8934C21.4857 8.87642 21.4756 8.86106 21.4628 8.84813C21.4375 8.8225 21.4029 8.80808 21.3669 8.80808H19.1835C18.5057 8.74844 18.0048 8.18188 18.0048 7.49603V5.83955C18.0048 5.52041 17.8229 5.19995 17.5038 5.19995H7.92622C7.18949 5.19995 6.6001 5.79634 6.6001 6.54182V23.6581C6.6001 24.4036 7.18949 24.9999 7.92622 24.9999H19.1541H19.213H20.2739C21.0106 24.9999 21.6 24.4036 21.6 23.6581V9.42592C21.6 9.33232 21.5922 9.23865 21.5704 9.14762C21.5503 9.06356 21.5265 8.98352 21.4921 8.8934Z" fill="#88DBF5" fill-opacity="0.4"/>
<g filter="url(#filter1_d_7086_7931)">
<path d="M21.3831 8.55588L18.16 5.41351C18.067 5.32199 17.9741 5.26097 17.8501 5.19995V7.51859C17.8501 8.28131 18.4699 8.89147 19.2447 8.89147H21.6001C21.5381 8.76944 21.4761 8.64741 21.3831 8.55588Z" fill="white" fill-opacity="0.6"/>
</g>
</g>
<g filter="url(#filter2_d_7086_7931)">
<path d="M13.37 15.791C13.2999 15.791 13.1947 15.7549 13.1245 15.7188L11.8271 14.7446C11.6518 14.6002 11.6167 14.3477 11.757 14.2033C11.8972 14.0229 12.1427 13.9868 12.283 14.1312L13.2648 14.8889L15.0532 12.5435C15.1934 12.3631 15.4389 12.3271 15.6142 12.4714C15.7896 12.6157 15.8246 12.8683 15.6844 13.0487L13.6856 15.6466C13.6155 15.7549 13.5103 15.791 13.37 15.791Z" fill="white"/>
<path d="M18.0974 13.0735C17.9333 12.896 17.8641 12.6444 17.9138 12.404C17.9829 12.0647 17.8188 11.7209 17.5164 11.5726C17.3026 11.467 17.1514 11.2603 17.1125 11.0154C17.0585 10.6739 16.7863 10.4132 16.4537 10.3908C16.2183 10.3728 16.0044 10.2357 15.8835 10.0245C15.715 9.7257 15.3694 9.58639 15.0519 9.68975C14.8251 9.76389 14.5788 9.71446 14.3931 9.56168C14.1317 9.34598 13.7624 9.34598 13.501 9.56168C13.3153 9.71446 13.069 9.76389 12.8422 9.68975C12.5247 9.58639 12.1791 9.7257 12.0106 10.0245C11.8897 10.238 11.678 10.375 11.4404 10.3908C11.1078 10.4155 10.8356 10.6739 10.7816 11.0154C10.7449 11.2603 10.5937 11.467 10.3799 11.5726C10.0775 11.7187 9.9133 12.0647 9.98242 12.404C10.0321 12.6444 9.96298 12.896 9.79882 13.0735C9.5677 13.3229 9.5353 13.7071 9.71674 13.997C9.84634 14.2037 9.8701 14.4643 9.77938 14.6913C9.65194 15.0126 9.75346 15.3811 10.0235 15.5833C10.2157 15.7271 10.328 15.9607 10.3215 16.2079C10.3129 16.5539 10.5354 16.8617 10.8594 16.9471C11.0473 16.9965 11.205 17.1246 11.3 17.2954L10.3453 19.6905C10.2697 19.8793 10.4403 20.0725 10.6261 20.0118L11.6326 19.6905C11.6629 19.6815 11.691 19.6771 11.7212 19.6815C11.7968 19.6883 11.8681 19.7355 11.9048 19.8074L12.3973 20.7758C12.488 20.9555 12.7407 20.942 12.8141 20.7555L13.812 18.2548C13.9006 18.2368 13.9935 18.2368 14.0842 18.2548L15.0799 20.7555C15.1555 20.9443 15.4061 20.9555 15.4968 20.7758L15.9893 19.8074C16.0044 19.7782 16.026 19.7512 16.0498 19.7332C16.1081 19.6838 16.1859 19.6681 16.2615 19.6905L17.268 20.0118C17.4559 20.0725 17.6244 19.877 17.5488 19.6905L16.5941 17.2954C16.6891 17.1246 16.8468 16.9988 17.0347 16.9471C17.3566 16.8595 17.579 16.5539 17.5726 16.2079C17.5661 15.9607 17.6784 15.7271 17.8706 15.5833C18.1406 15.3811 18.2421 15.0103 18.1147 14.6913C18.024 14.4643 18.0477 14.2037 18.1773 13.997C18.3609 13.7071 18.3285 13.3229 18.0974 13.0735ZM13.9481 16.828C13.8596 16.828 13.771 16.8235 13.6846 16.8145C13.6695 16.8123 13.6565 16.8123 13.6414 16.8101C13.6371 16.8101 13.6306 16.8101 13.6263 16.8078C13.5766 16.8011 13.5248 16.7943 13.4751 16.7853C13.4729 16.7853 13.4729 16.7853 13.4708 16.7853C13.447 16.7808 13.4254 16.7764 13.4016 16.7719C13.3973 16.7719 13.393 16.7696 13.3887 16.7696C13.3692 16.7651 13.3476 16.7606 13.3282 16.7561C13.3261 16.7561 13.3239 16.7561 13.3217 16.7539C12.0711 16.4573 11.138 15.2957 11.138 13.9049C11.138 12.5163 12.0711 11.3524 13.3217 11.0558C13.3239 11.0558 13.3261 11.0558 13.3282 11.0536C13.3476 11.0491 13.3692 11.0446 13.3887 11.0401C13.393 11.0401 13.3973 11.0379 13.4016 11.0379C13.4254 11.0334 13.447 11.0289 13.4708 11.0244C13.4729 11.0244 13.4729 11.0244 13.4751 11.0244C13.5248 11.0154 13.5744 11.0087 13.6263 11.0019C13.6306 11.0019 13.6371 11.0019 13.6414 10.9997C13.6544 10.9974 13.6695 10.9974 13.6824 10.9952C13.7688 10.9862 13.8574 10.9817 13.946 10.9817C15.4968 10.9817 16.7539 12.2894 16.7539 13.9026C16.7539 15.5159 15.499 16.828 13.9481 16.828Z" fill="white"/>
</g>
<defs>
<filter id="filter0_bi_7086_7931" x="4.6001" y="3.19995" width="19" height="23.8" filterUnits="userSpaceOnUse" color-interpolation-filters="sRGB">
<feFlood flood-opacity="0" result="BackgroundImageFix"/>
<feGaussianBlur in="BackgroundImage" stdDeviation="1"/>
<feComposite in2="SourceAlpha" operator="in" result="effect1_backgroundBlur_7086_7931"/>
<feBlend mode="normal" in="SourceGraphic" in2="effect1_backgroundBlur_7086_7931" result="shape"/>
<feColorMatrix in="SourceAlpha" type="matrix" values="0 0 0 0 0 0 0 0 0 0 0 0 0 0 0 0 0 0 127 0" result="hardAlpha"/>
<feOffset dy="2"/>
<feGaussianBlur stdDeviation="1"/>
<feComposite in2="hardAlpha" operator="arithmetic" k2="-1" k3="1"/>
<feColorMatrix type="matrix" values="0 0 0 0 1 0 0 0 0 1 0 0 0 0 1 0 0 0 0.35 0"/>
<feBlend mode="normal" in2="shape" result="effect2_innerShadow_7086_7931"/>
</filter>
<filter id="filter1_d_7086_7931" x="9.8501" y="0.199951" width="19.75" height="19.6914" filterUnits="userSpaceOnUse" color-interpolation-filters="sRGB">
<feFlood flood-opacity="0" result="BackgroundImageFix"/>
<feColorMatrix in="SourceAlpha" type="matrix" values="0 0 0 0 0 0 0 0 0 0 0 0 0 0 0 0 0 0 127 0" result="hardAlpha"/>
<feOffset dy="3"/>
<feGaussianBlur stdDeviation="4"/>
<feColorMatrix type="matrix" values="0 0 0 0 0 0 0 0 0 0 0 0 0 0 0 0 0 0 0.25 0"/>
<feBlend mode="normal" in2="BackgroundImageFix" result="effect1_dropShadow_7086_7931"/>
<feBlend mode="normal" in="SourceGraphic" in2="effect1_dropShadow_7086_7931" result="shape"/>
</filter>
<filter id="filter2_d_7086_7931" x="1.6001" y="4.3999" width="24.6958" height="27.5042" filterUnits="userSpaceOnUse" color-interpolation-filters="sRGB">
<feFlood flood-opacity="0" result="BackgroundImageFix"/>
<feColorMatrix in="SourceAlpha" type="matrix" values="0 0 0 0 0 0 0 0 0 0 0 0 0 0 0 0 0 0 127 0" result="hardAlpha"/>
<feOffset dy="3"/>
<feGaussianBlur stdDeviation="4"/>
<feColorMatrix type="matrix" values="0 0 0 0 0 0 0 0 0 0.321569 0 0 0 0 0.705882 0 0 0 0.25 0"/>
<feBlend mode="normal" in2="BackgroundImageFix" result="effect1_dropShadow_7086_7931"/>
<feBlend mode="normal" in="SourceGraphic" in2="effect1_dropShadow_7086_7931" result="shape"/>
</filter>
<linearGradient id="paint0_linear_7086_7931" x1="13.309" y1="2.375" x2="-2.88602" y2="19.3243" gradientUnits="userSpaceOnUse">
<stop stop-color="#00C6FF"/>
<stop offset="1" stop-color="#0072FF"/>
</linearGradient>
</defs>
</svg>
