<svg width="28" height="30" viewBox="0 0 28 30" fill="none" xmlns="http://www.w3.org/2000/svg">
<path d="M21.5665 0.744751L21.9111 0.382454L21.7663 0.244751H21.5665V0.744751ZM26.8503 5.77035H27.3503V5.55587L27.1949 5.40806L26.8503 5.77035ZM11.7827 9.60146C11.5066 9.60146 11.2827 9.82531 11.2827 10.1015C11.2827 10.3776 11.5066 10.6015 11.7827 10.6015V9.60146ZM22.5744 10.6015C22.8506 10.6015 23.0744 10.3776 23.0744 10.1015C23.0744 9.82531 22.8506 9.60146 22.5744 9.60146V10.6015ZM19.0826 16.7307C18.8064 16.7307 18.5826 16.9545 18.5826 17.2307C18.5826 17.5068 18.8064 17.7307 19.0826 17.7307V16.7307ZM22.3438 17.7307C22.62 17.7307 22.8438 17.5068 22.8438 17.2307C22.8438 16.9545 22.62 16.7307 22.3438 16.7307V17.7307ZM7.96737 12.6201V2.51302H6.96737V12.6201H7.96737ZM7.96737 2.51302C7.96737 1.84292 8.55812 1.24475 9.34506 1.24475V0.244751C8.06325 0.244751 6.96737 1.23492 6.96737 2.51302H7.96737ZM9.34506 1.24475H21.5665V0.244751H9.34506V1.24475ZM21.2219 1.10705L26.5057 6.13265L27.1949 5.40806L21.9111 0.382454L21.2219 1.10705ZM26.3503 5.77035V23.5957H27.3503V5.77035H26.3503ZM26.3503 23.5957C26.3503 24.2658 25.7596 24.864 24.9726 24.864V25.864C26.2545 25.864 27.3503 24.8738 27.3503 23.5957H26.3503ZM24.9726 24.864H18.5819V25.864H24.9726V24.864ZM15.0111 28.7857H4.63441V29.7857H15.0111V28.7857ZM4.63441 28.7857C2.95146 28.7857 1.64258 27.5112 1.64258 25.9973H0.642578C0.642578 28.1192 2.45658 29.7857 4.63441 29.7857V28.7857ZM1.64258 25.9973V16.2253H0.642578V25.9973H1.64258ZM1.64258 16.2253C1.64258 14.7114 2.95146 13.4369 4.63441 13.4369V12.4369C2.45658 12.4369 0.642578 14.1034 0.642578 16.2253H1.64258ZM4.63441 13.4369H15.0111V12.4369H4.63441V13.4369ZM15.0111 13.4369C16.694 13.4369 18.0029 14.7114 18.0029 16.2253H19.0029C19.0029 14.1034 17.1889 12.4369 15.0111 12.4369V13.4369ZM18.0029 16.2253V25.9973H19.0029V16.2253H18.0029ZM18.0029 25.9973C18.0029 27.5112 16.694 28.7857 15.0111 28.7857V29.7857C17.1889 29.7857 19.0029 28.1192 19.0029 25.9973H18.0029ZM11.7827 10.6015H22.5744V9.60146H11.7827V10.6015ZM19.0826 17.7307H22.3438V16.7307H19.0826V17.7307Z" fill="url(#paint0_linear_7243_10660)"/>
<path d="M13.9642 24.6881H5.68262V26.6239H13.9642V24.6881Z" fill="url(#paint1_linear_7243_10660)"/>
<path d="M11.3221 20.3201V16.1817H8.33097V20.3201H6.09093L9.81994 24.1731L13.5555 20.3201H11.3221Z" fill="url(#paint2_linear_7243_10660)"/>
<path d="M21.1319 0.714233V5.98181H26.8572" fill="url(#paint3_linear_7243_10660)"/>
<defs>
<linearGradient id="paint0_linear_7243_10660" x1="26.8503" y1="0.74475" x2="-1.53531" y2="26.3126" gradientUnits="userSpaceOnUse">
<stop stop-color="#FF6A00"/>
<stop offset="1" stop-color="#EE0979"/>
</linearGradient>
<linearGradient id="paint1_linear_7243_10660" x1="26.8572" y1="0.714233" x2="1.46638" y2="21.4648" gradientUnits="userSpaceOnUse">
<stop stop-color="#FF6A00"/>
<stop offset="1" stop-color="#EE0979"/>
</linearGradient>
<linearGradient id="paint2_linear_7243_10660" x1="26.8572" y1="0.714233" x2="1.46638" y2="21.4648" gradientUnits="userSpaceOnUse">
<stop stop-color="#FF6A00"/>
<stop offset="1" stop-color="#EE0979"/>
</linearGradient>
<linearGradient id="paint3_linear_7243_10660" x1="26.8572" y1="0.714233" x2="1.46638" y2="21.4648" gradientUnits="userSpaceOnUse">
<stop stop-color="#FF6A00"/>
<stop offset="1" stop-color="#EE0979"/>
</linearGradient>
</defs>
</svg>
