<svg width="24" height="27" viewBox="0 0 24 27" fill="none" xmlns="http://www.w3.org/2000/svg">
<path d="M12.6546 4.92414C12.6546 7.64945 10.7384 9.84827 8.40005 9.84827C6.06168 9.84827 4.14551 7.64945 4.14551 4.92414C4.14551 2.19883 4.76258 0 8.40005 0C12.0375 0 12.6546 2.19883 12.6546 4.92414Z" fill="url(#paint0_linear_7086_7921)"/>
<path d="M13.0622 11.149C15.7036 12.0899 16.1181 13.7143 16.1686 17.498C16.1686 17.7759 16.2001 17.8376 16.2001 17.7759C16.2001 18.0193 16.1411 18.2604 15.9738 18.4372C15.3978 19.0464 13.5379 20.4 8.38434 20.4C3.47067 20.4 1.56838 19.1695 0.910025 18.5269C0.677587 18.3001 0.600098 17.9772 0.600098 17.6524V17.3128C0.650416 13.6405 1.10244 12.0538 3.70395 11.1391C4.61181 10.8199 5.61716 10.9976 6.6192 11.1746C6.64232 11.1787 6.66545 11.1828 6.68857 11.1869C6.56739 11.3885 6.5707 11.6229 6.6985 11.7987L7.68256 12.9584L7.23153 15.9866L8.13358 17.855C8.21559 18.0483 8.54361 18.0483 8.66661 17.855L9.56866 15.9866L9.11764 12.9584L10.1017 11.7987C10.2269 11.6018 10.2326 11.3674 10.1187 11.1816C10.1263 11.1802 10.1338 11.1789 10.1414 11.1776C11.1459 11.0018 12.1539 10.8254 13.0622 11.149Z" fill="url(#paint1_linear_7086_7921)"/>
<g filter="url(#filter0_bi_7086_7921)">
<path d="M16.8002 23.4C20.4382 23.4 23.4002 20.438 23.4002 16.8C23.4002 13.1619 20.4382 10.2 16.8002 10.2C13.1621 10.2 10.2002 13.1619 10.2002 16.8C10.2002 20.438 13.1621 23.4 16.8002 23.4Z" fill="#F3CFFF" fill-opacity="0.56"/>
</g>
<g filter="url(#filter1_d_7086_7921)">
<path d="M19.4632 15.4372H19.049V14.8824C19.049 13.8054 18.1889 12.9243 17.1376 12.9243C16.0863 12.9243 15.2261 13.8054 15.2261 14.8824V15.4372H14.812C14.7483 15.4372 14.6846 15.5024 14.6846 15.5677V19.0269C14.6846 19.3206 14.9394 19.5817 15.2261 19.5817H19.049C19.3357 19.5817 19.5906 19.3206 19.5906 19.0269V15.5677C19.5906 15.5024 19.5269 15.4372 19.4632 15.4372ZM17.5517 18.309C17.5517 18.3416 17.5517 18.3742 17.5199 18.4069C17.488 18.4395 17.4562 18.4395 17.4243 18.4395H16.8827C16.8509 18.4395 16.819 18.4069 16.7872 18.4069C16.7553 18.3742 16.7553 18.3416 16.7553 18.309L16.8509 17.5258C16.7234 17.4278 16.6279 17.2647 16.6279 17.0689C16.6279 16.7752 16.8827 16.5141 17.1694 16.5141C17.4562 16.5141 17.711 16.7752 17.711 17.0689C17.711 17.232 17.6154 17.4278 17.488 17.5258L17.5517 18.309ZM18.2207 15.4372H16.0544V14.8824C16.0544 14.2623 16.5323 13.7728 17.1376 13.7728C17.7429 13.7728 18.2207 14.2623 18.2207 14.8824V15.4372Z" fill="white"/>
</g>
<defs>
<filter id="filter0_bi_7086_7921" x="7.2002" y="7.19995" width="19.2002" height="19.2" filterUnits="userSpaceOnUse" color-interpolation-filters="sRGB">
<feFlood flood-opacity="0" result="BackgroundImageFix"/>
<feGaussianBlur in="BackgroundImage" stdDeviation="1.5"/>
<feComposite in2="SourceAlpha" operator="in" result="effect1_backgroundBlur_7086_7921"/>
<feBlend mode="normal" in="SourceGraphic" in2="effect1_backgroundBlur_7086_7921" result="shape"/>
<feColorMatrix in="SourceAlpha" type="matrix" values="0 0 0 0 0 0 0 0 0 0 0 0 0 0 0 0 0 0 127 0" result="hardAlpha"/>
<feOffset dy="1.5"/>
<feGaussianBlur stdDeviation="1"/>
<feComposite in2="hardAlpha" operator="arithmetic" k2="-1" k3="1"/>
<feColorMatrix type="matrix" values="0 0 0 0 1 0 0 0 0 1 0 0 0 0 1 0 0 0 0.45 0"/>
<feBlend mode="normal" in2="shape" result="effect2_innerShadow_7086_7921"/>
</filter>
<filter id="filter1_d_7086_7921" x="10.6846" y="11.9243" width="12.9062" height="14.6575" filterUnits="userSpaceOnUse" color-interpolation-filters="sRGB">
<feFlood flood-opacity="0" result="BackgroundImageFix"/>
<feColorMatrix in="SourceAlpha" type="matrix" values="0 0 0 0 0 0 0 0 0 0 0 0 0 0 0 0 0 0 127 0" result="hardAlpha"/>
<feOffset dy="3"/>
<feGaussianBlur stdDeviation="2"/>
<feColorMatrix type="matrix" values="0 0 0 0 0.752941 0 0 0 0 0.0862745 0 0 0 0 0.917647 0 0 0 0.35 0"/>
<feBlend mode="normal" in2="BackgroundImageFix" result="effect1_dropShadow_7086_7921"/>
<feBlend mode="normal" in="SourceGraphic" in2="effect1_dropShadow_7086_7921" result="shape"/>
</filter>
<linearGradient id="paint0_linear_7086_7921" x1="11.9456" y1="1.41667" x2="-4.73238" y2="19.0357" gradientUnits="userSpaceOnUse">
<stop stop-color="#8E2DE2"/>
<stop offset="1" stop-color="#4A00E0"/>
</linearGradient>
<linearGradient id="paint1_linear_7086_7921" x1="11.9456" y1="1.41667" x2="-4.73238" y2="19.0357" gradientUnits="userSpaceOnUse">
<stop stop-color="#8E2DE2"/>
<stop offset="1" stop-color="#4A00E0"/>
</linearGradient>
</defs>
</svg>
