<svg width="30" height="36" viewBox="0 0 30 36" fill="none" xmlns="http://www.w3.org/2000/svg">
<path d="M15.1966 10.9761C16.9007 10.9998 18.519 11.3666 19.5488 11.9702C19.5856 11.9939 19.6223 12.0057 19.6591 12.0294C19.7082 12.0531 19.7572 12.0886 19.794 12.1122C20.4192 12.562 20.4805 12.9289 20.4683 13.2129L19.9533 22.2667C19.9411 22.598 19.892 22.7282 19.9043 22.7401C19.892 22.7519 19.8553 22.7637 19.8062 22.7756L18.7764 23.0833L18.6048 23.1188C18.2125 23.2135 17.9428 23.533 17.906 23.9117L17.1459 34.2437L12.7937 34.1963L12.0459 23.9117C12.0213 23.533 11.7516 23.2135 11.3716 23.1188L11.249 23.0833L10.1579 22.7637C10.1211 22.7519 10.0966 22.7401 10.0721 22.7401C10.0475 22.6809 10.023 22.5389 9.9985 22.2548L9.4836 13.2129C9.50811 12.9525 9.56941 12.5501 10.2192 12.1004L10.2927 12.0531C10.3418 12.0176 10.3908 11.9821 10.4644 11.9465C11.5064 11.343 13.1002 10.9879 14.8165 10.9642H15.1966V10.9761ZM15.2089 10.0885H14.8043C12.9899 10.1121 11.2122 10.4908 9.98624 11.1891C9.88816 11.2483 9.79009 11.3193 9.71653 11.3666C8.94417 11.8992 8.57638 12.5265 8.61316 13.2602L9.12807 22.3022C9.18936 23.249 9.4223 23.4738 9.9372 23.6277L11.0161 23.9354L11.1632 23.9709L11.96 35.0721L17.9673 35.1431C18.0041 35.1431 18.0286 35.1313 18.0286 35.1313L18.8377 23.9709L19.0094 23.9354L20.0882 23.6159C20.5908 23.4738 20.8483 23.2253 20.8851 22.2903L21.4 13.2484C21.4368 12.5146 21.0812 11.8874 20.3089 11.3548C20.2108 11.2956 20.1127 11.2365 20.0146 11.1773C18.8009 10.4908 16.9988 10.1121 15.2089 10.0885Z" fill="url(#paint0_linear_7301_17188)"/>
<path d="M15.0002 1.74505C16.7533 1.74505 18.1877 3.11791 18.1877 4.81031C18.1877 4.86948 18.1877 4.94049 18.1754 5.0115C18.1509 5.07068 18.1386 5.14169 18.1386 5.2127C18.1264 5.47307 18.0528 5.73344 17.9302 6.02931C17.4153 7.15364 16.2752 7.87557 15.0002 7.87557C13.7497 7.87557 12.5973 7.15364 12.0946 6.02931C11.972 5.78078 11.9107 5.52041 11.8617 5.17719C11.8617 5.15352 11.8494 5.11802 11.8494 5.09435C11.8372 4.99967 11.8372 4.90499 11.8372 4.81031C11.8372 3.11791 13.2593 1.74505 15.0002 1.74505ZM15.0002 0.857422C12.7566 0.857422 10.9177 2.63267 10.9177 4.81031C10.9177 4.96416 10.9299 5.11802 10.9422 5.26004C10.9545 5.27187 10.9545 5.28371 10.9545 5.28371C11.0035 5.67426 11.0893 6.02931 11.2487 6.38436C11.8862 7.78089 13.3328 8.7632 15.0002 8.7632H15.0124C16.7042 8.7632 18.1386 7.78089 18.7761 6.38436C18.9232 6.02931 19.0336 5.66243 19.0581 5.26004C19.0581 5.26004 19.0581 5.26004 19.0704 5.2482C19.0949 5.10618 19.1071 4.95233 19.1071 4.81031C19.1071 2.63267 17.2682 0.857422 15.0002 0.857422Z" fill="url(#paint1_linear_7301_17188)"/>
<path d="M5.9283 12.0296C5.79344 12.4675 5.7444 12.9172 5.78118 13.3906L6.28383 22.4207C6.32061 23.0479 6.43094 24.906 8.44153 25.6516L8.93191 32.4804H4.44488L3.8319 23.7462C3.80738 23.3793 3.54992 23.0716 3.19439 22.9651L2.50785 22.7521C2.2504 22.6811 2.11554 22.6337 2.06651 21.9473L1.63742 14.3374C1.6129 13.9587 1.74775 13.6391 2.04199 13.3314C2.72853 12.6213 4.21195 12.1361 5.9283 12.0296ZM6.67614 11.1183C3.63574 11.1183 0.595346 12.2071 0.717943 14.3847L1.14703 21.9946C1.20833 22.8823 1.45352 23.3793 2.23814 23.6042L2.90016 23.8054L3.53766 32.7763C3.57444 33.1314 3.8319 33.3681 4.19969 33.3681H9.18937C9.5449 33.3681 9.80235 33.1432 9.83913 32.7763L9.85139 32.5751V32.5514L9.31196 24.9889L8.99321 24.8942C7.49753 24.4563 7.25234 23.3083 7.2033 22.3615L6.70066 13.3314C6.63936 12.5266 6.89681 11.781 7.44849 11.1419C7.19104 11.1301 6.93359 11.1183 6.67614 11.1183Z" fill="url(#paint2_linear_7301_17188)"/>
<path d="M5.95275 4.58545C7.27679 4.58545 8.35564 5.62693 8.35564 6.89327C8.35564 6.92878 8.35564 6.97612 8.34338 7.02346C8.33112 7.08263 8.31886 7.14181 8.31886 7.20098C8.30661 7.39034 8.25757 7.59154 8.17175 7.80457C7.77944 8.65669 6.92126 9.2011 5.96501 9.2011C5.02102 9.2011 4.16284 8.65669 3.77053 7.8164C3.68471 7.62704 3.62341 7.42585 3.5989 7.16548C3.5989 7.14181 3.58664 7.11814 3.58664 7.09447C3.58664 7.02346 3.57438 6.96428 3.57438 6.89327C3.57438 5.61509 4.64097 4.58545 5.95275 4.58545ZM5.95275 3.69783C4.13832 3.69783 2.6549 5.12986 2.6549 6.89327C2.6549 7.02346 2.66716 7.14181 2.67942 7.26016V7.27199C2.7162 7.59154 2.78976 7.87558 2.92461 8.15962C3.43952 9.29578 4.60419 10.0887 5.95275 10.0887H5.96501C7.33809 10.0887 8.4905 9.29578 9.00541 8.15962C9.128 7.87558 9.21382 7.5797 9.23834 7.24832C9.23834 7.24832 9.23834 7.24832 9.2506 7.23649C9.27512 7.11814 9.27512 6.99979 9.27512 6.88144C9.27512 5.12986 7.7917 3.69783 5.95275 3.69783Z" fill="url(#paint3_linear_7301_17188)"/>
<path d="M24.048 12.0293C25.7643 12.1358 27.2478 12.6211 27.9343 13.3193C28.2408 13.6271 28.3757 13.9466 28.3511 14.3253L27.922 21.9352C27.873 22.6335 27.7259 22.6808 27.4562 22.7518L26.8064 22.953C26.4509 23.0595 26.1934 23.3791 26.1689 23.7341L25.5437 32.4684H21.0566L21.5348 25.6396C23.5453 24.8821 23.6557 23.0359 23.6925 22.3968L24.2074 13.3667C24.2319 12.917 24.1829 12.4554 24.048 12.0293ZM23.3247 11.118C23.0672 11.118 22.8098 11.1299 22.5523 11.1417C23.0917 11.7808 23.3369 12.5264 23.3002 13.343L22.7853 22.3613C22.724 23.3081 22.4788 24.4561 20.9953 24.894L20.6766 24.9886L20.1372 32.5867V32.5985L20.1494 32.7761C20.1862 33.1311 20.4437 33.3678 20.8114 33.3678H25.8011C26.1689 33.3678 26.4141 33.143 26.4509 32.7761L27.1007 23.8051L27.7504 23.604C28.535 23.3791 28.8047 22.8702 28.8538 21.9944L29.2829 14.3845C29.3932 12.2069 26.3528 11.118 23.3247 11.118Z" fill="url(#paint4_linear_7301_17188)"/>
<path d="M24.0113 4.58545C25.3354 4.58545 26.4142 5.62693 26.4142 6.89327C26.4142 6.92878 26.4142 6.97612 26.402 7.02346C26.3897 7.08263 26.3775 7.14181 26.3652 7.21282C26.3529 7.40218 26.3039 7.60337 26.2181 7.8164C25.8258 8.66852 24.9676 9.21293 24.0113 9.21293C23.0673 9.21293 22.2092 8.66852 21.8169 7.82824C21.731 7.63888 21.682 7.43768 21.6452 7.18915C21.6452 7.16548 21.633 7.14181 21.633 7.11814C21.633 7.04713 21.6207 6.98795 21.6207 6.91694C21.633 5.61509 22.6996 4.58545 24.0113 4.58545ZM24.0113 3.69783C22.1969 3.69783 20.7135 5.12986 20.7135 6.89327C20.7135 7.02346 20.7258 7.14181 20.738 7.26016C20.7503 7.27199 20.7503 7.28383 20.7503 7.28383C20.787 7.60337 20.8606 7.88741 20.9832 8.17145C21.4981 9.29578 22.6628 10.0887 24.0113 10.0887H24.0236C25.3967 10.0887 26.5491 9.29578 27.064 8.15962C27.1866 7.87558 27.2724 7.5797 27.2969 7.24832C27.2969 7.24832 27.2969 7.24832 27.3092 7.23649C27.3337 7.11814 27.3337 6.99979 27.3337 6.88144C27.3337 5.12986 25.8503 3.69783 24.0113 3.69783Z" fill="url(#paint5_linear_7301_17188)"/>
<defs>
<linearGradient id="paint0_linear_7301_17188" x1="29.2858" y1="0.857421" x2="-4.43787" y2="28.9605" gradientUnits="userSpaceOnUse">
<stop stop-color="#FF6A00"/>
<stop offset="1" stop-color="#EE0979"/>
</linearGradient>
<linearGradient id="paint1_linear_7301_17188" x1="29.2858" y1="0.857421" x2="-4.43787" y2="28.9605" gradientUnits="userSpaceOnUse">
<stop stop-color="#FF6A00"/>
<stop offset="1" stop-color="#EE0979"/>
</linearGradient>
<linearGradient id="paint2_linear_7301_17188" x1="29.2858" y1="0.857421" x2="-4.43787" y2="28.9605" gradientUnits="userSpaceOnUse">
<stop stop-color="#FF6A00"/>
<stop offset="1" stop-color="#EE0979"/>
</linearGradient>
<linearGradient id="paint3_linear_7301_17188" x1="29.2858" y1="0.857421" x2="-4.43787" y2="28.9605" gradientUnits="userSpaceOnUse">
<stop stop-color="#FF6A00"/>
<stop offset="1" stop-color="#EE0979"/>
</linearGradient>
<linearGradient id="paint4_linear_7301_17188" x1="29.2858" y1="0.857421" x2="-4.43787" y2="28.9605" gradientUnits="userSpaceOnUse">
<stop stop-color="#FF6A00"/>
<stop offset="1" stop-color="#EE0979"/>
</linearGradient>
<linearGradient id="paint5_linear_7301_17188" x1="29.2858" y1="0.857421" x2="-4.43787" y2="28.9605" gradientUnits="userSpaceOnUse">
<stop stop-color="#FF6A00"/>
<stop offset="1" stop-color="#EE0979"/>
</linearGradient>
</defs>
</svg>
