<svg width="24" height="24" viewBox="0 0 24 24" fill="none" xmlns="http://www.w3.org/2000/svg">
<path d="M21.4873 8.43569L9.61026 15.4101C8.93054 15.8097 8.07196 15.5554 7.67844 14.8652L4.3872 9.12587C3.99369 8.43569 4.24411 7.56389 4.92382 7.16431L16.7651 0.189887C17.4448 -0.20969 18.3034 0.0445863 18.6969 0.734764L21.9882 6.51046C22.4175 7.12799 22.1671 8.03611 21.4873 8.43569Z" fill="#6ABD45"/>
<path d="M7.8002 24C8.47078 24 9.0002 23.4706 9.0002 22.8C9.0002 22.1294 8.47078 21.6 7.8002 21.6C7.12961 21.6 6.6002 22.1294 6.6002 22.8C6.6002 23.4706 7.12961 24 7.8002 24Z" fill="#6ABD45"/>
<path d="M18.0002 24C18.6708 24 19.2002 23.4706 19.2002 22.8C19.2002 22.1294 18.6708 21.6 18.0002 21.6C17.3296 21.6 16.8002 22.1294 16.8002 22.8C16.8002 23.4706 17.3296 24 18.0002 24Z" fill="#6ABD45"/>
<g filter="url(#filter0_bi_7086_7072)">
<path d="M1.62846 0C2.31135 0 2.92235 0.428722 3.138 1.0718L4.21625 4.32294C4.57566 5.35902 5.54608 6.07355 6.66026 6.07355H22.4026C23.4808 6.07355 24.2716 7.14536 23.9121 8.18144L20.2461 19.2925C20.0305 19.9356 19.4195 20.4 18.7366 20.4H5.83361C5.07884 20.4 4.46784 19.8998 4.28813 19.1853L0.0470417 1.96497C-0.204548 0.964623 0.586163 0 1.62846 0Z" fill="#A9EDB8" fill-opacity="0.35"/>
</g>
<g filter="url(#filter1_d_7086_7072)">
<path d="M13.2002 17.4H18.0002" stroke="white" stroke-width="2.5" stroke-miterlimit="10" stroke-linecap="round" stroke-linejoin="round"/>
</g>
<defs>
<filter id="filter0_bi_7086_7072" x="-4" y="-4" width="32" height="28.4" filterUnits="userSpaceOnUse" color-interpolation-filters="sRGB">
<feFlood flood-opacity="0" result="BackgroundImageFix"/>
<feGaussianBlur in="BackgroundImage" stdDeviation="2"/>
<feComposite in2="SourceAlpha" operator="in" result="effect1_backgroundBlur_7086_7072"/>
<feBlend mode="normal" in="SourceGraphic" in2="effect1_backgroundBlur_7086_7072" result="shape"/>
<feColorMatrix in="SourceAlpha" type="matrix" values="0 0 0 0 0 0 0 0 0 0 0 0 0 0 0 0 0 0 127 0" result="hardAlpha"/>
<feOffset dy="2"/>
<feGaussianBlur stdDeviation="1"/>
<feComposite in2="hardAlpha" operator="arithmetic" k2="-1" k3="1"/>
<feColorMatrix type="matrix" values="0 0 0 0 1 0 0 0 0 1 0 0 0 0 1 0 0 0 0.45 0"/>
<feBlend mode="normal" in2="shape" result="effect2_innerShadow_7086_7072"/>
</filter>
<filter id="filter1_d_7086_7072" x="8.9502" y="13.15" width="13.2998" height="8.5" filterUnits="userSpaceOnUse" color-interpolation-filters="sRGB">
<feFlood flood-opacity="0" result="BackgroundImageFix"/>
<feColorMatrix in="SourceAlpha" type="matrix" values="0 0 0 0 0 0 0 0 0 0 0 0 0 0 0 0 0 0 127 0" result="hardAlpha"/>
<feOffset/>
<feGaussianBlur stdDeviation="1.5"/>
<feColorMatrix type="matrix" values="0 0 0 0 0.164706 0 0 0 0 0.670588 0 0 0 0 0.0823529 0 0 0 0.65 0"/>
<feBlend mode="normal" in2="BackgroundImageFix" result="effect1_dropShadow_7086_7072"/>
<feBlend mode="normal" in="SourceGraphic" in2="effect1_dropShadow_7086_7072" result="shape"/>
</filter>
</defs>
</svg>
