<svg width="39" height="58" viewBox="0 0 39 58" fill="none" xmlns="http://www.w3.org/2000/svg">
<path d="M38.3334 0.672852H0.083374V57.3224H38.3334V0.672852Z" fill="#0E1B42"/>
<path d="M15.8321 35.1471C16.3417 21.1364 23.8592 8.73172 35.1482 0.666992H27.6392C18.4908 8.66337 12.3494 19.8805 12.0861 32.3621C11.8822 42.2465 13.7849 49.7559 18.992 57.3337H20.8947C16.8344 50.3625 15.5518 43.0666 15.8321 35.1471Z" fill="white"/>
<path d="M17.0804 57.3224C12.5614 52.5041 7.09955 43.4227 6.46247 33.6152C5.68767 21.5871 9.68619 9.74076 17.5816 0.672852H23.74C14.0479 10.3864 9.07024 23.2524 10.2 36.0415C10.922 44.2087 14.1159 50.2487 19.0171 57.3224H17.0804Z" fill="#FF9900"/>
<path d="M19.1445 45.6686C23.2557 41.397 27.0867 35.2118 28.2929 29.0522C29.3196 23.6616 29.0869 18.1049 27.6133 12.8202C27.5029 12.4785 27.4519 12.2393 27.5029 12.2051C28.1459 13.02 28.6799 13.9161 29.0913 14.8705C31.0482 19.044 31.7807 23.6923 31.203 28.2699C30.6252 32.8474 28.7611 37.1642 25.8295 40.7135C24.5943 42.1834 23.1654 43.4768 21.5823 44.558C20.6948 45.1986 19.7336 45.7292 18.7197 46.1384C18.7113 46.0957 18.9066 45.9334 19.1445 45.6686Z" fill="white"/>
<path d="M19.0167 45.8016C21.7774 42.6065 24.2577 38.1128 24.8608 33.6704C25.3771 29.8105 24.9813 25.8827 23.7056 22.2055C23.6121 21.9663 23.5697 21.7954 23.6036 21.7783C24.1002 22.3388 24.5175 22.9655 24.8438 23.6407C26.412 26.5049 27.1267 29.7628 26.9022 33.0247C26.6778 36.2867 25.5237 39.4145 23.5782 42.0341C22.7634 43.1241 21.803 44.0958 20.7241 44.9217C20.1196 45.4155 19.4544 45.829 18.7449 46.1519C18.7449 46.1519 18.8468 45.9981 19.0167 45.8016Z" fill="#FF9900"/>
</svg>
