<svg width="57" height="56" viewBox="0 0 57 56" fill="none" xmlns="http://www.w3.org/2000/svg">
<path d="M15.6736 47.9833C15.6972 49.1235 15.5176 50.2588 15.1434 51.3358C14.8035 52.2158 14.2615 53.0031 13.5613 53.6337C12.8286 54.2804 11.9469 54.7342 10.9957 54.9541C9.92256 55.1703 8.83197 55.288 7.73749 55.3057C7.23715 55.3173 6.73668 55.2886 6.24092 55.2199C5.70606 55.1397 5.17743 55.0222 4.65883 54.8684C4.11543 54.6688 3.58676 54.431 3.07674 54.1567C2.53409 53.8765 2.054 53.4885 1.66569 53.0164C1.14905 52.3925 0.759697 51.6729 0.519744 50.8985C0.26615 50.039 0.147853 49.1452 0.169119 48.2491V35.2849H4.3082V47.8976C4.28973 48.4962 4.37361 49.0936 4.55621 49.6638C4.71758 50.1127 4.95479 50.5304 5.25746 50.8985C5.58401 51.2135 5.97505 51.4534 6.4034 51.6016C6.82056 51.7766 7.26818 51.867 7.72039 51.8674C8.25848 51.9135 8.80035 51.8516 9.31428 51.6852C9.82822 51.5188 10.3039 51.2514 10.7135 50.8985C11.3439 50.1338 11.6509 49.1521 11.5687 48.1634V35.3021H15.6736V47.9833Z" fill="#233C77"/>
<path d="M18.8205 45.0724C18.7997 43.73 18.9784 42.3921 19.3507 41.1025C19.6495 40.0999 20.0932 39.1466 20.6677 38.273C21.1483 37.5336 21.7774 36.9028 22.5149 36.421C23.1841 36.0032 23.8914 35.6501 24.6272 35.3664C25.254 35.1217 25.9046 34.9435 26.5685 34.8348C27.6201 34.7204 28.681 34.7204 29.7326 34.8348C30.3963 34.9315 31.0454 35.11 31.6654 35.3664C32.4027 35.6466 33.1103 35.9999 33.7777 36.421C34.5189 36.8981 35.149 37.5298 35.6249 38.273C36.2024 39.1461 36.649 40.0994 36.9504 41.1025C37.6458 43.7032 37.6458 46.4416 36.9504 49.0422C36.6473 50.042 36.2008 50.9922 35.6249 51.8631C35.149 52.6063 34.5189 53.238 33.7777 53.7152C33.1103 54.1363 32.4027 54.4896 31.6654 54.7698C31.0431 55.0194 30.3948 55.1977 29.7326 55.3014C29.2062 55.3446 28.677 55.3446 28.1506 55.3014C27.6218 55.3112 27.0931 55.2826 26.5685 55.2157C25.9021 55.1189 25.2501 54.9404 24.6272 54.6841C23.8914 54.4003 23.1841 54.0472 22.5149 53.6294C21.7774 53.1476 21.1483 52.5168 20.6677 51.7774C20.0932 50.9038 19.6495 49.9505 19.3507 48.9479C18.9725 47.6919 18.7936 46.3841 18.8205 45.0724ZM22.8741 45.0724C22.8325 46.2109 23.0006 47.3474 23.3701 48.4249C23.6634 49.2115 24.1145 49.9294 24.6956 50.5341C25.1662 51.0498 25.7748 51.4188 26.4487 51.5973C27.0222 51.7609 27.6143 51.8503 28.2104 51.8631C28.8071 51.8569 29.4 51.7675 29.9721 51.5973C30.639 51.3968 31.2449 51.0312 31.7338 50.5341C32.3091 49.9265 32.757 49.2093 33.0508 48.4249C33.7576 46.2461 33.7576 43.8987 33.0508 41.7199C32.7591 40.9319 32.311 40.2115 31.7338 39.602C31.2584 39.088 30.6477 38.7194 29.9721 38.5388C28.8242 38.1845 27.5966 38.1845 26.4487 38.5388C25.7835 38.7376 25.18 39.1036 24.6956 39.602C24.1126 40.2086 23.6612 40.9297 23.3701 41.7199C22.9927 42.7954 22.8243 43.9334 22.8741 45.0724Z" fill="#233C77"/>
<path d="M40.7303 35.283H50.1373C51.1605 35.246 52.18 35.4242 53.1304 35.806C53.8245 36.1045 54.4612 36.5224 55.0118 37.0407C55.4253 37.5109 55.7525 38.0508 55.9782 38.6355C56.136 39.1502 56.2252 39.6836 56.2433 40.2217C56.2583 40.8215 56.1686 41.4192 55.9782 41.988C55.8438 42.4025 55.6351 42.7889 55.3624 43.1284C55.1192 43.389 54.853 43.6272 54.5671 43.84C54.32 43.963 54.0852 44.1095 53.8659 44.2773C54.4169 44.4598 54.9258 44.7514 55.3624 45.1347C55.7204 45.4573 56.0111 45.8478 56.2176 46.2837C56.4428 46.6932 56.5907 47.1408 56.6538 47.6041C56.7603 48.0686 56.8204 48.5425 56.8334 49.0188C56.8213 49.7745 56.6705 50.5215 56.3887 51.2224C56.1349 51.9067 55.711 52.5147 55.1572 52.9887C54.9102 53.2661 54.6217 53.5033 54.302 53.6918C53.9468 53.9164 53.5646 54.095 53.1646 54.2234C52.6101 54.4071 52.0361 54.5251 51.4542 54.5749C50.6357 54.653 49.8133 54.6816 48.9913 54.6607H40.8158V35.283H40.7303ZM44.6042 42.9569H49.3505C50.0633 42.981 50.7676 42.7962 51.3773 42.4253C51.6257 42.2227 51.826 41.9671 51.9636 41.6771C52.1012 41.3872 52.1725 41.0701 52.1725 40.749C52.1725 40.4279 52.1012 40.1109 51.9636 39.8209C51.826 39.531 51.6257 39.2754 51.3773 39.0728C50.6889 38.7567 49.9361 38.6069 49.1795 38.6355H44.5102V42.9226L44.6042 42.9569ZM49.6156 51.4196C50.4373 51.4553 51.2464 51.2071 51.9075 50.7165C52.1951 50.4319 52.4151 50.0861 52.5513 49.7046C52.6875 49.3232 52.7364 48.9159 52.6943 48.513C52.7195 48.1417 52.6331 47.7713 52.4463 47.4498C52.2812 47.1554 52.0386 46.9122 51.745 46.7467C51.4283 46.559 51.0893 46.4121 50.7359 46.3094C50.3882 46.231 50.0316 46.1992 49.6755 46.2151H44.5102V51.4196H49.6156Z" fill="#233C77"/>
<path d="M20.8731 29.7681H18.4187C18.3481 29.7718 18.2775 29.7606 18.2115 29.7352C18.1455 29.7098 18.0856 29.6707 18.0356 29.6206C17.9856 29.5705 17.9467 29.5104 17.9214 29.4442C17.896 29.3781 17.8848 29.3073 17.8885 29.2365V0.615822C17.8848 0.545036 17.896 0.474264 17.9214 0.408091C17.9467 0.341918 17.9856 0.281821 18.0356 0.2317C18.0856 0.181578 18.1455 0.142549 18.2115 0.117143C18.2775 0.0917371 18.3481 0.0805201 18.4187 0.084221H20.8731C20.9444 0.0792615 21.0159 0.0895446 21.083 0.114388C21.15 0.139231 21.211 0.178067 21.2619 0.228326C21.3129 0.278585 21.3526 0.339121 21.3784 0.405924C21.4043 0.472726 21.4157 0.544271 21.4119 0.615822V29.2965C21.4099 29.3638 21.3941 29.43 21.3654 29.4909C21.3367 29.5517 21.2958 29.606 21.2452 29.6503C21.1946 29.6946 21.1355 29.7279 21.0714 29.7482C21.0074 29.7684 20.9399 29.7752 20.8731 29.7681Z" fill="#EB2027"/>
<path d="M26.8508 29.7682H24.3965C24.3255 29.7733 24.2543 29.763 24.1877 29.7381C24.1211 29.7132 24.0605 29.6742 24.0103 29.6238C23.96 29.5734 23.9211 29.5127 23.8962 29.4459C23.8714 29.3791 23.8612 29.3077 23.8662 29.2366V0.615883C23.8612 0.544762 23.8714 0.473376 23.8962 0.406566C23.9211 0.339756 23.96 0.279085 24.0103 0.228666C24.0605 0.178247 24.1211 0.139258 24.1877 0.114347C24.2543 0.0894351 24.3255 0.0791815 24.3965 0.0842816H26.8508C26.9214 0.0805807 26.992 0.0917977 27.058 0.117204C27.124 0.14261 27.184 0.181639 27.234 0.23176C27.2839 0.281882 27.3229 0.341978 27.3482 0.408151C27.3736 0.474324 27.3847 0.545097 27.381 0.615883V29.2966C27.379 29.3631 27.3634 29.4285 27.3352 29.4887C27.3071 29.5489 27.267 29.6028 27.2173 29.6469C27.1677 29.6911 27.1096 29.7246 27.0465 29.7455C26.9835 29.7663 26.9169 29.774 26.8508 29.7682Z" fill="#EB2027"/>
<path d="M32.7174 29.7681H30.263C30.1917 29.7731 30.1202 29.7628 30.0532 29.7379C29.9861 29.7131 29.9251 29.6743 29.8742 29.624C29.8232 29.5737 29.7835 29.5132 29.7577 29.4464C29.7318 29.3796 29.7204 29.3081 29.7243 29.2365V0.615822C29.7204 0.544271 29.7318 0.472726 29.7577 0.405924C29.7835 0.339121 29.8232 0.278585 29.8742 0.228326C29.9251 0.178067 29.9861 0.139231 30.0532 0.114388C30.1202 0.0895446 30.1917 0.0792615 30.263 0.084221H32.7174C32.788 0.0805201 32.8586 0.0917371 32.9246 0.117143C32.9906 0.142549 33.0505 0.181578 33.1005 0.2317C33.1505 0.281821 33.1894 0.341918 33.2148 0.408091C33.2401 0.474264 33.2513 0.545036 33.2476 0.615822V29.2965C33.2455 29.363 33.2299 29.4284 33.2018 29.4886C33.1736 29.5489 33.1335 29.6027 33.0839 29.6469C33.0342 29.691 32.9761 29.7246 32.9131 29.7454C32.8501 29.7662 32.7835 29.774 32.7174 29.7681Z" fill="#EB2027"/>
<path d="M38.5754 29.7681H36.1296C36.0583 29.7731 35.9868 29.7628 35.9198 29.7379C35.8527 29.7131 35.7917 29.6743 35.7408 29.624C35.6898 29.5737 35.6501 29.5132 35.6243 29.4464C35.5984 29.3796 35.587 29.3081 35.5908 29.2365V0.615822C35.587 0.544271 35.5984 0.472726 35.6243 0.405924C35.6501 0.339121 35.6898 0.278585 35.7408 0.228326C35.7917 0.178067 35.8527 0.139231 35.9198 0.114388C35.9868 0.0895446 36.0583 0.0792615 36.1296 0.084221H38.5754C38.6467 0.0792615 38.7183 0.0895446 38.7853 0.114388C38.8523 0.139231 38.9133 0.178067 38.9643 0.228326C39.0152 0.278585 39.0549 0.339121 39.0808 0.405924C39.1066 0.472726 39.118 0.544271 39.1142 0.615822V29.2965C39.1122 29.3638 39.0964 29.43 39.0677 29.4909C39.039 29.5517 38.9981 29.606 38.9475 29.6503C38.897 29.6946 38.8378 29.7279 38.7738 29.7482C38.7097 29.7684 38.6422 29.7752 38.5754 29.7681Z" fill="#EB2027"/>
<path d="M13.8349 16.1456V13.6848C13.8311 13.6132 13.8425 13.5417 13.8683 13.4749C13.8942 13.4081 13.9339 13.3475 13.9848 13.2973C14.0358 13.247 14.0968 13.2082 14.1638 13.1833C14.2308 13.1585 14.3024 13.1482 14.3736 13.1532H42.5947C42.666 13.1482 42.7375 13.1585 42.8045 13.1833C42.8716 13.2082 42.9326 13.247 42.9835 13.2973C43.0345 13.3475 43.0742 13.4081 43.1 13.4749C43.1259 13.5417 43.1373 13.6132 43.1335 13.6848V16.1456C43.1385 16.2178 43.1281 16.2903 43.1028 16.3582C43.0775 16.426 43.038 16.4876 42.9869 16.5388C42.9358 16.59 42.8744 16.6297 42.8067 16.655C42.7391 16.6804 42.6667 16.6908 42.5947 16.6858H14.3736C14.2334 16.6776 14.1011 16.618 14.0017 16.5185C13.9024 16.4189 13.843 16.2862 13.8349 16.1456Z" fill="#EB2027"/>
</svg>
