<svg width="57" height="44" viewBox="0 0 57 44" fill="none" xmlns="http://www.w3.org/2000/svg">
<path opacity="0.7" d="M46.0161 30.5879C47.1931 30.3141 48.2282 29.707 49.0131 28.8501C49.6313 28.1954 50.1072 27.41 50.3806 26.5293L50.9632 24.7441L56.2203 8.5339C56.3988 7.96254 56.495 7.49846 56.6454 6.89815C57.506 3.45861 55.3601 0.75 51.0945 0.75H27.0981C24.5768 0.75 22.4241 2.30933 21.5321 4.51122C21.4845 4.66578 21.4251 4.80857 21.3775 4.96333L18.999 12.283L15.5378 22.9588C15.3597 23.5301 15.2644 24.1252 15.2644 24.7441C15.2644 27.2556 16.8108 29.4095 18.999 30.2902C19.7005 30.5879 21.423 30.7425 22.2197 30.7425H44.66C45.1241 30.7425 45.5877 30.695 46.0161 30.5879Z" fill="url(#paint0_linear_7275_532)"/>
<path opacity="0.8" d="M30.918 43.0965C32.0954 42.8229 33.1304 42.216 33.915 41.3589C34.5334 40.7045 35.0097 39.9188 35.2831 39.0385L35.8656 37.2532L41.1225 21.0429C41.3013 20.4715 41.3977 20.0076 41.5475 19.4069C42.4083 15.9674 40.2622 13.259 35.9965 13.2588H12.0002C9.479 13.2588 7.32632 14.8179 6.43433 17.0198C6.3867 17.1746 6.32711 17.3174 6.27948 17.4721L3.90102 24.7921L0.440042 35.4674C0.261682 36.0393 0.166626 36.6342 0.166626 37.2532C0.166626 39.7642 1.71249 41.9187 3.90102 42.7989C4.6027 43.0965 6.32461 43.2516 7.12174 43.2516H29.5622C30.0262 43.2514 30.4897 43.2038 30.918 43.0965Z" fill="url(#paint1_linear_7275_532)"/>
<defs>
<linearGradient id="paint0_linear_7275_532" x1="15.059" y1="15.7462" x2="53.3206" y2="15.7462" gradientUnits="userSpaceOnUse">
<stop stop-color="#46B2FD"/>
<stop offset="0.2154" stop-color="#5DC7FD"/>
<stop offset="0.513" stop-color="#76DEFD"/>
<stop offset="0.7833" stop-color="#86ECFD"/>
<stop offset="1" stop-color="#8BF1FD"/>
</linearGradient>
<linearGradient id="paint1_linear_7275_532" x1="-0.0387687" y1="28.2551" x2="38.2226" y2="28.2551" gradientUnits="userSpaceOnUse">
<stop stop-color="#0641CB"/>
<stop offset="0.2078" stop-color="#1C5DD6"/>
<stop offset="1" stop-color="#6FC3FD"/>
</linearGradient>
</defs>
</svg>
