<svg width="24" height="18" viewBox="0 0 24 18" fill="none" xmlns="http://www.w3.org/2000/svg">
<path d="M23.0849 6.92137C23.0666 6.8468 23.0483 6.75358 23.0301 6.67901C23.0118 9.75502 19.8316 12.7937 15.4268 13.7445C10.5833 14.8071 6.06888 12.9429 5.37435 9.5686C4.64326 6.21295 8.00625 2.63359 12.868 1.57097C13.4528 1.44047 14.0377 1.3659 14.6043 1.30998C13.2701 1.23541 11.8444 1.34726 10.4006 1.66418C4.27772 3.00644 0.0374233 7.51793 0.914726 11.7684C1.8103 16.0003 7.47622 18.3679 13.5991 17.0256C19.7219 15.6833 23.9622 11.1719 23.0849 6.92137Z" fill="#CC1F26"/>
<path d="M21.0375 7.81621L16.852 8.18905L21.0009 7.23829C20.9278 6.51123 20.7999 5.80282 20.5806 5.07576L16.4317 6.49259L20.3978 4.51648C20.343 4.3487 20.2698 4.16228 20.1967 3.9945C19.9957 3.49115 19.7398 3.02509 19.4839 2.59631L15.7188 4.92662L19.1732 2.13025C18.7711 1.55233 18.3142 1.03034 17.839 0.601562L13.5256 4.10635C13.7997 4.44191 14.0373 4.85205 14.2201 5.31811C14.2749 5.46725 14.3298 5.61639 14.3663 5.76553C14.3846 5.8401 14.4029 5.91467 14.4212 5.9706C14.5126 6.34345 14.5491 6.73494 14.5674 7.10779C14.5674 7.201 14.5674 7.31286 14.5674 7.40607C14.5491 7.74164 14.4943 8.0772 14.4029 8.39412C14.3663 8.52462 14.3298 8.65512 14.2749 8.76697C14.1836 8.99068 14.0922 9.21439 13.9642 9.40082H20.9827C21.0558 8.89747 21.0558 8.35684 21.0375 7.81621Z" fill="#CC1F26"/>
<path d="M18.552 10.1837L18.5703 10.1464H11.0036L11.8443 11.6937H17.7296L18.552 10.1837Z" fill="#CC1F26"/>
</svg>
