<svg width="69" height="68" viewBox="0 0 69 68" fill="none" xmlns="http://www.w3.org/2000/svg">
<path d="M50.5812 52.8999C51.7113 53.642 52.5016 54.8044 52.7783 56.1315C53.055 57.4585 52.7954 58.8416 52.0567 59.9765C51.3175 61.1058 50.1639 61.896 48.847 62.1751C47.5302 62.4543 46.1568 62.1997 45.0261 61.4668L27.4896 50.0532C27.4896 50.0532 21.6589 46.2159 21.2056 45.9393C19.9145 45.0901 18.8691 43.9143 18.1747 42.5303C18.1747 42.5303 16.6371 39.8532 18.3258 35.5697C18.7311 34.5843 19.2598 33.6546 19.8991 32.8033L50.5812 52.8999Z" fill="#58B847"/>
<path d="M37.7287 22.2388L42.6616 25.4603C43.1061 25.737 44.0838 26.3973 44.5371 26.6561C45.4321 27.15 46.4525 27.3673 47.4702 27.2808C48.1554 27.2107 48.8193 27.0013 49.4214 26.6653C50.0234 26.3293 50.5511 25.8738 50.9721 25.3265C51.6668 24.4183 52.0359 23.3014 52.0198 22.1564C52.0037 21.0114 51.6032 19.9054 50.8832 19.0173C50.0817 18.0626 48.965 17.4291 47.7368 17.2325C46.4424 17.0596 45.1302 17.3778 44.0571 18.1249L40.5018 20.4808L37.7287 22.2388Z" fill="#58B847"/>
<path d="M24.583 13.6862C23.6942 14.2663 22.3254 15.1587 22.0232 15.3907C21.5521 15.7566 19.0101 17.7734 18.9479 22.4049C18.9434 23.8015 19.2728 25.1788 19.9085 26.4211C20.5442 27.6633 21.4675 28.7343 22.6009 29.544C23.0453 29.8563 30.9203 34.9965 30.9203 34.9965L46.9191 45.4642L50.5811 47.8469C52.1776 45.7724 53.0014 43.2028 52.9098 40.5828C52.9098 40.1991 52.9098 37.9057 49.8433 35.1749C49.55 34.9162 46.6436 33.0332 46.6436 33.0332L38.7864 27.9288L30.1559 22.2621C30.1559 22.2621 37.9953 17.1398 39.2841 16.2831C40.5729 15.4264 41.7462 14.8285 42.315 13.9986C42.7657 13.4146 43.0868 12.7407 43.257 12.0219C43.4272 11.3032 43.4424 10.5563 43.3016 9.83114C43.149 8.95099 42.7479 8.13331 42.1461 7.47523C41.7186 6.95561 41.1898 6.52924 40.5922 6.22232C39.9945 5.91539 39.3407 5.7344 38.6708 5.69046C37.795 5.60312 36.9122 5.76063 36.1199 6.14557L33.9423 7.51093L29.8448 10.1881L24.583 13.6862Z" fill="#0085CA"/>
<path d="M31.7825 57.2719L26.8495 54.0504C26.414 53.7738 25.4274 53.158 24.9741 52.8457C24.078 52.3548 23.0584 52.1377 22.041 52.221C21.3557 52.2948 20.6923 52.5066 20.0905 52.844C19.4888 53.1814 18.9611 53.6372 18.539 54.1843C17.8486 55.0947 17.4829 56.2117 17.5006 57.3559C17.5183 58.5 17.9185 59.605 18.6368 60.4935C19.4483 61.4829 20.604 62.1255 21.8699 62.2913C23.1358 62.457 24.417 62.1333 25.4541 61.3858C25.7118 61.2074 29.0627 59.0299 29.0627 59.0299L31.7825 57.2719Z" fill="#0085CA"/>
</svg>
