<svg width="56" height="58" viewBox="0 0 56 58" fill="none" xmlns="http://www.w3.org/2000/svg">
<path fill-rule="evenodd" clip-rule="evenodd" d="M30.4444 23.7422H23.4553C23.3902 23.7318 23.328 23.7077 23.2732 23.6714C23.2183 23.6352 23.1719 23.5876 23.1372 23.532C23.077 23.4548 23.0485 23.3577 23.0577 23.2605V16.7802C23.0538 16.6484 23.0942 16.519 23.1726 16.4124C23.2682 16.3285 23.3896 16.2791 23.5171 16.2723H32.7152C32.8258 16.2662 32.9358 16.2904 33.0333 16.3424C33.1835 16.4212 33.2631 16.7277 33.2631 16.7277V23.3481C33.2225 23.4418 33.1656 23.5277 33.0952 23.6021C33.0273 23.6502 32.953 23.6885 32.8743 23.7159M30.3826 12.1214V4.98429C34.0178 5.515 37.3393 7.32359 39.7408 10.08C42.1423 12.8364 43.4636 16.3567 43.4636 19.9985C43.4636 23.6403 42.1423 27.1606 39.7408 29.917C37.3393 32.6734 34.0178 34.482 30.3826 35.0127V27.823H33.2454C33.7978 27.8364 34.3472 27.7379 34.86 27.5337C35.3728 27.3295 35.8381 27.0238 36.2276 26.6353C36.6172 26.2468 36.9226 25.7836 37.1254 25.2742C37.3282 24.7647 37.4241 24.2196 37.4071 23.6721V16.2285C37.4075 15.6756 37.2953 15.1284 37.0771 14.6195C36.859 14.1106 36.5395 13.6507 36.1376 13.2672C35.7358 12.8836 35.26 12.5845 34.7388 12.3876C34.2175 12.1907 33.6615 12.1002 33.104 12.1214H30.3826ZM18.8253 16.2285C18.8253 13.8553 20.2832 12.1039 22.6689 12.1039H25.8586V5.00181C22.2417 5.55118 18.9429 7.36609 16.5595 10.1178C14.1761 12.8696 12.8658 16.3763 12.8658 20.0029C12.8658 23.6294 14.1761 27.1361 16.5595 29.8879C18.9429 32.6396 22.2417 34.4545 25.8586 35.0039V27.8756H23.2079C22.6426 27.886 22.0808 27.7852 21.5551 27.5791C21.0293 27.373 20.55 27.0656 20.1449 26.6747C19.7398 26.2837 19.417 25.8171 19.195 25.3017C18.973 24.7863 18.8564 24.2325 18.8518 23.6721L18.8253 16.2285ZM8.66412 19.9941C8.66412 16.1716 9.80782 12.4349 11.9506 9.25654C14.0933 6.07822 17.1389 3.60101 20.7022 2.13819C24.2655 0.675367 28.1864 0.292625 31.9692 1.03837C35.7519 1.78411 39.2266 3.62483 41.9539 6.32778C44.6811 9.03072 46.5383 12.4745 47.2908 16.2236C48.0432 19.9727 47.657 23.8587 46.1811 27.3903C44.7051 30.9218 42.2057 33.9403 38.9988 36.064C35.7919 38.1877 32.0217 39.3212 28.1648 39.3212C22.9929 39.3212 18.0328 37.285 14.3757 33.6604C10.7187 30.0359 8.66412 25.12 8.66412 19.9941Z" fill="#B31E3B"/>
<path fill-rule="evenodd" clip-rule="evenodd" d="M14.3985 51.7622C14.3893 51.9051 14.3893 52.0484 14.3985 52.1913C14.3985 52.2701 14.3985 52.4365 14.4957 52.4277C14.5929 52.419 14.6018 52.1212 14.6901 52.1388C14.7785 52.1563 14.6901 52.3139 14.6901 52.4277C14.6901 52.5416 14.6901 52.4277 14.752 52.8218C14.8138 53.2159 14.752 53.4698 14.752 53.5924C14.752 53.715 14.752 53.8377 14.9022 53.8377C15.0524 53.8377 14.9729 53.7501 15.0701 53.6362C15.1673 53.5224 15.1673 53.5049 15.2379 53.5574C15.4543 53.5938 15.6754 53.5938 15.8918 53.5574C16.0598 53.4956 16.2132 53.4002 16.3424 53.2772C16.4926 53.1634 17.0935 52.5941 17.4027 52.3402C17.5088 52.2438 17.7827 51.9286 17.9505 51.7447H18.3923C18.304 51.841 18.1979 51.9549 18.1008 52.0424C18.0036 52.13 17.6678 52.3664 17.6059 52.4277C17.5441 52.489 17.3851 52.6817 17.3144 52.7342C17.2437 52.7868 16.9963 52.9444 16.9168 53.0232C16.8372 53.102 16.7224 53.2947 16.6252 53.3297C16.528 53.3648 16.4838 53.4611 16.5456 53.5224C16.6075 53.5837 16.8107 53.5224 16.9521 53.4523H17.3409C17.4116 53.4523 17.4822 53.3735 17.6501 53.321C17.818 53.2684 17.8887 53.321 17.9594 53.321L18.2068 53.2334C18.357 53.2334 18.5425 53.2334 18.6309 53.1809C18.7193 53.1283 18.6839 53.1371 18.7899 53.067C18.896 52.997 18.9578 53.067 19.0373 53.067C19.1969 53.0326 19.3535 52.9858 19.5057 52.9269C19.6559 52.8744 20.1418 52.7518 20.2125 52.743C20.2832 52.7342 20.3892 52.5854 20.5041 52.5416C20.619 52.4978 20.9371 52.5416 21.0608 52.4715C21.1845 52.4015 21.2905 52.4715 21.3612 52.6554C21.4319 52.8393 21.3612 52.9094 21.3612 53.0145C21.3257 53.1765 21.2497 53.327 21.1403 53.4523C21.0519 53.5399 21.0254 53.7063 20.8929 53.7413C20.8272 53.769 20.7566 53.7833 20.6852 53.7833C20.6139 53.7833 20.5432 53.769 20.4776 53.7413C20.1772 53.6012 20.0093 53.7413 19.8326 53.7413C19.6559 53.7413 19.4615 53.8201 19.3378 53.8114C19.2141 53.8026 19.0639 53.8114 19.0108 53.8114C18.8718 53.8758 18.7221 53.9144 18.5691 53.9252C18.4719 53.9252 18.4365 54.0478 18.4895 54.0916C18.6926 54.2003 18.9217 54.2518 19.1522 54.2405C19.4484 54.2349 19.7443 54.2584 20.0358 54.3105C20.2744 54.3105 20.4422 54.4594 20.5659 54.4594C20.6896 54.4594 20.7515 54.5207 20.8929 54.5645C20.9896 54.5778 21.0877 54.5778 21.1845 54.5645C21.2993 54.5645 21.3788 54.6433 21.423 54.6258C21.5016 54.5906 21.585 54.567 21.6704 54.5557C21.7499 54.5557 21.8913 54.3456 21.9974 54.2843C22.1779 54.1536 22.3285 53.9864 22.4391 53.7939C22.4924 53.6567 22.5366 53.5163 22.5717 53.3735C22.6247 53.2071 22.5717 53.1984 22.6159 52.9269C22.66 52.6554 22.6159 52.3139 22.6159 52.1738C22.6377 52.1019 22.6554 52.0288 22.6689 51.9549C22.6817 51.909 22.6817 51.8606 22.6689 51.8147H23.2786C23.2786 52.384 23.2785 53.032 23.2079 53.2071C23.1995 53.5413 23.1521 53.8734 23.0665 54.1967C22.6993 54.6102 22.2908 54.9858 21.8471 55.3176C21.5704 55.5644 21.275 55.7898 20.9636 55.9919C20.8664 55.9919 20.7692 55.7993 20.5659 55.6066C20.0495 55.2551 19.4954 54.9614 18.9136 54.7309C18.1643 54.513 17.3884 54.3981 16.6075 54.3894C16.1343 54.3796 15.6635 54.3209 15.2026 54.2142C15.2026 54.1442 15.1142 54.2142 15.0347 54.2142C14.9552 54.2142 14.9552 54.3018 14.9287 54.3368C14.9022 54.3718 14.9287 54.3368 14.9287 54.5207C14.9287 54.7046 14.9729 54.5733 14.9905 54.6959C15.0082 54.8185 15.0612 54.7659 14.9905 54.8885C14.9199 55.0111 15.1761 55.0812 15.2203 55.2125C15.2645 55.3439 15.2733 55.5541 15.1054 55.5541C14.9364 55.5893 14.7619 55.5893 14.5929 55.5541C14.3047 55.3916 14.0829 55.1345 13.9656 54.8272C13.9656 54.6083 13.9126 54.0916 13.8949 53.9515C13.8949 53.6625 13.7535 52.9094 13.727 52.5328C13.7005 52.1563 13.6563 52.2351 13.727 52.0862C13.7977 51.9373 13.727 51.9373 13.674 51.8585M17.1288 51.8585C16.9521 51.9461 16.7577 52.0424 16.6252 52.1212C16.4426 52.2133 16.2536 52.2923 16.0597 52.3577C15.9713 52.4102 15.936 52.4365 15.8565 52.3577C15.7769 52.2789 15.8034 52.3577 15.8565 52.1125C15.8698 52.0225 15.8698 51.931 15.8565 51.841L17.1288 51.8585ZM20.0977 51.8585H20.9371C20.8134 52.0862 20.6631 52.2964 20.6455 52.3489C20.6278 52.4015 20.6455 52.4628 20.5394 52.4715C20.4727 52.4875 20.403 52.4875 20.3362 52.4715C20.1163 52.3984 19.9167 52.2754 19.7531 52.1125C19.6821 52.0483 19.617 51.978 19.5587 51.9023L20.0977 51.8585Z" fill="#221F1F"/>
<path fill-rule="evenodd" clip-rule="evenodd" d="M13.7184 51.7649C13.7073 51.7417 13.7016 51.7162 13.7016 51.6905C13.7016 51.6648 13.7073 51.6394 13.7184 51.6161C13.7184 51.4672 13.7184 51.1957 13.7891 51.0118C13.8597 50.8279 13.7272 50.933 13.736 50.8542C13.74 50.7559 13.7578 50.6586 13.7891 50.5652C13.8026 50.4547 13.8026 50.343 13.7891 50.2324C13.7679 50.1216 13.7867 50.0069 13.8421 49.9084C13.8421 49.8471 13.8421 49.8121 13.8421 49.6807C13.8421 49.5494 13.9393 48.9013 13.9834 48.6299C14.0276 48.3584 14.0806 47.6491 14.1248 47.5527C14.2434 47.2136 14.3321 46.8649 14.3899 46.5106C14.4517 46.2917 14.6373 46.099 14.6815 45.9327C14.7257 45.7663 14.8228 45.8013 14.867 45.8276C14.9112 45.8538 14.9554 46.0553 14.9554 46.1253C14.9372 46.345 14.8957 46.5622 14.8317 46.7734C14.7752 46.9714 14.7338 47.1734 14.708 47.3776C14.708 47.4914 14.708 47.614 14.708 47.7016C14.6821 47.7943 14.6496 47.885 14.6108 47.9731C14.6108 48.0431 14.6108 48.192 14.6108 48.2708C14.5937 48.3514 14.5701 48.4305 14.5401 48.5073C14.5401 48.5861 14.5401 48.6649 14.5401 48.7262C14.5401 48.7875 14.5401 48.8838 14.5401 48.9714C14.5401 49.059 14.5401 49.0852 14.5401 49.1991C14.5292 49.3123 14.5055 49.4239 14.4694 49.5319C14.4694 49.6019 14.5401 49.6983 14.4694 49.8296C14.3987 49.961 14.4694 51.0206 14.4694 51.222C14.4588 51.4028 14.4588 51.5841 14.4694 51.7649M15.9892 51.7649C15.9877 51.6632 16.0221 51.5641 16.0864 51.4847C16.2031 51.2387 16.3328 50.999 16.4751 50.7666C16.537 50.6878 16.8728 50.2675 16.9434 50.1624C17.0141 50.0573 17.1113 50.0223 17.129 49.996C17.1674 49.9023 17.2178 49.814 17.2792 49.7333C17.375 49.6659 17.4587 49.583 17.5266 49.4881C17.5424 49.4681 17.5509 49.4434 17.5509 49.418C17.5509 49.3926 17.5424 49.368 17.5266 49.348C17.5266 49.348 17.4559 49.2166 17.3852 49.2954C17.3146 49.3742 17.182 49.4093 17.129 49.4443C17.076 49.4793 17.0495 49.637 16.9523 49.6457C16.8551 49.6545 16.8197 49.418 16.8374 49.3392C16.8551 49.2604 16.7844 49.2166 16.8374 49.1203C16.8823 49.0246 16.9178 48.9249 16.9434 48.8225C16.9434 48.7787 16.9965 48.8225 17.0495 48.7525C17.1025 48.6824 17.0495 48.6386 17.0495 48.5861C17.0495 48.5335 17.1643 48.3496 17.2527 48.2971C17.3756 48.1981 17.4776 48.0761 17.5531 47.9381C17.5666 47.8584 17.5843 47.7794 17.6061 47.7016C17.6061 47.7016 17.5178 47.7016 17.4736 47.614C17.4294 47.5265 17.4736 47.5265 17.4736 47.4301C17.4736 47.3338 17.3764 47.3075 17.3764 47.2375C17.3764 47.1674 17.3764 47.1236 17.2704 47.1324C17.1643 47.1412 16.9523 47.3601 16.7756 47.3951C16.5988 47.4301 16.4575 47.2988 16.5458 47.1149C16.6744 46.9034 16.8223 46.7041 16.9876 46.5194C17.0156 46.4805 17.0355 46.4365 17.0462 46.3898C17.0568 46.3432 17.0579 46.295 17.0495 46.2479C17.0495 46.1516 16.9523 45.9502 16.9258 45.7312C16.8804 45.5109 16.8183 45.2943 16.7402 45.0832C16.7402 45.0832 16.6872 44.9431 16.7932 44.8993C16.8993 44.8555 16.9258 44.9781 16.9876 45.0745C17.0918 45.2261 17.1862 45.384 17.2704 45.5473C17.3211 45.6496 17.3654 45.7549 17.4029 45.8626C17.4029 45.9327 17.4648 46.0465 17.5531 46.0553C17.5888 46.0632 17.6258 46.0625 17.6611 46.0534C17.6965 46.0442 17.7291 46.0269 17.7563 46.0027C18.0015 45.8574 18.2623 45.7399 18.5339 45.6524C18.5731 45.6265 18.6192 45.6126 18.6664 45.6126C18.7136 45.6126 18.7597 45.6265 18.799 45.6524C18.8608 45.6524 18.9315 45.8976 18.9669 45.9151C19.0022 45.9327 19.0729 45.9152 19.0552 45.994C19.0375 46.0728 19.0552 45.994 18.9669 46.1166C18.8785 46.2392 18.9669 46.2654 18.8608 46.4055C18.7799 46.5421 18.7118 46.6857 18.6576 46.8347C18.6576 46.9222 18.5427 46.9573 18.472 47.0186C18.4014 47.0799 18.4279 47.1849 18.3925 47.2025C18.3572 47.22 18.2777 47.2462 18.2423 47.3163C18.2129 47.3732 18.1975 47.4362 18.1975 47.5002C18.1975 47.5642 18.2129 47.6272 18.2423 47.6841C18.2423 47.7717 18.366 47.7892 18.3837 47.8505C18.4014 47.9118 18.4986 47.9731 18.5427 48.0344C18.5864 48.1062 18.6219 48.1826 18.6488 48.2621C18.7283 48.3934 18.7194 48.3409 18.8255 48.4109C18.9315 48.481 18.9315 48.6036 19.011 48.6737C19.0906 48.7437 19.2761 48.8838 19.3821 49.0064C19.4148 49.0376 19.4392 49.0763 19.4531 49.1191C19.467 49.1619 19.4699 49.2074 19.4617 49.2516C19.4617 49.4005 19.4617 49.3129 19.4617 49.418C19.4437 49.4988 19.4437 49.5825 19.4617 49.6632C19.4721 49.7552 19.4503 49.848 19.3998 49.9259C19.2939 50.0538 19.1966 50.1884 19.1082 50.3288C19.1082 50.4076 19.0552 50.4864 19.1082 50.5214C19.1612 50.5565 19.1966 50.5915 19.2673 50.5214C19.338 50.4514 19.7267 49.8822 20.0183 49.5056C20.2209 49.2265 20.404 48.9339 20.5661 48.6299C20.6743 48.4626 20.7923 48.3017 20.9196 48.1482C20.9257 48.1373 20.9346 48.1282 20.9455 48.1218C20.9564 48.1154 20.9688 48.1121 20.9814 48.1121C20.994 48.1121 21.0064 48.1154 21.0173 48.1218C21.0282 48.1282 21.0372 48.1373 21.0433 48.1482C21.0433 48.2095 21.0433 48.2708 21.0433 48.3059C21.0433 48.3409 21.1316 48.3059 21.1405 48.4022C21.1493 48.4985 21.1405 48.5248 21.1405 48.5686C21.1405 48.6124 21.1935 48.6211 21.1405 48.6912C21.0874 48.7612 21.1405 48.8751 21.0433 48.9977C20.9461 49.1203 20.5485 49.6194 20.3983 49.8121C20.248 50.0047 19.6119 50.7579 19.5147 50.8367C19.4175 50.9155 19.3998 50.9768 19.4263 51.0381C19.5065 51.204 19.6107 51.3574 19.7356 51.4935C19.8659 51.5996 20.0119 51.6853 20.1685 51.7474H19.6295C19.4705 51.5723 19.3026 51.3621 19.2673 51.3096C19.2319 51.257 19.1171 51.1782 19.064 51.222C19.011 51.2658 18.8166 51.5197 18.746 51.5723C18.6654 51.6157 18.5886 51.6655 18.5162 51.7212H18.0303L18.1363 51.6161C18.3837 51.3796 18.7548 50.9943 18.8166 50.9243C18.841 50.8912 18.8542 50.8514 18.8542 50.8104C18.8542 50.7695 18.841 50.7296 18.8166 50.6966C18.8166 50.6353 18.7371 50.6265 18.6753 50.6966C18.6134 50.7666 18.3218 51.0381 18.1628 51.1344L17.3587 51.6511L17.1643 51.7562L15.9892 51.7649ZM20.4071 51.7649C20.4392 51.7709 20.4722 51.7709 20.5043 51.7649C20.7132 51.5673 20.8735 51.3245 20.9726 51.0556C21.0859 50.7701 21.1803 50.4776 21.2553 50.1799C21.2553 50.0573 21.2112 49.9172 21.2553 49.8734C21.2995 49.8296 21.3437 49.8734 21.3614 49.8734C21.379 49.8734 21.4055 50.0836 21.4232 50.1711C21.3633 50.5666 21.2807 50.9584 21.1758 51.3446C21.143 51.4983 21.0863 51.646 21.0079 51.7825L20.4071 51.7649ZM22.7928 51.7649C22.7951 51.7329 22.7951 51.7007 22.7928 51.6686C22.7928 51.6161 22.8635 51.5022 22.8635 51.4234C22.8635 51.3446 22.8016 51.3096 22.8635 51.187C22.9253 51.0644 22.8635 50.863 22.9165 50.8104C22.9695 50.7579 22.8723 50.6615 22.9165 50.5827C22.9491 50.2917 22.9491 49.998 22.9165 49.707C22.8918 49.3981 22.8918 49.0877 22.9165 48.7787C22.9165 48.6999 22.8104 48.6386 22.8458 48.5686C22.8811 48.4985 22.8458 48.3146 22.8458 48.192C22.8052 47.972 22.7786 47.7498 22.7663 47.5265C22.6416 46.6312 22.4467 45.747 22.1831 44.8818C21.908 44.2647 21.4565 43.741 20.8842 43.3756C20.6013 43.2755 20.3 43.2367 20.0006 43.2617C19.5289 43.3017 19.0633 43.3957 18.6134 43.542C18.1883 43.6749 17.777 43.8479 17.3852 44.0586C17.1616 44.2223 16.9571 44.4103 16.7756 44.6191C16.6586 44.7578 16.5715 44.9187 16.5193 45.092C16.434 45.3088 16.434 45.5495 16.5193 45.7663C16.5635 45.9152 16.5193 46.029 16.4663 46.0553C16.3602 46.1114 16.242 46.1414 16.1217 46.1428C16.0334 46.1428 15.8743 46.0815 15.8655 46.0202C15.8122 45.8193 15.7351 45.6252 15.6357 45.4423C15.6357 45.3547 15.8213 45.0657 16.4133 44.3389C16.983 43.7674 17.6876 43.346 18.4632 43.1129C18.6405 43.0666 18.8205 43.0315 19.0022 43.0078C19.0906 43.0078 19.4175 43.0078 19.497 42.9465C19.5765 42.8852 19.9123 42.9465 19.9565 42.8939C20.0722 42.8417 20.1938 42.8035 20.3187 42.7801C20.4689 42.7801 20.6633 42.8326 20.7959 42.7801C21.0199 42.7571 21.2443 42.8197 21.4232 42.9552C22.0039 43.41 22.4446 44.0167 22.6956 44.7067C23.0751 45.7548 23.3185 46.8465 23.4201 47.9556C23.4731 48.735 23.4201 50.7841 23.4201 51.0994C23.4201 51.2833 23.4201 51.546 23.3671 51.835L22.7928 51.7649ZM18.6134 48.735C18.6134 48.6824 18.6134 48.7875 18.7813 48.9276C18.9492 49.0677 18.8343 49.1203 18.9138 49.2341C18.9934 49.348 18.9934 49.2867 18.9757 49.4268C18.958 49.5669 18.9757 49.5319 18.8078 49.6282C18.6399 49.7245 18.8078 49.6807 18.6753 49.5669C18.5427 49.453 18.6753 49.2779 18.5427 49.1728C18.4102 49.0677 18.419 49.0765 18.4455 48.9189C18.472 48.7612 18.5869 48.7963 18.6134 48.735ZM18.154 49.1816C18.207 49.1816 18.3042 49.3129 18.3748 49.4793C18.4259 49.5845 18.4701 49.6927 18.5074 49.8033C18.5692 49.996 18.5516 49.8997 18.4014 50.0836C18.2512 50.2675 18.0303 50.2324 17.827 50.4251C17.6238 50.6178 17.5266 50.5565 17.3322 50.6878C17.1378 50.8192 17.1643 50.7754 17.0053 50.6878C16.8463 50.6002 16.8551 50.5827 16.9611 50.4514C17.0671 50.32 17.0583 50.3901 17.1378 50.32C17.2174 50.25 17.0406 50.2324 17.1378 50.1624C17.235 50.0923 17.2174 50.1624 17.3676 50.031C17.5178 49.8997 17.4736 49.8471 17.5266 49.7508C17.5771 49.6232 17.6752 49.5197 17.8005 49.4618C17.9323 49.3765 18.0538 49.2766 18.1628 49.1641M19.3556 45.3459C19.4543 45.3222 19.5573 45.3222 19.656 45.3459C19.7267 45.3459 19.5942 45.3459 19.9123 45.3459C20.0802 45.3459 20.1685 45.4247 20.3099 45.5036C20.6457 45.6962 20.8842 45.7663 20.9549 45.8714C21.0305 45.9882 21.0618 46.1279 21.0433 46.2654C21.0391 46.4234 20.9797 46.5751 20.8754 46.6945C20.7517 46.7996 20.6898 46.8872 20.628 46.9397C20.5661 46.9923 20.628 47.1587 20.4954 47.1937C20.3629 47.2287 20.2922 47.1937 20.142 47.1499C19.9918 47.1061 19.8769 47.2375 19.8239 47.1937C19.7922 47.1444 19.7499 47.1026 19.7002 47.0711C19.6472 47.0273 19.5677 47.0711 19.5588 46.9923C19.4994 46.8121 19.3998 46.6474 19.2673 46.5106C19.2673 46.5106 19.3203 46.2829 19.2673 46.2216C19.2208 46.1553 19.2018 46.0738 19.2143 45.994C19.2099 45.9327 19.2099 45.8713 19.2143 45.8101C19.2143 45.7488 19.1259 45.6437 19.2143 45.5649C19.3026 45.486 19.2849 45.3897 19.3468 45.3634M17.8359 46.5106C17.8359 46.3355 18.0037 46.3793 18.1805 46.2829C18.3572 46.1866 18.2777 46.2129 18.3307 46.3618C18.3837 46.5106 18.2688 46.3618 18.2246 46.5632C18.1805 46.7646 18.1805 46.7296 18.0479 46.8171C17.9154 46.9047 17.9419 46.8171 17.88 46.7033C17.8182 46.5895 17.88 46.7033 17.8359 46.5106Z" fill="#221F1F"/>
<path fill-rule="evenodd" clip-rule="evenodd" d="M55.7057 48.6968C55.5555 48.7843 55.096 49.2922 54.9812 49.3448C54.8663 49.3973 54.6984 49.2747 54.6012 49.2922C54.3362 49.2922 53.7176 49.4761 53.267 49.5637C52.8684 49.6466 52.4802 49.7729 52.1095 49.9403C51.9947 50.0016 51.9947 50.0804 52.0565 50.1417C52.2774 50.3519 52.4718 50.457 52.5778 50.5883C52.6839 50.7197 52.5336 50.7197 52.5071 50.8773C52.4159 51.3857 52.3833 51.9028 52.4099 52.4186C52.4541 52.8301 52.675 54.0824 52.7369 54.424C52.7987 54.7655 52.8252 55.1508 52.8694 55.2997C52.9108 55.5384 52.8736 55.784 52.7634 56.0002C52.5031 56.3242 52.2067 56.618 51.8798 56.876C51.7771 56.9114 51.6674 56.9219 51.5598 56.9067C51.4522 56.8915 51.3498 56.8509 51.2613 56.7884C51.0701 56.5872 50.936 56.3394 50.8725 56.0703C50.7034 55.7745 50.4598 55.5271 50.1656 55.3522C49.7415 55.0457 48.8049 54.5728 48.6636 54.2401C48.6506 54.2294 48.6401 54.216 48.633 54.2008C48.6258 54.1857 48.6221 54.1692 48.6221 54.1525C48.6221 54.1358 48.6258 54.1192 48.633 54.1041C48.6401 54.089 48.6506 54.0756 48.6636 54.0649C48.8491 53.9948 48.9375 54.2313 49.07 54.3189C49.255 54.4471 49.4614 54.542 49.6797 54.5991C49.9448 54.6867 50.4307 54.8005 50.5633 54.8443C50.7551 54.9383 50.9749 54.9601 51.1818 54.9056C51.3883 54.7302 51.5259 54.4884 51.5705 54.2225C51.5705 53.7672 51.491 53.2242 51.5087 53.0053C51.5149 52.5866 51.5444 52.1685 51.597 51.753C51.6154 51.4906 51.6154 51.2273 51.597 50.9649C51.5913 50.7496 51.6151 50.5345 51.6677 50.3256C51.6677 50.2118 51.5617 50.2117 51.4557 50.2468C51.0512 50.4004 50.6635 50.5941 50.2982 50.8248C49.9978 50.9649 49.4146 51.2889 49.2379 51.3677C49.0612 51.4465 48.964 51.6304 48.8756 51.5516C48.7873 51.4728 48.6282 51.4815 48.5399 51.3239C48.4515 51.1663 48.6194 50.8598 48.7873 50.7635C49.1544 50.6648 49.5146 50.5419 49.8652 50.3957C50.5279 50.0716 51.2436 49.6425 51.7826 49.4324C52.3216 49.2222 53.7353 48.8018 53.9474 48.7581C54.1594 48.7143 54.6012 48.6792 54.6808 48.6442C54.8786 48.5668 55.0871 48.5195 55.2993 48.5041C55.4403 48.4903 55.5823 48.4903 55.7234 48.5041C55.8471 48.5041 55.8913 48.6004 55.7234 48.6792M50.0861 47.138C50.2805 47.0417 50.3247 47.2693 50.3954 47.2693C50.5948 47.2856 50.7956 47.2648 50.9874 47.208C51.1729 47.1467 52.3127 46.5775 52.7545 46.49C53.3806 46.3006 54.0222 46.1658 54.6719 46.0871C54.7868 46.0871 54.7868 46.1659 54.6719 46.236C54.557 46.306 54.5129 46.4724 54.4157 46.5688C54.3185 46.6651 54.4157 46.8315 54.3185 46.9015C54.2856 46.9445 54.2427 46.9789 54.1935 47.0018C54.1442 47.0247 54.0901 47.0353 54.0357 47.0329H53.7177C53.5851 47.0329 53.32 47.208 53.2228 47.2256C53.1256 47.2431 53.0903 47.1555 53.0019 47.138C52.5524 47.19 52.1156 47.3204 51.7119 47.5233C51.2525 47.6917 50.8274 47.9409 50.4572 48.2589C50.3424 48.3727 50.2275 48.5917 50.0508 48.4866C49.8741 48.3815 49.821 48.0312 49.7769 47.8648C49.7472 47.7373 49.7557 47.604 49.8012 47.4812C49.8467 47.3583 49.9273 47.2512 50.0331 47.173M49.0082 42.7944C49.1849 42.7944 49.503 43.5826 49.6797 43.9328C49.7486 44.1156 49.7903 44.3074 49.8034 44.5021C49.925 44.9082 49.9522 45.3363 49.8829 45.7543C49.8829 45.8419 49.7062 45.9295 49.7062 46.0521C49.6702 46.1722 49.6032 46.2809 49.5118 46.3673C49.3969 46.4724 49.3262 46.7702 49.2467 46.8665C49.1672 46.9628 48.7607 47.0329 48.5133 47.103C48.3027 47.1738 48.1034 47.2741 47.9213 47.4007C47.7358 47.5408 47.3912 47.6547 47.1526 47.8123C46.9141 47.9699 46.596 48.3114 46.4811 48.399C46.3662 48.4866 46.2779 48.5654 46.4016 48.6705C46.5253 48.7756 46.8787 48.723 47.3559 48.9332C47.6596 49.0502 47.9212 49.2545 48.1069 49.5199C48.1368 49.5563 48.1585 49.5985 48.1708 49.6438C48.183 49.6891 48.1855 49.7365 48.178 49.7828C48.1705 49.8291 48.1532 49.8733 48.1272 49.9125C48.1013 49.9517 48.0672 49.9851 48.0274 50.0103C47.9125 50.0804 47.833 50.2906 47.5767 50.5007C47.3205 50.7109 47.3559 50.8773 47.1526 51.0524C46.9494 51.2276 46.4369 51.7793 46.269 51.9282C46.1012 52.077 46.1542 52.1646 46.3486 52.2347C46.6872 52.4151 46.9873 52.6589 47.2321 52.9527C47.4363 53.3832 47.5448 53.852 47.5502 54.3276C47.5055 54.7241 47.4074 55.1129 47.2587 55.4836C47.2056 55.65 47.1703 55.72 46.9582 55.685C46.8964 55.685 46.7992 55.5449 46.702 55.4485C46.6048 55.3522 46.3839 55.2559 46.2867 55.1596C46.1895 55.0632 46.0393 54.9669 45.9598 54.8531C45.8905 54.515 45.8905 54.1665 45.9598 53.8285C45.9913 53.6324 46.0386 53.4391 46.1012 53.2505C46.1012 53.1104 46.2337 52.6375 46.1012 52.6025C45.8654 52.6648 45.6394 52.7591 45.4296 52.8827C45.2183 52.9802 45.0219 53.107 44.8465 53.2592C44.7328 53.3943 44.6594 53.558 44.6344 53.7321C44.6344 53.881 44.5107 53.9773 44.4489 53.9423C44.387 53.9073 44.1838 53.9423 44.0866 53.9423C43.9894 53.9423 43.8657 53.8547 43.7155 53.7934C43.5653 53.7321 43.5741 53.7934 43.3444 53.5833C43.2223 53.4738 43.1276 53.3377 43.0678 53.1857C43.008 53.0337 42.9847 52.87 42.9998 52.7075C43.0705 52.5236 42.9998 52.4448 43.1853 52.2784C43.636 51.8669 43.8038 51.6392 44.2633 51.1488C44.5399 50.8396 44.8349 50.5472 45.1469 50.2731C45.266 50.1613 45.3568 50.0233 45.412 49.8702C45.465 49.7651 45.7212 49.5725 45.5533 49.4674C45.4755 49.4143 45.3865 49.3797 45.2931 49.366C45.1996 49.3523 45.1043 49.3601 45.0144 49.3886C44.8818 49.4324 44.8023 49.2922 44.6521 49.2134C44.5019 49.1346 44.3693 49.2134 44.2633 49.1609C44.1573 49.1083 44.0778 49.0033 43.9629 48.9244C43.848 48.8456 43.6536 48.7405 43.7508 48.5391C43.848 48.3377 43.7508 48.1713 43.9276 48.0487C44.1043 47.9261 44.281 47.7247 44.4312 47.6021C44.5814 47.4795 45.4915 46.4724 46.0128 45.8507C46.5341 45.2289 47.5767 43.7314 47.9744 43.3374C48.0539 43.2498 48.0185 43.0571 48.4427 42.8382C48.6446 42.7353 48.8787 42.7133 49.0965 42.7769" fill="#221F1F"/>
<path fill-rule="evenodd" clip-rule="evenodd" d="M27.4843 51.7641C27.4048 52.0443 27.4843 52.272 27.3783 52.3859C27.356 52.4089 27.3293 52.4273 27.2996 52.4398C27.27 52.4523 27.2382 52.4588 27.206 52.4588C27.1738 52.4588 27.1419 52.4523 27.1123 52.4398C27.0827 52.4273 27.0559 52.4089 27.0337 52.3859C26.9279 52.3246 26.8454 52.2305 26.7991 52.1181C26.7528 52.0057 26.7451 51.8813 26.7774 51.7641M30.9214 51.7641C30.9214 51.8167 31.0716 51.7641 31.2042 51.7641H32.0436C32.1732 51.8439 32.2797 51.9555 32.3528 52.0881C32.4147 52.1932 31.9641 52.5785 31.7343 52.8763C31.5046 53.174 30.6122 53.9184 30.4266 54.1023C30.2411 54.2862 30.4266 54.5226 30.3206 54.5577C30.2146 54.5927 30.1616 54.5577 30.0644 54.5577C30.0166 54.5654 29.9708 54.5826 29.9299 54.6081C29.8889 54.6337 29.8535 54.6672 29.8258 54.7065C29.8258 54.7853 29.8258 54.8554 29.8258 54.8904C30.3735 54.7123 30.8808 54.4297 31.319 54.0585C31.8031 53.6249 32.2604 53.1628 32.6886 52.6749C32.8115 52.3867 32.8746 52.077 32.8741 51.7641H33.7577C33.7577 51.8429 33.8196 51.9042 33.8814 51.8867C33.9433 51.8692 33.9875 51.8079 34.0405 51.7554H34.7297C34.8424 51.7868 34.9616 51.7868 35.0743 51.7554H37.9371C37.8762 51.8336 37.8201 51.9155 37.7692 52.0006C37.6985 52.1232 37.4599 52.4647 37.3362 52.6749C37.3207 52.7179 37.3192 52.7647 37.3318 52.8087C37.3445 52.8527 37.3708 52.8916 37.4069 52.9201C37.7919 53.0832 38.1875 53.2207 38.5909 53.3317C38.5909 53.3317 38.6705 53.4017 38.75 53.3317C38.8295 53.2616 38.8648 53.3316 38.8737 53.4105C38.8825 53.4893 39.3685 53.4893 39.4215 53.5243C39.4745 53.5593 40.3051 53.8221 40.5702 53.9709C40.6454 54.0168 40.7114 54.0762 40.7645 54.1461C40.8176 54.2074 40.9501 54.2074 40.9324 54.2949C40.328 54.5511 39.6809 54.6937 39.0239 54.7153C38.5922 54.7023 38.1642 54.6316 37.7515 54.5051C37.3981 54.3825 36.7089 53.8658 36.6029 53.8571C36.4968 53.8483 36.4615 53.8571 36.3555 54.006C36.2494 54.1548 36.2671 54.1286 36.1876 54.2074C36.0197 54.359 35.8604 54.5198 35.7105 54.689C35.6133 54.8204 35.4012 54.8642 35.2598 54.978C35.1185 55.0918 34.9682 55.267 34.8534 55.3458C34.6451 55.4923 34.4266 55.624 34.1995 55.7399C34.0316 55.8099 33.7401 55.7399 33.4927 55.6698C33.3393 55.6284 33.1961 55.5566 33.0715 55.4588C32.947 55.361 32.8438 55.2391 32.7681 55.1006C32.7097 54.8651 32.6742 54.6247 32.6621 54.3825C32.6621 54.2424 32.7505 53.7958 32.6621 53.7432C32.5737 53.6907 32.4765 53.7432 32.4147 53.8221C32.272 54.035 32.0995 54.2266 31.9022 54.3913C31.7608 54.4876 31.752 54.5577 31.593 54.7153C31.4339 54.8729 31.1953 54.9955 31.001 55.1531C30.7727 55.3064 30.5133 55.408 30.2411 55.4509C30.0886 55.5096 29.9409 55.5799 29.7993 55.6611C29.6844 55.7136 29.3045 55.8362 29.0747 55.9063C28.845 55.9763 28.8627 55.6348 28.8273 55.4246C28.808 55.3312 28.8151 55.2344 28.8478 55.1447C28.8806 55.0551 28.9377 54.9762 29.0129 54.9167C29.2779 54.7083 29.5207 54.4735 29.7374 54.2161C29.7904 54.1636 29.6933 54.0497 29.6049 54.0497C29.4348 54.0639 29.2646 54.024 29.1189 53.9359C29.3398 53.9359 29.7021 53.9359 29.8346 53.7345C29.8578 53.7148 29.8767 53.6907 29.8904 53.6636C29.9041 53.6365 29.9121 53.607 29.9141 53.5769C29.9268 53.5132 29.9268 53.4478 29.9141 53.3842C29.9141 53.3317 29.976 53.2441 29.9141 53.1915C29.8523 53.139 29.8346 53.0164 29.7463 53.0689C29.5037 53.2243 29.2986 53.4306 29.1454 53.6732C29.1073 53.7407 29.0833 53.8152 29.0747 53.8921C29.0217 53.9447 28.9157 53.8921 28.9157 53.8921C28.7478 54.0673 28.4739 54.3738 28.3325 54.4876C28.2876 54.5334 28.2311 54.5664 28.169 54.5833C28.1069 54.6003 28.0413 54.6005 27.9791 54.5839C27.8466 54.5139 27.7582 54.2336 27.6964 54.1461C27.6345 54.0585 27.6964 53.9447 27.8024 53.8921C27.9084 53.8396 28.2442 53.6469 28.3325 53.5681C28.4209 53.4893 28.8715 53.0602 28.9687 52.9814C29.1468 52.8533 29.3179 52.7159 29.4812 52.5698C29.5695 52.4734 29.4812 52.3508 29.3928 52.4121C29.3786 52.4229 29.362 52.4299 29.3443 52.4325C29.3267 52.4351 29.3087 52.4333 29.2919 52.4272C29.2752 52.4211 29.2603 52.4109 29.2486 52.3975C29.2369 52.3842 29.2287 52.3681 29.225 52.3508C29.1373 52.1518 29.0635 51.9469 29.0041 51.7378L30.9214 51.7641ZM36.6117 52.2458C36.8283 52.2042 37.0315 52.111 37.2037 51.9743C37.3009 51.8955 37.3893 51.9743 37.3362 52.1144C37.2193 52.2635 37.1102 52.4184 37.0093 52.5785C37.0093 52.6486 36.9121 52.7011 36.8591 52.6749C36.7376 52.6343 36.6195 52.5845 36.5057 52.526C36.382 52.4559 36.5057 52.2283 36.6117 52.2458ZM33.6959 52.4384C33.6959 52.3333 33.9875 52.6223 34.1553 52.6661C34.3232 52.7099 34.5265 52.7887 34.7385 52.8413C35.0387 52.929 35.3223 53.0651 35.5779 53.2441C35.77 53.3339 35.9509 53.4456 36.1169 53.5769C36.1455 53.6062 36.1615 53.6455 36.1615 53.6863C36.1615 53.7272 36.1455 53.7664 36.1169 53.7958C36.0615 53.892 35.9862 53.9755 35.896 54.041C35.5868 54.2424 34.5618 54.7853 34.4204 54.9167C34.3312 54.9789 34.2247 55.0122 34.1156 55.0122C34.0065 55.0122 33.9 54.9789 33.8107 54.9167C33.6913 54.8126 33.613 54.6698 33.5899 54.5139C33.5597 54.1525 33.5597 53.7893 33.5899 53.428C33.5565 53.0961 33.5835 52.7609 33.6694 52.4384M30.3648 52.5785C30.3648 52.5172 30.6917 52.3684 30.8773 52.2808C31.0285 52.1984 31.1929 52.1421 31.3632 52.1144C31.3834 52.111 31.404 52.1125 31.4234 52.119C31.4428 52.1254 31.4603 52.1365 31.4743 52.1512C31.4883 52.1659 31.4984 52.1839 31.5036 52.2035C31.5089 52.223 31.5093 52.2436 31.5046 52.2633C31.1926 52.6463 30.8592 53.0117 30.5061 53.3579C30.4531 53.4105 30.3471 53.2091 30.3471 53.0865C30.3471 52.9639 30.3471 52.7186 30.3471 52.5785" fill="#221F1F"/>
<path fill-rule="evenodd" clip-rule="evenodd" d="M26.7776 51.7669C26.7923 51.6571 26.8159 51.5488 26.8483 51.4428C26.8558 51.3943 26.875 51.3483 26.9042 51.3087C26.9335 51.2691 26.9718 51.237 27.0162 51.2152C27.078 51.2152 27.1664 51.2152 27.2459 51.2152C27.4216 50.9987 27.5727 50.7638 27.6965 50.5146C27.8732 50.1993 28.3239 49.2448 28.4299 49.0171C28.5359 48.7894 28.7568 48.299 28.9512 47.94C29.2412 47.1832 29.5745 46.4435 29.9497 45.7244C30.0115 45.6368 30.3119 44.9976 30.4975 44.7086C30.7759 44.2382 31.0952 43.7928 31.4518 43.3775C31.5224 43.3775 31.5666 43.4826 31.6815 43.5263C31.7964 43.5701 31.7964 43.6402 31.8759 43.6402C31.9554 43.6402 31.9907 43.8066 32.0526 43.8679C32.1144 43.9292 32.1851 44.0781 32.247 44.1394C32.3088 44.2007 32.3442 44.2795 32.4149 44.332C32.4565 44.3878 32.4789 44.4553 32.4789 44.5247C32.4789 44.594 32.4565 44.6616 32.4149 44.7173C32.3293 44.8353 32.2089 44.9241 32.0703 44.9713C31.8498 44.9988 31.6333 45.0517 31.4252 45.1289C31.2199 45.2623 31.0303 45.418 30.8598 45.593C30.5217 45.9848 30.2255 46.4104 29.9762 46.8628C29.7995 47.1606 29.1456 48.2727 28.9512 48.7106C28.8717 48.8945 28.4476 49.779 28.3062 50.103C28.1648 50.427 27.6258 51.4341 27.5286 51.6793C27.5286 51.6793 27.5286 51.7493 27.5286 51.7931M28.9954 51.7931C28.9653 51.7025 28.9474 51.6082 28.9424 51.5129C28.9198 51.4179 28.9198 51.3189 28.9424 51.2239C29.1406 50.845 29.3936 50.4969 29.6934 50.1906C29.826 50.0855 29.7464 49.9891 29.6934 49.9103C29.6404 49.8315 29.3753 49.4812 29.3842 49.3674C29.393 49.2535 29.6581 49.0346 29.9143 48.8595C30.1188 48.6863 30.3561 48.5553 30.6124 48.4742C30.7891 48.4742 30.7979 48.5442 30.8067 48.553C30.8712 48.679 30.942 48.8018 31.0188 48.9208C31.074 49 31.1464 49.0659 31.2309 49.1134C31.2839 49.1134 31.2927 49.3674 31.2839 49.4812C31.275 49.5951 30.9835 49.6389 30.8421 49.7527C30.7669 49.8091 30.7012 49.8771 30.6477 49.9541C30.5905 50.0388 30.5254 50.1179 30.4533 50.1906C30.365 50.2694 30.4533 50.6547 30.4533 50.8298C30.4533 51.005 30.5328 50.8999 30.6212 50.8999C30.7095 50.8999 30.683 50.8211 30.7361 50.7685L31.116 50.5058C31.1867 50.5058 31.116 50.2168 31.2044 50.1906C31.2927 50.1643 31.275 50.4445 31.3192 50.5408C31.3906 50.6633 31.4281 50.8023 31.4281 50.9437C31.4281 51.0851 31.3906 51.224 31.3192 51.3465C31.3192 51.4166 30.8509 51.6005 30.8951 51.7844H28.9512L28.9954 51.7931ZM31.222 51.7931C31.2978 51.7775 31.376 51.7775 31.4518 51.7931C31.5755 51.7931 31.8229 51.7931 31.9289 51.7931C31.9776 51.7962 32.024 51.8146 32.0614 51.8457L31.222 51.7931ZM32.892 51.7931C32.9216 51.3813 32.9777 50.9718 33.0599 50.5671C33.1571 50.1205 33.3691 48.7018 33.5193 48.0363C33.7297 47.2926 34.0262 46.5756 34.4029 45.8995C34.4471 45.8295 34.4029 45.7594 34.4029 45.6981C34.4029 45.6368 34.4648 45.5755 34.6327 45.6456C34.8005 45.7156 34.8005 45.8032 34.8624 45.7769C34.9242 45.7507 34.7917 45.8382 35.3042 45.3391C35.7013 44.9897 36.1269 44.6733 36.5765 44.3933C36.8504 44.1919 37.036 43.9642 37.1774 43.9029C37.2013 43.8901 37.2278 43.8829 37.2549 43.8819C37.2821 43.8808 37.3091 43.886 37.3339 43.8971C37.3587 43.9081 37.3806 43.9246 37.3979 43.9454C37.4152 43.9661 37.4274 43.9905 37.4336 44.0168C37.4869 44.1789 37.4869 44.3537 37.4336 44.5159C37.3594 44.7218 37.2739 44.9235 37.1774 45.1202C37.1244 45.234 36.983 45.8032 36.877 46.1097C36.7709 46.4162 36.6472 47.1606 36.5677 47.2919C36.4882 47.4233 36.5677 47.5371 36.5147 47.7473C36.5147 47.8174 36.3468 48.1414 36.2496 48.3253C36.1253 48.6093 35.9867 48.887 35.8343 49.1572C35.7636 49.2273 35.8343 49.3674 35.8343 49.4287C36.0365 49.5879 36.2021 49.7879 36.3203 50.0154C36.3471 50.081 36.3547 50.1528 36.3422 50.2225C36.3297 50.2922 36.2976 50.357 36.2496 50.4095C36.1789 50.5058 35.8785 50.5934 35.7195 50.681C35.2378 50.9056 34.7741 51.1661 34.3322 51.4604C34.2704 51.5129 34.1644 51.4604 34.1909 51.3991C34.2174 51.3378 34.1909 50.716 34.2439 50.5233C34.2969 50.3307 34.2969 50.3657 34.5178 50.068C34.698 49.7043 34.9078 49.3558 35.1451 49.0259C35.1451 49.0259 35.2247 48.842 35.1451 48.7894C35.0656 48.7369 34.9773 48.8332 34.8889 48.8682C34.8005 48.9033 34.827 49.0171 34.7564 49.0434C34.6857 49.0696 34.5708 48.9821 34.4824 49.0434C34.3711 49.1831 34.298 49.349 34.2704 49.525C34.2704 49.5951 34.1378 49.6914 34.1113 49.7352C34.0848 49.779 34.1113 50.0242 34.1113 50.1818C34.1113 50.3394 33.8993 50.8824 33.8551 51.0575C33.8121 51.2592 33.7885 51.4644 33.7844 51.6705L32.892 51.7931ZM34.0672 51.7931C34.0873 51.787 34.1089 51.787 34.129 51.7931C34.3166 51.7675 34.5069 51.7675 34.6945 51.7931H34.7564H34.0672ZM35.2688 51.7931C35.3686 51.7804 35.4695 51.7804 35.5693 51.7931H36.7179C37.0218 51.6868 37.3171 51.558 37.6015 51.4078C37.8954 51.2119 38.1626 50.9794 38.3967 50.716C38.4853 50.6342 38.5934 50.5761 38.7108 50.547C38.8283 50.5179 38.9512 50.5188 39.0682 50.5496C39.1654 50.5496 39.0682 50.8561 38.971 50.9612C38.8739 51.0663 38.5999 51.1801 38.4674 51.2677C38.2639 51.425 38.0878 51.6143 37.9461 51.8282L35.2688 51.7931ZM36.877 44.7874C36.8451 45.1947 36.7559 45.5956 36.6119 45.9784C36.4528 46.46 36.4175 46.6264 36.2761 47.0642C36.2143 47.2569 36.0817 47.1693 36.011 47.2481C35.9404 47.327 36.1082 47.1781 35.7636 47.5109C35.419 47.8436 35.1098 47.9925 34.9861 48.1239C34.8624 48.2552 34.7829 48.1239 34.7652 48.0188C34.7569 47.9022 34.7569 47.7851 34.7652 47.6685C34.7652 47.5196 34.8977 47.327 34.9242 47.2481C34.9902 47.0766 35.0318 46.8968 35.0479 46.714C35.1252 46.3112 35.315 45.9379 35.5958 45.6368C35.9894 45.3077 36.4123 45.0146 36.8593 44.7611M35.2512 49.49C35.3837 49.3937 35.3749 49.6564 35.5074 49.6301C35.6399 49.6038 35.6488 49.5163 35.7018 49.4462C35.7548 49.3761 35.8167 49.3586 35.8697 49.5863C35.9227 49.814 35.8697 49.8315 35.8697 49.9191C35.5942 50.0912 35.2972 50.2266 34.9861 50.3219C34.9066 50.3219 34.8889 50.3832 34.8535 50.2256C34.8182 50.068 35.0479 49.9278 35.0568 49.8315C35.0585 49.7642 35.0762 49.6981 35.1084 49.6388C35.1406 49.5795 35.1865 49.5285 35.2423 49.49M29.826 51.0926C29.9232 51.0926 29.9673 51.2239 29.8878 51.3465C29.8083 51.4691 29.6758 51.4691 29.6404 51.4166C29.6051 51.364 29.6404 51.2765 29.7199 51.2152C29.7995 51.1539 29.7199 51.1013 29.826 51.0926ZM31.4959 45.7594C31.5666 45.6281 32.0084 45.593 32.2028 45.6368C32.3972 45.6806 32.6004 46.0221 32.6711 46.1885C32.7323 46.32 32.7596 46.4644 32.7506 46.6089C32.7506 46.7227 32.5209 46.7227 32.3353 46.7753C32.2143 46.8135 32.0962 46.8603 31.9819 46.9154C31.8328 46.9985 31.696 47.1016 31.5755 47.2219C31.5416 47.2538 31.5011 47.2781 31.4569 47.2932C31.4127 47.3083 31.3658 47.3139 31.3192 47.3095C31.3192 47.3095 31.3192 47.1956 31.3192 47.1343C31.4639 46.9611 31.5477 46.7459 31.5578 46.5213C31.4981 46.4264 31.4646 46.3177 31.4606 46.206C31.4299 46.0587 31.4299 45.9067 31.4606 45.7594" fill="#221F1F"/>
<path fill-rule="evenodd" clip-rule="evenodd" d="M5.88081 53.7767C5.93383 53.7767 5.96917 53.8205 5.98685 53.9081C5.98685 54.0307 5.98685 54.0307 5.98685 54.1445C5.98685 54.2584 5.98685 54.2759 5.98685 54.3635C5.99595 54.4567 5.99595 54.5505 5.98685 54.6437C6.01427 54.7972 6.01427 54.9543 5.98685 55.1078C5.94267 55.2217 5.98685 55.2655 5.98685 55.3793C5.98685 55.4931 5.92499 55.6508 5.91616 55.8172C5.90732 55.9835 6.03102 56.0799 6.03102 56.2463C6.03102 56.4127 5.98684 56.3426 5.89849 56.3251C5.84794 56.3229 5.79875 56.3081 5.7555 56.2821C5.71225 56.2561 5.67634 56.2197 5.65108 56.1762C5.58155 56.0352 5.53388 55.8847 5.50971 55.7296C5.51972 55.5857 5.53742 55.4425 5.56273 55.3005C5.57155 55.1605 5.57155 55.0201 5.56273 54.8801C5.56273 54.7313 5.74828 54.5736 5.74828 54.4248C5.74828 54.2759 5.74828 54.2584 5.74828 54.0657C5.74828 53.8731 5.81896 53.7767 5.88965 53.7767M7.36523 46.8586C7.36523 46.7622 7.71867 46.5433 7.89538 46.4295C8.0721 46.3156 8.17813 46.1755 8.3195 46.1054C8.47372 46.0336 8.64699 46.0121 8.81431 46.0441C8.99103 46.0441 9.21192 45.9566 9.30912 46.0441C9.33697 46.0937 9.35159 46.1494 9.35159 46.2062C9.35159 46.2629 9.33697 46.3186 9.30912 46.3682C9.0772 46.7859 8.81124 47.1843 8.51389 47.5591C8.25765 47.8656 7.63031 48.5837 7.55962 48.6275C7.48894 48.6713 7.42709 48.5575 7.40941 48.4086C7.38248 48.3052 7.38248 48.1967 7.40941 48.0933C7.40941 48.0145 7.40941 47.9707 7.40941 47.8919C7.35575 47.6979 7.329 47.4976 7.32989 47.2964C7.3426 47.142 7.3426 46.9867 7.32989 46.8323M3.05335 49.3981C3.17177 49.3035 3.29568 49.2157 3.42446 49.1354C3.50398 49.0741 3.68953 48.9515 3.76022 48.8902C3.87782 48.7918 4.00179 48.7011 4.13132 48.6188C4.21968 48.5575 4.35222 48.5137 4.36105 48.6976C4.37438 48.9543 4.37438 49.2115 4.36105 49.4682C4.3713 49.5643 4.3713 49.6611 4.36105 49.7572C4.36372 49.8321 4.37864 49.906 4.40523 49.9761C4.40523 50.0374 4.40523 50.0549 4.40523 50.1688C4.40523 50.2826 4.44941 50.3527 4.40523 50.4753C4.26626 50.6554 4.08806 50.8021 3.88392 50.9044C3.77789 50.9044 3.88392 50.738 3.67186 50.6154C3.54199 50.4952 3.43956 50.3489 3.37144 50.1863C3.27425 50.0287 3.30959 49.9498 3.19472 49.8185C3.14436 49.7618 3.11238 49.6914 3.10292 49.6164C3.09347 49.5414 3.10698 49.4654 3.14171 49.3981M0.879736 47.2439C0.994601 47.2439 1.20666 47.6292 1.41872 47.8569C1.63078 48.0846 1.94887 48.3648 2.01072 48.4261C2.07257 48.4874 2.24929 48.7326 2.31998 48.7414C2.39066 48.7501 2.54971 48.5662 2.72642 48.4524C2.90314 48.3385 3.30959 48.0495 3.44213 47.9707L4.04296 47.5329C4.23735 47.384 4.65264 47.1125 4.67031 47.0775C4.67276 46.9762 4.69063 46.8758 4.72332 46.7797C4.72332 46.6747 4.67914 46.6221 4.67914 46.6046C4.69178 46.519 4.70948 46.4342 4.73216 46.3506C4.73216 46.2193 4.73216 45.9478 4.73216 45.8953C4.76908 45.7222 4.79271 45.5465 4.80284 45.3698C4.79501 45.2211 4.79501 45.072 4.80284 44.9232C4.89783 44.6415 4.93097 44.3429 4.90004 44.0475C4.8577 43.8749 4.8577 43.6947 4.90004 43.5221C4.98372 43.2516 5.13227 43.0052 5.33299 42.804C5.40807 42.753 5.49974 42.732 5.58978 42.745C5.67982 42.7579 5.76164 42.804 5.81896 42.874C5.94955 42.9614 6.07357 43.0579 6.19007 43.163C6.34028 43.3119 6.61419 43.6447 6.70255 43.7235C6.92508 43.9602 7.13451 44.2087 7.32989 44.4679C7.45245 44.6531 7.53378 44.862 7.56846 45.0809C7.56846 45.256 7.56846 45.4924 7.67449 45.51C7.78052 45.5275 8.18697 45.256 8.72595 45.1597C9.16558 45.1067 9.60883 45.0891 10.0513 45.1071C10.228 45.1071 10.555 45.1071 10.5815 45.1772C10.596 45.5526 10.5074 45.9249 10.3252 46.2543C10.1988 46.5476 10.0225 46.8171 9.80392 47.0512C9.62721 47.2789 9.6007 47.4278 9.26494 47.8481C8.92918 48.2685 8.31067 48.8727 8.43437 48.9866C8.55807 49.1004 8.85849 48.9866 8.9115 49.1705C8.96452 49.3544 8.74362 49.4857 8.67294 49.6696C8.60225 49.8535 8.67294 50.1162 8.39019 50.2301C8.10744 50.3439 8.05443 50.2914 7.91306 50.3789C7.77168 50.4665 7.81586 50.7555 7.70983 50.9482C7.52428 51.2897 7.62147 51.6225 7.50661 51.9027C7.37496 52.1398 7.25982 52.3856 7.16201 52.6383C7.16201 52.7346 7.06482 53.2075 7.02947 53.3827C6.98636 53.488 6.93618 53.5904 6.87926 53.6892C6.87926 53.838 6.7909 54.2146 6.79974 54.2584C6.80858 54.3022 6.71138 54.381 6.72022 54.4773C6.72905 54.5736 6.63186 54.7926 6.61419 54.9502C6.56176 55.2956 6.56176 55.6469 6.61419 55.9923C6.63954 56.1657 6.61184 56.3426 6.53467 56.5002C6.53467 56.5878 6.36679 56.6053 6.27843 56.6316C6.19007 56.6578 6.19007 56.7629 6.12822 56.7805C6.06637 56.798 5.9515 56.7279 5.91616 56.7805C5.88082 56.833 5.77479 57.0519 5.67759 57.0607C5.5804 57.0694 5.55389 57.0081 5.52738 56.868C5.50087 56.7279 5.43019 56.8242 5.41252 56.7454C5.39485 56.6666 5.3595 56.6929 5.24464 56.4827C5.12977 56.2725 5.24464 56.255 5.24464 56.0974C5.24464 55.9398 5.07676 55.8697 5.12093 55.677C5.13683 55.5169 5.13683 55.3556 5.12093 55.1954C5.11412 55.07 5.11412 54.9443 5.12093 54.8188C5.10374 54.7233 5.10374 54.6254 5.12093 54.5299C5.12044 54.353 5.09969 54.1767 5.05908 54.0044C5.05908 53.9168 5.05908 53.8556 4.95305 53.8556C4.84702 53.8556 4.8647 53.8555 4.83819 54.0307C4.81115 54.2283 4.81115 54.4286 4.83819 54.6262C4.83819 54.7838 4.95305 55.2304 4.96189 55.3705C4.97073 55.5107 4.96189 55.4756 4.96189 55.7296C4.97932 55.9366 5.01479 56.1417 5.06792 56.3426C5.1121 56.509 5.20929 56.509 5.24464 56.6228C5.27007 56.7293 5.30865 56.8322 5.3595 56.9293C5.41252 57.0257 5.63341 57.0694 5.6069 57.122C5.5804 57.1745 5.47437 57.3234 5.40368 57.3322C5.33299 57.3409 4.99723 57.0519 4.94422 56.9206C4.84669 56.4667 4.77588 56.0077 4.73216 55.5457C4.65263 55.0378 4.56428 54.8188 4.50243 54.2496C4.44057 53.6804 4.29037 52.1216 4.2992 51.7976C4.30804 51.4736 4.15783 51.5086 4.07831 51.5086C4.02506 51.5116 3.97436 51.5323 3.93432 51.5672C3.89428 51.6021 3.8672 51.6493 3.85741 51.7013C3.85741 51.8239 3.85741 52.1216 3.74254 52.1742C3.21311 52.1047 2.70761 51.9127 2.26696 51.6137C1.29502 50.9744 0.950423 49.3894 0.782543 49.0829C0.606448 48.6256 0.545782 48.1326 0.605825 47.6467C0.605825 47.4803 0.720691 47.2877 0.879736 47.2351" fill="#221F1F"/>
</svg>
