<svg width="110" height="32" viewBox="0 0 110 32" fill="none" xmlns="http://www.w3.org/2000/svg">
<path d="M49.1852 3.72656H48.3691V28.2281H49.1852V3.72656Z" fill="white"/>
<path d="M54.0459 8.7334C54.0459 7.73914 54.1878 6.95793 54.4717 6.28325C54.6845 5.78611 55.0038 5.36 55.3586 4.9694C55.7489 4.57879 56.1392 4.29471 56.6004 4.11717C57.2036 3.8686 57.8777 3.72656 58.6582 3.72656C60.0774 3.72656 61.1773 4.15268 62.0288 5.04041C62.8803 5.92815 63.3061 7.13547 63.3061 8.69789C63.3061 10.2248 62.8803 11.4321 62.0643 12.3199C61.2128 13.2076 60.1129 13.6337 58.6937 13.6337C57.2745 13.6337 56.1392 13.2076 55.3232 12.3199C54.4717 11.4676 54.0459 10.2603 54.0459 8.7334ZM56.0328 8.66238C56.0328 9.72767 56.2811 10.5444 56.7778 11.1125C57.2745 11.6807 57.9132 11.9648 58.6937 11.9648C59.4743 11.9648 60.0774 11.6807 60.5741 11.148C61.0709 10.6154 61.3192 9.76318 61.3192 8.66238C61.3192 7.56159 61.0709 6.74487 60.6096 6.21223C60.1484 5.67959 59.5098 5.39551 58.6937 5.39551C57.9132 5.39551 57.2745 5.67959 56.7778 6.21223C56.2811 6.74487 56.0328 7.5971 56.0328 8.66238Z" fill="white"/>
<path d="M64.0159 6.53181H65.0449V6.03468C65.0449 5.46653 65.1158 5.0049 65.2223 4.72083C65.3287 4.43675 65.5771 4.18819 65.8964 4.01064C66.2157 3.83309 66.6414 3.72656 67.1736 3.72656C67.7058 3.72656 68.2025 3.79758 68.6993 3.97513L68.4509 5.25347C68.1671 5.18245 67.8832 5.14694 67.5994 5.14694C67.351 5.14694 67.1382 5.21796 67.0317 5.32449C66.9253 5.43102 66.8543 5.67959 66.8543 6.03468V6.53181H68.2025V7.9877H66.8543V13.4562H65.0094V7.9877H63.9805V6.53181H64.0159Z" fill="white"/>
<path d="M68.4505 6.53181H69.4794V6.03468C69.4794 5.46653 69.5504 5.0049 69.6568 4.72083C69.7633 4.43675 70.0116 4.18819 70.3309 4.01064C70.6503 3.83309 71.076 3.72656 71.6082 3.72656C72.1404 3.72656 72.6371 3.79758 73.1338 3.97513L72.8855 5.25347C72.6016 5.18245 72.3178 5.14694 72.034 5.14694C71.7501 5.14694 71.5727 5.21796 71.4663 5.32449C71.3598 5.43102 71.2889 5.67959 71.2889 6.03468V6.53181H72.6371V7.9877H71.2889V13.4562H69.4439V7.9877H68.415V6.53181H68.4505Z" fill="white"/>
<path d="M73.2051 10.3661L75.0855 10.1886C75.1919 10.8278 75.4403 11.2894 75.7596 11.5735C76.1144 11.8575 76.5756 12.0351 77.1433 12.0351C77.7465 12.0351 78.2432 11.893 78.527 11.6445C78.8463 11.3959 78.9883 11.0763 78.9883 10.7212C78.9883 10.5082 78.9173 10.2951 78.7754 10.1531C78.6335 9.97553 78.4206 9.869 78.0658 9.72696C77.8529 9.65594 77.3207 9.51391 76.5047 9.30085C75.4758 9.05228 74.7307 8.7327 74.3404 8.34209C73.7728 7.80945 73.4534 7.17028 73.4534 6.42458C73.4534 5.92745 73.5954 5.50133 73.8792 5.07522C74.163 4.6491 74.5533 4.32952 75.0855 4.11646C75.5822 3.9034 76.2208 3.79688 76.9659 3.79688C78.1722 3.79688 79.0592 4.04544 79.6624 4.57808C80.2655 5.11073 80.5848 5.82092 80.6203 6.67315L78.7044 6.74416C78.6335 6.24703 78.4561 5.89194 78.1722 5.67888C77.8884 5.46582 77.4981 5.35929 76.9659 5.35929C76.3982 5.35929 75.9725 5.46582 75.6532 5.71439C75.4403 5.85643 75.3339 6.06948 75.3339 6.31805C75.3339 6.53111 75.4403 6.74416 75.6177 6.8862C75.8661 7.09926 76.4337 7.31232 77.3917 7.52537C78.3141 7.73843 79.0237 7.987 79.485 8.20005C79.9462 8.44862 80.2655 8.76821 80.5494 9.15881C80.7977 9.54942 80.9396 10.0821 80.9396 10.6857C80.9396 11.2184 80.7977 11.751 80.4784 12.2126C80.1591 12.7098 79.7333 13.0293 79.2011 13.2779C78.6335 13.5265 77.9593 13.633 77.1433 13.633C75.937 13.633 75.0145 13.3489 74.3759 12.7808C73.7373 12.2481 73.347 11.4314 73.2051 10.3661Z" fill="white"/>
<path d="M84.4162 3.90625V7.42169C85.0194 6.74701 85.729 6.39192 86.545 6.39192C86.9708 6.39192 87.361 6.46293 87.6804 6.64048C88.0352 6.78252 88.2835 6.99558 88.4609 7.24414C88.6383 7.49271 88.7448 7.74128 88.8157 8.06086C88.8867 8.34494 88.9221 8.80656 88.9221 9.44573V13.4938H87.0772V9.80083C87.0772 9.09064 87.0417 8.62901 86.9708 8.41596C86.8998 8.23841 86.7934 8.06086 86.616 7.95433C86.4386 7.84781 86.2257 7.77679 85.9419 7.77679C85.6225 7.77679 85.3742 7.84781 85.1258 7.98984C84.8775 8.13188 84.7001 8.34494 84.5936 8.66452C84.4872 8.9486 84.4162 9.41022 84.4162 9.97838V13.4583H82.5713V3.90625H84.4162Z" fill="white"/>
<path d="M90.3057 9.90251C90.3057 9.29885 90.4476 8.69519 90.7669 8.12704C91.0507 7.55889 91.4765 7.13277 92.0442 6.81319C92.5764 6.52911 93.215 6.35156 93.8891 6.35156C94.918 6.35156 95.805 6.67115 96.4436 7.38134C97.1177 8.05602 97.4371 8.90825 97.4371 9.93802C97.4371 10.9678 97.1177 11.8555 96.4436 12.5302C95.7695 13.2049 94.918 13.56 93.8891 13.56C93.2505 13.56 92.6473 13.418 92.0796 13.1339C91.512 12.8498 91.0862 12.4237 90.7669 11.891C90.4476 11.3584 90.3057 10.6837 90.3057 9.90251ZM92.1861 10.009C92.1861 10.6837 92.3635 11.2164 92.6828 11.5715C93.0021 11.9266 93.3924 12.1041 93.8891 12.1041C94.3858 12.1041 94.7761 11.9266 95.0954 11.5715C95.4147 11.2164 95.5921 10.6837 95.5921 9.97353C95.5921 9.29885 95.4147 8.76621 95.0954 8.41111C94.7761 8.05602 94.3858 7.87847 93.8891 7.87847C93.4279 7.87847 93.0021 8.05602 92.6828 8.41111C92.328 8.76621 92.1861 9.29885 92.1861 10.009Z" fill="white"/>
<path d="M100.631 13.457H98.7861V6.53266H100.489V7.52693C100.773 7.06531 101.057 6.74572 101.27 6.60368C101.518 6.46164 101.766 6.39062 102.05 6.39062C102.476 6.39062 102.866 6.49715 103.257 6.74572L102.689 8.34365C102.37 8.13059 102.086 8.05957 101.837 8.05957C101.589 8.05957 101.376 8.13059 101.199 8.27263C101.021 8.41467 100.879 8.66323 100.773 9.05384C100.667 9.40893 100.631 10.1901 100.631 11.362V13.457Z" fill="white"/>
<path d="M108.081 11.2512L109.891 11.5708C109.643 12.2454 109.288 12.7426 108.791 13.0977C108.294 13.4528 107.656 13.6303 106.875 13.6303C105.669 13.6303 104.782 13.2397 104.214 12.4585C103.753 11.8193 103.54 11.0381 103.54 10.0794C103.54 8.94305 103.824 8.0198 104.427 7.38063C105.03 6.74146 105.775 6.42188 106.698 6.42188C107.727 6.42188 108.543 6.74146 109.146 7.45165C109.749 8.12633 110.033 9.15611 109.997 10.5765H105.42C105.42 11.1091 105.562 11.5352 105.882 11.8548C106.166 12.1744 106.52 12.3165 106.946 12.3165C107.23 12.3165 107.478 12.2454 107.656 12.0679C107.833 11.8548 107.975 11.6063 108.081 11.2512ZM108.188 9.40467C108.188 8.87203 108.046 8.48143 107.762 8.19735C107.514 7.91327 107.194 7.77124 106.804 7.77124C106.414 7.77124 106.059 7.91327 105.811 8.19735C105.562 8.48143 105.42 8.87203 105.42 9.36916H108.188V9.40467Z" fill="white"/>
<path d="M58.8002 25.9912C58.5163 26.1332 57.9132 26.2752 57.1326 26.2752C55.3586 26.2752 54.0459 25.1389 54.0459 23.1149C54.0459 21.1619 55.3586 19.8125 57.31 19.8125C58.0906 19.8125 58.5873 19.99 58.8002 20.0966L58.6228 20.7713C58.3035 20.6292 57.8777 20.5227 57.3455 20.5227C55.8908 20.5227 54.8974 21.4459 54.8974 23.1149C54.8974 24.6418 55.7844 25.6361 57.31 25.6361C57.8067 25.6361 58.3035 25.5295 58.6228 25.3875L58.8002 25.9912Z" fill="white"/>
<path d="M63.7676 23.8941C63.7676 25.563 62.5968 26.2732 61.5324 26.2732C60.3261 26.2732 59.3682 25.3855 59.3682 23.9651C59.3682 22.4382 60.3616 21.5859 61.6034 21.5859C62.9161 21.5859 63.7676 22.5092 63.7676 23.8941ZM60.1842 23.9296C60.1842 24.9238 60.7519 25.6695 61.5679 25.6695C62.3485 25.6695 62.9161 24.9238 62.9161 23.9296C62.9161 23.1839 62.5258 22.1896 61.5679 22.1896C60.6099 22.1896 60.1842 23.0773 60.1842 23.9296Z" fill="white"/>
<path d="M64.7959 22.904C64.7959 22.4424 64.7959 22.0518 64.7604 21.6967H65.47L65.5055 22.4069H65.541C65.7893 21.9808 66.2151 21.5902 66.9601 21.5902C67.5633 21.5902 68.0245 21.9453 68.2374 22.4779C68.3793 22.2294 68.5567 22.0163 68.7341 21.8743C69.018 21.6612 69.3018 21.5547 69.7276 21.5547C70.3307 21.5547 71.2177 21.9453 71.2177 23.5077V26.1709H70.4017V23.6142C70.4017 22.762 70.0824 22.2294 69.4082 22.2294C68.947 22.2294 68.5922 22.5845 68.4503 22.9751C68.4148 23.0816 68.3793 23.2236 68.3793 23.4012V26.1709H67.5633V23.4722C67.5633 22.762 67.244 22.2294 66.6053 22.2294C66.1086 22.2294 65.7184 22.6555 65.5764 23.0461C65.541 23.1526 65.5055 23.2947 65.5055 23.4367V26.1709H64.6895V22.904H64.7959Z" fill="white"/>
<path d="M72.5658 23.1484C72.5658 22.5802 72.5658 22.1186 72.5303 21.6925H73.2753L73.3108 22.4737H73.3463C73.6656 21.9055 74.1978 21.5859 74.9429 21.5859C76.0428 21.5859 76.8588 22.5092 76.8588 23.8941C76.8588 25.5275 75.8654 26.3087 74.801 26.3087C74.1978 26.3087 73.7011 26.0601 73.4173 25.5985H73.3818V28.0487H72.5658V23.1484ZM73.3818 24.3557L73.4173 24.6753C73.5592 25.2434 74.0559 25.634 74.6591 25.634C75.5106 25.634 76.0428 24.9238 76.0428 23.8941C76.0428 23.0063 75.5815 22.2251 74.6945 22.2251C74.1269 22.2251 73.6301 22.6157 73.4527 23.2194L73.3818 23.539V24.3557Z" fill="white"/>
<path d="M80.3358 26.1667L80.2648 25.5985H80.2293C79.981 25.9536 79.4842 26.2732 78.8456 26.2732C77.9231 26.2732 77.4619 25.634 77.4619 24.9949C77.4619 23.8941 78.4199 23.2904 80.1584 23.3259V23.2194C80.1584 22.8288 80.0519 22.1896 79.1295 22.1896C78.7037 22.1896 78.2779 22.3316 77.9586 22.5092L77.7812 21.9765C78.1715 21.728 78.7037 21.5859 79.2714 21.5859C80.6551 21.5859 80.9744 22.5092 80.9744 23.4324V25.1369C80.9744 25.5275 80.9744 25.9181 81.0453 26.2022H80.3358V26.1667ZM80.2293 23.8941C79.3423 23.8941 78.3134 24.0361 78.3134 24.9238C78.3134 25.4565 78.6682 25.705 79.094 25.705C79.6971 25.705 80.0519 25.3144 80.1938 24.9593L80.2293 24.7108V23.8941Z" fill="white"/>
<path d="M82.3587 22.8998C82.3587 22.4382 82.3587 22.0476 82.3232 21.6925H83.0328L83.0683 22.4382H83.1038C83.3167 22.0121 83.8489 21.5859 84.5939 21.5859C85.1971 21.5859 86.1905 21.941 86.1905 23.5035V26.2022H85.3745V23.61C85.3745 22.8998 85.0907 22.2606 84.3456 22.2606C83.8134 22.2606 83.3876 22.6512 83.2457 23.1128C83.2102 23.2194 83.1748 23.3614 83.1748 23.5035V26.2022H82.3587V22.8998Z" fill="white"/>
<path d="M87.6809 21.6562L88.6744 24.3195C88.7808 24.6035 88.8872 24.9586 88.9582 25.2427C89.0292 24.9586 89.1356 24.639 89.242 24.3195L90.129 21.6918H90.9805L89.7388 24.9231C89.1711 26.45 88.7453 27.2668 88.1776 27.7284C87.7874 28.0835 87.3616 28.2255 87.1842 28.261L86.9713 27.5863C87.1842 27.5153 87.4326 27.3733 87.6809 27.1957C87.8938 27.0182 88.1776 26.6986 88.355 26.2725L88.426 26.0594L88.355 25.8464L86.7939 21.6562H87.6809Z" fill="white"/>
<path d="M96.1605 25.9912C95.8767 26.1332 95.2735 26.2752 94.493 26.2752C92.719 26.2752 91.4062 25.1389 91.4062 23.1149C91.4062 21.1619 92.719 19.8125 94.6704 19.8125C95.4509 19.8125 95.9476 19.99 96.1605 20.0966L95.9476 20.7713C95.6283 20.6292 95.2026 20.5227 94.6704 20.5227C93.2157 20.5227 92.2223 21.4459 92.2223 23.1149C92.2223 24.6418 93.1093 25.6361 94.6349 25.6361C95.1316 25.6361 95.6283 25.5295 95.9476 25.3875L96.1605 25.9912Z" fill="white"/>
<path d="M101.127 23.8941C101.127 25.563 99.9562 26.2732 98.8918 26.2732C97.6855 26.2732 96.7275 25.3855 96.7275 23.9651C96.7275 22.4382 97.721 21.5859 98.9627 21.5859C100.275 21.5859 101.127 22.5092 101.127 23.8941ZM97.579 23.9296C97.579 24.9238 98.1467 25.6695 98.9627 25.6695C99.7433 25.6695 100.346 24.9238 100.346 23.9296C100.346 23.1839 99.9562 22.1896 98.9982 22.1896C97.9693 22.1896 97.579 23.0773 97.579 23.9296Z" fill="white"/>
<path d="M102.157 23.0816C102.157 22.549 102.157 22.0873 102.121 21.6612H102.831L102.866 22.549H102.902C103.115 21.9453 103.611 21.5547 104.143 21.5547L104.392 21.5902V22.3714L104.108 22.3359C103.54 22.3359 103.115 22.762 103.008 23.4012C102.973 23.5077 102.973 23.6497 102.973 23.7918V26.2064H102.157V23.0816Z" fill="white"/>
<path d="M105.243 23.1484C105.243 22.5802 105.207 22.1186 105.207 21.6925H105.952L105.988 22.4737H106.023C106.342 21.9055 106.875 21.5859 107.62 21.5859C108.72 21.5859 109.536 22.5092 109.536 23.8941C109.536 25.5275 108.542 26.3087 107.478 26.3087C106.875 26.3087 106.378 26.0601 106.094 25.5985H106.059V28.0487H105.243V23.1484ZM106.059 24.3557L106.094 24.6753C106.236 25.2434 106.733 25.634 107.336 25.634C108.187 25.634 108.72 24.9238 108.72 23.8941C108.72 23.0063 108.258 22.2251 107.371 22.2251C106.804 22.2251 106.307 22.6157 106.13 23.2194L106.059 23.539V24.3557Z" fill="white"/>
<path d="M43.2599 12.0354C43.2244 11.8933 43.1889 11.7158 43.1534 11.5738C43.118 17.4328 36.9445 23.2209 28.3939 25.0319C18.9918 27.0559 10.2283 23.5049 8.88011 17.0777C7.46093 10.686 13.9892 3.86819 23.4268 1.84415C24.5621 1.59559 25.6975 1.45355 26.7973 1.34702C24.2073 1.20498 21.4399 1.41804 18.637 2.0217C6.75134 4.57838 -1.47994 13.1717 0.223085 21.2678C1.96159 29.3285 12.9603 33.8382 24.8459 31.2815C36.7316 28.7248 44.9629 20.1315 43.2599 12.0354Z" fill="white"/>
<path d="M39.2862 13.7422L31.1614 14.4524L39.2153 12.6414C39.0734 11.2565 38.825 9.90715 38.3992 8.52228L30.3454 11.221L38.0444 7.457C37.938 7.13741 37.7961 6.78231 37.6542 6.46273C37.2639 5.50397 36.7672 4.61623 36.2705 3.79952L28.9617 8.2382L35.6673 2.91178C34.8868 1.81098 33.9998 0.816718 33.0773 0L24.7041 6.67579C25.2363 7.31496 25.6975 8.09617 26.0523 8.9839C26.1588 9.26798 26.2652 9.55206 26.3362 9.83613C26.3716 9.97817 26.4071 10.1202 26.4426 10.2267C26.62 10.9369 26.691 11.6826 26.7264 12.3928C26.7264 12.5704 26.7264 12.7834 26.7264 12.961C26.691 13.6001 26.5845 14.2393 26.4071 14.843C26.3362 15.0915 26.2652 15.3401 26.1588 15.5532C25.9814 15.9793 25.804 16.4054 25.5556 16.7605H39.1798C39.3217 15.8017 39.3217 14.772 39.2862 13.7422Z" fill="white"/>
<path d="M34.4607 18.2507L34.4962 18.1797H19.8076L21.4397 21.127H32.8641L34.4607 18.2507Z" fill="white"/>
</svg>
