<svg width="40" height="40" viewBox="0 0 40 40" fill="none" xmlns="http://www.w3.org/2000/svg">
<path d="M31.9047 33.132V13.8156C31.9047 13.2418 31.3552 12.6681 30.8058 12.6681H21.4651C20.9157 12.6681 20.3662 13.0506 20.3662 13.8156V33.3232V6.16554C20.3662 5.78304 19.9999 5.59179 19.8168 5.78304L9.19407 10.1818C8.64462 10.3731 8.27832 10.9468 8.27832 11.7118V33.132" stroke="url(#paint0_linear_7190_19623)" stroke-miterlimit="10" stroke-linecap="round" stroke-linejoin="round"/>
<path d="M28.6081 17.8319H23.2967C23.1136 17.8319 22.9304 17.6406 22.9304 17.4494V16.4931C22.9304 16.3018 23.1136 16.1106 23.2967 16.1106H28.6081C28.7912 16.1106 28.9744 16.3018 28.9744 16.4931V17.4494C29.1575 17.6406 28.9744 17.8319 28.6081 17.8319Z" fill="url(#paint1_linear_7190_19623)"/>
<path d="M28.6081 22.9954H23.2967C23.1136 22.9954 22.9304 22.8042 22.9304 22.6129V21.6567C22.9304 21.4654 23.1136 21.2742 23.2967 21.2742H28.6081C28.7912 21.2742 28.9744 21.4654 28.9744 21.6567V22.6129C29.1575 22.8042 28.9744 22.9954 28.6081 22.9954Z" fill="url(#paint2_linear_7190_19623)"/>
<path d="M28.6081 28.1594H23.2967C23.1136 28.1594 22.9304 27.9681 22.9304 27.7769V26.8206C22.9304 26.6294 23.1136 26.4381 23.2967 26.4381H28.6081C28.7912 26.4381 28.9744 26.6294 28.9744 26.8206V27.7769C29.1575 27.9681 28.9744 28.1594 28.6081 28.1594Z" fill="url(#paint3_linear_7190_19623)"/>
<path d="M16.7029 17.8319H12.1241C11.941 17.8319 11.7578 17.6406 11.7578 17.4494V16.4931C11.7578 16.3018 11.941 16.1106 12.1241 16.1106H16.7029C16.886 16.1106 17.0692 16.3018 17.0692 16.4931V17.4494C17.0692 17.6406 16.886 17.8319 16.7029 17.8319Z" fill="url(#paint4_linear_7190_19623)"/>
<path d="M16.7029 22.9954H12.1241C11.941 22.9954 11.7578 22.8042 11.7578 22.6129V21.6567C11.7578 21.4654 11.941 21.2742 12.1241 21.2742H16.7029C16.886 21.2742 17.0692 21.4654 17.0692 21.6567V22.6129C17.0692 22.8042 16.886 22.9954 16.7029 22.9954Z" fill="url(#paint5_linear_7190_19623)"/>
<path d="M16.7029 28.1594H12.1241C11.941 28.1594 11.7578 27.9681 11.7578 27.7769V26.8206C11.7578 26.6294 11.941 26.4381 12.1241 26.4381H16.7029C16.886 26.4381 17.0692 26.6294 17.0692 26.8206V27.7769C17.0692 27.9681 16.886 28.1594 16.7029 28.1594Z" fill="url(#paint6_linear_7190_19623)"/>
<path d="M33.7363 32.3668H28.9744H11.2089H6.44696C6.08066 32.3668 5.71436 32.7493 5.71436 33.3231C5.71436 33.8968 6.08066 34.2793 6.44696 34.2793H11.2089H28.7913H33.5532C33.9195 34.2793 34.2858 33.8968 34.2858 33.3231C34.2858 32.7493 34.1026 32.3668 33.7363 32.3668Z" fill="url(#paint7_linear_7190_19623)"/>
<defs>
<linearGradient id="paint0_linear_7190_19623" x1="31.9047" y1="5.70801" x2="4.62214" y2="29.0498" gradientUnits="userSpaceOnUse">
<stop stop-color="#FF6A00"/>
<stop offset="1" stop-color="#EE0979"/>
</linearGradient>
<linearGradient id="paint1_linear_7190_19623" x1="29.0462" y1="16.1106" x2="28.1485" y2="19.3004" gradientUnits="userSpaceOnUse">
<stop stop-color="#FF6A00"/>
<stop offset="1" stop-color="#EE0979"/>
</linearGradient>
<linearGradient id="paint2_linear_7190_19623" x1="29.0462" y1="21.2742" x2="28.1485" y2="24.464" gradientUnits="userSpaceOnUse">
<stop stop-color="#FF6A00"/>
<stop offset="1" stop-color="#EE0979"/>
</linearGradient>
<linearGradient id="paint3_linear_7190_19623" x1="29.0462" y1="26.4381" x2="28.1485" y2="29.628" gradientUnits="userSpaceOnUse">
<stop stop-color="#FF6A00"/>
<stop offset="1" stop-color="#EE0979"/>
</linearGradient>
<linearGradient id="paint4_linear_7190_19623" x1="17.0692" y1="16.1106" x2="16.0596" y2="19.2259" gradientUnits="userSpaceOnUse">
<stop stop-color="#FF6A00"/>
<stop offset="1" stop-color="#EE0979"/>
</linearGradient>
<linearGradient id="paint5_linear_7190_19623" x1="17.0692" y1="21.2742" x2="16.0596" y2="24.3895" gradientUnits="userSpaceOnUse">
<stop stop-color="#FF6A00"/>
<stop offset="1" stop-color="#EE0979"/>
</linearGradient>
<linearGradient id="paint6_linear_7190_19623" x1="17.0692" y1="26.4381" x2="16.0596" y2="29.5534" gradientUnits="userSpaceOnUse">
<stop stop-color="#FF6A00"/>
<stop offset="1" stop-color="#EE0979"/>
</linearGradient>
<linearGradient id="paint7_linear_7190_19623" x1="34.2858" y1="32.3668" x2="34.0309" y2="36.1748" gradientUnits="userSpaceOnUse">
<stop stop-color="#FF6A00"/>
<stop offset="1" stop-color="#EE0979"/>
</linearGradient>
</defs>
</svg>
