<svg width="28" height="28" viewBox="0 0 28 28" fill="none" xmlns="http://www.w3.org/2000/svg">
<path d="M26.8921 18.5581C27.0991 18.3405 27.1681 18.0503 27.0991 17.7601C27.0301 17.4699 26.7541 17.3248 26.547 17.2523L22.2684 16.5994L20.3361 12.5368C20.198 12.3192 19.991 12.1741 19.784 12.1741C19.5079 12.1741 19.1629 12.2466 19.0249 12.5368L17.0925 16.5994L12.8139 17.2523C12.5378 17.2523 12.3308 17.4699 12.2618 17.7601C12.1928 18.0503 12.2618 18.3405 12.4688 18.5581L15.5743 21.7501L14.7462 26.248C14.6772 26.5382 14.8152 26.8284 15.0222 26.9734C15.2293 27.1185 15.5053 27.1911 15.7813 27.046L19.646 24.9422L23.5106 27.046C23.7866 27.1911 24.0626 27.1185 24.2697 26.9734C24.4767 26.8284 24.6147 26.5382 24.5457 26.248L23.7866 21.7501L26.8921 18.5581Z" fill="url(#paint0_linear_7275_1272)"/>
<path d="M15.6432 14.8582C15.8503 15.221 16.3333 15.2935 16.6784 15.0033C17.0235 14.7857 17.0925 14.2779 16.8164 13.9151L15.6432 12.174C15.4362 11.8113 14.9531 11.7388 14.6081 12.0289C14.263 12.2466 14.194 12.7544 14.4701 13.1171L15.6432 14.8582Z" fill="url(#paint1_linear_7275_1272)"/>
<path d="M13.9871 22.2579L11.4337 19.6463V21.0246H5.9818V9.34474H11.3646V16.4543C11.7097 16.1641 12.1238 15.9464 12.5378 15.8739L13.573 15.7288V14.4955L13.297 13.9877C12.6759 13.0446 12.8139 11.7388 13.642 11.0133V9.34474H19.0249V10.7957C19.2319 10.7231 19.3699 10.7231 19.5769 10.7231C19.646 10.7231 19.784 10.7231 19.853 10.7231C20.4051 10.7957 20.9572 11.0858 21.3022 11.5937V9.34474H22.5444C22.9585 9.34474 23.3035 8.98201 23.3035 8.54674V7.67619H23.3725C23.5106 7.67619 23.5796 7.67619 23.7176 7.60364C24.3387 7.31346 24.3387 6.37036 23.7176 6.08017L21.3022 4.91944L12.8829 0.929409C12.6759 0.856864 12.4688 0.856864 12.2618 0.929409L1.35808 6.08017C0.736978 6.37036 0.736978 7.31346 1.35808 7.60364C1.42709 7.60364 1.56511 7.67619 1.70313 7.67619H1.77214V8.61929C1.77214 9.05456 2.1172 9.41729 2.53126 9.41729H3.77346V21.0972H2.18621C1.97917 21.0972 1.77214 21.3148 1.77214 21.5325V22.6207H1.63412C1.22005 22.6207 0.875 22.9834 0.875 23.4187V23.999C0.875 24.2167 1.01302 24.3618 1.22005 24.3618H13.642L13.9871 22.2579ZM11.0196 5.86254L11.3646 5.78999C11.5027 5.78999 11.6407 5.86254 11.7097 6.00763C11.8477 6.37036 12.1928 6.588 12.6759 6.588C13.2279 6.588 13.504 6.37036 13.504 5.93508C13.504 5.71744 13.435 5.57235 13.297 5.49981C13.1589 5.42726 12.8829 5.28217 12.3998 5.20962C11.8477 5.13708 11.5717 4.91944 11.2956 4.7018C11.0886 4.48416 10.9506 4.19398 10.9506 3.83125C10.9506 3.46852 11.0886 3.17834 11.3646 2.9607C11.5717 2.74306 11.9167 2.67051 12.1928 2.59797V2.09015C12.1928 1.87251 12.2618 1.79996 12.3998 1.79996H12.7449C12.8829 1.79996 12.9519 1.94505 12.9519 2.09015V2.67051C13.573 2.74306 13.9181 3.03324 14.0561 3.46852C14.1251 3.68616 13.9871 3.83125 13.849 3.83125H13.435C13.366 3.83125 13.2279 3.7587 13.2279 3.68616C13.1589 3.46852 12.8829 3.39597 12.5378 3.39597C11.9857 3.39597 11.7787 3.54107 11.7787 3.83125C11.7787 4.04889 11.8477 4.12143 11.9857 4.19398C12.1238 4.26653 12.6068 4.41162 13.0899 4.48416C13.573 4.62926 13.9181 4.77435 14.1251 5.06453C14.3321 5.28217 14.4701 5.6449 14.4701 5.93508C14.4701 6.37036 14.2631 6.73309 13.9181 6.95073C13.711 7.16836 13.366 7.24091 13.0899 7.31346V7.74873C13.0899 7.96637 13.0209 8.03892 12.8829 8.03892H12.5378C12.3998 8.03892 12.3308 7.89383 12.3308 7.74873V7.31346C11.6407 7.24091 11.1576 6.87818 10.9506 6.22527C10.8126 6.08017 10.8816 5.86254 11.0196 5.86254Z" fill="url(#paint2_linear_7275_1272)"/>
<path d="M24.1316 15.0758C24.4767 15.2935 24.8907 15.2935 25.1668 14.9308L26.478 13.1171C26.685 12.7544 26.685 12.3191 26.34 12.0289C25.9949 11.8113 25.5808 11.8113 25.3048 12.174L23.9936 13.9877C23.7175 14.3504 23.7866 14.7857 24.1316 15.0758Z" fill="url(#paint3_linear_7275_1272)"/>
<defs>
<linearGradient id="paint0_linear_7275_1272" x1="19.9659" y1="2.69792" x2="-0.451674" y2="30.9043" gradientUnits="userSpaceOnUse">
<stop stop-color="#00C6FF"/>
<stop offset="1" stop-color="#0072FF"/>
</linearGradient>
<linearGradient id="paint1_linear_7275_1272" x1="19.9659" y1="2.69792" x2="-0.451674" y2="30.9043" gradientUnits="userSpaceOnUse">
<stop stop-color="#00C6FF"/>
<stop offset="1" stop-color="#0072FF"/>
</linearGradient>
<linearGradient id="paint2_linear_7275_1272" x1="19.9659" y1="2.69792" x2="-0.451674" y2="30.9043" gradientUnits="userSpaceOnUse">
<stop stop-color="#00C6FF"/>
<stop offset="1" stop-color="#0072FF"/>
</linearGradient>
<linearGradient id="paint3_linear_7275_1272" x1="19.9659" y1="2.69792" x2="-0.451674" y2="30.9043" gradientUnits="userSpaceOnUse">
<stop stop-color="#00C6FF"/>
<stop offset="1" stop-color="#0072FF"/>
</linearGradient>
</defs>
</svg>
