<svg width="28" height="24" viewBox="0 0 28 24" fill="none" xmlns="http://www.w3.org/2000/svg">
<path d="M6.3944 18.0557L3.03663 21.6719C3.02651 21.6828 3.02043 21.6973 3.02043 21.714V23.2827C3.02043 23.3191 3.0346 23.3517 3.05688 23.375H6.4538C6.47674 23.3517 6.49092 23.3191 6.49092 23.2827L6.49024 18.0986C6.49024 18.0622 6.46257 18.0383 6.43355 18.0383C6.41937 18.0383 6.4052 18.0441 6.3944 18.0557Z" fill="url(#paint0_linear_7275_1257)"/>
<path d="M15.9818 18.3732L13.8719 20.6445C13.8503 20.6678 13.8146 20.6678 13.793 20.6445L12.7036 19.4718C12.6679 19.4333 12.6078 19.4609 12.6078 19.5139V23.2827C12.6078 23.3191 12.6213 23.3517 12.6442 23.375H16.0412C16.0641 23.3517 16.0776 23.3191 16.0776 23.2827V18.4154C16.0776 18.379 16.0493 18.355 16.0209 18.355C16.0067 18.355 15.9932 18.3609 15.9818 18.3732Z" fill="url(#paint1_linear_7275_1257)"/>
<path d="M8.7634 15.5054L7.82998 16.5103C7.81918 16.5212 7.8131 16.5364 7.8131 16.5524L7.81378 23.2827C7.81378 23.3191 7.82795 23.3517 7.85022 23.375H11.2471C11.2701 23.3517 11.2843 23.3191 11.2843 23.2827L11.2836 17.9685C11.2836 17.9525 11.2782 17.9373 11.2667 17.9256L9.01853 15.5054C8.98343 15.4669 8.93754 15.448 8.89097 15.448C8.8444 15.448 8.7985 15.4669 8.7634 15.5054Z" fill="url(#paint2_linear_7275_1257)"/>
<path d="M20.7751 13.2116L17.418 16.827C17.4072 16.8387 17.4011 16.8532 17.4011 16.8699V23.2827C17.4011 23.3191 17.4153 23.3517 17.4383 23.375H20.8352C20.8575 23.3517 20.8716 23.3191 20.8716 23.2827L20.871 13.2552C20.871 13.2181 20.8433 13.1941 20.8143 13.1941C20.8001 13.1941 20.7866 13.1999 20.7751 13.2116Z" fill="url(#paint3_linear_7275_1257)"/>
<path d="M23.4755 10.3045L22.2114 11.6661C22.1999 11.677 22.1945 11.6923 22.1945 11.709L22.1952 23.2827C22.1952 23.3191 22.2093 23.3517 22.2316 23.375H25.6292C25.6515 23.3517 25.6657 23.3191 25.6657 23.2827L25.6643 12.4109C25.6643 12.3942 25.6589 12.3796 25.6481 12.3673L23.732 10.3045C23.6969 10.2667 23.6503 10.2471 23.6037 10.2471C23.5579 10.2471 23.5113 10.2667 23.4755 10.3045Z" fill="url(#paint4_linear_7275_1257)"/>
<path d="M26.1665 0.640985L20.0718 1.90378C19.6244 1.99606 19.455 2.58968 19.7769 2.93698L20.7029 3.93313C20.9499 4.19905 20.9499 4.63064 20.7029 4.8973L14.4078 11.6741C14.0906 12.0163 13.5743 12.0163 13.2571 11.6741L9.5038 7.63433C9.16499 7.26959 8.61627 7.26959 8.27813 7.63433L1.1286 15.331C0.790465 15.695 0.790465 16.2857 1.1286 16.6505L2.35698 17.9721C2.69512 18.3369 3.24451 18.3369 3.58265 17.9721L8.31525 12.8766C8.63314 12.5344 9.14879 12.5344 9.46668 12.8766L13.2193 16.9179C13.5581 17.2812 14.1068 17.2812 14.445 16.9179L23.1569 7.53842C23.404 7.27177 23.8042 7.27177 24.0519 7.53842L25.0886 8.65518C25.364 8.95163 25.833 8.79541 25.9073 8.38489L27.11 1.65675C27.2079 1.11108 26.813 0.625 26.3217 0.625C26.2711 0.625 26.2191 0.630086 26.1665 0.640985Z" fill="url(#paint5_linear_7275_1257)"/>
<defs>
<linearGradient id="paint0_linear_7275_1257" x1="19.9659" y1="2.20486" x2="3.19495" y2="28.938" gradientUnits="userSpaceOnUse">
<stop stop-color="#00C6FF"/>
<stop offset="1" stop-color="#0072FF"/>
</linearGradient>
<linearGradient id="paint1_linear_7275_1257" x1="19.9659" y1="2.20486" x2="3.19495" y2="28.938" gradientUnits="userSpaceOnUse">
<stop stop-color="#00C6FF"/>
<stop offset="1" stop-color="#0072FF"/>
</linearGradient>
<linearGradient id="paint2_linear_7275_1257" x1="19.9659" y1="2.20486" x2="3.19495" y2="28.938" gradientUnits="userSpaceOnUse">
<stop stop-color="#00C6FF"/>
<stop offset="1" stop-color="#0072FF"/>
</linearGradient>
<linearGradient id="paint3_linear_7275_1257" x1="19.9659" y1="2.20486" x2="3.19495" y2="28.938" gradientUnits="userSpaceOnUse">
<stop stop-color="#00C6FF"/>
<stop offset="1" stop-color="#0072FF"/>
</linearGradient>
<linearGradient id="paint4_linear_7275_1257" x1="19.9659" y1="2.20486" x2="3.19495" y2="28.938" gradientUnits="userSpaceOnUse">
<stop stop-color="#00C6FF"/>
<stop offset="1" stop-color="#0072FF"/>
</linearGradient>
<linearGradient id="paint5_linear_7275_1257" x1="19.9659" y1="2.20486" x2="3.19495" y2="28.938" gradientUnits="userSpaceOnUse">
<stop stop-color="#00C6FF"/>
<stop offset="1" stop-color="#0072FF"/>
</linearGradient>
</defs>
</svg>
