<svg width="28" height="24" viewBox="0 0 28 24" fill="none" xmlns="http://www.w3.org/2000/svg">
<path d="M25.7203 5.51055H19.3662V3.04764C19.3662 1.71217 18.3028 0.625 16.9965 0.625H11.0035C9.69721 0.625 8.63381 1.71217 8.63381 3.04764V5.51055H2.27973C1.50516 5.51055 0.875 6.15479 0.875 6.94668V21.9389C0.875 22.7308 1.50516 23.375 2.27973 23.375H25.7203C26.4948 23.375 27.125 22.7308 27.125 21.9389V6.94668C27.125 6.15479 26.4948 5.51055 25.7203 5.51055ZM16.6224 18.3015C16.1235 18.5566 15.6312 18.8116 15.0076 18.9391V19.8316C15.0076 20.0867 14.7582 20.3417 14.5087 20.3417H13.767C13.5175 20.3417 13.2681 20.0867 13.2681 19.8316V18.9391C11.9028 18.6841 10.9116 18.0465 10.5374 16.9057C10.4127 16.6507 10.6621 16.3956 10.9116 16.3956H11.6533C11.9028 16.3956 12.1522 16.5232 12.2703 16.7782C12.5198 17.4157 13.1368 17.6707 14.128 17.6707C15.2439 17.6707 15.7428 17.2882 15.7428 16.5232C15.7428 16.1406 15.6181 15.8856 15.3686 15.7581C15.1192 15.6306 14.5022 15.3756 13.511 15.2481C12.5198 14.9931 11.8962 14.7381 11.4039 14.3555C11.0297 13.973 10.7869 13.463 10.7869 12.8254C10.7869 12.1879 11.0363 11.6779 11.6533 11.1746C12.0275 10.792 12.6445 10.6645 13.2681 10.537V9.51696C13.2681 9.26195 13.5175 9.00693 13.767 9.00693H14.5087C14.7582 9.00693 15.0076 9.26195 15.0076 9.51696V10.537C16.2482 10.6645 16.8652 11.1746 17.2394 11.9396C17.3641 12.3221 17.1147 12.5771 16.7405 12.5771H15.8741C15.7493 12.5771 15.4999 12.4496 15.3752 12.3221C15.2505 11.9396 14.7582 11.8121 14.0098 11.8121C13.0187 11.8121 12.5198 12.0671 12.5198 12.5771C12.5198 12.9597 12.6445 13.0872 13.0187 13.2147C13.2681 13.3422 13.8851 13.4697 14.8763 13.7247C15.7428 13.8522 16.4911 14.2347 16.8587 14.6173C17.2328 14.9998 17.4823 15.6373 17.4757 16.2681C17.4888 17.2077 17.3641 17.7915 16.6224 18.3015ZM18.0534 5.51055H9.94664V3.04764C9.94664 2.45037 10.4193 1.96718 11.0035 1.96718H16.9965C17.5807 1.96718 18.0534 2.45037 18.0534 3.04764V5.51055Z" fill="url(#paint0_linear_7275_1252)"/>
<defs>
<linearGradient id="paint0_linear_7275_1252" x1="19.9659" y1="2.20486" x2="3.19495" y2="28.938" gradientUnits="userSpaceOnUse">
<stop stop-color="#00C6FF"/>
<stop offset="1" stop-color="#0072FF"/>
</linearGradient>
</defs>
</svg>
