<svg width="28" height="28" viewBox="0 0 28 28" fill="none" xmlns="http://www.w3.org/2000/svg">
<path d="M27.1242 14.3184C27.1766 12.0931 24.7624 10.0911 21.0951 8.90294C21.1279 5.7259 20.3669 3.17901 18.9105 2.0106C18.8383 1.37387 18.3069 0.875 17.6509 0.875C17.2573 0.875 16.903 1.0588 16.6734 1.34762C15.0923 1.48547 13.3735 2.7064 11.8121 4.69533C10.277 3.96015 8.82709 3.5663 7.59373 3.5663C6.51782 3.5663 5.60592 3.86825 4.94331 4.49841C3.80836 5.58149 3.62466 7.45883 4.22166 9.67751C2.18137 10.7212 0.915202 12.1194 0.875839 13.6882C0.823355 15.9134 3.2376 17.9155 6.90488 19.1036C6.87864 22.1363 7.56749 24.5847 8.8927 25.8187C8.8927 25.8319 8.88614 25.845 8.88614 25.8581C8.88614 26.5539 9.45034 27.125 10.1523 27.125C10.5328 27.125 10.874 26.9478 11.1036 26.6786C12.7371 26.6458 14.5478 25.3921 16.1813 23.3112C17.7165 24.0399 19.1663 24.4337 20.3997 24.4337C21.4756 24.4337 22.3941 24.1383 23.0501 23.5082C24.1851 22.4251 24.3688 20.5477 23.7718 18.3291C25.8186 17.2854 27.0848 15.8872 27.1242 14.3184ZM20.3932 14.1936C21.1673 15.3883 21.7512 16.5436 22.1514 17.6136C21.2263 17.9812 20.157 18.2962 18.9564 18.5194C19.3238 17.6661 19.6584 16.7733 19.947 15.8347C20.1176 15.2899 20.2619 14.7385 20.3932 14.1936ZM18.5037 9.70377C18.4578 9.65126 18.4053 9.60531 18.3594 9.55279C18.8383 9.65126 19.3041 9.75628 19.7502 9.87444C19.724 10.242 19.6912 10.6096 19.6518 10.9903C19.2844 10.5571 18.9105 10.1304 18.5037 9.70377ZM16.5159 2.68014C16.7193 3.10681 17.1523 3.40219 17.6509 3.40219C17.8871 3.40219 18.1036 3.33655 18.2873 3.22496C18.9367 3.88138 19.4156 5.04979 19.6453 6.61862C19.7305 7.22252 19.7765 7.85925 19.783 8.52879C18.8055 8.27935 17.769 8.08899 16.6668 7.95771C15.4531 6.90088 14.2067 6.00816 12.9995 5.31892C14.2263 3.81574 15.4794 2.89676 16.5159 2.68014ZM12.2123 6.38231C12.9274 6.78273 13.649 7.25534 14.3707 7.78704C14.2985 7.78704 14.2198 7.78048 14.1476 7.77391C13.9246 7.76735 13.7015 7.76735 13.4784 7.76735C13.3604 7.76735 13.2554 7.76735 13.2554 7.76735C12.5075 7.76735 12.0089 7.80017 11.3004 7.85925C11.5956 7.33412 11.8974 6.83524 12.2123 6.38231ZM5.84865 5.44364C6.24228 5.06949 6.83272 4.87913 7.59373 4.87913C8.59092 4.87913 9.7718 5.20077 11.0248 5.77185C10.5656 6.46108 10.1195 7.21596 9.71275 8.03648C8.12513 8.26622 6.67527 8.64038 5.42879 9.13269C5.00236 7.43258 5.14669 6.11318 5.84865 5.44364ZM9.64059 18.4472C9.16168 18.3487 8.70245 18.2503 8.2629 18.1321C8.28258 17.7711 8.31538 17.4035 8.3613 17.0228C8.72213 17.4495 9.09607 17.8761 9.49626 18.2962C9.54218 18.3487 9.59467 18.4013 9.64059 18.4472ZM6.97049 17.7317C3.99861 16.688 2.15513 15.1323 2.18793 13.721C2.20761 12.7692 3.09983 11.7715 4.64153 10.9444C5.21229 12.4279 6.08483 14.0164 7.23947 15.5984C7.11482 16.327 7.02297 17.0359 6.97049 17.7317ZM7.60029 13.826C6.84584 12.6708 6.2554 11.5089 5.83553 10.393C6.76055 10.0188 7.83647 9.70377 9.04359 9.48059C8.6762 10.3339 8.34162 11.2267 8.05296 12.1653C7.88239 12.7233 7.73806 13.2747 7.60029 13.826ZM11.3069 25.3461C11.1101 24.9063 10.6706 24.5978 10.1523 24.5978C9.96861 24.5978 9.79804 24.6372 9.64059 24.7094C8.79429 23.7707 8.2629 21.8934 8.23009 19.4909C9.20104 19.7338 10.2376 19.9307 11.3266 20.0554C12.5403 21.1122 13.7868 22.005 14.9939 22.6942C13.7015 24.2827 12.3697 25.2083 11.3069 25.3461ZM15.7877 21.6243C15.0726 21.2238 14.351 20.7512 13.6293 20.2195C13.7015 20.2195 13.7802 20.2261 13.8524 20.2327C14.0754 20.2392 14.3051 20.2392 14.5281 20.2392C15.276 20.2392 15.9977 20.2064 16.7062 20.1473C16.4044 20.6724 16.0961 21.1713 15.7877 21.6243ZM16.0567 16.8193C15.6696 17.0162 15.276 17.2131 14.7905 17.3116V18.0008C14.7905 18.1978 14.5937 18.3947 14.4035 18.3947H13.8196C13.6228 18.3947 13.4325 18.1978 13.4325 18.0008V17.3116C12.3632 17.1147 11.5825 16.6224 11.2873 15.7297C11.1889 15.5327 11.3857 15.3358 11.5825 15.3358H12.1664C12.3632 15.3358 12.5534 15.4343 12.6518 15.6312C12.8486 16.1235 13.3341 16.3204 14.1148 16.3204C14.9939 16.3204 15.381 16.025 15.381 15.4277C15.381 15.1323 15.2826 14.9354 15.0858 14.8369C14.8889 14.7385 14.4035 14.5415 13.6228 14.4431C12.8421 14.2462 12.3566 14.0492 11.963 13.7538C11.6678 13.4585 11.4775 13.0646 11.4775 12.5657C11.4775 12.0734 11.6743 11.673 12.1598 11.2792C12.455 10.9838 12.9405 10.8853 13.426 10.7869V9.99916C13.426 9.80223 13.6228 9.60531 13.813 9.60531H14.3969C14.5937 9.60531 14.784 9.80223 14.784 9.99916V10.7934C15.7615 10.8919 16.247 11.2857 16.5356 11.8831C16.634 12.1785 16.4372 12.3754 16.1485 12.3754H15.4663C15.3679 12.3754 15.171 12.2769 15.0792 12.1785C14.9808 11.8831 14.5937 11.7846 14.0098 11.7846C13.2291 11.7846 12.8421 11.9815 12.8421 12.3754C12.8421 12.6708 12.9405 12.7692 13.2291 12.8677C13.426 12.9661 13.9114 13.0646 14.6921 13.2615C15.3744 13.36 15.9583 13.6554 16.2535 13.9508C16.5487 14.2462 16.739 14.745 16.739 15.2373C16.739 15.9725 16.6471 16.4255 16.0567 16.8193ZM22.1514 22.5629C21.7577 22.9371 21.1673 23.1274 20.4063 23.1274C19.4091 23.1274 18.2282 22.8058 16.9752 22.2347C17.4344 21.5455 17.8805 20.7906 18.2873 19.9701C19.8683 19.7403 21.3116 19.3662 22.5515 18.887C22.9714 20.5609 22.8468 21.8934 22.1514 22.5629ZM23.3585 17.0622C22.7943 15.5787 21.9152 13.9902 20.7605 12.4082C20.8852 11.6796 20.9705 10.9641 21.0295 10.2683C24.0014 11.3054 25.8449 12.8677 25.8121 14.279C25.7858 15.2373 24.9002 16.2351 23.3585 17.0622Z" fill="url(#paint0_linear_7275_1287)"/>
<defs>
<linearGradient id="paint0_linear_7275_1287" x1="19.9659" y1="2.69792" x2="-0.451592" y2="30.9043" gradientUnits="userSpaceOnUse">
<stop stop-color="#00C6FF"/>
<stop offset="1" stop-color="#0072FF"/>
</linearGradient>
</defs>
</svg>
