<svg width="36" height="46" viewBox="0 0 36 46" fill="none" xmlns="http://www.w3.org/2000/svg">
<path d="M22.5396 13.2899V1.9337C22.5396 1.0248 21.7814 0.285706 20.8489 0.285706H15.1414C14.209 0.285706 13.4507 1.0248 13.4507 1.9337V13.2899H8.11215C7.55883 13.2899 7.27192 13.9291 7.6408 14.3286L17.9798 25.3851L28.3495 14.3286C28.7184 13.9291 28.4315 13.2899 27.8782 13.2899H22.5396Z" fill="#0154B8"/>
<path d="M8.74742 32.7861C8.11212 32.4365 7.36411 32.2568 6.52387 32.2568H1.07259V45.99H3.05022V40.6665H6.52387C7.36411 40.6665 8.10188 40.4967 8.74742 40.1471C9.38272 39.7976 9.88482 39.3082 10.2332 38.6789C10.5816 38.0497 10.766 37.3106 10.766 36.4716C10.766 35.6326 10.5918 34.8935 10.2332 34.2643C9.88482 33.6251 9.38272 33.1357 8.74742 32.7861ZM8.47076 37.7101C8.29657 38.0697 8.0404 38.3493 7.72275 38.5391C7.4051 38.7388 7.02597 38.8287 6.5956 38.8287H3.05022V34.0845H6.5956C7.02597 34.0845 7.39485 34.1844 7.72275 34.3842C8.05064 34.5839 8.29657 34.8636 8.47076 35.2231C8.64496 35.5827 8.73718 36.0022 8.73718 36.4716C8.73718 36.941 8.64496 37.3505 8.47076 37.7101Z" fill="#0154B8"/>
<path d="M20.603 32.836C19.8037 32.4565 18.8405 32.2568 17.7032 32.2568H13.2458V45.99H17.6929C18.8201 45.99 19.7935 45.8002 20.5927 45.4107C21.392 45.0312 22.0068 44.4619 22.4269 43.7328C22.847 42.9937 23.052 42.1047 23.052 41.066V37.1708C23.052 36.132 22.847 35.2431 22.4269 34.504C22.0068 33.7849 21.4022 33.2256 20.603 32.836ZM21.0334 41.1459C21.0334 42.1047 20.7464 42.8438 20.1726 43.3732C19.5988 43.9026 18.7893 44.1622 17.7544 44.1622H15.2029V34.0945H17.7544C18.7996 34.0945 19.5988 34.3542 20.1726 34.8836C20.7464 35.4129 21.0334 36.152 21.0334 37.1108V41.1459Z" fill="#0154B8"/>
<path d="M34.928 34.0945V32.2568H26.0645V46H28.0421V40.217H33.8623V38.3793H28.0421V34.0945H34.928Z" fill="#0154B8"/>
<path d="M33.2987 28.8709H2.70184C1.67716 28.8709 0.857422 28.0619 0.857422 27.0731C0.857422 26.0743 1.68741 25.2753 2.70184 25.2753H33.2987C34.3234 25.2753 35.1431 26.0843 35.1431 27.0731C35.1431 28.0619 34.3234 28.8709 33.2987 28.8709Z" fill="#0154B8"/>
</svg>
