<svg width="36" height="38" viewBox="0 0 36 38" fill="none" xmlns="http://www.w3.org/2000/svg">
<path d="M31.5027 27.6254C32.5751 27.6254 33.4526 26.7817 33.4526 25.7505V15.4384C33.4526 14.6884 33.0626 14.126 32.5751 13.8447L23.7033 9.5324C22.7283 9.06367 21.6559 9.90739 21.6559 11.1261V26.7817C21.6559 27.2504 22.0459 27.6254 22.5334 27.6254H31.5027ZM29.4554 17.1258H31.1127C31.6002 17.1258 31.8927 17.5008 31.8927 17.9696C31.8927 18.4383 31.5027 18.8133 31.1127 18.8133H29.4554C28.9679 18.8133 28.6754 18.4383 28.6754 17.9696C28.6754 17.5008 28.9679 17.1258 29.4554 17.1258ZM29.4554 21.0632H31.1127C31.6002 21.0632 31.8927 21.4382 31.8927 21.9069C31.8927 22.3756 31.6002 22.7506 31.1127 22.7506H29.4554C28.9679 22.7506 28.6754 22.3756 28.6754 21.9069C28.6754 21.4382 28.9679 21.0632 29.4554 21.0632ZM23.8983 17.1258H25.5556C26.0431 17.1258 26.3356 17.5008 26.3356 17.9696C26.3356 18.4383 25.9456 18.8133 25.5556 18.8133H23.8983C23.4108 18.8133 23.1183 18.4383 23.1183 17.9696C23.1183 17.5008 23.4108 17.1258 23.8983 17.1258ZM23.8983 21.0632H25.5556C26.0431 21.0632 26.3356 21.4382 26.3356 21.9069C26.3356 22.3756 26.0431 22.7506 25.5556 22.7506H23.8983C23.4108 22.7506 23.1183 22.3756 23.1183 21.9069C23.1183 21.4382 23.4108 21.0632 23.8983 21.0632Z" fill="url(#paint0_linear_7301_18241)"/>
<path d="M15.3189 0.439053L1.8649 6.43881C1.08496 6.81379 0.5 7.65751 0.5 8.68871V32.594C0.5 33.9064 1.47493 35.0314 2.74234 35.0314H7.422C7.22701 34.5626 7.03203 34.0939 6.93454 33.5314C6.93454 33.5314 6.93454 33.5314 6.93454 33.4377C6.83704 33.2502 6.83704 32.969 6.83704 32.7815V32.6877C6.83704 32.4065 6.83704 32.1253 6.83704 31.844C6.83704 27.5317 10.4443 24.0631 14.929 24.0631C15.2214 24.0631 15.6114 24.0631 15.9039 24.1568C16.0989 24.1568 16.3914 24.2506 16.5863 24.2506C16.6838 24.2506 16.7813 24.2506 16.8788 24.2506C17.1713 24.3443 17.4638 24.4381 17.7563 24.5318C18.0487 24.6256 18.3412 24.7193 18.6337 24.9068V2.68896C18.3412 0.907784 16.7813 -0.21717 15.3189 0.439053ZM6.93454 24.0631H4.78969C4.20473 24.0631 3.71727 23.5944 3.71727 23.0319C3.71727 22.4694 4.20473 22.0007 4.78969 22.0007H6.83704C7.422 22.0007 7.90946 22.4694 7.90946 23.0319C7.90946 23.5944 7.422 24.0631 6.93454 24.0631ZM6.93454 18.6258H4.78969C4.20473 18.6258 3.71727 18.1571 3.71727 17.5946C3.71727 17.0321 4.20473 16.5634 4.78969 16.5634H6.83704C7.422 16.5634 7.90946 17.0321 7.90946 17.5946C7.90946 18.2508 7.422 18.6258 6.93454 18.6258ZM6.93454 13.5635H4.78969C4.20473 13.5635 3.71727 13.0948 3.71727 12.5323C3.71727 11.9698 4.20473 11.5011 4.78969 11.5011H6.83704C7.422 11.5011 7.90946 11.9698 7.90946 12.5323C7.90946 13.0948 7.422 13.5635 6.93454 13.5635ZM13.759 18.6258H11.7117C11.1267 18.6258 10.6393 18.1571 10.6393 17.5946C10.6393 17.0321 11.1267 16.5634 11.7117 16.5634H13.759C14.344 16.5634 14.8315 17.0321 14.8315 17.5946C14.8315 18.2508 14.344 18.6258 13.759 18.6258ZM13.759 13.5635H11.7117C11.1267 13.5635 10.6393 13.0948 10.6393 12.5323C10.6393 11.9698 11.1267 11.5011 11.7117 11.5011H13.759C14.344 11.5011 14.8315 11.9698 14.8315 12.5323C14.8315 13.0948 14.344 13.5635 13.759 13.5635Z" fill="url(#paint1_linear_7301_18241)"/>
<path fill-rule="evenodd" clip-rule="evenodd" d="M25.7507 32.594L26.6281 33.3439L27.4081 34.0939H27.5055L28.2855 33.3439L29.1629 32.594L30.0404 33.3439L30.8203 34.0939H33.8426L35.5 31.9377L33.7451 29.6878H20.3886C19.3161 27.1567 16.4888 25.563 13.3691 26.1255C11.1267 26.5942 9.27437 28.3754 8.7869 30.6253C8.00696 34.4689 10.9317 37.75 14.734 37.75C17.2688 37.75 19.5111 36.2501 20.3886 34.0939H23.9958L25.7507 32.594ZM12.0042 33.4377C11.1267 33.4377 10.3468 32.6877 10.3468 31.844C10.3468 31.0003 11.1267 30.2503 12.0042 30.2503C12.8816 30.2503 13.6615 31.0003 13.6615 31.844C13.6615 32.7815 12.8816 33.4377 12.0042 33.4377Z" fill="url(#paint2_linear_7301_18241)"/>
<defs>
<linearGradient id="paint0_linear_7301_18241" x1="35.5" y1="0.249999" x2="-1.91095" y2="35.1668" gradientUnits="userSpaceOnUse">
<stop stop-color="#FF6A00"/>
<stop offset="1" stop-color="#EE0979"/>
</linearGradient>
<linearGradient id="paint1_linear_7301_18241" x1="35.5" y1="0.249999" x2="-1.91095" y2="35.1668" gradientUnits="userSpaceOnUse">
<stop stop-color="#FF6A00"/>
<stop offset="1" stop-color="#EE0979"/>
</linearGradient>
<linearGradient id="paint2_linear_7301_18241" x1="35.5" y1="0.249999" x2="-1.91095" y2="35.1668" gradientUnits="userSpaceOnUse">
<stop stop-color="#FF6A00"/>
<stop offset="1" stop-color="#EE0979"/>
</linearGradient>
</defs>
</svg>
