<svg width="38" height="38" viewBox="0 0 38 38" fill="none" xmlns="http://www.w3.org/2000/svg">
<path d="M24.6901 4.56585C24.5963 4.18222 24.3149 3.9904 24.0336 3.89449L21.4076 3.03133L19.8132 0.729539C19.6257 0.441816 19.3443 0.25 18.9692 0.25C18.594 0.25 18.3127 0.441816 18.1251 0.729539L16.5307 3.03133L13.9048 3.89449C13.5296 3.9904 13.342 4.27813 13.2483 4.56585C13.1545 4.94948 13.1545 5.2372 13.4358 5.52493L15.0302 7.73081V10.5121C15.0302 10.8958 15.2177 11.1835 15.4991 11.3753C15.6867 11.4712 15.8742 11.5671 16.1556 11.5671C16.2494 11.5671 16.3432 11.5671 16.5307 11.4712L19.1567 10.608L21.7827 11.4712C22.1579 11.5671 22.4392 11.5671 22.7206 11.2794C23.0019 11.0876 23.1895 10.7039 23.1895 10.4162V7.6349L24.5963 5.52493C24.7838 5.2372 24.8776 4.85357 24.6901 4.56585Z" fill="url(#paint0_linear_7301_16444)"/>
<path d="M37.6327 13.773C37.5389 13.3893 37.2575 13.1975 36.9762 13.1016L34.3502 12.2385L32.7558 9.93667C32.5683 9.64895 32.1931 9.45713 31.9118 9.45713C31.5366 9.45713 31.2553 9.64895 31.0677 9.93667L29.4734 12.2385L26.8474 13.1016C26.4722 13.1975 26.2847 13.4853 26.1909 13.773C26.0971 14.1566 26.0971 14.4443 26.3785 14.7321L27.9728 16.9379V19.7193C27.9728 20.1029 28.1604 20.3906 28.4417 20.5824C28.7231 20.7742 29.0982 20.8702 29.3796 20.7742L32.0056 19.9111L34.6315 20.7742C34.7253 20.7742 34.8191 20.8702 35.0067 20.8702C35.1943 20.8702 35.4756 20.7742 35.6632 20.6783C35.9445 20.4865 36.1321 20.1029 36.1321 19.8152V17.0338L37.7265 14.828C37.7265 14.4443 37.8202 14.0607 37.6327 13.773Z" fill="url(#paint1_linear_7301_16444)"/>
<path d="M11.7479 12.9099C11.6541 12.5262 11.3727 12.3344 11.0914 12.2385L8.4654 11.3753L6.87105 9.07355C6.68348 8.78583 6.40213 8.68992 6.02699 8.68992C5.65184 8.68992 5.37049 8.78583 5.18292 9.07355L3.58857 11.3753L0.962587 12.2385C0.587446 12.3344 0.399876 12.6221 0.306091 12.9099C0.212306 13.2935 0.212306 13.5812 0.493661 13.8689L2.08801 16.1707V18.952C2.08801 19.3357 2.27558 19.6234 2.55693 19.8152C2.83829 20.007 3.21343 20.1029 3.49479 20.007L6.12077 19.1439L8.74676 20.007C8.84054 20.007 8.93433 20.1029 9.1219 20.1029C9.30947 20.1029 9.59082 20.007 9.77839 19.9111C10.0597 19.7193 10.2473 19.3357 10.2473 19.048V16.2666L11.8417 14.0608C11.8417 13.6771 11.8417 13.2935 11.7479 12.9099Z" fill="url(#paint2_linear_7301_16444)"/>
<path d="M26.941 24.1312H10.9037C10.2472 24.1312 9.68449 24.7066 9.68449 25.378V26.0493L10.9037 27.2961C11.654 28.0634 12.498 28.6388 13.5297 28.9266L16.3432 29.7897V29.5979C16.3432 28.8306 16.9059 28.2552 17.6562 28.2552H20.1884C20.9387 28.2552 21.5014 28.8306 21.5014 29.5979V29.7897L24.2212 28.9266C25.2528 28.6388 26.0969 28.0634 26.8472 27.2961L28.0664 25.9534V25.2821C28.1602 24.7066 27.5975 24.1312 26.941 24.1312Z" fill="url(#paint3_linear_7301_16444)"/>
<path d="M24.5964 29.8856L21.5953 30.8446V31.3242C21.5953 32.0914 21.0325 32.6669 20.2823 32.6669H17.7501C16.9998 32.6669 16.4371 32.0914 16.4371 31.3242V30.8446L13.3422 29.8856C12.2167 29.5019 11.1851 28.8306 10.341 27.9674L9.77833 27.392V36.5032C9.77833 37.1746 10.341 37.75 10.9975 37.75H26.941C27.5975 37.75 28.1602 37.1746 28.1602 36.5032V27.392L27.5975 27.9674C26.7534 28.9265 25.7218 29.5019 24.5964 29.8856Z" fill="url(#paint4_linear_7301_16444)"/>
<path d="M16.0618 20.6784C15.8742 20.6784 15.6867 20.8702 15.6867 21.062V23.172H22.2516V21.062C22.2516 20.8702 22.0641 20.6784 21.8765 20.6784H16.0618Z" fill="url(#paint5_linear_7301_16444)"/>
<path d="M20.1885 31.7078C20.3761 31.7078 20.5637 31.516 20.5637 31.3241V29.5978C20.5637 29.406 20.3761 29.2142 20.1885 29.2142H17.6563C17.4688 29.2142 17.2812 29.406 17.2812 29.5978V31.3241C17.2812 31.516 17.4688 31.7078 17.6563 31.7078H20.1885Z" fill="url(#paint6_linear_7301_16444)"/>
<defs>
<linearGradient id="paint0_linear_7301_16444" x1="37.7499" y1="0.249999" x2="0.24991" y2="37.7499" gradientUnits="userSpaceOnUse">
<stop stop-color="#FF6A00"/>
<stop offset="1" stop-color="#EE0979"/>
</linearGradient>
<linearGradient id="paint1_linear_7301_16444" x1="37.7499" y1="0.249999" x2="0.24991" y2="37.7499" gradientUnits="userSpaceOnUse">
<stop stop-color="#FF6A00"/>
<stop offset="1" stop-color="#EE0979"/>
</linearGradient>
<linearGradient id="paint2_linear_7301_16444" x1="37.7499" y1="0.249999" x2="0.24991" y2="37.7499" gradientUnits="userSpaceOnUse">
<stop stop-color="#FF6A00"/>
<stop offset="1" stop-color="#EE0979"/>
</linearGradient>
<linearGradient id="paint3_linear_7301_16444" x1="37.7499" y1="0.249999" x2="0.24991" y2="37.7499" gradientUnits="userSpaceOnUse">
<stop stop-color="#FF6A00"/>
<stop offset="1" stop-color="#EE0979"/>
</linearGradient>
<linearGradient id="paint4_linear_7301_16444" x1="37.7499" y1="0.249999" x2="0.24991" y2="37.7499" gradientUnits="userSpaceOnUse">
<stop stop-color="#FF6A00"/>
<stop offset="1" stop-color="#EE0979"/>
</linearGradient>
<linearGradient id="paint5_linear_7301_16444" x1="37.7499" y1="0.249999" x2="0.24991" y2="37.7499" gradientUnits="userSpaceOnUse">
<stop stop-color="#FF6A00"/>
<stop offset="1" stop-color="#EE0979"/>
</linearGradient>
<linearGradient id="paint6_linear_7301_16444" x1="37.7499" y1="0.249999" x2="0.24991" y2="37.7499" gradientUnits="userSpaceOnUse">
<stop stop-color="#FF6A00"/>
<stop offset="1" stop-color="#EE0979"/>
</linearGradient>
</defs>
</svg>
