<svg width="40" height="40" viewBox="0 0 40 40" fill="none" xmlns="http://www.w3.org/2000/svg">
<rect width="40" height="40" fill="white"/>
<path d="M35.9346 25.4145C35.6434 25.4145 35.3522 25.5147 35.0609 25.615L28.5566 28.3222C28.5566 28.4225 28.5566 28.5227 28.5566 28.623C28.5566 30.127 27.2946 31.4305 25.8384 31.4305H15.7421C15.3537 31.4305 15.0625 31.1297 15.0625 30.7286C15.0625 30.3276 15.3537 30.0267 15.7421 30.0267H25.8384C26.5179 30.0267 27.1975 29.4251 27.1975 28.623C27.1975 28.5227 27.1975 28.3222 27.1975 28.2219C27.0033 27.6203 26.5179 27.2193 25.9354 27.2193H19.9165C19.8194 27.2193 19.7223 27.2193 19.7223 27.2193L13.8005 25.1137C12.5384 24.7126 11.0822 24.6123 9.91728 25.0134L1.47134 27.4198H1.37426C1.37426 28.8235 1.1801 37.7473 1.27718 37.6471L7.00489 35.6417C7.49029 35.4412 7.8786 35.3409 8.55816 35.3409C9.04356 35.3409 9.3348 35.4412 9.72312 35.5414L19.4311 38.5495C19.8194 38.6497 20.1107 38.75 20.596 38.75C21.4698 38.75 22.1493 38.5495 22.8289 38.0481L38.75 28.2219C38.1675 26.8182 37.6821 25.4145 35.9346 25.4145Z" fill="url(#paint0_linear_7081_252292)"/>
<path d="M20.8874 1.25C15.0626 1.25 10.4027 6.16309 10.4027 12.0789C10.4027 17.9946 15.1597 22.9077 20.8874 22.9077C26.6151 22.9077 31.372 17.9946 31.372 12.0789C31.372 6.16309 26.6151 1.25 20.8874 1.25ZM26.7121 17.393C26.518 17.5936 26.2267 17.7941 25.9355 17.7941C25.7413 17.7941 25.4501 17.6938 25.353 17.5936L20.2078 13.1818C20.0136 12.9813 19.8195 12.6805 19.8195 12.3797V5.46122C19.8195 4.85962 20.2078 4.45855 20.7903 4.45855C21.3728 4.45855 21.7611 4.85962 21.7611 5.46122V11.7781L26.518 15.889C27.0034 16.2901 27.1005 16.992 26.7121 17.393Z" fill="url(#paint1_linear_7081_252292)"/>
<defs>
<linearGradient id="paint0_linear_7081_252292" x1="38.75" y1="1.25" x2="1.24996" y2="38.75" gradientUnits="userSpaceOnUse">
<stop stop-color="#FF6A00"/>
<stop offset="1" stop-color="#EE0979"/>
</linearGradient>
<linearGradient id="paint1_linear_7081_252292" x1="38.75" y1="1.25" x2="1.24996" y2="38.75" gradientUnits="userSpaceOnUse">
<stop stop-color="#FF6A00"/>
<stop offset="1" stop-color="#EE0979"/>
</linearGradient>
</defs>
</svg>
