<svg width="38" height="30" viewBox="0 0 38 30" fill="none" xmlns="http://www.w3.org/2000/svg">
<path d="M34.0737 0H1.75328C0.907683 0 0.25 0.67524 0.25 1.54341V3.95498H35.577V1.54341C35.577 0.67524 34.9193 0 34.0737 0Z" fill="url(#paint0_linear_7301_15602)"/>
<path d="M20.8261 18.135C20.8261 16.688 21.6717 15.434 22.987 14.9517V13.9871C22.987 12.0578 23.6447 10.225 24.7722 8.87454H0.25V21.9935C0.25 22.8617 0.907683 23.5369 1.75328 23.5369H20.7321V18.135H20.8261ZM3.25655 20.643V15.9163H13.0278V20.643H3.25655Z" fill="url(#paint1_linear_7301_15602)"/>
<path d="M36.7984 16.9774H27.2151V13.7942C27.2151 12.1543 28.2486 10.7074 29.7518 10.418C31.7249 10.1286 33.604 11.5755 33.604 13.6977C33.604 14.3729 34.1677 14.7588 34.6375 14.7588C35.2012 14.7588 35.671 14.2765 35.671 13.6977C35.671 10.5144 33.0403 7.90993 29.8458 8.29578C27.1211 8.58517 25.0541 11.0932 25.0541 13.9871V17.0739H24.0206C23.4569 17.0739 22.9871 17.5562 22.9871 18.135V28.9388C22.9871 29.5176 23.5508 29.9999 24.0206 29.9999H36.7045C37.3622 29.9999 37.738 29.4212 37.738 28.9388V18.135C37.8319 17.4598 37.3622 16.9774 36.7984 16.9774ZM31.443 24.3086V25.7556C31.443 26.4308 30.9732 26.8167 30.4095 26.8167C29.7518 26.8167 29.376 26.3343 29.376 25.7556V24.3086C28.7183 23.8263 28.3425 23.2475 28.3425 22.4758C28.3425 21.0289 29.6579 20.0643 30.9733 20.4501C31.7249 20.643 32.3826 21.3183 32.5705 22.09C32.7584 22.9581 32.1947 23.8263 31.443 24.3086Z" fill="url(#paint2_linear_7301_15602)"/>
<defs>
<linearGradient id="paint0_linear_7301_15602" x1="37.75" y1="-8.94068e-07" x2="8.48182" y2="36.5854" gradientUnits="userSpaceOnUse">
<stop stop-color="#FF6A00"/>
<stop offset="1" stop-color="#EE0979"/>
</linearGradient>
<linearGradient id="paint1_linear_7301_15602" x1="37.75" y1="-8.94068e-07" x2="8.48182" y2="36.5854" gradientUnits="userSpaceOnUse">
<stop stop-color="#FF6A00"/>
<stop offset="1" stop-color="#EE0979"/>
</linearGradient>
<linearGradient id="paint2_linear_7301_15602" x1="37.75" y1="-8.94068e-07" x2="8.48182" y2="36.5854" gradientUnits="userSpaceOnUse">
<stop stop-color="#FF6A00"/>
<stop offset="1" stop-color="#EE0979"/>
</linearGradient>
</defs>
</svg>
