<svg width="15" height="18" viewBox="0 0 15 18" fill="none" xmlns="http://www.w3.org/2000/svg">
<path d="M14 13.0104V1H3.16728C1.97141 1 1 1.91826 1 3.04869V14.9512C1 14.9686 1.00368 14.986 1.00368 15.0034M11.623 6.94463C11.623 8.94463 9.90829 10.5655 7.79253 10.5655C5.67676 10.5655 3.96207 8.94115 3.96207 6.94463C3.96207 4.94812 5.67676 3.3203 7.79253 3.3203M6.67393 6.28331L7.80724 7.71287L11.4611 4.18592M12.8483 15.0035C12.8483 14.1652 13.3046 13.4313 13.9963 13.007H3.1636C1.98613 13.007 1.02944 13.8974 1 15.0035C1.02944 16.1096 1.98613 17 3.1636 17H13.9963C13.3082 16.5757 12.8483 15.8417 12.8483 15.0035Z" stroke="url(#paint0_linear_3530_20087)" stroke-miterlimit="10" stroke-linecap="round" stroke-linejoin="round"/>
<defs>
<linearGradient id="paint0_linear_3530_20087" x1="14" y1="1" x2="-1.66118" y2="13.7247" gradientUnits="userSpaceOnUse">
<stop stop-color="#FF6A00"/>
<stop offset="1" stop-color="#EE0979"/>
</linearGradient>
</defs>
</svg>
