<svg width="46" height="46" viewBox="0 0 46 46" fill="none" xmlns="http://www.w3.org/2000/svg">
<path d="M22.3813 34.5538C22.6063 33.98 23.2475 33.6988 23.8213 33.9125L26.0825 34.7563L23.2363 24.4513L13.9325 30.3575C14.5963 30.65 15.4063 30.9875 16.3288 31.3363C16.9025 31.55 17.195 32.18 16.9925 32.765C14.6863 39.3463 10.6025 41.9113 7.18252 42.8563C9.90502 43.4188 12.425 43.2613 14.6863 42.3613C20.0863 40.235 22.3588 34.61 22.3813 34.5538Z" fill="#343434"/>
<path d="M23 0.5C10.5912 0.5 0.5 10.5912 0.5 23C0.5 29.8175 3.56 35.915 8.36375 40.0438C9.005 39.74 9.64625 39.3463 10.2762 38.8512C9.28625 38.0638 8.375 37.175 7.55375 36.2188C8.67875 35.6675 9.9275 35.1838 11.3 34.7787C11.5813 35.5325 11.8962 36.2412 12.2225 36.9275C12.7063 36.3312 13.1675 35.6562 13.595 34.88C13.505 34.6662 13.415 34.4637 13.325 34.2388C13.5387 34.1938 13.775 34.16 13.9888 34.1038C14.1575 33.755 14.3263 33.395 14.4838 33.0125C12.4813 32.2025 11.1537 31.505 11.0863 31.4713C10.7262 31.28 10.5012 30.92 10.49 30.5262C10.4788 30.1213 10.67 29.75 11.0075 29.5363L11.9187 28.9625C11.5812 27.0725 11.3787 25.0812 11.3787 23C11.3787 19.7488 11.8287 16.6887 12.605 13.9662C14.36 14.3825 16.2275 14.6862 18.185 14.8888C17.8925 18.77 17.8812 22.145 17.8812 23.0112C17.8812 23.36 17.8813 24.1362 17.9037 25.1825L20.03 23.8325C20.03 23.5513 20.0188 23.2925 20.0188 23.0112C20.0188 20.0637 20.1313 17.4088 20.3113 15.0575C21.1888 15.0912 22.0888 15.125 23 15.125C23.9112 15.125 24.8112 15.1025 25.7 15.0575C25.88 17.4088 25.9925 20.0637 25.9925 23.0112C25.9925 23.99 25.9812 24.9238 25.9587 25.8463L26.9825 29.57L28.0737 33.5075C29.6825 33.6875 31.2238 33.935 32.6862 34.2725C31.0888 38.48 28.6138 41.5738 25.7337 42.7887C26.3188 41.3825 26.7575 39.5375 27.095 37.535L25.025 36.77C24.395 40.595 23.5963 42.8563 23 43.3288C22.595 43.0025 22.1 41.855 21.6275 39.9538C21.3913 40.235 21.1438 40.505 20.885 40.775C20.8175 40.8425 20.75 40.91 20.6825 40.9775C20.435 41.225 20.1763 41.4838 19.9062 41.7313C20.03 42.1025 20.1537 42.4513 20.2887 42.7775C19.94 42.6313 19.6025 42.4513 19.265 42.2487C18.86 42.575 18.4325 42.8787 17.9713 43.1712C17.8587 43.2388 17.7575 43.3175 17.645 43.385C17.3975 43.5312 17.15 43.6775 16.88 43.8125C16.5425 43.9925 16.1937 44.1612 15.8337 44.3075C18.0837 45.0725 20.4912 45.5 23 45.5C35.4087 45.5 45.5 35.4087 45.5 23C45.5 10.5912 35.4087 0.5 23 0.5ZM9.23 23C9.23 26.4988 9.73625 29.795 10.6137 32.7537C8.99375 33.2375 7.52 33.8225 6.215 34.4975C3.965 31.2237 2.6375 27.2638 2.6375 23C2.6375 18.7925 3.92 14.8775 6.11375 11.6375C7.43 12.3237 8.915 12.9313 10.5575 13.4263C9.71375 16.3288 9.23 19.5688 9.23 23ZM11.2325 11.3787C9.8375 10.9625 8.56625 10.4675 7.44125 9.905C9.6125 7.32875 12.4138 5.30375 15.6088 4.055C13.82 5.91125 12.335 8.42 11.2325 11.3787ZM18.3538 12.74C16.5763 12.56 14.8663 12.2788 13.2575 11.9075C14.855 7.62125 17.3525 4.46 20.2775 3.2225C19.2875 5.61875 18.7025 9.23 18.3538 12.74ZM23 12.9762C22.1562 12.9762 21.3238 12.9537 20.4913 12.9088C21.1213 6.845 22.235 3.29 23 2.6825C23.765 3.29 24.8788 6.845 25.5088 12.9088C24.6763 12.9537 23.8438 12.9762 23 12.9762ZM38.57 9.905C37.445 10.4675 36.1737 10.9625 34.7675 11.3787C33.6763 8.42 32.18 5.91125 30.4025 4.055C33.5863 5.30375 36.3875 7.32875 38.57 9.905ZM25.7225 3.23375C28.6475 4.47125 31.145 7.6325 32.7425 11.9187C31.145 12.29 29.435 12.5713 27.6462 12.7513C27.2975 9.23 26.7125 5.61875 25.7225 3.23375ZM27.815 31.3025C28.1188 27.3425 28.1413 23.8775 28.1413 23C28.1413 22.1338 28.1187 18.7588 27.8375 14.8775C29.795 14.6862 31.6625 14.3825 33.4175 13.9662C34.1937 16.6887 34.6438 19.7488 34.6438 23C34.6438 26.3188 34.1825 29.435 33.3725 32.2025C31.6175 31.7975 29.7613 31.4937 27.815 31.3025ZM30.4025 41.945C32.1462 40.1225 33.62 37.67 34.7113 34.79C36.0837 35.195 37.3438 35.6787 38.4575 36.2188C36.2975 38.7388 33.53 40.7188 30.4025 41.945ZM35.3862 32.7425C36.2637 29.7837 36.7588 26.4875 36.7588 23C36.7588 19.5688 36.275 16.34 35.4312 13.4263C37.0737 12.9313 38.5475 12.3237 39.875 11.6375C42.0687 14.8888 43.3512 18.7925 43.3512 23C43.3512 27.2638 42.0238 31.2237 39.7738 34.4975C38.48 33.8225 37.0062 33.2262 35.3862 32.7425Z" fill="#343434"/>
</svg>
