<svg width="28" height="45" viewBox="0 0 28 45" fill="none" xmlns="http://www.w3.org/2000/svg">
<path d="M20.5971 35.1991H7.40175C6.74433 35.1991 6.21605 34.6816 6.21605 34.0516C6.21605 33.4216 6.74433 32.9041 7.40175 32.9041H20.6088C21.2663 32.9041 21.7945 33.4216 21.7945 34.0516C21.7828 34.6816 21.2545 35.1991 20.5971 35.1991Z" fill="#343434"/>
<path d="M20.5971 38.8328H7.40175C6.74433 38.8328 6.21605 38.3153 6.21605 37.6853C6.21605 37.0553 6.74433 36.5378 7.40175 36.5378H20.6088C21.2663 36.5378 21.7945 37.0553 21.7945 37.6853C21.7828 38.3153 21.2545 38.8328 20.5971 38.8328Z" fill="#343434"/>
<path d="M13.9759 44.9978C11.5106 44.9978 10.7358 44.6603 10.6067 44.5928C10.5597 44.5703 10.5128 44.5366 10.4775 44.5028L7.30783 41.4991C7.13174 41.3303 7.08478 41.0828 7.1787 40.8691C7.27262 40.6553 7.48393 40.5091 7.73046 40.5091H20.2801C20.5149 40.5091 20.738 40.6441 20.8319 40.8691C20.9258 41.0828 20.8671 41.3303 20.7028 41.4991L17.5918 44.4916C17.5448 44.5366 17.4861 44.5816 17.4274 44.6041C17.3217 44.6491 16.4765 44.9978 13.9759 44.9978Z" fill="#343434"/>
<path d="M14.6216 9.8641H13.3537C12.2385 9.8641 11.3345 10.7416 11.3345 11.8216V13.4978H16.6291V11.8103C16.6408 10.7303 15.7369 9.8641 14.6216 9.8641Z" fill="#343434"/>
<path d="M13.9994 16.0178C13.2129 16.0178 12.5789 16.6366 12.5789 17.3903C12.5789 17.7953 12.755 18.1666 13.0603 18.4253L12.8489 19.8316C12.8372 19.9103 12.8607 19.9891 12.9194 20.0453C12.9781 20.1016 13.0485 20.1353 13.1307 20.1353H14.8329C14.9151 20.1353 14.9973 20.1016 15.0443 20.0453C15.103 19.9891 15.1264 19.9103 15.1147 19.8316L14.9269 18.4253C15.2321 18.1666 15.4082 17.7841 15.4082 17.3903C15.4199 16.6366 14.786 16.0178 13.9994 16.0178Z" fill="#343434"/>
<path d="M11.2876 0.256596C5.94604 1.2691 1.67281 5.48785 0.721902 10.6853C-0.0411744 14.8253 1.21497 18.6953 3.70377 21.5303C5.64081 23.7353 6.59172 26.5928 6.59172 29.4953V31.2053H21.4071V29.9116C21.4071 26.8628 22.3228 23.8141 24.342 21.4853C26.3143 19.2128 27.5 16.2878 27.5 13.0816C27.5 4.99285 19.9279 -1.37465 11.2876 0.256596ZM4.76033 11.0228C4.67816 11.2591 4.44336 11.4166 4.19683 11.4166C4.13813 11.4166 4.0677 11.4053 4.009 11.3828C3.70377 11.2816 3.52767 10.9553 3.63333 10.6516C3.65681 10.5728 6.32171 3.10285 13.929 2.99035C14.2342 2.99035 14.5277 3.23785 14.5277 3.55285C14.5277 3.86785 14.2694 4.1266 13.9407 4.13785C7.16696 4.2391 4.78381 10.9553 4.76033 11.0228ZM19.9984 21.5641C19.9984 22.1716 19.4701 22.6778 18.8127 22.6778H9.18618C8.52876 22.6778 8.00047 22.1828 8.00047 21.5641V14.6116C8.00047 13.9928 8.52876 13.4978 9.18618 13.4978H9.65576V11.6078C9.65576 9.76285 11.2054 8.25535 13.1072 8.25535H14.8447C16.7582 8.25535 18.2961 9.7516 18.2961 11.6078V13.4978H18.8127C19.4701 13.4978 19.9984 13.9928 19.9984 14.6116V21.5641Z" fill="#343434"/>
</svg>
