<svg width="46" height="46" viewBox="0 0 46 46" fill="none" xmlns="http://www.w3.org/2000/svg">
<path d="M45.4986 23.5458C45.5885 19.7311 41.4498 16.2989 35.1631 14.2622C35.2193 8.81583 33.9147 4.44974 31.418 2.44674C31.2943 1.35521 30.3833 0.5 29.2587 0.5C28.5839 0.5 27.9766 0.815079 27.5829 1.3102C24.8725 1.54651 21.926 3.63953 19.2493 7.04914C16.6176 5.78882 14.1322 5.11365 12.0178 5.11365C10.1734 5.11365 8.61014 5.63128 7.47425 6.71155C5.52861 8.56827 5.21371 11.7866 6.23714 15.59C2.73949 17.3792 0.568917 19.7761 0.501438 22.4655C0.411466 26.2802 4.55017 29.7123 10.8369 31.7491C10.792 36.9479 11.9728 41.1452 14.2446 43.2607C14.2446 43.2832 14.2334 43.3057 14.2334 43.3282C14.2334 44.521 15.2006 45.5 16.4039 45.5C17.0562 45.5 17.6411 45.1962 18.0347 44.7348C20.8351 44.6785 23.9391 42.5293 26.7395 38.9621C29.3711 40.2112 31.8566 40.8863 33.9709 40.8863C35.8154 40.8863 37.3899 40.38 38.5145 39.2997C40.4601 37.443 40.775 34.2247 39.7516 30.4212C43.2605 28.632 45.4311 26.2352 45.4986 23.5458ZM33.9597 23.332C35.2868 25.38 36.2877 27.3605 36.9737 29.1947C35.388 29.8248 33.5548 30.365 31.4967 30.7476C32.1265 29.2847 32.7001 27.7543 33.1949 26.1452C33.4873 25.2112 33.7348 24.2659 33.9597 23.332ZM30.7207 15.635C30.642 15.545 30.552 15.4662 30.4733 15.3762C31.2943 15.545 32.0928 15.7251 32.8575 15.9276C32.8125 16.5578 32.7563 17.1879 32.6888 17.8406C32.059 17.0979 31.418 16.3665 30.7207 15.635ZM27.313 3.59452C27.6617 4.32596 28.4039 4.83233 29.2587 4.83233C29.6635 4.83233 30.0347 4.7198 30.3496 4.52851C31.463 5.65379 32.284 7.65679 32.6776 10.3462C32.8238 11.3815 32.9025 12.473 32.9138 13.6208C31.238 13.1932 29.4611 12.8668 27.5717 12.6418C25.4911 10.8301 23.3543 9.2997 21.2849 8.11815C23.388 5.54126 25.5361 3.96587 27.313 3.59452ZM19.9353 9.94111C21.1612 10.6275 22.3983 11.4377 23.6354 12.3492C23.5117 12.3492 23.3768 12.338 23.253 12.3267C22.8707 12.3155 22.4883 12.3155 22.1059 12.3155C21.9035 12.3155 21.7235 12.3155 21.7235 12.3155C20.4414 12.3155 19.5867 12.3717 18.3721 12.473C18.8782 11.5728 19.3955 10.7176 19.9353 9.94111ZM9.02626 8.33196C9.70105 7.69055 10.7132 7.36422 12.0178 7.36422C13.7273 7.36422 15.7517 7.9156 17.8997 8.8946C17.1125 10.0761 16.3477 11.3702 15.6504 12.7768C12.9288 13.1707 10.4433 13.8121 8.30649 14.656C7.57547 11.7416 7.82289 9.47974 9.02626 8.33196ZM15.5267 30.6238C14.7057 30.455 13.9185 30.2862 13.165 30.0836C13.1987 29.4647 13.2549 28.8346 13.3337 28.1819C13.9522 28.9134 14.5933 29.6448 15.2793 30.365C15.358 30.455 15.448 30.545 15.5267 30.6238ZM10.9494 29.3972C5.85476 27.608 2.6945 24.9411 2.75073 22.5218C2.78447 20.8901 4.31399 19.1797 6.95691 17.7618C7.93535 20.3049 9.43114 23.0281 11.4105 25.7401C11.1968 26.9891 11.0394 28.2044 10.9494 29.3972ZM12.0291 22.7018C10.7357 20.7213 9.72354 18.7296 9.00377 16.8166C10.5895 16.1752 12.4339 15.635 14.5033 15.2524C13.8735 16.7153 13.2999 18.2457 12.8051 19.8548C12.5127 20.8113 12.2652 21.7566 12.0291 22.7018ZM18.3833 42.4505C18.0459 41.6965 17.2924 41.1677 16.4039 41.1677C16.089 41.1677 15.7966 41.2352 15.5267 41.359C14.0759 39.7498 13.165 36.5315 13.1087 32.413C14.7732 32.8293 16.5502 33.1669 18.4171 33.3807C20.4977 35.1924 22.6345 36.7228 24.7038 37.9044C22.4883 40.6275 20.2053 42.2142 18.3833 42.4505ZM26.0647 36.0701C24.8388 35.3837 23.6017 34.5735 22.3646 33.662C22.4883 33.662 22.6232 33.6733 22.747 33.6845C23.1293 33.6958 23.523 33.6958 23.9053 33.6958C25.1874 33.6958 26.4246 33.6395 27.6392 33.5383C27.1218 34.4385 26.5932 35.2937 26.0647 36.0701ZM26.5258 27.8331C25.8622 28.1707 25.1874 28.5083 24.3552 28.677V29.8586C24.3552 30.1962 24.0178 30.5338 23.6917 30.5338H22.6907C22.3533 30.5338 22.0272 30.1962 22.0272 29.8586V28.677C20.194 28.3395 18.8557 27.4955 18.3496 25.9651C18.1809 25.6275 18.5183 25.2899 18.8557 25.2899H19.8566C20.194 25.2899 20.5202 25.4587 20.6889 25.7963C21.0262 26.6403 21.8585 26.9779 23.1968 26.9779C24.7038 26.9779 25.3674 26.4715 25.3674 25.4475C25.3674 24.9411 25.1987 24.6035 24.8613 24.4347C24.5239 24.2659 23.6917 23.9284 22.3533 23.7596C21.015 23.422 20.1828 23.0844 19.508 22.578C19.0019 22.0716 18.6757 21.3965 18.6757 20.5413C18.6757 19.6973 19.0131 19.0109 19.8454 18.3357C20.3515 17.8293 21.1837 17.6605 22.0159 17.4917V16.1414C22.0159 15.8038 22.3533 15.4662 22.6795 15.4662H23.6804C24.0178 15.4662 24.344 15.8038 24.344 16.1414V17.503C26.0197 17.6718 26.8519 18.347 27.3468 19.371C27.5155 19.8773 27.1781 20.2149 26.6832 20.2149H25.5136C25.3449 20.2149 25.0075 20.0461 24.85 19.8773C24.6813 19.371 24.0178 19.2022 23.0169 19.2022C21.6785 19.2022 21.015 19.5398 21.015 20.2149C21.015 20.7213 21.1837 20.8901 21.6785 21.0589C22.0159 21.2277 22.8482 21.3965 24.1865 21.7341C25.3561 21.9028 26.3571 22.4092 26.8632 22.9156C27.3693 23.422 27.6954 24.2772 27.6954 25.1212C27.6954 26.3815 27.538 27.1579 26.5258 27.8331ZM36.9737 37.6793C36.299 38.3207 35.2868 38.647 33.9822 38.647C32.2727 38.647 30.2484 38.0956 28.1003 37.1167C28.8875 35.9351 29.6523 34.641 30.3496 33.2344C33.06 32.8406 35.5342 32.1992 37.6598 31.3777C38.3796 34.2472 38.1659 36.5315 36.9737 37.6793ZM39.0431 28.2494C38.0759 25.7063 36.5689 22.9831 34.5895 20.2712C34.8032 19.0221 34.9494 17.7956 35.0506 16.6028C40.1452 18.3807 43.3055 21.0589 43.2493 23.4782C43.2043 25.1212 41.686 26.8316 39.0431 28.2494Z" fill="#343434"/>
</svg>
