<svg width="48" height="48" viewBox="0 0 48 48" fill="none" xmlns="http://www.w3.org/2000/svg">
<path fill-rule="evenodd" clip-rule="evenodd" d="M21.845 1.5L4.66249 11.2414L12.7295 15.8167L30.0817 5.94825L22.234 1.5H21.845ZM31.7837 6.76725L14.4327 16.6358L20.3793 20.1334L37.7574 10.2806L31.7837 6.76725ZM12.1019 33.7695L17.7487 36.9701L18.572 35.5684L12.9263 32.3666L12.1019 33.7695ZM10.7888 31.1561L9.96551 32.5579L11.4606 33.4061L12.2862 32.0044L10.7888 31.1561ZM11.049 21.4811L13.4296 22.9549V18.0589L20.3793 21.9491V41.6535L3 31.8019V12.0964L11.049 16.6594V21.4811ZM21.9965 21.7444V41.4487L25.4595 39.1279C25.4538 39.104 25.4464 39.0807 25.4389 39.0573L25.4389 39.0572C25.4302 39.0298 25.4215 39.0023 25.4154 38.9738C25.4127 38.9624 25.4098 38.9511 25.4068 38.9399L25.4067 38.9398L25.4067 38.9398L25.4067 38.9398C25.402 38.9222 25.3973 38.9045 25.3939 38.886C25.3283 38.5901 25.2797 38.2875 25.2412 37.9815C25.2398 37.9715 25.2382 37.9614 25.2365 37.9513L25.2306 37.9167C25.2246 37.8826 25.2187 37.8482 25.2152 37.8139C25.1768 37.4584 25.1541 37.0984 25.1541 36.7327C25.1541 31.1888 29.6723 26.6944 35.2456 26.6944C35.4138 26.6944 35.5801 26.7059 35.7458 26.7173L35.7463 26.7173L35.7468 26.7174C35.7947 26.7207 35.8424 26.724 35.8902 26.727C36.2193 26.7484 36.5428 26.7844 36.8617 26.835C36.864 26.8361 36.8674 26.8361 36.8674 26.8361C37.184 26.8867 37.495 26.9531 37.8004 27.033L37.806 27.0339C37.8098 27.0344 37.8136 27.0349 37.8174 27.0364C38.1182 27.1151 38.4122 27.2063 38.7006 27.312L38.7368 27.3255C38.954 27.4054 39.1654 27.4988 39.3758 27.5921V11.8916L21.9965 21.7444ZM29.8238 21.5869L29.8634 21.615H29.8148L29.8238 21.5869ZM26.7386 38.3719C26.7035 38.049 26.6832 37.7216 26.6832 37.3909C26.6832 32.3599 30.7829 28.2806 35.8405 28.2806C35.9972 28.2806 36.1505 28.2911 36.3041 28.3016L36.3671 28.3059L36.4286 28.3099C36.726 28.329 37.02 28.3616 37.3084 28.4077C37.3088 28.4079 37.3092 28.4081 37.3096 28.4082C37.3102 28.4084 37.3107 28.4085 37.3112 28.4086C37.3128 28.4089 37.3141 28.4089 37.3141 28.4089C37.6013 28.455 37.8841 28.5135 38.1612 28.5855C38.1668 28.5877 38.1713 28.5889 38.1759 28.5911C38.4484 28.662 38.7165 28.7453 38.9777 28.8398C38.989 28.8442 39.0003 28.8476 39.0116 28.8521C39.2661 28.9466 39.5138 29.0501 39.7581 29.1649C39.7647 29.1678 39.7711 29.1708 39.7772 29.1737C39.7851 29.1776 39.7926 29.1814 39.8002 29.1852L39.8135 29.1919C40.0498 29.3032 40.2772 29.4259 40.5011 29.5575L40.5309 29.5759C40.5376 29.5801 40.5444 29.5843 40.5512 29.5885C40.5608 29.5944 40.5705 29.6002 40.5803 29.6059C40.7929 29.7341 41.001 29.8691 41.2 30.0131C41.2231 30.0296 41.2457 30.0466 41.2681 30.0634L41.3063 30.0919C41.4952 30.2325 41.6784 30.3765 41.8548 30.5295L41.8753 30.5479L41.9214 30.59L41.9473 30.6137L41.986 30.6488C42.1489 30.795 42.3083 30.9457 42.4599 31.1055C42.4918 31.1386 42.5228 31.1731 42.5537 31.2075C42.5722 31.228 42.5906 31.2485 42.6092 31.2686C42.7483 31.4194 42.884 31.5735 43.0129 31.7344C43.0479 31.7784 43.0815 31.8242 43.1152 31.8701L43.1153 31.8703L43.1154 31.8704C43.1351 31.8971 43.1547 31.9239 43.1747 31.9504C43.29 32.1034 43.4031 32.2564 43.5083 32.4161C43.5494 32.4782 43.5877 32.5425 43.6259 32.6066C43.6424 32.6343 43.6589 32.662 43.6757 32.6895L43.6992 32.7282C43.7829 32.8658 43.8659 33.0022 43.9414 33.1462C43.9807 33.219 44.0159 33.2938 44.0511 33.3686C44.0686 33.4059 44.0862 33.4433 44.1043 33.4804C44.124 33.5222 44.1441 33.5638 44.1642 33.6053C44.2144 33.7094 44.2646 33.8134 44.309 33.9202C44.3448 34.0083 44.3766 34.0989 44.4084 34.1896L44.4084 34.1897L44.4085 34.1899C44.4238 34.2335 44.4391 34.2773 44.4549 34.3208C44.4686 34.359 44.4827 34.3971 44.4968 34.4352L44.4968 34.4352L44.4968 34.4353C44.5338 34.5353 44.5708 34.6355 44.6019 34.7381C44.6373 34.853 44.6658 34.9698 44.6944 35.087C44.7042 35.1271 44.714 35.1672 44.724 35.2072C44.7352 35.2529 44.7471 35.2979 44.7589 35.3427C44.7807 35.4248 44.8022 35.5064 44.819 35.5909C44.849 35.7371 44.8693 35.8861 44.8897 36.0351L44.8897 36.0352L44.8897 36.0352C44.8955 36.0776 44.9013 36.12 44.9073 36.1624C44.9131 36.2082 44.9203 36.2534 44.9274 36.2985L44.9275 36.2987C44.9368 36.3576 44.9461 36.4164 44.9525 36.4762C44.983 36.7766 45 37.0815 45 37.3909C45 42.4219 40.8992 46.5 35.8405 46.5C35.5588 46.5 35.2795 46.4831 35.0036 46.4584C34.9493 46.4531 34.8951 46.4469 34.8409 46.4406L34.7593 46.4314C34.5534 46.4066 34.3521 46.3751 34.1497 46.338C34.1223 46.3328 34.0948 46.328 34.0675 46.3232L34.067 46.3231L34.0668 46.3231C34.0177 46.3145 33.969 46.3061 33.9212 46.2952C33.6623 46.2412 33.4078 46.1771 33.1601 46.1006C33.1103 46.0858 33.0618 46.0685 33.0126 46.051L32.9588 46.032C32.7767 45.9712 32.5946 45.9071 32.4193 45.8363C32.3187 45.7957 32.2214 45.7541 32.123 45.7103C31.9783 45.6461 31.8358 45.5775 31.6944 45.5044C31.662 45.4879 31.6294 45.4719 31.5969 45.4559C31.5318 45.4239 31.4667 45.3919 31.4026 45.3559C31.2047 45.2468 31.0113 45.1286 30.8224 45.006C30.715 44.9348 30.6113 44.8599 30.5072 44.7846L30.4741 44.7607C30.3882 44.7 30.3033 44.637 30.2208 44.5718C30.0986 44.4761 29.9765 44.3794 29.8589 44.2781C29.8257 44.2499 29.7946 44.2212 29.7636 44.1926L29.7635 44.1926L29.7633 44.1924C29.7486 44.1788 29.734 44.1653 29.7191 44.1519C29.713 44.1463 29.7068 44.1408 29.7005 44.1353C29.2787 43.7539 28.8942 43.3376 28.5504 42.8865C28.5255 42.855 28.5017 42.8224 28.478 42.7897C27.9204 42.0394 27.4748 41.2024 27.1684 40.299L27.1661 40.2922C27.07 40.0087 26.9885 39.7196 26.9207 39.4249C26.9182 39.4152 26.9157 39.4057 26.9131 39.3962C26.9085 39.3792 26.9039 39.3623 26.9003 39.345C26.8415 39.0761 26.7963 38.8016 26.7612 38.5249C26.7584 38.499 26.7542 38.4738 26.7499 38.4485L26.7499 38.4484C26.7457 38.4231 26.7414 38.3978 26.7386 38.3719ZM28.513 34.3759H33.0142V35.691H31.57V39.3697H29.9572V35.691H28.513V34.3759ZM35.3767 35.9317L34.8656 37.6609H35.8789L35.3767 35.9317ZM41.2667 34.3759H43.0389L41.4126 36.7721L43.0932 39.3697H41.2735L40.5135 38.0164L39.749 39.3697H36.3584L36.1707 38.7082H34.5726L34.3781 39.3697H32.7937L34.5591 34.3759H36.1922L37.9361 39.309L39.6201 36.7721L38.048 34.3759H39.8621L40.5339 35.6404L41.2667 34.3759Z" fill="#050505"/>
</svg>
