<svg width="46" height="42" viewBox="0 0 46 42" fill="none" xmlns="http://www.w3.org/2000/svg">
<path d="M16.0363 14.6659C24.6167 14.6659 31.5725 11.3829 31.5725 7.33297C31.5725 3.28308 24.6167 0 16.0363 0C7.45582 0 0.5 3.28308 0.5 7.33297C0.5 11.3829 7.45582 14.6659 16.0363 14.6659Z" fill="#343434"/>
<path d="M24.6087 16.9476C22.145 17.7308 19.2087 18.1962 16.0363 18.1962C7.4525 18.1962 0.5 14.8476 0.5 10.727C0.5 11.4195 0.5 13.9962 0.5 14.6886C0.5 18.8092 7.4525 22.1578 16.0363 22.1578C17.51 22.1578 18.9163 22.0216 20.2663 21.84C21.3463 19.8989 22.7975 18.2076 24.6087 16.9476Z" fill="#343434"/>
<path d="M31.5613 14.4616C31.5613 13.5876 31.5613 11.3627 31.5613 10.727C31.5613 12.3276 30.5037 13.7919 28.7262 15.0065C29.6375 14.7341 30.5825 14.5524 31.5613 14.4616Z" fill="#343434"/>
<path d="M19.1637 24.3032C18.1513 24.4054 17.105 24.4508 16.025 24.4508C7.4525 24.4508 0.5 21.1135 0.5 16.9816C0.5 17.6741 0.5 20.2508 0.5 20.9432C0.5 25.0638 7.4525 28.4124 16.0363 28.4124C16.8463 28.4124 17.6225 28.3557 18.3988 28.2989C18.4662 26.9027 18.7362 25.5632 19.1637 24.3032Z" fill="#343434"/>
<path d="M18.4775 30.5919C17.6787 30.6487 16.8687 30.7054 16.025 30.7054C7.4525 30.7168 0.5 27.3681 0.5 23.2476C0.5 23.94 0.5 26.5168 0.5 27.2092C0.5 31.3297 7.4525 34.6784 16.0363 34.6784C17.1838 34.6784 18.2975 34.6103 19.3888 34.4968C18.8938 33.2708 18.6237 31.9541 18.4775 30.5919Z" fill="#343434"/>
<path d="M28.0963 24.0308C27.1737 24.0308 26.735 25.1092 26.735 26.46C26.735 27.8676 27.2075 28.8892 28.1187 28.8892C29.0075 28.8892 29.435 27.9697 29.435 26.46C29.435 25.0978 29.0638 24.0308 28.0963 24.0308Z" fill="#343434"/>
<path d="M37.7487 29.6497C36.8037 29.6497 36.3875 30.7281 36.3875 32.0789C36.365 33.4865 36.8375 34.5081 37.7487 34.5081C38.6375 34.5081 39.065 33.6 39.065 32.0789C39.0762 30.7054 38.7163 29.6497 37.7487 29.6497Z" fill="#343434"/>
<path d="M32.9 16.5843C25.9475 16.5843 20.3 22.2714 20.3 29.2978C20.3 36.3243 25.9475 42 32.9 42C39.8525 42 45.5 36.313 45.5 29.2865C45.5 22.26 39.8638 16.5843 32.9 16.5843ZM24.4175 26.5508C24.4175 24.1443 25.88 22.3168 28.1637 22.3168C30.47 22.3168 31.7638 24.0195 31.7638 26.3238C31.7638 29.1503 29.9975 30.6259 28.0625 30.6259C26.015 30.6259 24.4175 29.0822 24.4175 26.5508ZM29.885 36.2676H28.22L35.9037 22.3054H37.5913L29.885 36.2676ZM37.6925 36.2335C35.6788 36.2335 34.07 34.7011 34.0475 32.1584C34.0475 29.7519 35.51 27.9243 37.7938 27.9243C40.1 27.9243 41.3937 29.627 41.3937 31.9314C41.3937 34.7578 39.6275 36.2335 37.6925 36.2335Z" fill="#343434"/>
</svg>
