<svg width="46" height="46" viewBox="0 0 46 46" fill="none" xmlns="http://www.w3.org/2000/svg">
<path d="M33.3162 18.0275C32.99 18.0275 32.72 18.2975 32.72 18.635C32.72 22.19 35.5887 25.07 39.11 25.07C42.6312 25.07 45.5 22.1788 45.5 18.635C45.5 18.2975 45.23 18.0275 44.9038 18.0275H43.6325L39.7513 9.59H40.1562C40.82 9.59 41.36 9.05 41.36 8.375C41.36 7.7 40.82 7.16 40.1562 7.16H30.6725C30.11 4.96625 28.0513 3.2 25.385 2.525C25.1938 1.3775 24.2038 0.5 23 0.5C21.7962 0.5 20.8062 1.3775 20.615 2.53625C17.9375 3.21125 15.8788 4.9775 15.3275 7.17125H5.84375C5.18 7.17125 4.64 7.71125 4.64 8.38625C4.64 9.06125 5.18 9.60125 5.84375 9.60125H6.38375L2.5025 18.0387H1.09625C0.77 18.0275 0.5 18.2975 0.5 18.635C0.5 22.19 3.36875 25.07 6.89 25.07C10.4113 25.07 13.28 22.1788 13.28 18.635C13.28 18.2975 13.01 18.0275 12.6838 18.0275H11.4125L7.53125 9.59H16.3625C17.0263 9.59 17.5662 9.05 17.5662 8.375C17.5662 6.94625 18.815 5.68625 20.57 5.0675V36.8037H17.105C15.6988 36.8037 14.5512 38.0638 14.5512 39.6162L7.8575 39.6613C5.2475 39.6613 3.11 41.81 3.11 44.4425V44.8925C3.11 45.23 3.38 45.5 3.70625 45.5H42.2938C42.62 45.5 42.89 45.23 42.89 44.8925V44.4425C42.89 41.81 40.7637 39.6613 38.1425 39.6613H31.4487V39.6162C31.4487 38.0638 30.3013 36.8037 28.895 36.8037H25.43V5.0675C27.185 5.6975 28.4338 6.9575 28.4338 8.375C28.4338 9.03875 28.9737 9.59 29.6375 9.59H38.6037L34.7225 18.0275H33.3162ZM10.0962 18.0275H3.83L6.96875 11.21L10.0962 18.0275ZM24.08 6.76625V17.3188C24.08 17.9375 23.5737 18.4438 22.955 18.4438C22.3362 18.4438 21.83 17.9375 21.83 17.3188V6.76625C21.83 6.1475 22.3362 5.64125 22.955 5.64125C23.5737 5.64125 24.08 6.1475 24.08 6.76625ZM24.08 3.4925V3.515C24.08 4.13375 23.5737 4.64 22.955 4.64C22.3362 4.64 21.83 4.13375 21.83 3.515V3.4925C21.83 2.87375 22.3362 2.3675 22.955 2.3675C23.5737 2.3675 24.08 2.87375 24.08 3.4925ZM39.1775 11.21L42.305 18.0275H36.0387L39.1775 11.21Z" fill="#343434"/>
</svg>
